<?xml version="1.0" encoding="UTF-8" standalone="no"?>
<svg
   height="212.60mm"
   viewBox="0.0 0.0 225.90 212.60"
   width="225.90mm"
   version="1.1"
   id="svg898"
   sodipodi:docname="transparentBox_v4.svg"
   inkscape:version="1.1.2 (b8e25be833, 2022-02-05)"
   xmlns:inkscape="http://www.inkscape.org/namespaces/inkscape"
   xmlns:sodipodi="http://sodipodi.sourceforge.net/DTD/sodipodi-0.dtd"
   xmlns="http://www.w3.org/2000/svg"
   xmlns:svg="http://www.w3.org/2000/svg"
   xmlns:rdf="http://www.w3.org/1999/02/22-rdf-syntax-ns#"
   xmlns:cc="http://creativecommons.org/ns#"
   xmlns:dc="http://purl.org/dc/elements/1.1/">
  <defs
     id="defs902" />
  <sodipodi:namedview
     id="namedview900"
     pagecolor="#ffffff"
     bordercolor="#666666"
     borderopacity="1.0"
     inkscape:pageshadow="2"
     inkscape:pageopacity="0.0"
     inkscape:pagecheckerboard="0"
     inkscape:document-units="mm"
     showgrid="false"
     inkscape:zoom="1.9389502"
     inkscape:cx="128.67788"
     inkscape:cy="205.52358"
     inkscape:window-width="1920"
     inkscape:window-height="1001"
     inkscape:window-x="-9"
     inkscape:window-y="-9"
     inkscape:window-maximized="1"
     inkscape:current-layer="svg898" />
  <!--
ClosedBox - Fully closed box


This box is more of a building block than a finished item.
Use a vector graphics program (like Inkscape) to add holes or adjust the base
plate.

See BasedBox for variant with a base.


Created with Boxes.py (https://festi.info/boxes.py)
Creation date: 2022-05-24 09:34:02
Command line (remove spaces between dashes): boxes ClosedBox - -FingerJoint_angle=90.0 - -FingerJoint_style=rectangular - -FingerJoint_surroundingspaces=2.0 - -FingerJoint_edge_width=1.0 - -FingerJoint_extra_length=0.0 - -FingerJoint_finger=2.0 - -FingerJoint_play=0.0 - -FingerJoint_space=2.0 - -FingerJoint_width=1.0 - -x=81 - -y=111 - -h=30 - -outside=0 - -thickness=3.0 - -format=svg - -tabs=0.0 - -debug=0 - -labels=0 - -labels=1 - -reference=0 - -inner_corners=loop - -burn=0.1
Url: http://www.festi.info/ClosedBox?FingerJoint_angle=90.0&FingerJoint_style=rectangular&FingerJoint_surroundingspaces=2.0&FingerJoint_edge_width=1.0&FingerJoint_extra_length=0.0&FingerJoint_finger=2.0&FingerJoint_play=0.0&FingerJoint_space=2.0&FingerJoint_width=1.0&x=81&y=111&h=30&outside=0&thickness=3.0&format=svg&tabs=0.0&debug=0&labels=0&labels=1&reference=0&inner_corners=loop&burn=0.1&render=1
SettingsUrl: http://www.festi.info/ClosedBox?FingerJoint_angle=90.0&FingerJoint_style=rectangular&FingerJoint_surroundingspaces=2.0&FingerJoint_edge_width=1.0&FingerJoint_extra_length=0.0&FingerJoint_finger=2.0&FingerJoint_play=0.0&FingerJoint_space=2.0&FingerJoint_width=1.0&x=81&y=111&h=30&outside=0&thickness=3.0&format=svg&tabs=0.0&debug=0&labels=0&labels=1&reference=0&inner_corners=loop&burn=0.1
-->
  <title
     id="title864">ClosedBox</title>
  <metadata
     id="metadata866">
    <rdf:RDF>
      <cc:Work>
        <dc:title>ClosedBox</dc:title>
        <dc:date>2022-05-24 09:34:02</dc:date>
        <dc:source>http://www.festi.info/ClosedBox?FingerJoint_angle=90.0&amp;FingerJoint_style=rectangular&amp;FingerJoint_surroundingspaces=2.0&amp;FingerJoint_edge_width=1.0&amp;FingerJoint_extra_length=0.0&amp;FingerJoint_finger=2.0&amp;FingerJoint_play=0.0&amp;FingerJoint_space=2.0&amp;FingerJoint_width=1.0&amp;x=81&amp;y=111&amp;h=30&amp;outside=0&amp;thickness=3.0&amp;format=svg&amp;tabs=0.0&amp;debug=0&amp;labels=0&amp;labels=1&amp;reference=0&amp;inner_corners=loop&amp;burn=0.1&amp;render=1</dc:source>
        <dc:description>Fully closed box

This box is more of a building block than a finished item.
Use a vector graphics program (like Inkscape) to add holes or adjust the base
plate.

See BasedBox for variant with a base.

Created with Boxes.py (https://festi.info/boxes.py)
Command line: boxes ClosedBox --FingerJoint_angle=90.0 --FingerJoint_style=rectangular --FingerJoint_surroundingspaces=2.0 --FingerJoint_edge_width=1.0 --FingerJoint_extra_length=0.0 --FingerJoint_finger=2.0 --FingerJoint_play=0.0 --FingerJoint_space=2.0 --FingerJoint_width=1.0 --x=81 --y=111 --h=30 --outside=0 --thickness=3.0 --format=svg --tabs=0.0 --debug=0 --labels=0 --labels=1 --reference=0 --inner_corners=loop --burn=0.1
Url: http://www.festi.info/ClosedBox?FingerJoint_angle=90.0&amp;FingerJoint_style=rectangular&amp;FingerJoint_surroundingspaces=2.0&amp;FingerJoint_edge_width=1.0&amp;FingerJoint_extra_length=0.0&amp;FingerJoint_finger=2.0&amp;FingerJoint_play=0.0&amp;FingerJoint_space=2.0&amp;FingerJoint_width=1.0&amp;x=81&amp;y=111&amp;h=30&amp;outside=0&amp;thickness=3.0&amp;format=svg&amp;tabs=0.0&amp;debug=0&amp;labels=0&amp;labels=1&amp;reference=0&amp;inner_corners=loop&amp;burn=0.1&amp;render=1
SettingsUrl: http://www.festi.info/ClosedBox?FingerJoint_angle=90.0&amp;FingerJoint_style=rectangular&amp;FingerJoint_surroundingspaces=2.0&amp;FingerJoint_edge_width=1.0&amp;FingerJoint_extra_length=0.0&amp;FingerJoint_finger=2.0&amp;FingerJoint_play=0.0&amp;FingerJoint_space=2.0&amp;FingerJoint_width=1.0&amp;x=81&amp;y=111&amp;h=30&amp;outside=0&amp;thickness=3.0&amp;format=svg&amp;tabs=0.0&amp;debug=0&amp;labels=0&amp;labels=1&amp;reference=0&amp;inner_corners=loop&amp;burn=0.1
</dc:description>
      </cc:Work>
    </rdf:RDF>
  </metadata>
  <g
     id="p-0"
     style="fill:none;stroke-linecap:round;stroke-linejoin:round;">
    <text
       alignment-baseline="hanging"
       font-size="4px"
       style="font-family: sans-serif ; font-weight: normal; font-style: normal; fill: rgb(255,0,0)"
       text-anchor="middle"
       transform="matrix( 1.000 0.000 0.000 1.000 53.600 182.600 )"
       id="text868">Wall 1</text>
    <path
       d="M 13.100 202.600 H 20.600 C 20.655 202.600 20.700 202.555 20.700 202.500 V 199.600 C 20.700 199.500 20.600 199.600 20.700 199.600 H 26.500 C 26.600 199.600 26.500 199.500 26.500 199.600 V 202.500 C 26.500 202.555 26.545 202.600 26.600 202.600 H 32.600 C 32.655 202.600 32.700 202.555 32.700 202.500 V 199.600 C 32.700 199.500 32.600 199.600 32.700 199.600 H 38.500 C 38.600 199.600 38.500 199.500 38.500 199.600 V 202.500 C 38.500 202.555 38.545 202.600 38.600 202.600 H 44.600 C 44.655 202.600 44.700 202.555 44.700 202.500 V 199.600 C 44.700 199.500 44.600 199.600 44.700 199.600 H 50.500 C 50.600 199.600 50.500 199.500 50.500 199.600 V 202.500 C 50.500 202.555 50.545 202.600 50.600 202.600 H 56.600 C 56.655 202.600 56.700 202.555 56.700 202.500 V 199.600 C 56.700 199.500 56.600 199.600 56.700 199.600 H 62.500 C 62.600 199.600 62.500 199.500 62.500 199.600 V 202.500 C 62.500 202.555 62.545 202.600 62.600 202.600 H 68.600 C 68.655 202.600 68.700 202.555 68.700 202.500 V 199.600 C 68.700 199.500 68.600 199.600 68.700 199.600 H 74.500 C 74.600 199.600 74.500 199.500 74.500 199.600 V 202.500 C 74.500 202.555 74.545 202.600 74.600 202.600 H 80.600 C 80.655 202.600 80.700 202.555 80.700 202.500 V 199.600 C 80.700 199.500 80.600 199.600 80.700 199.600 H 86.500 C 86.600 199.600 86.500 199.500 86.500 199.600 V 202.500 C 86.500 202.555 86.545 202.600 86.600 202.600 H 94.100 H 97.100 C 97.155 202.600 97.200 202.555 97.200 202.500 V 199.500 V 193.500 C 97.200 193.445 97.155 193.400 97.100 193.400 H 94.200 C 94.100 193.400 94.200 193.500 94.200 193.400 V 187.600 C 94.200 187.500 94.100 187.600 94.200 187.600 H 97.100 C 97.155 187.600 97.200 187.555 97.200 187.500 V 181.500 C 97.200 181.445 97.155 181.400 97.100 181.400 H 94.200 C 94.100 181.400 94.200 181.500 94.200 181.400 V 175.600 C 94.200 175.500 94.100 175.600 94.200 175.600 H 97.100 C 97.155 175.600 97.200 175.555 97.200 175.500 V 169.500 V 166.500 C 97.200 166.445 97.155 166.400 97.100 166.400 H 94.100 H 86.600 C 86.545 166.400 86.500 166.445 86.500 166.500 V 169.400 C 86.500 169.500 86.600 169.400 86.500 169.400 H 80.700 C 80.600 169.400 80.700 169.500 80.700 169.400 V 166.500 C 80.700 166.445 80.655 166.400 80.600 166.400 H 74.600 C 74.545 166.400 74.500 166.445 74.500 166.500 V 169.400 C 74.500 169.500 74.600 169.400 74.500 169.400 H 68.700 C 68.600 169.400 68.700 169.500 68.700 169.400 V 166.500 C 68.700 166.445 68.655 166.400 68.600 166.400 H 62.600 C 62.545 166.400 62.500 166.445 62.500 166.500 V 169.400 C 62.500 169.500 62.600 169.400 62.500 169.400 H 56.700 C 56.600 169.400 56.700 169.500 56.700 169.400 V 166.500 C 56.700 166.445 56.655 166.400 56.600 166.400 H 50.600 C 50.545 166.400 50.500 166.445 50.500 166.500 V 169.400 C 50.500 169.500 50.600 169.400 50.500 169.400 H 44.700 C 44.600 169.400 44.700 169.500 44.700 169.400 V 166.500 C 44.700 166.445 44.655 166.400 44.600 166.400 H 38.600 C 38.545 166.400 38.500 166.445 38.500 166.500 V 169.400 C 38.500 169.500 38.600 169.400 38.500 169.400 H 32.700 C 32.600 169.400 32.700 169.500 32.700 169.400 V 166.500 C 32.700 166.445 32.655 166.400 32.600 166.400 H 26.600 C 26.545 166.400 26.500 166.445 26.500 166.500 V 169.400 C 26.500 169.500 26.600 169.400 26.500 169.400 H 20.700 C 20.600 169.400 20.700 169.500 20.700 169.400 V 166.500 C 20.700 166.445 20.655 166.400 20.600 166.400 H 13.100 H 10.100 C 10.045 166.400 10.000 166.445 10.000 166.500 V 169.500 V 175.500 C 10.000 175.555 10.045 175.600 10.100 175.600 H 13.000 C 13.100 175.600 13.000 175.500 13.000 175.600 V 181.400 C 13.000 181.500 13.100 181.400 13.000 181.400 H 10.100 C 10.045 181.400 10.000 181.445 10.000 181.500 V 187.500 C 10.000 187.555 10.045 187.600 10.100 187.600 H 13.000 C 13.100 187.600 13.000 187.500 13.000 187.600 V 193.400 C 13.000 193.500 13.100 193.400 13.000 193.400 H 10.100 C 10.045 193.400 10.000 193.445 10.000 193.500 V 199.500 V 202.500 C 10.000 202.555 10.045 202.600 10.100 202.600 H 13.100"
       stroke="rgb(0,0,0)"
       stroke-width="0.20"
       id="path870" />
  </g>
  <g
     id="p-1"
     style="fill:none;stroke-linecap:round;stroke-linejoin:round;">
    <text
       alignment-baseline="hanging"
       font-size="4px"
       style="font-family: sans-serif ; font-weight: normal; font-style: normal; fill: rgb(255,0,0)"
       text-anchor="middle"
       transform="matrix( 1.000 0.000 0.000 1.000 157.300 182.600 )"
       id="text873">Wall 2</text>
    <path
       d="M 101.800 202.600 H 112.300 C 112.355 202.600 112.400 202.555 112.400 202.500 V 199.600 C 112.400 199.500 112.300 199.600 112.400 199.600 H 118.200 C 118.300 199.600 118.200 199.500 118.200 199.600 V 202.500 C 118.200 202.555 118.245 202.600 118.300 202.600 H 124.300 C 124.355 202.600 124.400 202.555 124.400 202.500 V 199.600 C 124.400 199.500 124.300 199.600 124.400 199.600 H 130.200 C 130.300 199.600 130.200 199.500 130.200 199.600 V 202.500 C 130.200 202.555 130.245 202.600 130.300 202.600 H 136.300 C 136.355 202.600 136.400 202.555 136.400 202.500 V 199.600 C 136.400 199.500 136.300 199.600 136.400 199.600 H 142.200 C 142.300 199.600 142.200 199.500 142.200 199.600 V 202.500 C 142.200 202.555 142.245 202.600 142.300 202.600 H 148.300 C 148.355 202.600 148.400 202.555 148.400 202.500 V 199.600 C 148.400 199.500 148.300 199.600 148.400 199.600 H 154.200 C 154.300 199.600 154.200 199.500 154.200 199.600 V 202.500 C 154.200 202.555 154.245 202.600 154.300 202.600 H 160.300 C 160.355 202.600 160.400 202.555 160.400 202.500 V 199.600 C 160.400 199.500 160.300 199.600 160.400 199.600 H 166.200 C 166.300 199.600 166.200 199.500 166.200 199.600 V 202.500 C 166.200 202.555 166.245 202.600 166.300 202.600 H 172.300 C 172.355 202.600 172.400 202.555 172.400 202.500 V 199.600 C 172.400 199.500 172.300 199.600 172.400 199.600 H 178.200 C 178.300 199.600 178.200 199.500 178.200 199.600 V 202.500 C 178.200 202.555 178.245 202.600 178.300 202.600 H 184.300 C 184.355 202.600 184.400 202.555 184.400 202.500 V 199.600 C 184.400 199.500 184.300 199.600 184.400 199.600 H 190.200 C 190.300 199.600 190.200 199.500 190.200 199.600 V 202.500 C 190.200 202.555 190.245 202.600 190.300 202.600 H 196.300 C 196.355 202.600 196.400 202.555 196.400 202.500 V 199.600 C 196.400 199.500 196.300 199.600 196.400 199.600 H 202.200 C 202.300 199.600 202.200 199.500 202.200 199.600 V 202.500 C 202.200 202.555 202.245 202.600 202.300 202.600 H 212.800 C 212.855 202.600 212.900 202.555 212.900 202.500 V 199.500 V 193.600 C 212.900 193.500 212.800 193.600 212.900 193.600 H 215.800 C 215.855 193.600 215.900 193.555 215.900 193.500 V 187.500 C 215.900 187.445 215.855 187.400 215.800 187.400 H 212.900 C 212.800 187.400 212.900 187.500 212.900 187.400 V 181.600 C 212.900 181.500 212.800 181.600 212.900 181.600 H 215.800 C 215.855 181.600 215.900 181.555 215.900 181.500 V 175.500 C 215.900 175.445 215.855 175.400 215.800 175.400 H 212.900 C 212.800 175.400 212.900 175.500 212.900 175.400 V 169.500 V 166.500 C 212.900 166.445 212.855 166.400 212.800 166.400 H 202.300 C 202.245 166.400 202.200 166.445 202.200 166.500 V 169.400 C 202.200 169.500 202.300 169.400 202.200 169.400 H 196.400 C 196.300 169.400 196.400 169.500 196.400 169.400 V 166.500 C 196.400 166.445 196.355 166.400 196.300 166.400 H 190.300 C 190.245 166.400 190.200 166.445 190.200 166.500 V 169.400 C 190.200 169.500 190.300 169.400 190.200 169.400 H 184.400 C 184.300 169.400 184.400 169.500 184.400 169.400 V 166.500 C 184.400 166.445 184.355 166.400 184.300 166.400 H 178.300 C 178.245 166.400 178.200 166.445 178.200 166.500 V 169.400 C 178.200 169.500 178.300 169.400 178.200 169.400 H 172.400 C 172.300 169.400 172.400 169.500 172.400 169.400 V 166.500 C 172.400 166.445 172.355 166.400 172.300 166.400 H 166.300 C 166.245 166.400 166.200 166.445 166.200 166.500 V 169.400 C 166.200 169.500 166.300 169.400 166.200 169.400 H 160.400 C 160.300 169.400 160.400 169.500 160.400 169.400 V 166.500 C 160.400 166.445 160.355 166.400 160.300 166.400 H 154.300 C 154.245 166.400 154.200 166.445 154.200 166.500 V 169.400 C 154.200 169.500 154.300 169.400 154.200 169.400 H 148.400 C 148.300 169.400 148.400 169.500 148.400 169.400 V 166.500 C 148.400 166.445 148.355 166.400 148.300 166.400 H 142.300 C 142.245 166.400 142.200 166.445 142.200 166.500 V 169.400 C 142.200 169.500 142.300 169.400 142.200 169.400 H 136.400 C 136.300 169.400 136.400 169.500 136.400 169.400 V 166.500 C 136.400 166.445 136.355 166.400 136.300 166.400 H 130.300 C 130.245 166.400 130.200 166.445 130.200 166.500 V 169.400 C 130.200 169.500 130.300 169.400 130.200 169.400 H 124.400 C 124.300 169.400 124.400 169.500 124.400 169.400 V 166.500 C 124.400 166.445 124.355 166.400 124.300 166.400 H 118.300 C 118.245 166.400 118.200 166.445 118.200 166.500 V 169.400 C 118.200 169.500 118.300 169.400 118.200 169.400 H 112.400 C 112.300 169.400 112.400 169.500 112.400 169.400 V 166.500 C 112.400 166.445 112.355 166.400 112.300 166.400 H 101.800 C 101.745 166.400 101.700 166.445 101.700 166.500 V 169.500 V 175.400 C 101.700 175.500 101.800 175.400 101.700 175.400 H 98.800 C 98.745 175.400 98.700 175.445 98.700 175.500 V 181.500 C 98.700 181.555 98.745 181.600 98.800 181.600 H 101.700 C 101.800 181.600 101.700 181.500 101.700 181.600 V 187.400 C 101.700 187.500 101.800 187.400 101.700 187.400 H 98.800 C 98.745 187.400 98.700 187.445 98.700 187.500 V 193.500 C 98.700 193.555 98.745 193.600 98.800 193.600 H 101.700 C 101.800 193.600 101.700 193.500 101.700 193.600 V 199.500 V 202.500 C 101.700 202.555 101.745 202.600 101.800 202.600"
       stroke="rgb(0,0,0)"
       stroke-width="0.20"
       id="path875" />
  </g>
  <g
     id="p-2"
     style="fill:none;stroke-linecap:round;stroke-linejoin:round;">
    <text
       alignment-baseline="hanging"
       font-size="4px"
       style="font-family: sans-serif ; font-weight: normal; font-style: normal; fill: rgb(255,0,0)"
       text-anchor="middle"
       transform="matrix( 1.000 0.000 0.000 1.000 157.300 144.900 )"
       id="text878">Wall 4</text>
    <path
       d="M 101.800 164.900 H 112.300 C 112.355 164.900 112.400 164.855 112.400 164.800 V 161.900 C 112.400 161.800 112.300 161.900 112.400 161.900 H 118.200 C 118.300 161.900 118.200 161.800 118.200 161.900 V 164.800 C 118.200 164.855 118.245 164.900 118.300 164.900 H 124.300 C 124.355 164.900 124.400 164.855 124.400 164.800 V 161.900 C 124.400 161.800 124.300 161.900 124.400 161.900 H 130.200 C 130.300 161.900 130.200 161.800 130.200 161.900 V 164.800 C 130.200 164.855 130.245 164.900 130.300 164.900 H 136.300 C 136.355 164.900 136.400 164.855 136.400 164.800 V 161.900 C 136.400 161.800 136.300 161.900 136.400 161.900 H 142.200 C 142.300 161.900 142.200 161.800 142.200 161.900 V 164.800 C 142.200 164.855 142.245 164.900 142.300 164.900 H 148.300 C 148.355 164.900 148.400 164.855 148.400 164.800 V 161.900 C 148.400 161.800 148.300 161.900 148.400 161.900 H 154.200 C 154.300 161.900 154.200 161.800 154.200 161.900 V 164.800 C 154.200 164.855 154.245 164.900 154.300 164.900 H 160.300 C 160.355 164.900 160.400 164.855 160.400 164.800 V 161.900 C 160.400 161.800 160.300 161.900 160.400 161.900 H 166.200 C 166.300 161.900 166.200 161.800 166.200 161.900 V 164.800 C 166.200 164.855 166.245 164.900 166.300 164.900 H 172.300 C 172.355 164.900 172.400 164.855 172.400 164.800 V 161.900 C 172.400 161.800 172.300 161.900 172.400 161.900 H 178.200 C 178.300 161.900 178.200 161.800 178.200 161.900 V 164.800 C 178.200 164.855 178.245 164.900 178.300 164.900 H 184.300 C 184.355 164.900 184.400 164.855 184.400 164.800 V 161.900 C 184.400 161.800 184.300 161.900 184.400 161.900 H 190.200 C 190.300 161.900 190.200 161.800 190.200 161.900 V 164.800 C 190.200 164.855 190.245 164.900 190.300 164.900 H 196.300 C 196.355 164.900 196.400 164.855 196.400 164.800 V 161.900 C 196.400 161.800 196.300 161.900 196.400 161.900 H 202.200 C 202.300 161.900 202.200 161.800 202.200 161.900 V 164.800 C 202.200 164.855 202.245 164.900 202.300 164.900 H 212.800 C 212.855 164.900 212.900 164.855 212.900 164.800 V 161.800 V 155.900 C 212.900 155.800 212.800 155.900 212.900 155.900 H 215.800 C 215.855 155.900 215.900 155.855 215.900 155.800 V 149.800 C 215.900 149.745 215.855 149.700 215.800 149.700 H 212.900 C 212.800 149.700 212.900 149.800 212.900 149.700 V 143.900 C 212.900 143.800 212.800 143.900 212.900 143.900 H 215.800 C 215.855 143.900 215.900 143.855 215.900 143.800 V 137.800 C 215.900 137.745 215.855 137.700 215.800 137.700 H 212.900 C 212.800 137.700 212.900 137.800 212.900 137.700 V 131.800 V 128.800 C 212.900 128.745 212.855 128.700 212.800 128.700 H 202.300 C 202.245 128.700 202.200 128.745 202.200 128.800 V 131.700 C 202.200 131.800 202.300 131.700 202.200 131.700 H 196.400 C 196.300 131.700 196.400 131.800 196.400 131.700 V 128.800 C 196.400 128.745 196.355 128.700 196.300 128.700 H 190.300 C 190.245 128.700 190.200 128.745 190.200 128.800 V 131.700 C 190.200 131.800 190.300 131.700 190.200 131.700 H 184.400 C 184.300 131.700 184.400 131.800 184.400 131.700 V 128.800 C 184.400 128.745 184.355 128.700 184.300 128.700 H 178.300 C 178.245 128.700 178.200 128.745 178.200 128.800 V 131.700 C 178.200 131.800 178.300 131.700 178.200 131.700 H 172.400 C 172.300 131.700 172.400 131.800 172.400 131.700 V 128.800 C 172.400 128.745 172.355 128.700 172.300 128.700 H 166.300 C 166.245 128.700 166.200 128.745 166.200 128.800 V 131.700 C 166.200 131.800 166.300 131.700 166.200 131.700 H 160.400 C 160.300 131.700 160.400 131.800 160.400 131.700 V 128.800 C 160.400 128.745 160.355 128.700 160.300 128.700 H 154.300 C 154.245 128.700 154.200 128.745 154.200 128.800 V 131.700 C 154.200 131.800 154.300 131.700 154.200 131.700 H 148.400 C 148.300 131.700 148.400 131.800 148.400 131.700 V 128.800 C 148.400 128.745 148.355 128.700 148.300 128.700 H 142.300 C 142.245 128.700 142.200 128.745 142.200 128.800 V 131.700 C 142.200 131.800 142.300 131.700 142.200 131.700 H 136.400 C 136.300 131.700 136.400 131.800 136.400 131.700 V 128.800 C 136.400 128.745 136.355 128.700 136.300 128.700 H 130.300 C 130.245 128.700 130.200 128.745 130.200 128.800 V 131.700 C 130.200 131.800 130.300 131.700 130.200 131.700 H 124.400 C 124.300 131.700 124.400 131.800 124.400 131.700 V 128.800 C 124.400 128.745 124.355 128.700 124.300 128.700 H 118.300 C 118.245 128.700 118.200 128.745 118.200 128.800 V 131.700 C 118.200 131.800 118.300 131.700 118.200 131.700 H 112.400 C 112.300 131.700 112.400 131.800 112.400 131.700 V 128.800 C 112.400 128.745 112.355 128.700 112.300 128.700 H 101.800 C 101.745 128.700 101.700 128.745 101.700 128.800 V 131.800 V 137.700 C 101.700 137.800 101.800 137.700 101.700 137.700 H 98.800 C 98.745 137.700 98.700 137.745 98.700 137.800 V 143.800 C 98.700 143.855 98.745 143.900 98.800 143.900 H 101.700 C 101.800 143.900 101.700 143.800 101.700 143.900 V 149.700 C 101.700 149.800 101.800 149.700 101.700 149.700 H 98.800 C 98.745 149.700 98.700 149.745 98.700 149.800 V 155.800 C 98.700 155.855 98.745 155.900 98.800 155.900 H 101.700 C 101.800 155.900 101.700 155.800 101.700 155.900 V 161.800 V 164.800 C 101.700 164.855 101.745 164.900 101.800 164.900"
       stroke="rgb(0,0,0)"
       stroke-width="0.20"
       id="path880" />
  </g>
  <g
     id="p-3"
     style="fill:none;stroke-linecap:round;stroke-linejoin:round;">
    <text
       alignment-baseline="hanging"
       font-size="4px"
       style="font-family: sans-serif ; font-weight: normal; font-style: normal; fill: rgb(255,0,0)"
       text-anchor="middle"
       transform="matrix( 1.000 0.000 0.000 1.000 53.600 144.900 )"
       id="text883">Wall 3</text>
    <path
       d="M 13.100 164.900 H 20.600 C 20.655 164.900 20.700 164.855 20.700 164.800 V 161.900 C 20.700 161.800 20.600 161.900 20.700 161.900 H 26.500 C 26.600 161.900 26.500 161.800 26.500 161.900 V 164.800 C 26.500 164.855 26.545 164.900 26.600 164.900 H 32.600 C 32.655 164.900 32.700 164.855 32.700 164.800 V 161.900 C 32.700 161.800 32.600 161.900 32.700 161.900 H 38.500 C 38.600 161.900 38.500 161.800 38.500 161.900 V 164.800 C 38.500 164.855 38.545 164.900 38.600 164.900 H 44.600 C 44.655 164.900 44.700 164.855 44.700 164.800 V 161.900 C 44.700 161.800 44.600 161.900 44.700 161.900 H 50.500 C 50.600 161.900 50.500 161.800 50.500 161.900 V 164.800 C 50.500 164.855 50.545 164.900 50.600 164.900 H 56.600 C 56.655 164.900 56.700 164.855 56.700 164.800 V 161.900 C 56.700 161.800 56.600 161.900 56.700 161.900 H 62.500 C 62.600 161.900 62.500 161.800 62.500 161.900 V 164.800 C 62.500 164.855 62.545 164.900 62.600 164.900 H 68.600 C 68.655 164.900 68.700 164.855 68.700 164.800 V 161.900 C 68.700 161.800 68.600 161.900 68.700 161.900 H 74.500 C 74.600 161.900 74.500 161.800 74.500 161.900 V 164.800 C 74.500 164.855 74.545 164.900 74.600 164.900 H 80.600 C 80.655 164.900 80.700 164.855 80.700 164.800 V 161.900 C 80.700 161.800 80.600 161.900 80.700 161.900 H 86.500 C 86.600 161.900 86.500 161.800 86.500 161.900 V 164.800 C 86.500 164.855 86.545 164.900 86.600 164.900 H 94.100 H 97.100 C 97.155 164.900 97.200 164.855 97.200 164.800 V 161.800 V 155.800 C 97.200 155.745 97.155 155.700 97.100 155.700 H 94.200 C 94.100 155.700 94.200 155.800 94.200 155.700 V 149.900 C 94.200 149.800 94.100 149.900 94.200 149.900 H 97.100 C 97.155 149.900 97.200 149.855 97.200 149.800 V 143.800 C 97.200 143.745 97.155 143.700 97.100 143.700 H 94.200 C 94.100 143.700 94.200 143.800 94.200 143.700 V 137.900 C 94.200 137.800 94.100 137.900 94.200 137.900 H 97.100 C 97.155 137.900 97.200 137.855 97.200 137.800 V 131.800 V 128.800 C 97.200 128.745 97.155 128.700 97.100 128.700 H 94.100 H 86.600 C 86.545 128.700 86.500 128.745 86.500 128.800 V 131.700 C 86.500 131.800 86.600 131.700 86.500 131.700 H 80.700 C 80.600 131.700 80.700 131.800 80.700 131.700 V 128.800 C 80.700 128.745 80.655 128.700 80.600 128.700 H 74.600 C 74.545 128.700 74.500 128.745 74.500 128.800 V 131.700 C 74.500 131.800 74.600 131.700 74.500 131.700 H 68.700 C 68.600 131.700 68.700 131.800 68.700 131.700 V 128.800 C 68.700 128.745 68.655 128.700 68.600 128.700 H 62.600 C 62.545 128.700 62.500 128.745 62.500 128.800 V 131.700 C 62.500 131.800 62.600 131.700 62.500 131.700 H 56.700 C 56.600 131.700 56.700 131.800 56.700 131.700 V 128.800 C 56.700 128.745 56.655 128.700 56.600 128.700 H 50.600 C 50.545 128.700 50.500 128.745 50.500 128.800 V 131.700 C 50.500 131.800 50.600 131.700 50.500 131.700 H 44.700 C 44.600 131.700 44.700 131.800 44.700 131.700 V 128.800 C 44.700 128.745 44.655 128.700 44.600 128.700 H 38.600 C 38.545 128.700 38.500 128.745 38.500 128.800 V 131.700 C 38.500 131.800 38.600 131.700 38.500 131.700 H 32.700 C 32.600 131.700 32.700 131.800 32.700 131.700 V 128.800 C 32.700 128.745 32.655 128.700 32.600 128.700 H 26.600 C 26.545 128.700 26.500 128.745 26.500 128.800 V 131.700 C 26.500 131.800 26.600 131.700 26.500 131.700 H 20.700 C 20.600 131.700 20.700 131.800 20.700 131.700 V 128.800 C 20.700 128.745 20.655 128.700 20.600 128.700 H 13.100 H 10.100 C 10.045 128.700 10.000 128.745 10.000 128.800 V 131.800 V 137.800 C 10.000 137.855 10.045 137.900 10.100 137.900 H 13.000 C 13.100 137.900 13.000 137.800 13.000 137.900 V 143.700 C 13.000 143.800 13.100 143.700 13.000 143.700 H 10.100 C 10.045 143.700 10.000 143.745 10.000 143.800 V 149.800 C 10.000 149.855 10.045 149.900 10.100 149.900 H 13.000 C 13.100 149.900 13.000 149.800 13.000 149.900 V 155.700 C 13.000 155.800 13.100 155.700 13.000 155.700 H 10.100 C 10.045 155.700 10.000 155.745 10.000 155.800 V 161.800 V 164.800 C 10.000 164.855 10.045 164.900 10.100 164.900 H 13.100"
       stroke="rgb(0,0,0)"
       stroke-width="0.20"
       id="path885" />
  </g>
  <g
     id="p-4"
     style="fill:none;stroke-linecap:round;stroke-linejoin:round;">
    <text
       alignment-baseline="hanging"
       font-size="4px"
       style="font-family: sans-serif ; font-weight: normal; font-style: normal; fill: rgb(255,0,0)"
       text-anchor="middle"
       transform="matrix( 1.000 0.000 0.000 1.000 53.600 66.700 )"
       id="text888">Top</text>
    <path
       d="M 13.100 124.200 H 20.500 C 20.600 124.200 20.500 124.100 20.500 124.200 V 127.100 C 20.500 127.155 20.545 127.200 20.600 127.200 H 26.600 C 26.655 127.200 26.700 127.155 26.700 127.100 V 124.200 C 26.700 124.100 26.600 124.200 26.700 124.200 H 32.500 C 32.600 124.200 32.500 124.100 32.500 124.200 V 127.100 C 32.500 127.155 32.545 127.200 32.600 127.200 H 38.600 C 38.655 127.200 38.700 127.155 38.700 127.100 V 124.200 C 38.700 124.100 38.600 124.200 38.700 124.200 H 44.500 C 44.600 124.200 44.500 124.100 44.500 124.200 V 127.100 C 44.500 127.155 44.545 127.200 44.600 127.200 H 50.600 C 50.655 127.200 50.700 127.155 50.700 127.100 V 124.200 C 50.700 124.100 50.600 124.200 50.700 124.200 H 56.500 C 56.600 124.200 56.500 124.100 56.500 124.200 V 127.100 C 56.500 127.155 56.545 127.200 56.600 127.200 H 62.600 C 62.655 127.200 62.700 127.155 62.700 127.100 V 124.200 C 62.700 124.100 62.600 124.200 62.700 124.200 H 68.500 C 68.600 124.200 68.500 124.100 68.500 124.200 V 127.100 C 68.500 127.155 68.545 127.200 68.600 127.200 H 74.600 C 74.655 127.200 74.700 127.155 74.700 127.100 V 124.200 C 74.700 124.100 74.600 124.200 74.700 124.200 H 80.500 C 80.600 124.200 80.500 124.100 80.500 124.200 V 127.100 C 80.500 127.155 80.545 127.200 80.600 127.200 H 86.600 C 86.655 127.200 86.700 127.155 86.700 127.100 V 124.200 C 86.700 124.100 86.600 124.200 86.700 124.200 H 94.100 C 94.155 124.200 94.200 124.155 94.200 124.100 V 113.700 C 94.200 113.600 94.100 113.700 94.200 113.700 H 97.100 C 97.155 113.700 97.200 113.655 97.200 113.600 V 107.600 C 97.200 107.545 97.155 107.500 97.100 107.500 H 94.200 C 94.100 107.500 94.200 107.600 94.200 107.500 V 101.700 C 94.200 101.600 94.100 101.700 94.200 101.700 H 97.100 C 97.155 101.700 97.200 101.655 97.200 101.600 V 95.600 C 97.200 95.545 97.155 95.500 97.100 95.500 H 94.200 C 94.100 95.500 94.200 95.600 94.200 95.500 V 89.700 C 94.200 89.600 94.100 89.700 94.200 89.700 H 97.100 C 97.155 89.700 97.200 89.655 97.200 89.600 V 83.600 C 97.200 83.545 97.155 83.500 97.100 83.500 H 94.200 C 94.100 83.500 94.200 83.600 94.200 83.500 V 77.700 C 94.200 77.600 94.100 77.700 94.200 77.700 H 97.100 C 97.155 77.700 97.200 77.655 97.200 77.600 V 71.600 C 97.200 71.545 97.155 71.500 97.100 71.500 H 94.200 C 94.100 71.500 94.200 71.600 94.200 71.500 V 65.700 C 94.200 65.600 94.100 65.700 94.200 65.700 H 97.100 C 97.155 65.700 97.200 65.655 97.200 65.600 V 59.600 C 97.200 59.545 97.155 59.500 97.100 59.500 H 94.200 C 94.100 59.500 94.200 59.600 94.200 59.500 V 53.700 C 94.200 53.600 94.100 53.700 94.200 53.700 H 97.100 C 97.155 53.700 97.200 53.655 97.200 53.600 V 47.600 C 97.200 47.545 97.155 47.500 97.100 47.500 H 94.200 C 94.100 47.500 94.200 47.600 94.200 47.500 V 41.700 C 94.200 41.600 94.100 41.700 94.200 41.700 H 97.100 C 97.155 41.700 97.200 41.655 97.200 41.600 V 35.600 C 97.200 35.545 97.155 35.500 97.100 35.500 H 94.200 C 94.100 35.500 94.200 35.600 94.200 35.500 V 29.700 C 94.200 29.600 94.100 29.700 94.200 29.700 H 97.100 C 97.155 29.700 97.200 29.655 97.200 29.600 V 23.600 C 97.200 23.545 97.155 23.500 97.100 23.500 H 94.200 C 94.100 23.500 94.200 23.600 94.200 23.500 V 13.100 C 94.200 13.045 94.155 13.000 94.100 13.000 H 86.700 C 86.600 13.000 86.700 13.100 86.700 13.000 V 10.100 C 86.700 10.045 86.655 10.000 86.600 10.000 H 80.600 C 80.545 10.000 80.500 10.045 80.500 10.100 V 13.000 C 80.500 13.100 80.600 13.000 80.500 13.000 H 74.700 C 74.600 13.000 74.700 13.100 74.700 13.000 V 10.100 C 74.700 10.045 74.655 10.000 74.600 10.000 H 68.600 C 68.545 10.000 68.500 10.045 68.500 10.100 V 13.000 C 68.500 13.100 68.600 13.000 68.500 13.000 H 62.700 C 62.600 13.000 62.700 13.100 62.700 13.000 V 10.100 C 62.700 10.045 62.655 10.000 62.600 10.000 H 56.600 C 56.545 10.000 56.500 10.045 56.500 10.100 V 13.000 C 56.500 13.100 56.600 13.000 56.500 13.000 H 50.700 C 50.600 13.000 50.700 13.100 50.700 13.000 V 10.100 C 50.700 10.045 50.655 10.000 50.600 10.000 H 44.600 C 44.545 10.000 44.500 10.045 44.500 10.100 V 13.000 C 44.500 13.100 44.600 13.000 44.500 13.000 H 38.700 C 38.600 13.000 38.700 13.100 38.700 13.000 V 10.100 C 38.700 10.045 38.655 10.000 38.600 10.000 H 32.600 C 32.545 10.000 32.500 10.045 32.500 10.100 V 13.000 C 32.500 13.100 32.600 13.000 32.500 13.000 H 26.700 C 26.600 13.000 26.700 13.100 26.700 13.000 V 10.100 C 26.700 10.045 26.655 10.000 26.600 10.000 H 20.600 C 20.545 10.000 20.500 10.045 20.500 10.100 V 13.000 C 20.500 13.100 20.600 13.000 20.500 13.000 H 13.100 C 13.045 13.000 13.000 13.045 13.000 13.100 V 23.500 C 13.000 23.600 13.100 23.500 13.000 23.500 H 10.100 C 10.045 23.500 10.000 23.545 10.000 23.600 V 29.600 C 10.000 29.655 10.045 29.700 10.100 29.700 H 13.000 C 13.100 29.700 13.000 29.600 13.000 29.700 V 35.500 C 13.000 35.600 13.100 35.500 13.000 35.500 H 10.100 C 10.045 35.500 10.000 35.545 10.000 35.600 V 41.600 C 10.000 41.655 10.045 41.700 10.100 41.700 H 13.000 C 13.100 41.700 13.000 41.600 13.000 41.700 V 47.500 C 13.000 47.600 13.100 47.500 13.000 47.500 H 10.100 C 10.045 47.500 10.000 47.545 10.000 47.600 V 53.600 C 10.000 53.655 10.045 53.700 10.100 53.700 H 13.000 C 13.100 53.700 13.000 53.600 13.000 53.700 V 59.500 C 13.000 59.600 13.100 59.500 13.000 59.500 H 10.100 C 10.045 59.500 10.000 59.545 10.000 59.600 V 65.600 C 10.000 65.655 10.045 65.700 10.100 65.700 H 13.000 C 13.100 65.700 13.000 65.600 13.000 65.700 V 71.500 C 13.000 71.600 13.100 71.500 13.000 71.500 H 10.100 C 10.045 71.500 10.000 71.545 10.000 71.600 V 77.600 C 10.000 77.655 10.045 77.700 10.100 77.700 H 13.000 C 13.100 77.700 13.000 77.600 13.000 77.700 V 83.500 C 13.000 83.600 13.100 83.500 13.000 83.500 H 10.100 C 10.045 83.500 10.000 83.545 10.000 83.600 V 89.600 C 10.000 89.655 10.045 89.700 10.100 89.700 H 13.000 C 13.100 89.700 13.000 89.600 13.000 89.700 V 95.500 C 13.000 95.600 13.100 95.500 13.000 95.500 H 10.100 C 10.045 95.500 10.000 95.545 10.000 95.600 V 101.600 C 10.000 101.655 10.045 101.700 10.100 101.700 H 13.000 C 13.100 101.700 13.000 101.600 13.000 101.700 V 107.500 C 13.000 107.600 13.100 107.500 13.000 107.500 H 10.100 C 10.045 107.500 10.000 107.545 10.000 107.600 V 113.600 C 10.000 113.655 10.045 113.700 10.100 113.700 H 13.000 C 13.100 113.700 13.000 113.600 13.000 113.700 V 124.100 C 13.000 124.155 13.045 124.200 13.100 124.200"
       stroke="rgb(0,0,0)"
       stroke-width="0.20"
       id="path890" />
  </g>
  <g
     id="p-5"
     style="fill:none;stroke-linecap:round;stroke-linejoin:round;">
    <text
       alignment-baseline="hanging"
       font-size="4px"
       style="font-family: sans-serif ; font-weight: normal; font-style: normal; fill: rgb(255,0,0)"
       text-anchor="middle"
       transform="matrix( 1.000 0.000 0.000 1.000 142.300 66.700 )"
       id="text893">Bottom</text>
    <path
       d="M 101.800 124.200 H 109.200 C 109.300 124.200 109.200 124.100 109.200 124.200 V 127.100 C 109.200 127.155 109.245 127.200 109.300 127.200 H 115.300 C 115.355 127.200 115.400 127.155 115.400 127.100 V 124.200 C 115.400 124.100 115.300 124.200 115.400 124.200 H 121.200 C 121.300 124.200 121.200 124.100 121.200 124.200 V 127.100 C 121.200 127.155 121.245 127.200 121.300 127.200 H 127.300 C 127.355 127.200 127.400 127.155 127.400 127.100 V 124.200 C 127.400 124.100 127.300 124.200 127.400 124.200 H 133.200 C 133.300 124.200 133.200 124.100 133.200 124.200 V 127.100 C 133.200 127.155 133.245 127.200 133.300 127.200 H 139.300 C 139.355 127.200 139.400 127.155 139.400 127.100 V 124.200 C 139.400 124.100 139.300 124.200 139.400 124.200 H 145.200 C 145.300 124.200 145.200 124.100 145.200 124.200 V 127.100 C 145.200 127.155 145.245 127.200 145.300 127.200 H 151.300 C 151.355 127.200 151.400 127.155 151.400 127.100 V 124.200 C 151.400 124.100 151.300 124.200 151.400 124.200 H 157.200 C 157.300 124.200 157.200 124.100 157.200 124.200 V 127.100 C 157.200 127.155 157.245 127.200 157.300 127.200 H 163.300 C 163.355 127.200 163.400 127.155 163.400 127.100 V 124.200 C 163.400 124.100 163.300 124.200 163.400 124.200 H 169.200 C 169.300 124.200 169.200 124.100 169.200 124.200 V 127.100 C 169.200 127.155 169.245 127.200 169.300 127.200 H 175.300 C 175.355 127.200 175.400 127.155 175.400 127.100 V 124.200 C 175.400 124.100 175.300 124.200 175.400 124.200 H 182.800 C 182.855 124.200 182.900 124.155 182.900 124.100 V 113.700 C 182.900 113.600 182.800 113.700 182.900 113.700 H 185.800 C 185.855 113.700 185.900 113.655 185.900 113.600 V 107.600 C 185.900 107.545 185.855 107.500 185.800 107.500 H 182.900 C 182.800 107.500 182.900 107.600 182.900 107.500 V 101.700 C 182.900 101.600 182.800 101.700 182.900 101.700 H 185.800 C 185.855 101.700 185.900 101.655 185.900 101.600 V 95.600 C 185.900 95.545 185.855 95.500 185.800 95.500 H 182.900 C 182.800 95.500 182.900 95.600 182.900 95.500 V 89.700 C 182.900 89.600 182.800 89.700 182.900 89.700 H 185.800 C 185.855 89.700 185.900 89.655 185.900 89.600 V 83.600 C 185.900 83.545 185.855 83.500 185.800 83.500 H 182.900 C 182.800 83.500 182.900 83.600 182.900 83.500 V 77.700 C 182.900 77.600 182.800 77.700 182.900 77.700 H 185.800 C 185.855 77.700 185.900 77.655 185.900 77.600 V 71.600 C 185.900 71.545 185.855 71.500 185.800 71.500 H 182.900 C 182.800 71.500 182.900 71.600 182.900 71.500 V 65.700 C 182.900 65.600 182.800 65.700 182.900 65.700 H 185.800 C 185.855 65.700 185.900 65.655 185.900 65.600 V 59.600 C 185.900 59.545 185.855 59.500 185.800 59.500 H 182.900 C 182.800 59.500 182.900 59.600 182.900 59.500 V 53.700 C 182.900 53.600 182.800 53.700 182.900 53.700 H 185.800 C 185.855 53.700 185.900 53.655 185.900 53.600 V 47.600 C 185.900 47.545 185.855 47.500 185.800 47.500 H 182.900 C 182.800 47.500 182.900 47.600 182.900 47.500 V 41.700 C 182.900 41.600 182.800 41.700 182.900 41.700 H 185.800 C 185.855 41.700 185.900 41.655 185.900 41.600 V 35.600 C 185.900 35.545 185.855 35.500 185.800 35.500 H 182.900 C 182.800 35.500 182.900 35.600 182.900 35.500 V 29.700 C 182.900 29.600 182.800 29.700 182.900 29.700 H 185.800 C 185.855 29.700 185.900 29.655 185.900 29.600 V 23.600 C 185.900 23.545 185.855 23.500 185.800 23.500 H 182.900 C 182.800 23.500 182.900 23.600 182.900 23.500 V 13.100 C 182.900 13.045 182.855 13.000 182.800 13.000 H 175.400 C 175.300 13.000 175.400 13.100 175.400 13.000 V 10.100 C 175.400 10.045 175.355 10.000 175.300 10.000 H 169.300 C 169.245 10.000 169.200 10.045 169.200 10.100 V 13.000 C 169.200 13.100 169.300 13.000 169.200 13.000 H 163.400 C 163.300 13.000 163.400 13.100 163.400 13.000 V 10.100 C 163.400 10.045 163.355 10.000 163.300 10.000 H 157.300 C 157.245 10.000 157.200 10.045 157.200 10.100 V 13.000 C 157.200 13.100 157.300 13.000 157.200 13.000 H 151.400 C 151.300 13.000 151.400 13.100 151.400 13.000 V 10.100 C 151.400 10.045 151.355 10.000 151.300 10.000 H 145.300 C 145.245 10.000 145.200 10.045 145.200 10.100 V 13.000 C 145.200 13.100 145.300 13.000 145.200 13.000 H 139.400 C 139.300 13.000 139.400 13.100 139.400 13.000 V 10.100 C 139.400 10.045 139.355 10.000 139.300 10.000 H 133.300 C 133.245 10.000 133.200 10.045 133.200 10.100 V 13.000 C 133.200 13.100 133.300 13.000 133.200 13.000 H 127.400 C 127.300 13.000 127.400 13.100 127.400 13.000 V 10.100 C 127.400 10.045 127.355 10.000 127.300 10.000 H 121.300 C 121.245 10.000 121.200 10.045 121.200 10.100 V 13.000 C 121.200 13.100 121.300 13.000 121.200 13.000 H 115.400 C 115.300 13.000 115.400 13.100 115.400 13.000 V 10.100 C 115.400 10.045 115.355 10.000 115.300 10.000 H 109.300 C 109.245 10.000 109.200 10.045 109.200 10.100 V 13.000 C 109.200 13.100 109.300 13.000 109.200 13.000 H 101.800 C 101.745 13.000 101.700 13.045 101.700 13.100 V 23.500 C 101.700 23.600 101.800 23.500 101.700 23.500 H 98.800 C 98.745 23.500 98.700 23.545 98.700 23.600 V 29.600 C 98.700 29.655 98.745 29.700 98.800 29.700 H 101.700 C 101.800 29.700 101.700 29.600 101.700 29.700 V 35.500 C 101.700 35.600 101.800 35.500 101.700 35.500 H 98.800 C 98.745 35.500 98.700 35.545 98.700 35.600 V 41.600 C 98.700 41.655 98.745 41.700 98.800 41.700 H 101.700 C 101.800 41.700 101.700 41.600 101.700 41.700 V 47.500 C 101.700 47.600 101.800 47.500 101.700 47.500 H 98.800 C 98.745 47.500 98.700 47.545 98.700 47.600 V 53.600 C 98.700 53.655 98.745 53.700 98.800 53.700 H 101.700 C 101.800 53.700 101.700 53.600 101.700 53.700 V 59.500 C 101.700 59.600 101.800 59.500 101.700 59.500 H 98.800 C 98.745 59.500 98.700 59.545 98.700 59.600 V 65.600 C 98.700 65.655 98.745 65.700 98.800 65.700 H 101.700 C 101.800 65.700 101.700 65.600 101.700 65.700 V 71.500 C 101.700 71.600 101.800 71.500 101.700 71.500 H 98.800 C 98.745 71.500 98.700 71.545 98.700 71.600 V 77.600 C 98.700 77.655 98.745 77.700 98.800 77.700 H 101.700 C 101.800 77.700 101.700 77.600 101.700 77.700 V 83.500 C 101.700 83.600 101.800 83.500 101.700 83.500 H 98.800 C 98.745 83.500 98.700 83.545 98.700 83.600 V 89.600 C 98.700 89.655 98.745 89.700 98.800 89.700 H 101.700 C 101.800 89.700 101.700 89.600 101.700 89.700 V 95.500 C 101.700 95.600 101.800 95.500 101.700 95.500 H 98.800 C 98.745 95.500 98.700 95.545 98.700 95.600 V 101.600 C 98.700 101.655 98.745 101.700 98.800 101.700 H 101.700 C 101.800 101.700 101.700 101.600 101.700 101.700 V 107.500 C 101.700 107.600 101.800 107.500 101.700 107.500 H 98.800 C 98.745 107.500 98.700 107.545 98.700 107.600 V 113.600 C 98.700 113.655 98.745 113.700 98.800 113.700 H 101.700 C 101.800 113.700 101.700 113.600 101.700 113.700 V 124.100 C 101.700 124.155 101.745 124.200 101.800 124.200"
       stroke="rgb(0,0,0)"
       stroke-width="0.20"
       id="path895" />
  </g>
  <circle
     style="fill:none;stroke:#000000;stroke-width:0.22"
     id="path1006"
     cx="23.610001"
     cy="177.61"
     r="3.5" />
  <circle
     style="fill:none;stroke:#000000;stroke-width:0.22"
     id="path1006-7"
     cx="37.610001"
     cy="177.61"
     r="3.5" />
  <circle
     style="fill:none;stroke:#000000;stroke-width:0.22"
     id="path1006-9"
     cx="51.610001"
     cy="177.61"
     r="3.5" />
  <circle
     style="fill:none;stroke:#000000;stroke-width:0.22"
     id="path1006-3"
     cx="23.610001"
     cy="140.11"
     r="3.5" />
  <circle
     style="fill:none;stroke:#000000;stroke-width:0.22"
     id="path1006-7-7"
     cx="37.610001"
     cy="140.11"
     r="3.5" />
  <circle
     style="fill:none;stroke:#000000;stroke-width:0.22"
     id="path1006-9-7"
     cx="51.610001"
     cy="140.11"
     r="3.5" />
  <rect
     style="fill:none;stroke:#000000;stroke-width:0.22"
     id="rect1145"
     width="13"
     height="8"
     x="64.110001"
     y="174.5117" />
  <circle
     style="fill:none;stroke:#000000;stroke-width:0.22"
     id="path1329"
     cx="46.610001"
     cy="38.610001"
     r="2.5" />
  <circle
     style="fill:none;stroke:#000000;stroke-width:0.22"
     id="path1461"
     cx="60.110001"
     cy="137.11"
     r="2.5" />
  <rect
     style="fill:none;stroke:#000000;stroke-width:0.22"
     id="rect1779"
     width="11"
     height="6"
     x="77.110001"
     y="134.11" />
  <circle
     style="fill:none;stroke:#000000;stroke-width:0.22"
     id="path1461-6"
     cx="68.110001"
     cy="137.11"
     r="2.5" />
  <circle
     style="fill:none;stroke:#000000;stroke-width:0.22"
     id="path1939"
     cx="90.360001"
     cy="137.32893"
     r="1.25" />
  <circle
     style="fill:none;stroke:#000000;stroke-width:0.22"
     id="path1939-6"
     cx="74.731255"
     cy="137.25655"
     r="1.25" />
  <rect
     style="fill:none;stroke:#000000;stroke-width:0.22"
     id="rect2114"
     width="18"
     height="9"
     x="170.11"
     y="149.0163" />
  <rect
     style="fill:none;stroke:#000000;stroke-width:0.22"
     id="rect2255"
     width="41"
     height="2"
     x="123.11"
     y="26.472658" />
  <rect
     style="fill:none;stroke:#000000;stroke-width:0.22"
     id="rect2255-9"
     width="41"
     height="2"
     x="123.11"
     y="107.11" />
</svg>
