<?xml version="1.0" encoding="UTF-8" standalone="no"?>
<svg
   height="88.30mm"
   viewBox="0.0 0.0 120.10 88.30"
   width="120.10mm"
   version="1.1"
   id="svg930"
   sodipodi:docname="arms_legsBox_3mm.svg"
   inkscape:version="1.1.2 (b8e25be833, 2022-02-05)"
   xmlns:inkscape="http://www.inkscape.org/namespaces/inkscape"
   xmlns:sodipodi="http://sodipodi.sourceforge.net/DTD/sodipodi-0.dtd"
   xmlns="http://www.w3.org/2000/svg"
   xmlns:svg="http://www.w3.org/2000/svg"
   xmlns:rdf="http://www.w3.org/1999/02/22-rdf-syntax-ns#"
   xmlns:cc="http://creativecommons.org/ns#"
   xmlns:dc="http://purl.org/dc/elements/1.1/">
  <defs
     id="defs934" />
  <sodipodi:namedview
     id="namedview932"
     pagecolor="#ffffff"
     bordercolor="#666666"
     borderopacity="1.0"
     inkscape:pageshadow="2"
     inkscape:pageopacity="0.0"
     inkscape:pagecheckerboard="0"
     inkscape:document-units="mm"
     showgrid="false"
     inkscape:zoom="1.7119778"
     inkscape:cx="185.45801"
     inkscape:cy="91.998857"
     inkscape:window-width="1920"
     inkscape:window-height="1001"
     inkscape:window-x="-9"
     inkscape:window-y="-9"
     inkscape:window-maximized="1"
     inkscape:current-layer="svg930" />
  <!--
ClosedBox - Fully closed box


This box is more of a building block than a finished item.
Use a vector graphics program (like Inkscape) to add holes or adjust the base
plate.

See BasedBox for variant with a base.


Created with Boxes.py (https://festi.info/boxes.py)
Creation date: 2022-06-07 15:40:05
Command line (remove spaces between dashes): boxes ClosedBox - -FingerJoint_angle=90.0 - -FingerJoint_style=rectangular - -FingerJoint_surroundingspaces=2.0 - -FingerJoint_edge_width=1.0 - -FingerJoint_extra_length=0.0 - -FingerJoint_finger=2.0 - -FingerJoint_play=0.0 - -FingerJoint_space=2.0 - -FingerJoint_width=1.0 - -x=27 - -y=25 - -h=5 - -outside=0 - -thickness=3.0 - -format=svg - -tabs=0.0 - -debug=0 - -labels=0 - -labels=1 - -reference=100 - -inner_corners=loop - -burn=0.1
Url: http://www.festi.info/ClosedBox?FingerJoint_angle=90.0&FingerJoint_style=rectangular&FingerJoint_surroundingspaces=2.0&FingerJoint_edge_width=1.0&FingerJoint_extra_length=0.0&FingerJoint_finger=2.0&FingerJoint_play=0.0&FingerJoint_space=2.0&FingerJoint_width=1.0&x=27&y=25&h=5&outside=0&thickness=3.0&format=svg&tabs=0.0&debug=0&labels=0&labels=1&reference=100&inner_corners=loop&burn=0.1&render=1
SettingsUrl: http://www.festi.info/ClosedBox?FingerJoint_angle=90.0&FingerJoint_style=rectangular&FingerJoint_surroundingspaces=2.0&FingerJoint_edge_width=1.0&FingerJoint_extra_length=0.0&FingerJoint_finger=2.0&FingerJoint_play=0.0&FingerJoint_space=2.0&FingerJoint_width=1.0&x=27&y=25&h=5&outside=0&thickness=3.0&format=svg&tabs=0.0&debug=0&labels=0&labels=1&reference=100&inner_corners=loop&burn=0.1
-->
  <title
     id="title891">ClosedBox</title>
  <metadata
     id="metadata893">
    <rdf:RDF>
      <cc:Work>
        <dc:title>Box - ClosedBox</dc:title>
        <dc:date>2022-06-07 15:40:05</dc:date>
        <dc:source>http://www.festi.info/ClosedBox?FingerJoint_angle=90.0&amp;FingerJoint_style=rectangular&amp;FingerJoint_surroundingspaces=2.0&amp;FingerJoint_edge_width=1.0&amp;FingerJoint_extra_length=0.0&amp;FingerJoint_finger=2.0&amp;FingerJoint_play=0.0&amp;FingerJoint_space=2.0&amp;FingerJoint_width=1.0&amp;x=27&amp;y=25&amp;h=5&amp;outside=0&amp;thickness=3.0&amp;format=svg&amp;tabs=0.0&amp;debug=0&amp;labels=0&amp;labels=1&amp;reference=100&amp;inner_corners=loop&amp;burn=0.1&amp;render=1</dc:source>
        <dc:description>Fully closed box

This box is more of a building block than a finished item.
Use a vector graphics program (like Inkscape) to add holes or adjust the base
plate.

See BasedBox for variant with a base.

Created with Boxes.py (https://festi.info/boxes.py)
Command line: boxes ClosedBox --FingerJoint_angle=90.0 --FingerJoint_style=rectangular --FingerJoint_surroundingspaces=2.0 --FingerJoint_edge_width=1.0 --FingerJoint_extra_length=0.0 --FingerJoint_finger=2.0 --FingerJoint_play=0.0 --FingerJoint_space=2.0 --FingerJoint_width=1.0 --x=27 --y=25 --h=5 --outside=0 --thickness=3.0 --format=svg --tabs=0.0 --debug=0 --labels=0 --labels=1 --reference=100 --inner_corners=loop --burn=0.1
Url: http://www.festi.info/ClosedBox?FingerJoint_angle=90.0&amp;FingerJoint_style=rectangular&amp;FingerJoint_surroundingspaces=2.0&amp;FingerJoint_edge_width=1.0&amp;FingerJoint_extra_length=0.0&amp;FingerJoint_finger=2.0&amp;FingerJoint_play=0.0&amp;FingerJoint_space=2.0&amp;FingerJoint_width=1.0&amp;x=27&amp;y=25&amp;h=5&amp;outside=0&amp;thickness=3.0&amp;format=svg&amp;tabs=0.0&amp;debug=0&amp;labels=0&amp;labels=1&amp;reference=100&amp;inner_corners=loop&amp;burn=0.1&amp;render=1
SettingsUrl: http://www.festi.info/ClosedBox?FingerJoint_angle=90.0&amp;FingerJoint_style=rectangular&amp;FingerJoint_surroundingspaces=2.0&amp;FingerJoint_edge_width=1.0&amp;FingerJoint_extra_length=0.0&amp;FingerJoint_finger=2.0&amp;FingerJoint_play=0.0&amp;FingerJoint_space=2.0&amp;FingerJoint_width=1.0&amp;x=27&amp;y=25&amp;h=5&amp;outside=0&amp;thickness=3.0&amp;format=svg&amp;tabs=0.0&amp;debug=0&amp;labels=0&amp;labels=1&amp;reference=100&amp;inner_corners=loop&amp;burn=0.1
</dc:description>
      </cc:Work>
    </rdf:RDF>
  </metadata>
  <g
     id="p-1"
     style="fill:none;stroke-linecap:round;stroke-linejoin:round;">
    <text
       alignment-baseline="hanging"
       font-size="4px"
       style="font-family: sans-serif ; font-weight: normal; font-style: normal; fill: rgb(255,0,0)"
       text-anchor="middle"
       transform="matrix( 1.000 0.000 0.000 1.000 26.600 59.100 )"
       id="text900">Wall 1</text>
    <path
       d="M 13.100 66.600 H 23.600 C 23.655 66.600 23.700 66.555 23.700 66.500 V 63.600 C 23.700 63.500 23.600 63.600 23.700 63.600 H 29.500 C 29.600 63.600 29.500 63.500 29.500 63.600 V 66.500 C 29.500 66.555 29.545 66.600 29.600 66.600 H 40.100 H 43.100 C 43.155 66.600 43.200 66.555 43.200 66.500 V 63.500 V 61.000 V 58.500 V 55.500 C 43.200 55.445 43.155 55.400 43.100 55.400 H 40.100 H 29.600 C 29.545 55.400 29.500 55.445 29.500 55.500 V 58.400 C 29.500 58.500 29.600 58.400 29.500 58.400 H 23.700 C 23.600 58.400 23.700 58.500 23.700 58.400 V 55.500 C 23.700 55.445 23.655 55.400 23.600 55.400 H 13.100 H 10.100 C 10.045 55.400 10.000 55.445 10.000 55.500 V 58.500 V 61.000 V 63.500 V 66.500 C 10.000 66.555 10.045 66.600 10.100 66.600 H 13.100"
       stroke="rgb(0,0,0)"
       stroke-width="0.20"
       id="path902" />
  </g>
  <g
     id="p-2"
     style="fill:none;stroke-linecap:round;stroke-linejoin:round;">
    <text
       alignment-baseline="hanging"
       font-size="4px"
       style="font-family: sans-serif ; font-weight: normal; font-style: normal; fill: rgb(255,0,0)"
       text-anchor="middle"
       transform="matrix( 1.000 0.000 0.000 1.000 60.300 59.100 )"
       id="text905">Wall 2</text>
    <path
       d="M 47.800 66.600 H 57.300 C 57.355 66.600 57.400 66.555 57.400 66.500 V 63.600 C 57.400 63.500 57.300 63.600 57.400 63.600 H 63.200 C 63.300 63.600 63.200 63.500 63.200 63.600 V 66.500 C 63.200 66.555 63.245 66.600 63.300 66.600 H 72.800 C 72.855 66.600 72.900 66.555 72.900 66.500 V 63.500 V 61.000 V 58.500 V 55.500 C 72.900 55.445 72.855 55.400 72.800 55.400 H 63.300 C 63.245 55.400 63.200 55.445 63.200 55.500 V 58.400 C 63.200 58.500 63.300 58.400 63.200 58.400 H 57.400 C 57.300 58.400 57.400 58.500 57.400 58.400 V 55.500 C 57.400 55.445 57.355 55.400 57.300 55.400 H 47.800 C 47.745 55.400 47.700 55.445 47.700 55.500 V 58.500 V 61.000 V 63.500 V 66.500 C 47.700 66.555 47.745 66.600 47.800 66.600"
       stroke="rgb(0,0,0)"
       stroke-width="0.20"
       id="path907" />
  </g>
  <g
     id="p-3"
     style="fill:none;stroke-linecap:round;stroke-linejoin:round;">
    <text
       alignment-baseline="hanging"
       font-size="4px"
       style="font-family: sans-serif ; font-weight: normal; font-style: normal; fill: rgb(255,0,0)"
       text-anchor="middle"
       transform="matrix( 1.000 0.000 0.000 1.000 60.300 46.400 )"
       id="text910">Wall 4</text>
    <path
       d="M 47.800 53.900 H 57.300 C 57.355 53.900 57.400 53.855 57.400 53.800 V 50.900 C 57.400 50.800 57.300 50.900 57.400 50.900 H 63.200 C 63.300 50.900 63.200 50.800 63.200 50.900 V 53.800 C 63.200 53.855 63.245 53.900 63.300 53.900 H 72.800 C 72.855 53.900 72.900 53.855 72.900 53.800 V 50.800 V 48.300 V 45.800 V 42.800 C 72.900 42.745 72.855 42.700 72.800 42.700 H 63.300 C 63.245 42.700 63.200 42.745 63.200 42.800 V 45.700 C 63.200 45.800 63.300 45.700 63.200 45.700 H 57.400 C 57.300 45.700 57.400 45.800 57.400 45.700 V 42.800 C 57.400 42.745 57.355 42.700 57.300 42.700 H 47.800 C 47.745 42.700 47.700 42.745 47.700 42.800 V 45.800 V 48.300 V 50.800 V 53.800 C 47.700 53.855 47.745 53.900 47.800 53.900"
       stroke="rgb(0,0,0)"
       stroke-width="0.20"
       id="path912" />
  </g>
  <g
     id="p-4"
     style="fill:none;stroke-linecap:round;stroke-linejoin:round;">
    <text
       alignment-baseline="hanging"
       font-size="4px"
       style="font-family: sans-serif ; font-weight: normal; font-style: normal; fill: rgb(255,0,0)"
       text-anchor="middle"
       transform="matrix( 1.000 0.000 0.000 1.000 26.600 46.400 )"
       id="text915">Wall 3</text>
    <path
       d="M 13.100 53.900 H 23.600 C 23.655 53.900 23.700 53.855 23.700 53.800 V 50.900 C 23.700 50.800 23.600 50.900 23.700 50.900 H 29.500 C 29.600 50.900 29.500 50.800 29.500 50.900 V 53.800 C 29.500 53.855 29.545 53.900 29.600 53.900 H 40.100 H 43.100 C 43.155 53.900 43.200 53.855 43.200 53.800 V 50.800 V 48.300 V 45.800 V 42.800 C 43.200 42.745 43.155 42.700 43.100 42.700 H 40.100 H 29.600 C 29.545 42.700 29.500 42.745 29.500 42.800 V 45.700 C 29.500 45.800 29.600 45.700 29.500 45.700 H 23.700 C 23.600 45.700 23.700 45.800 23.700 45.700 V 42.800 C 23.700 42.745 23.655 42.700 23.600 42.700 H 13.100 H 10.100 C 10.045 42.700 10.000 42.745 10.000 42.800 V 45.800 V 48.300 V 50.800 V 53.800 C 10.000 53.855 10.045 53.900 10.100 53.900 H 13.100"
       stroke="rgb(0,0,0)"
       stroke-width="0.20"
       id="path917" />
  </g>
  <g
     id="p-5"
     style="fill:none;stroke-linecap:round;stroke-linejoin:round;">
    <text
       alignment-baseline="hanging"
       font-size="4px"
       style="font-family: sans-serif ; font-weight: normal; font-style: normal; fill: rgb(255,0,0)"
       text-anchor="middle"
       transform="matrix( 1.000 0.000 0.000 1.000 26.600 23.700 )"
       id="text920">Top</text>
    <path
       d="M 13.100 38.200 H 23.500 C 23.600 38.200 23.500 38.100 23.500 38.200 V 41.100 C 23.500 41.155 23.545 41.200 23.600 41.200 H 29.600 C 29.655 41.200 29.700 41.155 29.700 41.100 V 38.200 C 29.700 38.100 29.600 38.200 29.700 38.200 H 40.100 C 40.155 38.200 40.200 38.155 40.200 38.100 V 28.700 C 40.200 28.600 40.100 28.700 40.200 28.700 H 43.100 C 43.155 28.700 43.200 28.655 43.200 28.600 V 22.600 C 43.200 22.545 43.155 22.500 43.100 22.500 H 40.200 C 40.100 22.500 40.200 22.600 40.200 22.500 V 13.100 C 40.200 13.045 40.155 13.000 40.100 13.000 H 29.700 C 29.600 13.000 29.700 13.100 29.700 13.000 V 10.100 C 29.700 10.045 29.655 10.000 29.600 10.000 H 23.600 C 23.545 10.000 23.500 10.045 23.500 10.100 V 13.000 C 23.500 13.100 23.600 13.000 23.500 13.000 H 13.100 C 13.045 13.000 13.000 13.045 13.000 13.100 V 22.500 C 13.000 22.600 13.100 22.500 13.000 22.500 H 10.100 C 10.045 22.500 10.000 22.545 10.000 22.600 V 28.600 C 10.000 28.655 10.045 28.700 10.100 28.700 H 13.000 C 13.100 28.700 13.000 28.600 13.000 28.700 V 38.100 C 13.000 38.155 13.045 38.200 13.100 38.200"
       stroke="rgb(0,0,0)"
       stroke-width="0.20"
       id="path922" />
  </g>
  <g
     id="p-6"
     style="fill:none;stroke-linecap:round;stroke-linejoin:round;">
    <text
       alignment-baseline="hanging"
       font-size="4px"
       style="font-family: sans-serif ; font-weight: normal; font-style: normal; fill: rgb(255,0,0)"
       text-anchor="middle"
       transform="matrix( 1.000 0.000 0.000 1.000 61.300 23.700 )"
       id="text925">Bottom</text>
    <path
       d="M 47.800 38.200 H 58.200 C 58.300 38.200 58.200 38.100 58.200 38.200 V 41.100 C 58.200 41.155 58.245 41.200 58.300 41.200 H 64.300 C 64.355 41.200 64.400 41.155 64.400 41.100 V 38.200 C 64.400 38.100 64.300 38.200 64.400 38.200 H 74.800 C 74.855 38.200 74.900 38.155 74.900 38.100 V 28.700 C 74.900 28.600 74.800 28.700 74.900 28.700 H 77.800 C 77.855 28.700 77.900 28.655 77.900 28.600 V 22.600 C 77.900 22.545 77.855 22.500 77.800 22.500 H 74.900 C 74.800 22.500 74.900 22.600 74.900 22.500 V 13.100 C 74.900 13.045 74.855 13.000 74.800 13.000 H 64.400 C 64.300 13.000 64.400 13.100 64.400 13.000 V 10.100 C 64.400 10.045 64.355 10.000 64.300 10.000 H 58.300 C 58.245 10.000 58.200 10.045 58.200 10.100 V 13.000 C 58.200 13.100 58.300 13.000 58.200 13.000 H 47.800 C 47.745 13.000 47.700 13.045 47.700 13.100 V 22.500 C 47.700 22.600 47.800 22.500 47.700 22.500 H 44.800 C 44.745 22.500 44.700 22.545 44.700 22.600 V 28.600 C 44.700 28.655 44.745 28.700 44.800 28.700 H 47.700 C 47.800 28.700 47.700 28.600 47.700 28.700 V 38.100 C 47.700 38.155 47.745 38.200 47.800 38.200"
       stroke="rgb(0,0,0)"
       stroke-width="0.20"
       id="path927" />
  </g>
  <circle
     style="fill:none;stroke:#000000;stroke-width:0.22"
     id="path1230"
     cx="49.990246"
     cy="15.78435"
     r="1" />
  <circle
     style="fill:none;stroke:#000000;stroke-width:0.22"
     id="path1230-7"
     cx="50.387794"
     cy="35.194351"
     r="1" />
  <circle
     style="fill:none;stroke:#000000;stroke-width:0.22"
     id="path1230-4"
     cx="72.102951"
     cy="15.804943"
     r="1" />
  <circle
     style="fill:none;stroke:#000000;stroke-width:0.22"
     id="path1230-8"
     cx="71.97934"
     cy="35.834797"
     r="1" />
  <circle
     style="fill:none;stroke:#000000;stroke-width:0.22;stroke-linecap:round;stroke-linejoin:round"
     id="path1270"
     cx="16.973091"
     cy="34.309734"
     r="1.5" />
  <circle
     style="fill:none;stroke:#000000;stroke-width:0.22;stroke-linecap:round;stroke-linejoin:round"
     id="path1272"
     cx="22.629921"
     cy="34.309734"
     r="1.5" />
</svg>
