<?xml version="1.0" encoding="UTF-8" standalone="no"?>
<svg
   height="69.60mm"
   viewBox="0.0 0.0 99.40 69.60"
   width="99.40mm"
   version="1.1"
   id="svg1122"
   sodipodi:docname="armsBox.svg"
   inkscape:version="1.1.2 (b8e25be833, 2022-02-05)"
   xmlns:inkscape="http://www.inkscape.org/namespaces/inkscape"
   xmlns:sodipodi="http://sodipodi.sourceforge.net/DTD/sodipodi-0.dtd"
   xmlns="http://www.w3.org/2000/svg"
   xmlns:svg="http://www.w3.org/2000/svg"
   xmlns:rdf="http://www.w3.org/1999/02/22-rdf-syntax-ns#"
   xmlns:cc="http://creativecommons.org/ns#"
   xmlns:dc="http://purl.org/dc/elements/1.1/">
  <defs
     id="defs1126" />
  <sodipodi:namedview
     id="namedview1124"
     pagecolor="#ffffff"
     bordercolor="#666666"
     borderopacity="1.0"
     inkscape:pageshadow="2"
     inkscape:pageopacity="0.0"
     inkscape:pagecheckerboard="0"
     inkscape:document-units="mm"
     showgrid="false"
     inkscape:zoom="4.1879907"
     inkscape:cx="208.3338"
     inkscape:cy="148.16174"
     inkscape:window-width="1920"
     inkscape:window-height="1001"
     inkscape:window-x="-9"
     inkscape:window-y="-9"
     inkscape:window-maximized="1"
     inkscape:current-layer="p-3" />
  <!--
ClosedBox - Fully closed box


This box is more of a building block than a finished item.
Use a vector graphics program (like Inkscape) to add holes or adjust the base
plate.

See BasedBox for variant with a base.


Created with Boxes.py (https://festi.info/boxes.py)
Creation date: 2022-05-24 13:48:46
Command line (remove spaces between dashes): boxes ClosedBox - -FingerJoint_angle=90.0 - -FingerJoint_style=rectangular - -FingerJoint_surroundingspaces=2.0 - -FingerJoint_edge_width=1.0 - -FingerJoint_extra_length=0.0 - -FingerJoint_finger=2.0 - -FingerJoint_play=0.0 - -FingerJoint_space=2.0 - -FingerJoint_width=1.0 - -x=35 - -y=25 - -h=5 - -outside=0 - -thickness=2.0 - -format=svg - -tabs=0.0 - -debug=0 - -labels=0 - -labels=1 - -reference=0 - -inner_corners=loop - -burn=0.1
Url: http://www.festi.info/ClosedBox?FingerJoint_angle=90.0&FingerJoint_style=rectangular&FingerJoint_surroundingspaces=2.0&FingerJoint_edge_width=1.0&FingerJoint_extra_length=0.0&FingerJoint_finger=2.0&FingerJoint_play=0.0&FingerJoint_space=2.0&FingerJoint_width=1.0&x=35&y=25&h=5&outside=0&thickness=2.0&format=svg&tabs=0.0&debug=0&labels=0&labels=1&reference=0&inner_corners=loop&burn=0.1&render=1
SettingsUrl: http://www.festi.info/ClosedBox?FingerJoint_angle=90.0&FingerJoint_style=rectangular&FingerJoint_surroundingspaces=2.0&FingerJoint_edge_width=1.0&FingerJoint_extra_length=0.0&FingerJoint_finger=2.0&FingerJoint_play=0.0&FingerJoint_space=2.0&FingerJoint_width=1.0&x=35&y=25&h=5&outside=0&thickness=2.0&format=svg&tabs=0.0&debug=0&labels=0&labels=1&reference=0&inner_corners=loop&burn=0.1
-->
  <title
     id="title1088">ClosedBox</title>
  <metadata
     id="metadata1090">
    <rdf:RDF>
      <cc:Work>
        <dc:title>Box - ClosedBox</dc:title>
        <dc:date>2022-05-24 13:48:46</dc:date>
        <dc:source>http://www.festi.info/ClosedBox?FingerJoint_angle=90.0&amp;FingerJoint_style=rectangular&amp;FingerJoint_surroundingspaces=2.0&amp;FingerJoint_edge_width=1.0&amp;FingerJoint_extra_length=0.0&amp;FingerJoint_finger=2.0&amp;FingerJoint_play=0.0&amp;FingerJoint_space=2.0&amp;FingerJoint_width=1.0&amp;x=35&amp;y=25&amp;h=5&amp;outside=0&amp;thickness=2.0&amp;format=svg&amp;tabs=0.0&amp;debug=0&amp;labels=0&amp;labels=1&amp;reference=0&amp;inner_corners=loop&amp;burn=0.1&amp;render=1</dc:source>
        <dc:description>Fully closed box

This box is more of a building block than a finished item.
Use a vector graphics program (like Inkscape) to add holes or adjust the base
plate.

See BasedBox for variant with a base.

Created with Boxes.py (https://festi.info/boxes.py)
Command line: boxes ClosedBox --FingerJoint_angle=90.0 --FingerJoint_style=rectangular --FingerJoint_surroundingspaces=2.0 --FingerJoint_edge_width=1.0 --FingerJoint_extra_length=0.0 --FingerJoint_finger=2.0 --FingerJoint_play=0.0 --FingerJoint_space=2.0 --FingerJoint_width=1.0 --x=35 --y=25 --h=5 --outside=0 --thickness=2.0 --format=svg --tabs=0.0 --debug=0 --labels=0 --labels=1 --reference=0 --inner_corners=loop --burn=0.1
Url: http://www.festi.info/ClosedBox?FingerJoint_angle=90.0&amp;FingerJoint_style=rectangular&amp;FingerJoint_surroundingspaces=2.0&amp;FingerJoint_edge_width=1.0&amp;FingerJoint_extra_length=0.0&amp;FingerJoint_finger=2.0&amp;FingerJoint_play=0.0&amp;FingerJoint_space=2.0&amp;FingerJoint_width=1.0&amp;x=35&amp;y=25&amp;h=5&amp;outside=0&amp;thickness=2.0&amp;format=svg&amp;tabs=0.0&amp;debug=0&amp;labels=0&amp;labels=1&amp;reference=0&amp;inner_corners=loop&amp;burn=0.1&amp;render=1
SettingsUrl: http://www.festi.info/ClosedBox?FingerJoint_angle=90.0&amp;FingerJoint_style=rectangular&amp;FingerJoint_surroundingspaces=2.0&amp;FingerJoint_edge_width=1.0&amp;FingerJoint_extra_length=0.0&amp;FingerJoint_finger=2.0&amp;FingerJoint_play=0.0&amp;FingerJoint_space=2.0&amp;FingerJoint_width=1.0&amp;x=35&amp;y=25&amp;h=5&amp;outside=0&amp;thickness=2.0&amp;format=svg&amp;tabs=0.0&amp;debug=0&amp;labels=0&amp;labels=1&amp;reference=0&amp;inner_corners=loop&amp;burn=0.1
</dc:description>
      </cc:Work>
    </rdf:RDF>
  </metadata>
  <g
     id="p-0"
     style="fill:none;stroke-linecap:round;stroke-linejoin:round;">
    <text
       alignment-baseline="hanging"
       font-size="4px"
       style="font-family: sans-serif ; font-weight: normal; font-style: normal; fill: rgb(255,0,0)"
       text-anchor="middle"
       transform="matrix( 1.000 0.000 0.000 1.000 29.600 53.100 )"
       id="text1092">Wall 1</text>
    <path
       d="M 12.100 59.600 H 19.600 C 19.655 59.600 19.700 59.555 19.700 59.500 V 57.600 C 19.700 57.500 19.600 57.600 19.700 57.600 H 23.500 C 23.600 57.600 23.500 57.500 23.500 57.600 V 59.500 C 23.500 59.555 23.545 59.600 23.600 59.600 H 27.600 C 27.655 59.600 27.700 59.555 27.700 59.500 V 57.600 C 27.700 57.500 27.600 57.600 27.700 57.600 H 31.500 C 31.600 57.600 31.500 57.500 31.500 57.600 V 59.500 C 31.500 59.555 31.545 59.600 31.600 59.600 H 35.600 C 35.655 59.600 35.700 59.555 35.700 59.500 V 57.600 C 35.700 57.500 35.600 57.600 35.700 57.600 H 39.500 C 39.600 57.600 39.500 57.500 39.500 57.600 V 59.500 C 39.500 59.555 39.545 59.600 39.600 59.600 H 47.100 H 49.100 C 49.155 59.600 49.200 59.555 49.200 59.500 V 57.500 V 55.000 V 52.500 V 50.500 C 49.200 50.445 49.155 50.400 49.100 50.400 H 47.100 H 39.600 C 39.545 50.400 39.500 50.445 39.500 50.500 V 52.400 C 39.500 52.500 39.600 52.400 39.500 52.400 H 35.700 C 35.600 52.400 35.700 52.500 35.700 52.400 V 50.500 C 35.700 50.445 35.655 50.400 35.600 50.400 H 31.600 C 31.545 50.400 31.500 50.445 31.500 50.500 V 52.400 C 31.500 52.500 31.600 52.400 31.500 52.400 H 27.700 C 27.600 52.400 27.700 52.500 27.700 52.400 V 50.500 C 27.700 50.445 27.655 50.400 27.600 50.400 H 23.600 C 23.545 50.400 23.500 50.445 23.500 50.500 V 52.400 C 23.500 52.500 23.600 52.400 23.500 52.400 H 19.700 C 19.600 52.400 19.700 52.500 19.700 52.400 V 50.500 C 19.700 50.445 19.655 50.400 19.600 50.400 H 12.100 H 10.100 C 10.045 50.400 10.000 50.445 10.000 50.500 V 52.500 V 55.000 V 57.500 V 59.500 C 10.000 59.555 10.045 59.600 10.100 59.600 H 12.100"
       stroke="rgb(0,0,0)"
       stroke-width="0.20"
       id="path1094" />
  </g>
  <g
     id="p-1"
     style="fill:none;stroke-linecap:round;stroke-linejoin:round;">
    <text
       alignment-baseline="hanging"
       font-size="4px"
       style="font-family: sans-serif ; font-weight: normal; font-style: normal; fill: rgb(255,0,0)"
       text-anchor="middle"
       transform="matrix( 1.000 0.000 0.000 1.000 64.800 53.100 )"
       id="text1097">Wall 2</text>
    <path
       d="M 52.300 59.600 H 58.800 C 58.855 59.600 58.900 59.555 58.900 59.500 V 57.600 C 58.900 57.500 58.800 57.600 58.900 57.600 H 62.700 C 62.800 57.600 62.700 57.500 62.700 57.600 V 59.500 C 62.700 59.555 62.745 59.600 62.800 59.600 H 66.800 C 66.855 59.600 66.900 59.555 66.900 59.500 V 57.600 C 66.900 57.500 66.800 57.600 66.900 57.600 H 70.700 C 70.800 57.600 70.700 57.500 70.700 57.600 V 59.500 C 70.700 59.555 70.745 59.600 70.800 59.600 H 77.300 C 77.355 59.600 77.400 59.555 77.400 59.500 V 57.500 V 55.000 V 52.500 V 50.500 C 77.400 50.445 77.355 50.400 77.300 50.400 H 70.800 C 70.745 50.400 70.700 50.445 70.700 50.500 V 52.400 C 70.700 52.500 70.800 52.400 70.700 52.400 H 66.900 C 66.800 52.400 66.900 52.500 66.900 52.400 V 50.500 C 66.900 50.445 66.855 50.400 66.800 50.400 H 62.800 C 62.745 50.400 62.700 50.445 62.700 50.500 V 52.400 C 62.700 52.500 62.800 52.400 62.700 52.400 H 58.900 C 58.800 52.400 58.900 52.500 58.900 52.400 V 50.500 C 58.900 50.445 58.855 50.400 58.800 50.400 H 52.300 C 52.245 50.400 52.200 50.445 52.200 50.500 V 52.500 V 55.000 V 57.500 V 59.500 C 52.200 59.555 52.245 59.600 52.300 59.600"
       stroke="rgb(0,0,0)"
       stroke-width="0.20"
       id="path1099" />
  </g>
  <g
     id="p-2"
     style="fill:none;stroke-linecap:round;stroke-linejoin:round;">
    <text
       alignment-baseline="hanging"
       font-size="4px"
       style="font-family: sans-serif ; font-weight: normal; font-style: normal; fill: rgb(255,0,0)"
       text-anchor="middle"
       transform="matrix( 1.000 0.000 0.000 1.000 64.800 42.900 )"
       id="text1102">Wall 4</text>
    <path
       d="M 52.300 49.400 H 58.800 C 58.855 49.400 58.900 49.355 58.900 49.300 V 47.400 C 58.900 47.300 58.800 47.400 58.900 47.400 H 62.700 C 62.800 47.400 62.700 47.300 62.700 47.400 V 49.300 C 62.700 49.355 62.745 49.400 62.800 49.400 H 66.800 C 66.855 49.400 66.900 49.355 66.900 49.300 V 47.400 C 66.900 47.300 66.800 47.400 66.900 47.400 H 70.700 C 70.800 47.400 70.700 47.300 70.700 47.400 V 49.300 C 70.700 49.355 70.745 49.400 70.800 49.400 H 77.300 C 77.355 49.400 77.400 49.355 77.400 49.300 V 47.300 V 44.800 V 42.300 V 40.300 C 77.400 40.245 77.355 40.200 77.300 40.200 H 70.800 C 70.745 40.200 70.700 40.245 70.700 40.300 V 42.200 C 70.700 42.300 70.800 42.200 70.700 42.200 H 66.900 C 66.800 42.200 66.900 42.300 66.900 42.200 V 40.300 C 66.900 40.245 66.855 40.200 66.800 40.200 H 62.800 C 62.745 40.200 62.700 40.245 62.700 40.300 V 42.200 C 62.700 42.300 62.800 42.200 62.700 42.200 H 58.900 C 58.800 42.200 58.900 42.300 58.900 42.200 V 40.300 C 58.900 40.245 58.855 40.200 58.800 40.200 H 52.300 C 52.245 40.200 52.200 40.245 52.200 40.300 V 42.300 V 44.800 V 47.300 V 49.300 C 52.200 49.355 52.245 49.400 52.300 49.400"
       stroke="rgb(0,0,0)"
       stroke-width="0.20"
       id="path1104" />
  </g>
  <g
     id="p-3"
     style="fill:none;stroke-linecap:round;stroke-linejoin:round"
     transform="translate(-0.72653177)">
    <text
       alignment-baseline="hanging"
       font-size="4px"
       style="font-style:normal;font-weight:normal;font-family:sans-serif;fill:#ff0000"
       text-anchor="middle"
       transform="translate(29.6,42.9)"
       id="text1107">Wall 3</text>
    <path
       d="m 12.1,49.4 h 7.5 c 0.055,0 0.1,-0.045 0.1,-0.1 v -1.9 c 0,-0.1 -0.1,0 0,0 h 3.8 c 0.1,0 0,-0.1 0,0 v 1.9 c 0,0.055 0.045,0.1 0.1,0.1 h 4 c 0.055,0 0.1,-0.045 0.1,-0.1 v -1.9 c 0,-0.1 -0.1,0 0,0 h 3.8 c 0.1,0 0,-0.1 0,0 v 1.9 c 0,0.055 0.045,0.1 0.1,0.1 h 4 c 0.055,0 0.1,-0.045 0.1,-0.1 v -1.9 c 0,-0.1 -0.1,0 0,0 h 3.8 c 0.1,0 0,-0.1 0,0 v 1.9 c 0,0.055 0.045,0.1 0.1,0.1 h 7.5 2 c 0.055,0 0.1,-0.045 0.1,-0.1 v -2 -2.5 -2.5 -2 c 0,-0.055 -0.045,-0.1 -0.1,-0.1 h -2 -7.5 c -0.055,0 -0.1,0.045 -0.1,0.1 v 1.9 c 0,0.1 0.1,0 0,0 h -3.8 c -0.1,0 0,0.1 0,0 v -1.9 c 0,-0.055 -0.045,-0.1 -0.1,-0.1 h -4 c -0.055,0 -0.1,0.045 -0.1,0.1 v 1.9 c 0,0.1 0.1,0 0,0 h -3.8 c -0.1,0 0,0.1 0,0 v -1.9 c 0,-0.055 -0.045,-0.1 -0.1,-0.1 h -4 c -0.055,0 -0.1,0.045 -0.1,0.1 v 1.9 c 0,0.1 0.101584,3.315608 0.0016,3.315608 h -3.8 c -0.438003,0 -3.973408,0.158037 -3.973468,0 l -0.0016,-4.183703 c -2.1e-5,-0.055 0.055,-1.131905 0,-1.131905 H 12.1 h -2 c -0.055,0 -0.1,0.045 -0.1,0.1 v 2 2.5 2.5 2 c 0,0.055 0.045,0.1 0.1,0.1 h 2"
       stroke="#000000"
       stroke-width="0.2"
       id="path1109"
       sodipodi:nodetypes="csssssssssssssssssssssssscsscccsscsssssssssssssssssssssssscsscccssc" />
  </g>
  <g
     id="p-4"
     style="fill:none;stroke-linecap:round;stroke-linejoin:round;">
    <text
       alignment-baseline="hanging"
       font-size="4px"
       style="font-family: sans-serif ; font-weight: normal; font-style: normal; fill: rgb(255,0,0)"
       text-anchor="middle"
       transform="matrix( 1.000 0.000 0.000 1.000 29.600 22.700 )"
       id="text1112">Top</text>
    <path
       d="M 12.100 37.200 H 19.500 C 19.600 37.200 19.500 37.100 19.500 37.200 V 39.100 C 19.500 39.155 19.545 39.200 19.600 39.200 H 23.600 C 23.655 39.200 23.700 39.155 23.700 39.100 V 37.200 C 23.700 37.100 23.600 37.200 23.700 37.200 H 27.500 C 27.600 37.200 27.500 37.100 27.500 37.200 V 39.100 C 27.500 39.155 27.545 39.200 27.600 39.200 H 31.600 C 31.655 39.200 31.700 39.155 31.700 39.100 V 37.200 C 31.700 37.100 31.600 37.200 31.700 37.200 H 35.500 C 35.600 37.200 35.500 37.100 35.500 37.200 V 39.100 C 35.500 39.155 35.545 39.200 35.600 39.200 H 39.600 C 39.655 39.200 39.700 39.155 39.700 39.100 V 37.200 C 39.700 37.100 39.600 37.200 39.700 37.200 H 47.100 C 47.155 37.200 47.200 37.155 47.200 37.100 V 30.700 C 47.200 30.600 47.100 30.700 47.200 30.700 H 49.100 C 49.155 30.700 49.200 30.655 49.200 30.600 V 26.600 C 49.200 26.545 49.155 26.500 49.100 26.500 H 47.200 C 47.100 26.500 47.200 26.600 47.200 26.500 V 22.700 C 47.200 22.600 47.100 22.700 47.200 22.700 H 49.100 C 49.155 22.700 49.200 22.655 49.200 22.600 V 18.600 C 49.200 18.545 49.155 18.500 49.100 18.500 H 47.200 C 47.100 18.500 47.200 18.600 47.200 18.500 V 12.100 C 47.200 12.045 47.155 12.000 47.100 12.000 H 39.700 C 39.600 12.000 39.700 12.100 39.700 12.000 V 10.100 C 39.700 10.045 39.655 10.000 39.600 10.000 H 35.600 C 35.545 10.000 35.500 10.045 35.500 10.100 V 12.000 C 35.500 12.100 35.600 12.000 35.500 12.000 H 31.700 C 31.600 12.000 31.700 12.100 31.700 12.000 V 10.100 C 31.700 10.045 31.655 10.000 31.600 10.000 H 27.600 C 27.545 10.000 27.500 10.045 27.500 10.100 V 12.000 C 27.500 12.100 27.600 12.000 27.500 12.000 H 23.700 C 23.600 12.000 23.700 12.100 23.700 12.000 V 10.100 C 23.700 10.045 23.655 10.000 23.600 10.000 H 19.600 C 19.545 10.000 19.500 10.045 19.500 10.100 V 12.000 C 19.500 12.100 19.600 12.000 19.500 12.000 H 12.100 C 12.045 12.000 12.000 12.045 12.000 12.100 V 18.500 C 12.000 18.600 12.100 18.500 12.000 18.500 H 10.100 C 10.045 18.500 10.000 18.545 10.000 18.600 V 22.600 C 10.000 22.655 10.045 22.700 10.100 22.700 H 12.000 C 12.100 22.700 12.000 22.600 12.000 22.700 V 26.500 C 12.000 26.600 12.100 26.500 12.000 26.500 H 10.100 C 10.045 26.500 10.000 26.545 10.000 26.600 V 30.600 C 10.000 30.655 10.045 30.700 10.100 30.700 H 12.000 C 12.100 30.700 12.000 30.600 12.000 30.700 V 37.100 C 12.000 37.155 12.045 37.200 12.100 37.200"
       stroke="rgb(0,0,0)"
       stroke-width="0.20"
       id="path1114" />
  </g>
  <g
     id="p-5"
     style="fill:none;stroke-linecap:round;stroke-linejoin:round;">
    <text
       alignment-baseline="hanging"
       font-size="4px"
       style="font-family: sans-serif ; font-weight: normal; font-style: normal; fill: rgb(255,0,0)"
       text-anchor="middle"
       transform="matrix( 1.000 0.000 0.000 1.000 69.800 22.700 )"
       id="text1117">Bottom</text>
    <path
       d="M 52.300 37.200 H 59.700 C 59.800 37.200 59.700 37.100 59.700 37.200 V 39.100 C 59.700 39.155 59.745 39.200 59.800 39.200 H 63.800 C 63.855 39.200 63.900 39.155 63.900 39.100 V 37.200 C 63.900 37.100 63.800 37.200 63.900 37.200 H 67.700 C 67.800 37.200 67.700 37.100 67.700 37.200 V 39.100 C 67.700 39.155 67.745 39.200 67.800 39.200 H 71.800 C 71.855 39.200 71.900 39.155 71.900 39.100 V 37.200 C 71.900 37.100 71.800 37.200 71.900 37.200 H 75.700 C 75.800 37.200 75.700 37.100 75.700 37.200 V 39.100 C 75.700 39.155 75.745 39.200 75.800 39.200 H 79.800 C 79.855 39.200 79.900 39.155 79.900 39.100 V 37.200 C 79.900 37.100 79.800 37.200 79.900 37.200 H 87.300 C 87.355 37.200 87.400 37.155 87.400 37.100 V 30.700 C 87.400 30.600 87.300 30.700 87.400 30.700 H 89.300 C 89.355 30.700 89.400 30.655 89.400 30.600 V 26.600 C 89.400 26.545 89.355 26.500 89.300 26.500 H 87.400 C 87.300 26.500 87.400 26.600 87.400 26.500 V 22.700 C 87.400 22.600 87.300 22.700 87.400 22.700 H 89.300 C 89.355 22.700 89.400 22.655 89.400 22.600 V 18.600 C 89.400 18.545 89.355 18.500 89.300 18.500 H 87.400 C 87.300 18.500 87.400 18.600 87.400 18.500 V 12.100 C 87.400 12.045 87.355 12.000 87.300 12.000 H 79.900 C 79.800 12.000 79.900 12.100 79.900 12.000 V 10.100 C 79.900 10.045 79.855 10.000 79.800 10.000 H 75.800 C 75.745 10.000 75.700 10.045 75.700 10.100 V 12.000 C 75.700 12.100 75.800 12.000 75.700 12.000 H 71.900 C 71.800 12.000 71.900 12.100 71.900 12.000 V 10.100 C 71.900 10.045 71.855 10.000 71.800 10.000 H 67.800 C 67.745 10.000 67.700 10.045 67.700 10.100 V 12.000 C 67.700 12.100 67.800 12.000 67.700 12.000 H 63.900 C 63.800 12.000 63.900 12.100 63.900 12.000 V 10.100 C 63.900 10.045 63.855 10.000 63.800 10.000 H 59.800 C 59.745 10.000 59.700 10.045 59.700 10.100 V 12.000 C 59.700 12.100 59.800 12.000 59.700 12.000 H 52.300 C 52.245 12.000 52.200 12.045 52.200 12.100 V 18.500 C 52.200 18.600 52.300 18.500 52.200 18.500 H 50.300 C 50.245 18.500 50.200 18.545 50.200 18.600 V 22.600 C 50.200 22.655 50.245 22.700 50.300 22.700 H 52.200 C 52.300 22.700 52.200 22.600 52.200 22.700 V 26.500 C 52.200 26.600 52.300 26.500 52.200 26.500 H 50.300 C 50.245 26.500 50.200 26.545 50.200 26.600 V 30.600 C 50.200 30.655 50.245 30.700 50.300 30.700 H 52.200 C 52.300 30.700 52.200 30.600 52.200 30.700 V 37.100 C 52.200 37.155 52.245 37.200 52.300 37.200"
       stroke="rgb(0,0,0)"
       stroke-width="0.20"
       id="path1119" />
  </g>
  <circle
     style="fill:none;stroke:#000000;stroke-width:0.22"
     id="path1230"
     cx="57.739403"
     cy="17.176636"
     r="1" />
  <circle
     style="fill:none;stroke:#000000;stroke-width:0.22"
     id="path1230-2"
     cx="83.046471"
     cy="16.662901"
     r="1" />
  <circle
     style="fill:none;stroke:#000000;stroke-width:0.22"
     id="path1230-23"
     cx="57.002312"
     cy="33.281128"
     r="1" />
  <circle
     style="fill:none;stroke:#000000;stroke-width:0.22"
     id="path1230-4"
     cx="83.537872"
     cy="33.19178"
     r="1" />
</svg>
