<?xml version="1.0" encoding="UTF-8" standalone="no"?>
<svg
   height="216.60mm"
   viewBox="0.0 0.0 218.90 216.60"
   width="218.90mm"
   version="1.1"
   id="svg898"
   sodipodi:docname="Box6MPU.svg"
   inkscape:version="1.1.2 (b8e25be833, 2022-02-05)"
   xmlns:inkscape="http://www.inkscape.org/namespaces/inkscape"
   xmlns:sodipodi="http://sodipodi.sourceforge.net/DTD/sodipodi-0.dtd"
   xmlns="http://www.w3.org/2000/svg"
   xmlns:svg="http://www.w3.org/2000/svg"
   xmlns:rdf="http://www.w3.org/1999/02/22-rdf-syntax-ns#"
   xmlns:cc="http://creativecommons.org/ns#"
   xmlns:dc="http://purl.org/dc/elements/1.1/">
  <defs
     id="defs902" />
  <sodipodi:namedview
     id="namedview900"
     pagecolor="#ffffff"
     bordercolor="#666666"
     borderopacity="1.0"
     inkscape:pageshadow="2"
     inkscape:pageopacity="0.0"
     inkscape:pagecheckerboard="0"
     inkscape:document-units="mm"
     showgrid="false"
     inkscape:zoom="4"
     inkscape:cx="235.875"
     inkscape:cy="699.625"
     inkscape:window-width="1920"
     inkscape:window-height="1001"
     inkscape:window-x="-9"
     inkscape:window-y="-9"
     inkscape:window-maximized="1"
     inkscape:current-layer="p-3" />
  <!--
ClosedBox - Fully closed box


This box is more of a building block than a finished item.
Use a vector graphics program (like Inkscape) to add holes or adjust the base
plate.

See BasedBox for variant with a base.


Created with Boxes.py (https://festi.info/boxes.py)
Creation date: 2022-05-19 09:54:47
Command line (remove spaces between dashes): boxes ClosedBox - -FingerJoint_angle=90.0 - -FingerJoint_style=rectangular - -FingerJoint_surroundingspaces=2.0 - -FingerJoint_edge_width=1.0 - -FingerJoint_extra_length=0.0 - -FingerJoint_finger=2.0 - -FingerJoint_play=0.0 - -FingerJoint_space=2.0 - -FingerJoint_width=1.0 - -x=70 - -y=115 - -h=30 - -outside=0 - -thickness=3.0 - -format=svg - -tabs=0.0 - -debug=0 - -labels=0 - -labels=1 - -reference=0 - -inner_corners=loop - -burn=0.1
Url: http://www.festi.info/ClosedBox?FingerJoint_angle=90.0&FingerJoint_style=rectangular&FingerJoint_surroundingspaces=2.0&FingerJoint_edge_width=1.0&FingerJoint_extra_length=0.0&FingerJoint_finger=2.0&FingerJoint_play=0.0&FingerJoint_space=2.0&FingerJoint_width=1.0&x=70&y=115&h=30&outside=0&thickness=3.0&format=svg&tabs=0.0&debug=0&labels=0&labels=1&reference=0&inner_corners=loop&burn=0.1&render=1
SettingsUrl: http://www.festi.info/ClosedBox?FingerJoint_angle=90.0&FingerJoint_style=rectangular&FingerJoint_surroundingspaces=2.0&FingerJoint_edge_width=1.0&FingerJoint_extra_length=0.0&FingerJoint_finger=2.0&FingerJoint_play=0.0&FingerJoint_space=2.0&FingerJoint_width=1.0&x=70&y=115&h=30&outside=0&thickness=3.0&format=svg&tabs=0.0&debug=0&labels=0&labels=1&reference=0&inner_corners=loop&burn=0.1
-->
  <title
     id="title864">ClosedBox</title>
  <metadata
     id="metadata866">
    <rdf:RDF>
      <cc:Work>
        <dc:title>Box - ClosedBox</dc:title>
        <dc:date>2022-05-19 09:54:47</dc:date>
        <dc:source>http://www.festi.info/ClosedBox?FingerJoint_angle=90.0&amp;FingerJoint_style=rectangular&amp;FingerJoint_surroundingspaces=2.0&amp;FingerJoint_edge_width=1.0&amp;FingerJoint_extra_length=0.0&amp;FingerJoint_finger=2.0&amp;FingerJoint_play=0.0&amp;FingerJoint_space=2.0&amp;FingerJoint_width=1.0&amp;x=70&amp;y=115&amp;h=30&amp;outside=0&amp;thickness=3.0&amp;format=svg&amp;tabs=0.0&amp;debug=0&amp;labels=0&amp;labels=1&amp;reference=0&amp;inner_corners=loop&amp;burn=0.1&amp;render=1</dc:source>
        <dc:description>Fully closed box

This box is more of a building block than a finished item.
Use a vector graphics program (like Inkscape) to add holes or adjust the base
plate.

See BasedBox for variant with a base.

Created with Boxes.py (https://festi.info/boxes.py)
Command line: boxes ClosedBox --FingerJoint_angle=90.0 --FingerJoint_style=rectangular --FingerJoint_surroundingspaces=2.0 --FingerJoint_edge_width=1.0 --FingerJoint_extra_length=0.0 --FingerJoint_finger=2.0 --FingerJoint_play=0.0 --FingerJoint_space=2.0 --FingerJoint_width=1.0 --x=70 --y=115 --h=30 --outside=0 --thickness=3.0 --format=svg --tabs=0.0 --debug=0 --labels=0 --labels=1 --reference=0 --inner_corners=loop --burn=0.1
Url: http://www.festi.info/ClosedBox?FingerJoint_angle=90.0&amp;FingerJoint_style=rectangular&amp;FingerJoint_surroundingspaces=2.0&amp;FingerJoint_edge_width=1.0&amp;FingerJoint_extra_length=0.0&amp;FingerJoint_finger=2.0&amp;FingerJoint_play=0.0&amp;FingerJoint_space=2.0&amp;FingerJoint_width=1.0&amp;x=70&amp;y=115&amp;h=30&amp;outside=0&amp;thickness=3.0&amp;format=svg&amp;tabs=0.0&amp;debug=0&amp;labels=0&amp;labels=1&amp;reference=0&amp;inner_corners=loop&amp;burn=0.1&amp;render=1
SettingsUrl: http://www.festi.info/ClosedBox?FingerJoint_angle=90.0&amp;FingerJoint_style=rectangular&amp;FingerJoint_surroundingspaces=2.0&amp;FingerJoint_edge_width=1.0&amp;FingerJoint_extra_length=0.0&amp;FingerJoint_finger=2.0&amp;FingerJoint_play=0.0&amp;FingerJoint_space=2.0&amp;FingerJoint_width=1.0&amp;x=70&amp;y=115&amp;h=30&amp;outside=0&amp;thickness=3.0&amp;format=svg&amp;tabs=0.0&amp;debug=0&amp;labels=0&amp;labels=1&amp;reference=0&amp;inner_corners=loop&amp;burn=0.1
</dc:description>
      </cc:Work>
    </rdf:RDF>
  </metadata>
  <g
     id="p-0"
     style="fill:none;stroke-linecap:round;stroke-linejoin:round;">
    <text
       alignment-baseline="hanging"
       font-size="4px"
       style="font-family: sans-serif ; font-weight: normal; font-style: normal; fill: rgb(255,0,0)"
       text-anchor="middle"
       transform="matrix( 1.000 0.000 0.000 1.000 48.100 186.600 )"
       id="text868">Wall 1</text>
    <path
       d="M 13.100 206.600 H 21.100 C 21.155 206.600 21.200 206.555 21.200 206.500 V 203.600 C 21.200 203.500 21.100 203.600 21.200 203.600 H 27.000 C 27.100 203.600 27.000 203.500 27.000 203.600 V 206.500 C 27.000 206.555 27.045 206.600 27.100 206.600 H 33.100 C 33.155 206.600 33.200 206.555 33.200 206.500 V 203.600 C 33.200 203.500 33.100 203.600 33.200 203.600 H 39.000 C 39.100 203.600 39.000 203.500 39.000 203.600 V 206.500 C 39.000 206.555 39.045 206.600 39.100 206.600 H 45.100 C 45.155 206.600 45.200 206.555 45.200 206.500 V 203.600 C 45.200 203.500 45.100 203.600 45.200 203.600 H 51.000 C 51.100 203.600 51.000 203.500 51.000 203.600 V 206.500 C 51.000 206.555 51.045 206.600 51.100 206.600 H 57.100 C 57.155 206.600 57.200 206.555 57.200 206.500 V 203.600 C 57.200 203.500 57.100 203.600 57.200 203.600 H 63.000 C 63.100 203.600 63.000 203.500 63.000 203.600 V 206.500 C 63.000 206.555 63.045 206.600 63.100 206.600 H 69.100 C 69.155 206.600 69.200 206.555 69.200 206.500 V 203.600 C 69.200 203.500 69.100 203.600 69.200 203.600 H 75.000 C 75.100 203.600 75.000 203.500 75.000 203.600 V 206.500 C 75.000 206.555 75.045 206.600 75.100 206.600 H 83.100 H 86.100 C 86.155 206.600 86.200 206.555 86.200 206.500 V 203.500 V 197.500 C 86.200 197.445 86.155 197.400 86.100 197.400 H 83.200 C 83.100 197.400 83.200 197.500 83.200 197.400 V 191.600 C 83.200 191.500 83.100 191.600 83.200 191.600 H 86.100 C 86.155 191.600 86.200 191.555 86.200 191.500 V 185.500 C 86.200 185.445 86.155 185.400 86.100 185.400 H 83.200 C 83.100 185.400 83.200 185.500 83.200 185.400 V 179.600 C 83.200 179.500 83.100 179.600 83.200 179.600 H 86.100 C 86.155 179.600 86.200 179.555 86.200 179.500 V 173.500 V 170.500 C 86.200 170.445 86.155 170.400 86.100 170.400 H 83.100 H 75.100 C 75.045 170.400 75.000 170.445 75.000 170.500 V 173.400 C 75.000 173.500 75.100 173.400 75.000 173.400 H 69.200 C 69.100 173.400 69.200 173.500 69.200 173.400 V 170.500 C 69.200 170.445 69.155 170.400 69.100 170.400 H 63.100 C 63.045 170.400 63.000 170.445 63.000 170.500 V 173.400 C 63.000 173.500 63.100 173.400 63.000 173.400 H 57.200 C 57.100 173.400 57.200 173.500 57.200 173.400 V 170.500 C 57.200 170.445 57.155 170.400 57.100 170.400 H 51.100 C 51.045 170.400 51.000 170.445 51.000 170.500 V 173.400 C 51.000 173.500 51.100 173.400 51.000 173.400 H 45.200 C 45.100 173.400 45.200 173.500 45.200 173.400 V 170.500 C 45.200 170.445 45.155 170.400 45.100 170.400 H 39.100 C 39.045 170.400 39.000 170.445 39.000 170.500 V 173.400 C 39.000 173.500 39.100 173.400 39.000 173.400 H 33.200 C 33.100 173.400 33.200 173.500 33.200 173.400 V 170.500 C 33.200 170.445 33.155 170.400 33.100 170.400 H 27.100 C 27.045 170.400 27.000 170.445 27.000 170.500 V 173.400 C 27.000 173.500 27.100 173.400 27.000 173.400 H 21.200 C 21.100 173.400 21.200 173.500 21.200 173.400 V 170.500 C 21.200 170.445 21.155 170.400 21.100 170.400 H 13.100 H 10.100 C 10.045 170.400 10.000 170.445 10.000 170.500 V 173.500 V 179.500 C 10.000 179.555 10.045 179.600 10.100 179.600 H 13.000 C 13.100 179.600 13.000 179.500 13.000 179.600 V 185.400 C 13.000 185.500 13.100 185.400 13.000 185.400 H 10.100 C 10.045 185.400 10.000 185.445 10.000 185.500 V 191.500 C 10.000 191.555 10.045 191.600 10.100 191.600 H 13.000 C 13.100 191.600 13.000 191.500 13.000 191.600 V 197.400 C 13.000 197.500 13.100 197.400 13.000 197.400 H 10.100 C 10.045 197.400 10.000 197.445 10.000 197.500 V 203.500 V 206.500 C 10.000 206.555 10.045 206.600 10.100 206.600 H 13.100"
       stroke="rgb(0,0,0)"
       stroke-width="0.20"
       id="path870" />
  </g>
  <g
     id="p-1"
     style="fill:none;stroke-linecap:round;stroke-linejoin:round;">
    <text
       alignment-baseline="hanging"
       font-size="4px"
       style="font-family: sans-serif ; font-weight: normal; font-style: normal; fill: rgb(255,0,0)"
       text-anchor="middle"
       transform="matrix( 1.000 0.000 0.000 1.000 148.300 186.600 )"
       id="text873">Wall 2</text>
    <path
       d="M 90.800 206.600 H 97.300 C 97.355 206.600 97.400 206.555 97.400 206.500 V 203.600 C 97.400 203.500 97.300 203.600 97.400 203.600 H 103.200 C 103.300 203.600 103.200 203.500 103.200 203.600 V 206.500 C 103.200 206.555 103.245 206.600 103.300 206.600 H 109.300 C 109.355 206.600 109.400 206.555 109.400 206.500 V 203.600 C 109.400 203.500 109.300 203.600 109.400 203.600 H 115.200 C 115.300 203.600 115.200 203.500 115.200 203.600 V 206.500 C 115.200 206.555 115.245 206.600 115.300 206.600 H 121.300 C 121.355 206.600 121.400 206.555 121.400 206.500 V 203.600 C 121.400 203.500 121.300 203.600 121.400 203.600 H 127.200 C 127.300 203.600 127.200 203.500 127.200 203.600 V 206.500 C 127.200 206.555 127.245 206.600 127.300 206.600 H 133.300 C 133.355 206.600 133.400 206.555 133.400 206.500 V 203.600 C 133.400 203.500 133.300 203.600 133.400 203.600 H 139.200 C 139.300 203.600 139.200 203.500 139.200 203.600 V 206.500 C 139.200 206.555 139.245 206.600 139.300 206.600 H 145.300 C 145.355 206.600 145.400 206.555 145.400 206.500 V 203.600 C 145.400 203.500 145.300 203.600 145.400 203.600 H 151.200 C 151.300 203.600 151.200 203.500 151.200 203.600 V 206.500 C 151.200 206.555 151.245 206.600 151.300 206.600 H 157.300 C 157.355 206.600 157.400 206.555 157.400 206.500 V 203.600 C 157.400 203.500 157.300 203.600 157.400 203.600 H 163.200 C 163.300 203.600 163.200 203.500 163.200 203.600 V 206.500 C 163.200 206.555 163.245 206.600 163.300 206.600 H 169.300 C 169.355 206.600 169.400 206.555 169.400 206.500 V 203.600 C 169.400 203.500 169.300 203.600 169.400 203.600 H 175.200 C 175.300 203.600 175.200 203.500 175.200 203.600 V 206.500 C 175.200 206.555 175.245 206.600 175.300 206.600 H 181.300 C 181.355 206.600 181.400 206.555 181.400 206.500 V 203.600 C 181.400 203.500 181.300 203.600 181.400 203.600 H 187.200 C 187.300 203.600 187.200 203.500 187.200 203.600 V 206.500 C 187.200 206.555 187.245 206.600 187.300 206.600 H 193.300 C 193.355 206.600 193.400 206.555 193.400 206.500 V 203.600 C 193.400 203.500 193.300 203.600 193.400 203.600 H 199.200 C 199.300 203.600 199.200 203.500 199.200 203.600 V 206.500 C 199.200 206.555 199.245 206.600 199.300 206.600 H 205.800 C 205.855 206.600 205.900 206.555 205.900 206.500 V 203.500 V 197.600 C 205.900 197.500 205.800 197.600 205.900 197.600 H 208.800 C 208.855 197.600 208.900 197.555 208.900 197.500 V 191.500 C 208.900 191.445 208.855 191.400 208.800 191.400 H 205.900 C 205.800 191.400 205.900 191.500 205.900 191.400 V 185.600 C 205.900 185.500 205.800 185.600 205.900 185.600 H 208.800 C 208.855 185.600 208.900 185.555 208.900 185.500 V 179.500 C 208.900 179.445 208.855 179.400 208.800 179.400 H 205.900 C 205.800 179.400 205.900 179.500 205.900 179.400 V 173.500 V 170.500 C 205.900 170.445 205.855 170.400 205.800 170.400 H 199.300 C 199.245 170.400 199.200 170.445 199.200 170.500 V 173.400 C 199.200 173.500 199.300 173.400 199.200 173.400 H 193.400 C 193.300 173.400 193.400 173.500 193.400 173.400 V 170.500 C 193.400 170.445 193.355 170.400 193.300 170.400 H 187.300 C 187.245 170.400 187.200 170.445 187.200 170.500 V 173.400 C 187.200 173.500 187.300 173.400 187.200 173.400 H 181.400 C 181.300 173.400 181.400 173.500 181.400 173.400 V 170.500 C 181.400 170.445 181.355 170.400 181.300 170.400 H 175.300 C 175.245 170.400 175.200 170.445 175.200 170.500 V 173.400 C 175.200 173.500 175.300 173.400 175.200 173.400 H 169.400 C 169.300 173.400 169.400 173.500 169.400 173.400 V 170.500 C 169.400 170.445 169.355 170.400 169.300 170.400 H 163.300 C 163.245 170.400 163.200 170.445 163.200 170.500 V 173.400 C 163.200 173.500 163.300 173.400 163.200 173.400 H 157.400 C 157.300 173.400 157.400 173.500 157.400 173.400 V 170.500 C 157.400 170.445 157.355 170.400 157.300 170.400 H 151.300 C 151.245 170.400 151.200 170.445 151.200 170.500 V 173.400 C 151.200 173.500 151.300 173.400 151.200 173.400 H 145.400 C 145.300 173.400 145.400 173.500 145.400 173.400 V 170.500 C 145.400 170.445 145.355 170.400 145.300 170.400 H 139.300 C 139.245 170.400 139.200 170.445 139.200 170.500 V 173.400 C 139.200 173.500 139.300 173.400 139.200 173.400 H 133.400 C 133.300 173.400 133.400 173.500 133.400 173.400 V 170.500 C 133.400 170.445 133.355 170.400 133.300 170.400 H 127.300 C 127.245 170.400 127.200 170.445 127.200 170.500 V 173.400 C 127.200 173.500 127.300 173.400 127.200 173.400 H 121.400 C 121.300 173.400 121.400 173.500 121.400 173.400 V 170.500 C 121.400 170.445 121.355 170.400 121.300 170.400 H 115.300 C 115.245 170.400 115.200 170.445 115.200 170.500 V 173.400 C 115.200 173.500 115.300 173.400 115.200 173.400 H 109.400 C 109.300 173.400 109.400 173.500 109.400 173.400 V 170.500 C 109.400 170.445 109.355 170.400 109.300 170.400 H 103.300 C 103.245 170.400 103.200 170.445 103.200 170.500 V 173.400 C 103.200 173.500 103.300 173.400 103.200 173.400 H 97.400 C 97.300 173.400 97.400 173.500 97.400 173.400 V 170.500 C 97.400 170.445 97.355 170.400 97.300 170.400 H 90.800 C 90.745 170.400 90.700 170.445 90.700 170.500 V 173.500 V 179.400 C 90.700 179.500 90.800 179.400 90.700 179.400 H 87.800 C 87.745 179.400 87.700 179.445 87.700 179.500 V 185.500 C 87.700 185.555 87.745 185.600 87.800 185.600 H 90.700 C 90.800 185.600 90.700 185.500 90.700 185.600 V 191.400 C 90.700 191.500 90.800 191.400 90.700 191.400 H 87.800 C 87.745 191.400 87.700 191.445 87.700 191.500 V 197.500 C 87.700 197.555 87.745 197.600 87.800 197.600 H 90.700 C 90.800 197.600 90.700 197.500 90.700 197.600 V 203.500 V 206.500 C 90.700 206.555 90.745 206.600 90.800 206.600"
       stroke="rgb(0,0,0)"
       stroke-width="0.20"
       id="path875" />
  </g>
  <g
     id="p-2"
     style="fill:none;stroke-linecap:round;stroke-linejoin:round;">
    <text
       alignment-baseline="hanging"
       font-size="4px"
       style="font-family: sans-serif ; font-weight: normal; font-style: normal; fill: rgb(255,0,0)"
       text-anchor="middle"
       transform="matrix( 1.000 0.000 0.000 1.000 148.300 148.900 )"
       id="text878">Wall 4</text>
    <path
       d="M 90.800 168.900 H 97.300 C 97.355 168.900 97.400 168.855 97.400 168.800 V 165.900 C 97.400 165.800 97.300 165.900 97.400 165.900 H 103.200 C 103.300 165.900 103.200 165.800 103.200 165.900 V 168.800 C 103.200 168.855 103.245 168.900 103.300 168.900 H 109.300 C 109.355 168.900 109.400 168.855 109.400 168.800 V 165.900 C 109.400 165.800 109.300 165.900 109.400 165.900 H 115.200 C 115.300 165.900 115.200 165.800 115.200 165.900 V 168.800 C 115.200 168.855 115.245 168.900 115.300 168.900 H 121.300 C 121.355 168.900 121.400 168.855 121.400 168.800 V 165.900 C 121.400 165.800 121.300 165.900 121.400 165.900 H 127.200 C 127.300 165.900 127.200 165.800 127.200 165.900 V 168.800 C 127.200 168.855 127.245 168.900 127.300 168.900 H 133.300 C 133.355 168.900 133.400 168.855 133.400 168.800 V 165.900 C 133.400 165.800 133.300 165.900 133.400 165.900 H 139.200 C 139.300 165.900 139.200 165.800 139.200 165.900 V 168.800 C 139.200 168.855 139.245 168.900 139.300 168.900 H 145.300 C 145.355 168.900 145.400 168.855 145.400 168.800 V 165.900 C 145.400 165.800 145.300 165.900 145.400 165.900 H 151.200 C 151.300 165.900 151.200 165.800 151.200 165.900 V 168.800 C 151.200 168.855 151.245 168.900 151.300 168.900 H 157.300 C 157.355 168.900 157.400 168.855 157.400 168.800 V 165.900 C 157.400 165.800 157.300 165.900 157.400 165.900 H 163.200 C 163.300 165.900 163.200 165.800 163.200 165.900 V 168.800 C 163.200 168.855 163.245 168.900 163.300 168.900 H 169.300 C 169.355 168.900 169.400 168.855 169.400 168.800 V 165.900 C 169.400 165.800 169.300 165.900 169.400 165.900 H 175.200 C 175.300 165.900 175.200 165.800 175.200 165.900 V 168.800 C 175.200 168.855 175.245 168.900 175.300 168.900 H 181.300 C 181.355 168.900 181.400 168.855 181.400 168.800 V 165.900 C 181.400 165.800 181.300 165.900 181.400 165.900 H 187.200 C 187.300 165.900 187.200 165.800 187.200 165.900 V 168.800 C 187.200 168.855 187.245 168.900 187.300 168.900 H 193.300 C 193.355 168.900 193.400 168.855 193.400 168.800 V 165.900 C 193.400 165.800 193.300 165.900 193.400 165.900 H 199.200 C 199.300 165.900 199.200 165.800 199.200 165.900 V 168.800 C 199.200 168.855 199.245 168.900 199.300 168.900 H 205.800 C 205.855 168.900 205.900 168.855 205.900 168.800 V 165.800 V 159.900 C 205.900 159.800 205.800 159.900 205.900 159.900 H 208.800 C 208.855 159.900 208.900 159.855 208.900 159.800 V 153.800 C 208.900 153.745 208.855 153.700 208.800 153.700 H 205.900 C 205.800 153.700 205.900 153.800 205.900 153.700 V 147.900 C 205.900 147.800 205.800 147.900 205.900 147.900 H 208.800 C 208.855 147.900 208.900 147.855 208.900 147.800 V 141.800 C 208.900 141.745 208.855 141.700 208.800 141.700 H 205.900 C 205.800 141.700 205.900 141.800 205.900 141.700 V 135.800 V 132.800 C 205.900 132.745 205.855 132.700 205.800 132.700 H 199.300 C 199.245 132.700 199.200 132.745 199.200 132.800 V 135.700 C 199.200 135.800 199.300 135.700 199.200 135.700 H 193.400 C 193.300 135.700 193.400 135.800 193.400 135.700 V 132.800 C 193.400 132.745 193.355 132.700 193.300 132.700 H 187.300 C 187.245 132.700 187.200 132.745 187.200 132.800 V 135.700 C 187.200 135.800 187.300 135.700 187.200 135.700 H 181.400 C 181.300 135.700 181.400 135.800 181.400 135.700 V 132.800 C 181.400 132.745 181.355 132.700 181.300 132.700 H 175.300 C 175.245 132.700 175.200 132.745 175.200 132.800 V 135.700 C 175.200 135.800 175.300 135.700 175.200 135.700 H 169.400 C 169.300 135.700 169.400 135.800 169.400 135.700 V 132.800 C 169.400 132.745 169.355 132.700 169.300 132.700 H 163.300 C 163.245 132.700 163.200 132.745 163.200 132.800 V 135.700 C 163.200 135.800 163.300 135.700 163.200 135.700 H 157.400 C 157.300 135.700 157.400 135.800 157.400 135.700 V 132.800 C 157.400 132.745 157.355 132.700 157.300 132.700 H 151.300 C 151.245 132.700 151.200 132.745 151.200 132.800 V 135.700 C 151.200 135.800 151.300 135.700 151.200 135.700 H 145.400 C 145.300 135.700 145.400 135.800 145.400 135.700 V 132.800 C 145.400 132.745 145.355 132.700 145.300 132.700 H 139.300 C 139.245 132.700 139.200 132.745 139.200 132.800 V 135.700 C 139.200 135.800 139.300 135.700 139.200 135.700 H 133.400 C 133.300 135.700 133.400 135.800 133.400 135.700 V 132.800 C 133.400 132.745 133.355 132.700 133.300 132.700 H 127.300 C 127.245 132.700 127.200 132.745 127.200 132.800 V 135.700 C 127.200 135.800 127.300 135.700 127.200 135.700 H 121.400 C 121.300 135.700 121.400 135.800 121.400 135.700 V 132.800 C 121.400 132.745 121.355 132.700 121.300 132.700 H 115.300 C 115.245 132.700 115.200 132.745 115.200 132.800 V 135.700 C 115.200 135.800 115.300 135.700 115.200 135.700 H 109.400 C 109.300 135.700 109.400 135.800 109.400 135.700 V 132.800 C 109.400 132.745 109.355 132.700 109.300 132.700 H 103.300 C 103.245 132.700 103.200 132.745 103.200 132.800 V 135.700 C 103.200 135.800 103.300 135.700 103.200 135.700 H 97.400 C 97.300 135.700 97.400 135.800 97.400 135.700 V 132.800 C 97.400 132.745 97.355 132.700 97.300 132.700 H 90.800 C 90.745 132.700 90.700 132.745 90.700 132.800 V 135.800 V 141.700 C 90.700 141.800 90.800 141.700 90.700 141.700 H 87.800 C 87.745 141.700 87.700 141.745 87.700 141.800 V 147.800 C 87.700 147.855 87.745 147.900 87.800 147.900 H 90.700 C 90.800 147.900 90.700 147.800 90.700 147.900 V 153.700 C 90.700 153.800 90.800 153.700 90.700 153.700 H 87.800 C 87.745 153.700 87.700 153.745 87.700 153.800 V 159.800 C 87.700 159.855 87.745 159.900 87.800 159.900 H 90.700 C 90.800 159.900 90.700 159.800 90.700 159.900 V 165.800 V 168.800 C 90.700 168.855 90.745 168.900 90.800 168.900"
       stroke="rgb(0,0,0)"
       stroke-width="0.20"
       id="path880" />
  </g>
  <g
     id="p-3"
     style="fill:none;stroke-linecap:round;stroke-linejoin:round;">
    <text
       alignment-baseline="hanging"
       font-size="4px"
       style="font-family: sans-serif ; font-weight: normal; font-style: normal; fill: rgb(255,0,0)"
       text-anchor="middle"
       transform="matrix( 1.000 0.000 0.000 1.000 48.100 148.900 )"
       id="text883">Wall 3</text>
    <path
       d="m 13.1,168.9 h 8 c 0.055,0 0.1,-0.045 0.1,-0.1 v -2.9 c 0,-0.1 -0.1,0 0,0 H 27 c 0.1,0 0,-0.1 0,0 v 2.9 c 0,0.055 0.045,0.1 0.1,0.1 h 6 c 0.055,0 0.1,-0.045 0.1,-0.1 v -2.9 c 0,-0.1 -0.1,0 0,0 H 39 c 0.1,0 0,-0.1 0,0 v 2.9 c 0,0.055 0.045,0.1 0.1,0.1 h 6 c 0.055,0 0.1,-0.045 0.1,-0.1 v -2.9 c 0,-0.1 -0.1,0 0,0 H 51 c 0.1,0 0,-0.1 0,0 v 2.9 c 0,0.055 0.045,0.1 0.1,0.1 h 6 c 0.055,0 0.1,-0.045 0.1,-0.1 v -2.9 c 0,-0.1 -0.1,0 0,0 H 63 c 0.1,0 0,-0.1 0,0 v 2.9 c 0,0.055 0.045,0.1 0.1,0.1 h 6 c 0.055,0 0.1,-0.045 0.1,-0.1 v -2.9 c 0,-0.1 -0.1,0 0,0 H 75 c 0.1,0 0,-0.1 0,0 v 2.9 c 0,0.055 0.045,0.1 0.1,0.1 h 8 3 c 0.055,0 0.1,-0.045 0.1,-0.1 v -3 -6 c 0,-0.055 -0.045,-0.1 -0.1,-0.1 h -2.9 c -0.1,0 0,0.1 0,0 v -5.8 c 0,-0.1 -0.1,0 0,0 h 2.9 c 0.055,0 0.1,-0.045 0.1,-0.1 v -6 c 0,-0.055 -0.045,-0.1 -0.1,-0.1 h -2.9 c -0.1,0 0,0.1 0,0 v -5.8 c 0,-0.1 -0.1,0 0,0 h 2.9 c 0.055,0 0.1,-0.045 0.1,-0.1 v -6 -3 c 0,-0.055 -0.045,-0.1 -0.1,-0.1 h -3 -8 c -0.055,0 -0.1,0.045 -0.1,0.1 v 2.9 c 0,0.1 0.1,0 0,0 h -5.8 c -0.1,0 0,0.1 0,0 v -2.9 c 0,-0.055 -0.045,-0.1 -0.1,-0.1 h -6 c -0.055,0 -0.1,0.045 -0.1,0.1 v 2.9 c 0,0.1 0.1,0 0,0 h -5.8 c -0.1,0 0,0.1 0,0 v -2.9 c 0,-0.055 -0.045,-0.1 -0.1,-0.1 h -6 c -0.055,0 -0.1,0.045 -0.1,0.1 v 2.9 c 0,0.1 0.1,0 0,0 h -5.8 c -0.1,0 0,0.1 0,0 v -2.9 c 0,-0.055 -0.045,-0.1 -0.1,-0.1 h -6 c -0.055,0 -0.1,0.045 -0.1,0.1 v 2.9 c 0,0.1 0.1,0 0,0 h -5.8 c -0.1,0 0,0.1 0,0 v -2.9 c 0,-0.055 -0.045,-0.1 -0.1,-0.1 h -6 c -0.055,0 -0.1,0.045 -0.1,0.1 v 2.9 c 0,0.1 0,0 0,0 h -5.8 c 0,0 0,0.1 0,0 v -2.9 c 0,-0.055 -0.045,-0.1 -0.1,-0.1 h -8 -3 c -0.055,0 -0.1,0.045 -0.1,0.1 v 3 6 c 0,0.055 0.045,0.1 0.1,0.1 H 13 c 0.1,0 0,-0.1 0,0 v 5.8 c 0,0.1 0.1,0 0,0 h -2.9 c -0.055,0 -0.1,0.045 -0.1,0.1 v 6 c 0,0.055 0.045,0.1 0.1,0.1 H 13 c 0.1,0 0,-0.1 0,0 v 5.8 c 0,0.1 0.1,0 0,0 h -2.9 c -0.055,0 -0.1,0.045 -0.1,0.1 v 6 3 c 0,0.055 0.045,0.1 0.1,0.1 h 3"
       stroke="#000000"
       stroke-width="0.2"
       id="path885"
       sodipodi:nodetypes="csssssssssssssssssssssssssssssssssssssssscsscsssssssssssssssscsscsssssssssssssssssssssssssssssssssssccssscsscsssssssssssssssscssc" />
    <circle
       style="fill:none;stroke:#000000;stroke-width:0.22;stroke-miterlimit:4;stroke-dasharray:none;stroke-opacity:1"
       id="path2061"
       cx="21.110001"
       cy="144.11"
       r="3.5" />
    <circle
       style="fill:none;stroke:#000000;stroke-width:0.22;stroke-linecap:round;stroke-linejoin:round;stroke-miterlimit:4;stroke-dasharray:none;stroke-opacity:1"
       id="path2061-9"
       cx="35.310001"
       cy="144.11"
       r="3.5" />
    <circle
       style="fill:none;stroke:#000000;stroke-width:0.22;stroke-linecap:round;stroke-linejoin:round;stroke-miterlimit:4;stroke-dasharray:none;stroke-opacity:1"
       id="path2061-2"
       cx="49.610001"
       cy="144.11"
       r="3.5" />
    <circle
       style="fill:none;stroke:#000000;stroke-width:0.22;stroke-linecap:round;stroke-linejoin:round;stroke-miterlimit:4;stroke-dasharray:none;stroke-opacity:1"
       id="path2061-9-6"
       cx="63.810001"
       cy="144.11"
       r="3.5" />
    <circle
       style="fill:none;stroke:#000000;stroke-width:0.22;stroke-linecap:round;stroke-linejoin:round;stroke-miterlimit:4;stroke-dasharray:none;stroke-opacity:1"
       id="path2061-2-8"
       cx="57.610001"
       cy="158.11"
       r="3.5" />
    <circle
       style="fill:none;stroke:#000000;stroke-width:0.22;stroke-linecap:round;stroke-linejoin:round;stroke-miterlimit:4;stroke-dasharray:none;stroke-opacity:1"
       id="path2061-9-6-7"
       cx="71.809998"
       cy="158.11"
       r="3.5" />
    <rect
       style="fill:none;stroke:#000000;stroke-width:0.22;stroke-miterlimit:4;stroke-dasharray:none;stroke-opacity:1"
       id="rect3500"
       width="15"
       height="8"
       x="163.91"
       y="155.11" />
    <rect
       style="fill:none;stroke:#000000;stroke-width:0.22;stroke-miterlimit:4;stroke-dasharray:none;stroke-opacity:1"
       id="rect3634"
       width="15"
       height="8"
       x="107.41"
       y="137.91" />
    <rect
       style="fill:none;stroke:#000000;stroke-width:0.22;stroke-miterlimit:4;stroke-dasharray:none;stroke-opacity:1"
       id="rect3840"
       width="11"
       height="6"
       x="58.110001"
       y="181.11" />
  </g>
  <g
     id="p-4"
     style="fill:none;stroke-linecap:round;stroke-linejoin:round;">
    <text
       alignment-baseline="hanging"
       font-size="4px"
       style="font-family: sans-serif ; font-weight: normal; font-style: normal; fill: rgb(255,0,0)"
       text-anchor="middle"
       transform="matrix( 1.000 0.000 0.000 1.000 48.100 68.700 )"
       id="text888">Top</text>
    <path
       d="M 13.100 128.200 H 21.000 C 21.100 128.200 21.000 128.100 21.000 128.200 V 131.100 C 21.000 131.155 21.045 131.200 21.100 131.200 H 27.100 C 27.155 131.200 27.200 131.155 27.200 131.100 V 128.200 C 27.200 128.100 27.100 128.200 27.200 128.200 H 33.000 C 33.100 128.200 33.000 128.100 33.000 128.200 V 131.100 C 33.000 131.155 33.045 131.200 33.100 131.200 H 39.100 C 39.155 131.200 39.200 131.155 39.200 131.100 V 128.200 C 39.200 128.100 39.100 128.200 39.200 128.200 H 45.000 C 45.100 128.200 45.000 128.100 45.000 128.200 V 131.100 C 45.000 131.155 45.045 131.200 45.100 131.200 H 51.100 C 51.155 131.200 51.200 131.155 51.200 131.100 V 128.200 C 51.200 128.100 51.100 128.200 51.200 128.200 H 57.000 C 57.100 128.200 57.000 128.100 57.000 128.200 V 131.100 C 57.000 131.155 57.045 131.200 57.100 131.200 H 63.100 C 63.155 131.200 63.200 131.155 63.200 131.100 V 128.200 C 63.200 128.100 63.100 128.200 63.200 128.200 H 69.000 C 69.100 128.200 69.000 128.100 69.000 128.200 V 131.100 C 69.000 131.155 69.045 131.200 69.100 131.200 H 75.100 C 75.155 131.200 75.200 131.155 75.200 131.100 V 128.200 C 75.200 128.100 75.100 128.200 75.200 128.200 H 83.100 C 83.155 128.200 83.200 128.155 83.200 128.100 V 121.700 C 83.200 121.600 83.100 121.700 83.200 121.700 H 86.100 C 86.155 121.700 86.200 121.655 86.200 121.600 V 115.600 C 86.200 115.545 86.155 115.500 86.100 115.500 H 83.200 C 83.100 115.500 83.200 115.600 83.200 115.500 V 109.700 C 83.200 109.600 83.100 109.700 83.200 109.700 H 86.100 C 86.155 109.700 86.200 109.655 86.200 109.600 V 103.600 C 86.200 103.545 86.155 103.500 86.100 103.500 H 83.200 C 83.100 103.500 83.200 103.600 83.200 103.500 V 97.700 C 83.200 97.600 83.100 97.700 83.200 97.700 H 86.100 C 86.155 97.700 86.200 97.655 86.200 97.600 V 91.600 C 86.200 91.545 86.155 91.500 86.100 91.500 H 83.200 C 83.100 91.500 83.200 91.600 83.200 91.500 V 85.700 C 83.200 85.600 83.100 85.700 83.200 85.700 H 86.100 C 86.155 85.700 86.200 85.655 86.200 85.600 V 79.600 C 86.200 79.545 86.155 79.500 86.100 79.500 H 83.200 C 83.100 79.500 83.200 79.600 83.200 79.500 V 73.700 C 83.200 73.600 83.100 73.700 83.200 73.700 H 86.100 C 86.155 73.700 86.200 73.655 86.200 73.600 V 67.600 C 86.200 67.545 86.155 67.500 86.100 67.500 H 83.200 C 83.100 67.500 83.200 67.600 83.200 67.500 V 61.700 C 83.200 61.600 83.100 61.700 83.200 61.700 H 86.100 C 86.155 61.700 86.200 61.655 86.200 61.600 V 55.600 C 86.200 55.545 86.155 55.500 86.100 55.500 H 83.200 C 83.100 55.500 83.200 55.600 83.200 55.500 V 49.700 C 83.200 49.600 83.100 49.700 83.200 49.700 H 86.100 C 86.155 49.700 86.200 49.655 86.200 49.600 V 43.600 C 86.200 43.545 86.155 43.500 86.100 43.500 H 83.200 C 83.100 43.500 83.200 43.600 83.200 43.500 V 37.700 C 83.200 37.600 83.100 37.700 83.200 37.700 H 86.100 C 86.155 37.700 86.200 37.655 86.200 37.600 V 31.600 C 86.200 31.545 86.155 31.500 86.100 31.500 H 83.200 C 83.100 31.500 83.200 31.600 83.200 31.500 V 25.700 C 83.200 25.600 83.100 25.700 83.200 25.700 H 86.100 C 86.155 25.700 86.200 25.655 86.200 25.600 V 19.600 C 86.200 19.545 86.155 19.500 86.100 19.500 H 83.200 C 83.100 19.500 83.200 19.600 83.200 19.500 V 13.100 C 83.200 13.045 83.155 13.000 83.100 13.000 H 75.200 C 75.100 13.000 75.200 13.100 75.200 13.000 V 10.100 C 75.200 10.045 75.155 10.000 75.100 10.000 H 69.100 C 69.045 10.000 69.000 10.045 69.000 10.100 V 13.000 C 69.000 13.100 69.100 13.000 69.000 13.000 H 63.200 C 63.100 13.000 63.200 13.100 63.200 13.000 V 10.100 C 63.200 10.045 63.155 10.000 63.100 10.000 H 57.100 C 57.045 10.000 57.000 10.045 57.000 10.100 V 13.000 C 57.000 13.100 57.100 13.000 57.000 13.000 H 51.200 C 51.100 13.000 51.200 13.100 51.200 13.000 V 10.100 C 51.200 10.045 51.155 10.000 51.100 10.000 H 45.100 C 45.045 10.000 45.000 10.045 45.000 10.100 V 13.000 C 45.000 13.100 45.100 13.000 45.000 13.000 H 39.200 C 39.100 13.000 39.200 13.100 39.200 13.000 V 10.100 C 39.200 10.045 39.155 10.000 39.100 10.000 H 33.100 C 33.045 10.000 33.000 10.045 33.000 10.100 V 13.000 C 33.000 13.100 33.100 13.000 33.000 13.000 H 27.200 C 27.100 13.000 27.200 13.100 27.200 13.000 V 10.100 C 27.200 10.045 27.155 10.000 27.100 10.000 H 21.100 C 21.045 10.000 21.000 10.045 21.000 10.100 V 13.000 C 21.000 13.100 21.100 13.000 21.000 13.000 H 13.100 C 13.045 13.000 13.000 13.045 13.000 13.100 V 19.500 C 13.000 19.600 13.100 19.500 13.000 19.500 H 10.100 C 10.045 19.500 10.000 19.545 10.000 19.600 V 25.600 C 10.000 25.655 10.045 25.700 10.100 25.700 H 13.000 C 13.100 25.700 13.000 25.600 13.000 25.700 V 31.500 C 13.000 31.600 13.100 31.500 13.000 31.500 H 10.100 C 10.045 31.500 10.000 31.545 10.000 31.600 V 37.600 C 10.000 37.655 10.045 37.700 10.100 37.700 H 13.000 C 13.100 37.700 13.000 37.600 13.000 37.700 V 43.500 C 13.000 43.600 13.100 43.500 13.000 43.500 H 10.100 C 10.045 43.500 10.000 43.545 10.000 43.600 V 49.600 C 10.000 49.655 10.045 49.700 10.100 49.700 H 13.000 C 13.100 49.700 13.000 49.600 13.000 49.700 V 55.500 C 13.000 55.600 13.100 55.500 13.000 55.500 H 10.100 C 10.045 55.500 10.000 55.545 10.000 55.600 V 61.600 C 10.000 61.655 10.045 61.700 10.100 61.700 H 13.000 C 13.100 61.700 13.000 61.600 13.000 61.700 V 67.500 C 13.000 67.600 13.100 67.500 13.000 67.500 H 10.100 C 10.045 67.500 10.000 67.545 10.000 67.600 V 73.600 C 10.000 73.655 10.045 73.700 10.100 73.700 H 13.000 C 13.100 73.700 13.000 73.600 13.000 73.700 V 79.500 C 13.000 79.600 13.100 79.500 13.000 79.500 H 10.100 C 10.045 79.500 10.000 79.545 10.000 79.600 V 85.600 C 10.000 85.655 10.045 85.700 10.100 85.700 H 13.000 C 13.100 85.700 13.000 85.600 13.000 85.700 V 91.500 C 13.000 91.600 13.100 91.500 13.000 91.500 H 10.100 C 10.045 91.500 10.000 91.545 10.000 91.600 V 97.600 C 10.000 97.655 10.045 97.700 10.100 97.700 H 13.000 C 13.100 97.700 13.000 97.600 13.000 97.700 V 103.500 C 13.000 103.600 13.100 103.500 13.000 103.500 H 10.100 C 10.045 103.500 10.000 103.545 10.000 103.600 V 109.600 C 10.000 109.655 10.045 109.700 10.100 109.700 H 13.000 C 13.100 109.700 13.000 109.600 13.000 109.700 V 115.500 C 13.000 115.600 13.100 115.500 13.000 115.500 H 10.100 C 10.045 115.500 10.000 115.545 10.000 115.600 V 121.600 C 10.000 121.655 10.045 121.700 10.100 121.700 H 13.000 C 13.100 121.700 13.000 121.600 13.000 121.700 V 128.100 C 13.000 128.155 13.045 128.200 13.100 128.200"
       stroke="rgb(0,0,0)"
       stroke-width="0.20"
       id="path890" />
  </g>
  <g
     id="p-5"
     style="fill:none;stroke-linecap:round;stroke-linejoin:round;">
    <text
       alignment-baseline="hanging"
       font-size="4px"
       style="font-family: sans-serif ; font-weight: normal; font-style: normal; fill: rgb(255,0,0)"
       text-anchor="middle"
       transform="matrix( 1.000 0.000 0.000 1.000 125.800 68.700 )"
       id="text893">Bottom</text>
    <path
       d="M 90.800 128.200 H 98.700 C 98.800 128.200 98.700 128.100 98.700 128.200 V 131.100 C 98.700 131.155 98.745 131.200 98.800 131.200 H 104.800 C 104.855 131.200 104.900 131.155 104.900 131.100 V 128.200 C 104.900 128.100 104.800 128.200 104.900 128.200 H 110.700 C 110.800 128.200 110.700 128.100 110.700 128.200 V 131.100 C 110.700 131.155 110.745 131.200 110.800 131.200 H 116.800 C 116.855 131.200 116.900 131.155 116.900 131.100 V 128.200 C 116.900 128.100 116.800 128.200 116.900 128.200 H 122.700 C 122.800 128.200 122.700 128.100 122.700 128.200 V 131.100 C 122.700 131.155 122.745 131.200 122.800 131.200 H 128.800 C 128.855 131.200 128.900 131.155 128.900 131.100 V 128.200 C 128.900 128.100 128.800 128.200 128.900 128.200 H 134.700 C 134.800 128.200 134.700 128.100 134.700 128.200 V 131.100 C 134.700 131.155 134.745 131.200 134.800 131.200 H 140.800 C 140.855 131.200 140.900 131.155 140.900 131.100 V 128.200 C 140.900 128.100 140.800 128.200 140.900 128.200 H 146.700 C 146.800 128.200 146.700 128.100 146.700 128.200 V 131.100 C 146.700 131.155 146.745 131.200 146.800 131.200 H 152.800 C 152.855 131.200 152.900 131.155 152.900 131.100 V 128.200 C 152.900 128.100 152.800 128.200 152.900 128.200 H 160.800 C 160.855 128.200 160.900 128.155 160.900 128.100 V 121.700 C 160.900 121.600 160.800 121.700 160.900 121.700 H 163.800 C 163.855 121.700 163.900 121.655 163.900 121.600 V 115.600 C 163.900 115.545 163.855 115.500 163.800 115.500 H 160.900 C 160.800 115.500 160.900 115.600 160.900 115.500 V 109.700 C 160.900 109.600 160.800 109.700 160.900 109.700 H 163.800 C 163.855 109.700 163.900 109.655 163.900 109.600 V 103.600 C 163.900 103.545 163.855 103.500 163.800 103.500 H 160.900 C 160.800 103.500 160.900 103.600 160.900 103.500 V 97.700 C 160.900 97.600 160.800 97.700 160.900 97.700 H 163.800 C 163.855 97.700 163.900 97.655 163.900 97.600 V 91.600 C 163.900 91.545 163.855 91.500 163.800 91.500 H 160.900 C 160.800 91.500 160.900 91.600 160.900 91.500 V 85.700 C 160.900 85.600 160.800 85.700 160.900 85.700 H 163.800 C 163.855 85.700 163.900 85.655 163.900 85.600 V 79.600 C 163.900 79.545 163.855 79.500 163.800 79.500 H 160.900 C 160.800 79.500 160.900 79.600 160.900 79.500 V 73.700 C 160.900 73.600 160.800 73.700 160.900 73.700 H 163.800 C 163.855 73.700 163.900 73.655 163.900 73.600 V 67.600 C 163.900 67.545 163.855 67.500 163.800 67.500 H 160.900 C 160.800 67.500 160.900 67.600 160.900 67.500 V 61.700 C 160.900 61.600 160.800 61.700 160.900 61.700 H 163.800 C 163.855 61.700 163.900 61.655 163.900 61.600 V 55.600 C 163.900 55.545 163.855 55.500 163.800 55.500 H 160.900 C 160.800 55.500 160.900 55.600 160.900 55.500 V 49.700 C 160.900 49.600 160.800 49.700 160.900 49.700 H 163.800 C 163.855 49.700 163.900 49.655 163.900 49.600 V 43.600 C 163.900 43.545 163.855 43.500 163.800 43.500 H 160.900 C 160.800 43.500 160.900 43.600 160.900 43.500 V 37.700 C 160.900 37.600 160.800 37.700 160.900 37.700 H 163.800 C 163.855 37.700 163.900 37.655 163.900 37.600 V 31.600 C 163.900 31.545 163.855 31.500 163.800 31.500 H 160.900 C 160.800 31.500 160.900 31.600 160.900 31.500 V 25.700 C 160.900 25.600 160.800 25.700 160.900 25.700 H 163.800 C 163.855 25.700 163.900 25.655 163.900 25.600 V 19.600 C 163.900 19.545 163.855 19.500 163.800 19.500 H 160.900 C 160.800 19.500 160.900 19.600 160.900 19.500 V 13.100 C 160.900 13.045 160.855 13.000 160.800 13.000 H 152.900 C 152.800 13.000 152.900 13.100 152.900 13.000 V 10.100 C 152.900 10.045 152.855 10.000 152.800 10.000 H 146.800 C 146.745 10.000 146.700 10.045 146.700 10.100 V 13.000 C 146.700 13.100 146.800 13.000 146.700 13.000 H 140.900 C 140.800 13.000 140.900 13.100 140.900 13.000 V 10.100 C 140.900 10.045 140.855 10.000 140.800 10.000 H 134.800 C 134.745 10.000 134.700 10.045 134.700 10.100 V 13.000 C 134.700 13.100 134.800 13.000 134.700 13.000 H 128.900 C 128.800 13.000 128.900 13.100 128.900 13.000 V 10.100 C 128.900 10.045 128.855 10.000 128.800 10.000 H 122.800 C 122.745 10.000 122.700 10.045 122.700 10.100 V 13.000 C 122.700 13.100 122.800 13.000 122.700 13.000 H 116.900 C 116.800 13.000 116.900 13.100 116.900 13.000 V 10.100 C 116.900 10.045 116.855 10.000 116.800 10.000 H 110.800 C 110.745 10.000 110.700 10.045 110.700 10.100 V 13.000 C 110.700 13.100 110.800 13.000 110.700 13.000 H 104.900 C 104.800 13.000 104.900 13.100 104.900 13.000 V 10.100 C 104.900 10.045 104.855 10.000 104.800 10.000 H 98.800 C 98.745 10.000 98.700 10.045 98.700 10.100 V 13.000 C 98.700 13.100 98.800 13.000 98.700 13.000 H 90.800 C 90.745 13.000 90.700 13.045 90.700 13.100 V 19.500 C 90.700 19.600 90.800 19.500 90.700 19.500 H 87.800 C 87.745 19.500 87.700 19.545 87.700 19.600 V 25.600 C 87.700 25.655 87.745 25.700 87.800 25.700 H 90.700 C 90.800 25.700 90.700 25.600 90.700 25.700 V 31.500 C 90.700 31.600 90.800 31.500 90.700 31.500 H 87.800 C 87.745 31.500 87.700 31.545 87.700 31.600 V 37.600 C 87.700 37.655 87.745 37.700 87.800 37.700 H 90.700 C 90.800 37.700 90.700 37.600 90.700 37.700 V 43.500 C 90.700 43.600 90.800 43.500 90.700 43.500 H 87.800 C 87.745 43.500 87.700 43.545 87.700 43.600 V 49.600 C 87.700 49.655 87.745 49.700 87.800 49.700 H 90.700 C 90.800 49.700 90.700 49.600 90.700 49.700 V 55.500 C 90.700 55.600 90.800 55.500 90.700 55.500 H 87.800 C 87.745 55.500 87.700 55.545 87.700 55.600 V 61.600 C 87.700 61.655 87.745 61.700 87.800 61.700 H 90.700 C 90.800 61.700 90.700 61.600 90.700 61.700 V 67.500 C 90.700 67.600 90.800 67.500 90.700 67.500 H 87.800 C 87.745 67.500 87.700 67.545 87.700 67.600 V 73.600 C 87.700 73.655 87.745 73.700 87.800 73.700 H 90.700 C 90.800 73.700 90.700 73.600 90.700 73.700 V 79.500 C 90.700 79.600 90.800 79.500 90.700 79.500 H 87.800 C 87.745 79.500 87.700 79.545 87.700 79.600 V 85.600 C 87.700 85.655 87.745 85.700 87.800 85.700 H 90.700 C 90.800 85.700 90.700 85.600 90.700 85.700 V 91.500 C 90.700 91.600 90.800 91.500 90.700 91.500 H 87.800 C 87.745 91.500 87.700 91.545 87.700 91.600 V 97.600 C 87.700 97.655 87.745 97.700 87.800 97.700 H 90.700 C 90.800 97.700 90.700 97.600 90.700 97.700 V 103.500 C 90.700 103.600 90.800 103.500 90.700 103.500 H 87.800 C 87.745 103.500 87.700 103.545 87.700 103.600 V 109.600 C 87.700 109.655 87.745 109.700 87.800 109.700 H 90.700 C 90.800 109.700 90.700 109.600 90.700 109.700 V 115.500 C 90.700 115.600 90.800 115.500 90.700 115.500 H 87.800 C 87.745 115.500 87.700 115.545 87.700 115.600 V 121.600 C 87.700 121.655 87.745 121.700 87.800 121.700 H 90.700 C 90.800 121.700 90.700 121.600 90.700 121.700 V 128.100 C 90.700 128.155 90.745 128.200 90.800 128.200"
       stroke="rgb(0,0,0)"
       stroke-width="0.20"
       id="path895" />
  </g>
</svg>
