<?xml version="1.0" encoding="UTF-8" standalone="no"?>
<svg
   height="120.30mm"
   viewBox="0.0 0.0 285.90 120.30"
   width="285.90mm"
   version="1.1"
   id="svg93"
   sodipodi:docname="ClosedBox.svg"
   inkscape:version="1.1.2 (b8e25be833, 2022-02-05)"
   xmlns:inkscape="http://www.inkscape.org/namespaces/inkscape"
   xmlns:sodipodi="http://sodipodi.sourceforge.net/DTD/sodipodi-0.dtd"
   xmlns="http://www.w3.org/2000/svg"
   xmlns:svg="http://www.w3.org/2000/svg"
   xmlns:rdf="http://www.w3.org/1999/02/22-rdf-syntax-ns#"
   xmlns:cc="http://creativecommons.org/ns#"
   xmlns:dc="http://purl.org/dc/elements/1.1/">
  <defs
     id="defs97" />
  <sodipodi:namedview
     id="namedview95"
     pagecolor="#ffffff"
     bordercolor="#666666"
     borderopacity="1.0"
     inkscape:pageshadow="2"
     inkscape:pageopacity="0.0"
     inkscape:pagecheckerboard="0"
     inkscape:document-units="mm"
     showgrid="false"
     inkscape:zoom="4"
     inkscape:cx="592.625"
     inkscape:cy="283.125"
     inkscape:window-width="1920"
     inkscape:window-height="1001"
     inkscape:window-x="-9"
     inkscape:window-y="-9"
     inkscape:window-maximized="1"
     inkscape:current-layer="p-2" />
  <!--
ClosedBox - Fully closed box


This box is more of a building block than a finished item.
Use a vector graphics program (like Inkscape) to add holes or adjust the base
plate.

See BasedBox for variant with a base.


Created with Boxes.py (https://festi.info/boxes.py)
Creation date: 2022-04-25 12:48:38
Command line (remove spaces between dashes): boxes ClosedBox - -FingerJoint_angle=90.0 - -FingerJoint_style=rectangular - -FingerJoint_surroundingspaces=2.0 - -FingerJoint_edge_width=1.0 - -FingerJoint_extra_length=0.0 - -FingerJoint_finger=2.0 - -FingerJoint_play=0.0 - -FingerJoint_space=2.0 - -FingerJoint_width=1.0 - -x=132 - -y=55 - -h=15 - -outside=0 - -outside=1 - -thickness=3.0 - -format=svg - -tabs=0.0 - -debug=0 - -labels=0 - -labels=1 - -reference=100 - -inner_corners=loop - -burn=0.1
Url: http://www.festi.info/ClosedBox?FingerJoint_angle=90.0&FingerJoint_style=rectangular&FingerJoint_surroundingspaces=2.0&FingerJoint_edge_width=1.0&FingerJoint_extra_length=0.0&FingerJoint_finger=2.0&FingerJoint_play=0.0&FingerJoint_space=2.0&FingerJoint_width=1.0&x=132&y=55&h=15&outside=0&outside=1&thickness=3.0&format=svg&tabs=0.0&debug=0&labels=0&labels=1&reference=100&inner_corners=loop&burn=0.1&render=1
SettingsUrl: http://www.festi.info/ClosedBox?FingerJoint_angle=90.0&FingerJoint_style=rectangular&FingerJoint_surroundingspaces=2.0&FingerJoint_edge_width=1.0&FingerJoint_extra_length=0.0&FingerJoint_finger=2.0&FingerJoint_play=0.0&FingerJoint_space=2.0&FingerJoint_width=1.0&x=132&y=55&h=15&outside=0&outside=1&thickness=3.0&format=svg&tabs=0.0&debug=0&labels=0&labels=1&reference=100&inner_corners=loop&burn=0.1
-->
  <title
     id="title54">ClosedBox</title>
  <metadata
     id="metadata56">
    <rdf:RDF>
      <cc:Work>
        <dc:title>Box - ClosedBox</dc:title>
        <dc:date>2022-04-25 12:48:38</dc:date>
        <dc:source>http://www.festi.info/ClosedBox?FingerJoint_angle=90.0&amp;FingerJoint_style=rectangular&amp;FingerJoint_surroundingspaces=2.0&amp;FingerJoint_edge_width=1.0&amp;FingerJoint_extra_length=0.0&amp;FingerJoint_finger=2.0&amp;FingerJoint_play=0.0&amp;FingerJoint_space=2.0&amp;FingerJoint_width=1.0&amp;x=132&amp;y=55&amp;h=15&amp;outside=0&amp;outside=1&amp;thickness=3.0&amp;format=svg&amp;tabs=0.0&amp;debug=0&amp;labels=0&amp;labels=1&amp;reference=100&amp;inner_corners=loop&amp;burn=0.1&amp;render=1</dc:source>
        <dc:description>Fully closed box

This box is more of a building block than a finished item.
Use a vector graphics program (like Inkscape) to add holes or adjust the base
plate.

See BasedBox for variant with a base.

Created with Boxes.py (https://festi.info/boxes.py)
Command line: boxes ClosedBox --FingerJoint_angle=90.0 --FingerJoint_style=rectangular --FingerJoint_surroundingspaces=2.0 --FingerJoint_edge_width=1.0 --FingerJoint_extra_length=0.0 --FingerJoint_finger=2.0 --FingerJoint_play=0.0 --FingerJoint_space=2.0 --FingerJoint_width=1.0 --x=132 --y=55 --h=15 --outside=0 --outside=1 --thickness=3.0 --format=svg --tabs=0.0 --debug=0 --labels=0 --labels=1 --reference=100 --inner_corners=loop --burn=0.1
Url: http://www.festi.info/ClosedBox?FingerJoint_angle=90.0&amp;FingerJoint_style=rectangular&amp;FingerJoint_surroundingspaces=2.0&amp;FingerJoint_edge_width=1.0&amp;FingerJoint_extra_length=0.0&amp;FingerJoint_finger=2.0&amp;FingerJoint_play=0.0&amp;FingerJoint_space=2.0&amp;FingerJoint_width=1.0&amp;x=132&amp;y=55&amp;h=15&amp;outside=0&amp;outside=1&amp;thickness=3.0&amp;format=svg&amp;tabs=0.0&amp;debug=0&amp;labels=0&amp;labels=1&amp;reference=100&amp;inner_corners=loop&amp;burn=0.1&amp;render=1
SettingsUrl: http://www.festi.info/ClosedBox?FingerJoint_angle=90.0&amp;FingerJoint_style=rectangular&amp;FingerJoint_surroundingspaces=2.0&amp;FingerJoint_edge_width=1.0&amp;FingerJoint_extra_length=0.0&amp;FingerJoint_finger=2.0&amp;FingerJoint_play=0.0&amp;FingerJoint_space=2.0&amp;FingerJoint_width=1.0&amp;x=132&amp;y=55&amp;h=15&amp;outside=0&amp;outside=1&amp;thickness=3.0&amp;format=svg&amp;tabs=0.0&amp;debug=0&amp;labels=0&amp;labels=1&amp;reference=100&amp;inner_corners=loop&amp;burn=0.1
</dc:description>
      </cc:Work>
    </rdf:RDF>
  </metadata>
  <g
     id="p-0"
     style="fill:none;stroke-linecap:round;stroke-linejoin:round;">
    <path
       d="M 10.100 110.300 H 110.100 V 100.300 H 10.100 V 110.300 Z"
       stroke="rgb(0,0,0)"
       stroke-width="0.20"
       id="path58" />
    <text
       alignment-baseline="hanging"
       font-size="10px"
       style="font-family: sans-serif ; font-weight: normal; font-style: normal; fill: rgb(0,0,0)"
       text-anchor="middle"
       transform="matrix( 1.000 0.000 0.000 1.000 60.100 100.300 )"
       id="text60">100mm</text>
  </g>
  <g
     id="p-1"
     style="fill:none;stroke-linecap:round;stroke-linejoin:round;">
    <text
       alignment-baseline="hanging"
       font-size="4px"
       style="font-family: sans-serif ; font-weight: normal; font-style: normal; fill: rgb(255,0,0)"
       text-anchor="middle"
       transform="matrix( 1.000 0.000 0.000 1.000 76.100 89.100 )"
       id="text63">Wall 1</text>
    <path
       d="M 13.100 98.600 H 19.100 C 19.155 98.600 19.200 98.555 19.200 98.500 V 95.600 C 19.200 95.500 19.100 95.600 19.200 95.600 H 25.000 C 25.100 95.600 25.000 95.500 25.000 95.600 V 98.500 C 25.000 98.555 25.045 98.600 25.100 98.600 H 31.100 C 31.155 98.600 31.200 98.555 31.200 98.500 V 95.600 C 31.200 95.500 31.100 95.600 31.200 95.600 H 37.000 C 37.100 95.600 37.000 95.500 37.000 95.600 V 98.500 C 37.000 98.555 37.045 98.600 37.100 98.600 H 43.100 C 43.155 98.600 43.200 98.555 43.200 98.500 V 95.600 C 43.200 95.500 43.100 95.600 43.200 95.600 H 49.000 C 49.100 95.600 49.000 95.500 49.000 95.600 V 98.500 C 49.000 98.555 49.045 98.600 49.100 98.600 H 55.100 C 55.155 98.600 55.200 98.555 55.200 98.500 V 95.600 C 55.200 95.500 55.100 95.600 55.200 95.600 H 61.000 C 61.100 95.600 61.000 95.500 61.000 95.600 V 98.500 C 61.000 98.555 61.045 98.600 61.100 98.600 H 67.100 C 67.155 98.600 67.200 98.555 67.200 98.500 V 95.600 C 67.200 95.500 67.100 95.600 67.200 95.600 H 73.000 C 73.100 95.600 73.000 95.500 73.000 95.600 V 98.500 C 73.000 98.555 73.045 98.600 73.100 98.600 H 79.100 C 79.155 98.600 79.200 98.555 79.200 98.500 V 95.600 C 79.200 95.500 79.100 95.600 79.200 95.600 H 85.000 C 85.100 95.600 85.000 95.500 85.000 95.600 V 98.500 C 85.000 98.555 85.045 98.600 85.100 98.600 H 91.100 C 91.155 98.600 91.200 98.555 91.200 98.500 V 95.600 C 91.200 95.500 91.100 95.600 91.200 95.600 H 97.000 C 97.100 95.600 97.000 95.500 97.000 95.600 V 98.500 C 97.000 98.555 97.045 98.600 97.100 98.600 H 103.100 C 103.155 98.600 103.200 98.555 103.200 98.500 V 95.600 C 103.200 95.500 103.100 95.600 103.200 95.600 H 109.000 C 109.100 95.600 109.000 95.500 109.000 95.600 V 98.500 C 109.000 98.555 109.045 98.600 109.100 98.600 H 115.100 C 115.155 98.600 115.200 98.555 115.200 98.500 V 95.600 C 115.200 95.500 115.100 95.600 115.200 95.600 H 121.000 C 121.100 95.600 121.000 95.500 121.000 95.600 V 98.500 C 121.000 98.555 121.045 98.600 121.100 98.600 H 127.100 C 127.155 98.600 127.200 98.555 127.200 98.500 V 95.600 C 127.200 95.500 127.100 95.600 127.200 95.600 H 133.000 C 133.100 95.600 133.000 95.500 133.000 95.600 V 98.500 C 133.000 98.555 133.045 98.600 133.100 98.600 H 139.100 H 142.100 C 142.155 98.600 142.200 98.555 142.200 98.500 V 95.500 V 91.000 V 86.500 V 83.500 C 142.200 83.445 142.155 83.400 142.100 83.400 H 139.100 H 133.100 C 133.045 83.400 133.000 83.445 133.000 83.500 V 86.400 C 133.000 86.500 133.100 86.400 133.000 86.400 H 127.200 C 127.100 86.400 127.200 86.500 127.200 86.400 V 83.500 C 127.200 83.445 127.155 83.400 127.100 83.400 H 121.100 C 121.045 83.400 121.000 83.445 121.000 83.500 V 86.400 C 121.000 86.500 121.100 86.400 121.000 86.400 H 115.200 C 115.100 86.400 115.200 86.500 115.200 86.400 V 83.500 C 115.200 83.445 115.155 83.400 115.100 83.400 H 109.100 C 109.045 83.400 109.000 83.445 109.000 83.500 V 86.400 C 109.000 86.500 109.100 86.400 109.000 86.400 H 103.200 C 103.100 86.400 103.200 86.500 103.200 86.400 V 83.500 C 103.200 83.445 103.155 83.400 103.100 83.400 H 97.100 C 97.045 83.400 97.000 83.445 97.000 83.500 V 86.400 C 97.000 86.500 97.100 86.400 97.000 86.400 H 91.200 C 91.100 86.400 91.200 86.500 91.200 86.400 V 83.500 C 91.200 83.445 91.155 83.400 91.100 83.400 H 85.100 C 85.045 83.400 85.000 83.445 85.000 83.500 V 86.400 C 85.000 86.500 85.100 86.400 85.000 86.400 H 79.200 C 79.100 86.400 79.200 86.500 79.200 86.400 V 83.500 C 79.200 83.445 79.155 83.400 79.100 83.400 H 73.100 C 73.045 83.400 73.000 83.445 73.000 83.500 V 86.400 C 73.000 86.500 73.100 86.400 73.000 86.400 H 67.200 C 67.100 86.400 67.200 86.500 67.200 86.400 V 83.500 C 67.200 83.445 67.155 83.400 67.100 83.400 H 61.100 C 61.045 83.400 61.000 83.445 61.000 83.500 V 86.400 C 61.000 86.500 61.100 86.400 61.000 86.400 H 55.200 C 55.100 86.400 55.200 86.500 55.200 86.400 V 83.500 C 55.200 83.445 55.155 83.400 55.100 83.400 H 49.100 C 49.045 83.400 49.000 83.445 49.000 83.500 V 86.400 C 49.000 86.500 49.100 86.400 49.000 86.400 H 43.200 C 43.100 86.400 43.200 86.500 43.200 86.400 V 83.500 C 43.200 83.445 43.155 83.400 43.100 83.400 H 37.100 C 37.045 83.400 37.000 83.445 37.000 83.500 V 86.400 C 37.000 86.500 37.100 86.400 37.000 86.400 H 31.200 C 31.100 86.400 31.200 86.500 31.200 86.400 V 83.500 C 31.200 83.445 31.155 83.400 31.100 83.400 H 25.100 C 25.045 83.400 25.000 83.445 25.000 83.500 V 86.400 C 25.000 86.500 25.100 86.400 25.000 86.400 H 19.200 C 19.100 86.400 19.200 86.500 19.200 86.400 V 83.500 C 19.200 83.445 19.155 83.400 19.100 83.400 H 13.100 H 10.100 C 10.045 83.400 10.000 83.445 10.000 83.500 V 86.500 V 91.000 V 95.500 V 98.500 C 10.000 98.555 10.045 98.600 10.100 98.600 H 13.100"
       stroke="rgb(0,0,0)"
       stroke-width="0.20"
       id="path65" />
  </g>
  <g
     id="p-2"
     style="fill:none;stroke-linecap:round;stroke-linejoin:round;">
    <text
       alignment-baseline="hanging"
       font-size="4px"
       style="font-family: sans-serif ; font-weight: normal; font-style: normal; fill: rgb(255,0,0)"
       text-anchor="middle"
       transform="matrix( 1.000 0.000 0.000 1.000 171.300 89.100 )"
       id="text68">Wall 2</text>
    <path
       d="m 146.8,98.6 h 9.5 c 0.055,0 0.1,-0.045 0.1,-0.1 v -2.9 c 0,-0.1 -0.1,0 0,0 h 5.8 c 0.1,0 0,-0.1 0,0 v 2.9 c 0,0.055 0.045,0.1 0.1,0.1 h 6 c 0.055,0 0.1,-0.045 0.1,-0.1 v -2.9 c 0,-0.1 -0.1,0 0,0 h 5.8 c 0.1,0 0,-0.1 0,0 v 2.9 c 0,0.055 0.045,0.1 0.1,0.1 h 6 c 0.055,0 0.1,-0.045 0.1,-0.1 v -2.9 c 0,-0.1 -0.1,0 0,0 h 5.8 c 0.1,0 0,-0.1 0,0 v 2.9 c 0,0.055 0.045,0.1 0.1,0.1 h 9.5 c 0.055,0 0.1,-0.045 0.1,-0.1 v -3 -4.5 -4.5 -3 c 0,-0.055 -0.045,-0.1 -0.1,-0.1 h -9.5 c -0.055,0 -0.1,0.045 -0.1,0.1 v 2.9 c 0,0.1 0.1,0 0,0 h -5.8 c -0.1,0 0,0.1 0,0 v -2.9 c 0,-0.055 -0.045,-0.1 -0.1,-0.1 h -6 c -0.055,0 -0.0996,0.045 -0.1,0.1 l -0.0234,2.829842 c -8.2e-4,0.1 0.12339,6.641647 0.0234,6.641647 h -5.82339 c -0.1,0 0.0234,-6.494875 0.0234,-6.594875 L 168.4,83.5 c 0,-0.055 -0.045,-0.1 -0.1,-0.1 h -6 c -0.055,0 -0.1,0.045 -0.1,0.1 v 2.9 c 0,0.1 0.1,0 0,0 h -5.8 c -0.1,0 0,0.1 0,0 v -2.9 c 0,-0.055 -0.045,-0.1 -0.1,-0.1 h -9.5 c -0.055,0 -0.1,0.045 -0.1,0.1 v 3 4.5 4.5 3 c 0,0.055 0.045,0.1 0.1,0.1"
       stroke="#000000"
       stroke-width="0.2"
       id="path70"
       sodipodi:nodetypes="csssssssssssssssssssssssssscccsssssssssssssssssssssssssssscccsc" />
  </g>
  <g
     id="p-3"
     style="fill:none;stroke-linecap:round;stroke-linejoin:round;">
    <text
       alignment-baseline="hanging"
       font-size="4px"
       style="font-family: sans-serif ; font-weight: normal; font-style: normal; fill: rgb(255,0,0)"
       text-anchor="middle"
       transform="matrix( 1.000 0.000 0.000 1.000 171.300 72.400 )"
       id="text73">Wall 4</text>
    <path
       d="M 146.800 81.900 H 156.300 C 156.355 81.900 156.400 81.855 156.400 81.800 V 78.900 C 156.400 78.800 156.300 78.900 156.400 78.900 H 162.200 C 162.300 78.900 162.200 78.800 162.200 78.900 V 81.800 C 162.200 81.855 162.245 81.900 162.300 81.900 H 168.300 C 168.355 81.900 168.400 81.855 168.400 81.800 V 78.900 C 168.400 78.800 168.300 78.900 168.400 78.900 H 174.200 C 174.300 78.900 174.200 78.800 174.200 78.900 V 81.800 C 174.200 81.855 174.245 81.900 174.300 81.900 H 180.300 C 180.355 81.900 180.400 81.855 180.400 81.800 V 78.900 C 180.400 78.800 180.300 78.900 180.400 78.900 H 186.200 C 186.300 78.900 186.200 78.800 186.200 78.900 V 81.800 C 186.200 81.855 186.245 81.900 186.300 81.900 H 195.800 C 195.855 81.900 195.900 81.855 195.900 81.800 V 78.800 V 74.300 V 69.800 V 66.800 C 195.900 66.745 195.855 66.700 195.800 66.700 H 186.300 C 186.245 66.700 186.200 66.745 186.200 66.800 V 69.700 C 186.200 69.800 186.300 69.700 186.200 69.700 H 180.400 C 180.300 69.700 180.400 69.800 180.400 69.700 V 66.800 C 180.400 66.745 180.355 66.700 180.300 66.700 H 174.300 C 174.245 66.700 174.200 66.745 174.200 66.800 V 69.700 C 174.200 69.800 174.300 69.700 174.200 69.700 H 168.400 C 168.300 69.700 168.400 69.800 168.400 69.700 V 66.800 C 168.400 66.745 168.355 66.700 168.300 66.700 H 162.300 C 162.245 66.700 162.200 66.745 162.200 66.800 V 69.700 C 162.200 69.800 162.300 69.700 162.200 69.700 H 156.400 C 156.300 69.700 156.400 69.800 156.400 69.700 V 66.800 C 156.400 66.745 156.355 66.700 156.300 66.700 H 146.800 C 146.745 66.700 146.700 66.745 146.700 66.800 V 69.800 V 74.300 V 78.800 V 81.800 C 146.700 81.855 146.745 81.900 146.800 81.900"
       stroke="rgb(0,0,0)"
       stroke-width="0.20"
       id="path75" />
  </g>
  <g
     id="p-4"
     style="fill:none;stroke-linecap:round;stroke-linejoin:round;">
    <text
       alignment-baseline="hanging"
       font-size="4px"
       style="font-family: sans-serif ; font-weight: normal; font-style: normal; fill: rgb(255,0,0)"
       text-anchor="middle"
       transform="matrix( 1.000 0.000 0.000 1.000 76.100 72.400 )"
       id="text78">Wall 3</text>
    <path
       d="M 13.100 81.900 H 19.100 C 19.155 81.900 19.200 81.855 19.200 81.800 V 78.900 C 19.200 78.800 19.100 78.900 19.200 78.900 H 25.000 C 25.100 78.900 25.000 78.800 25.000 78.900 V 81.800 C 25.000 81.855 25.045 81.900 25.100 81.900 H 31.100 C 31.155 81.900 31.200 81.855 31.200 81.800 V 78.900 C 31.200 78.800 31.100 78.900 31.200 78.900 H 37.000 C 37.100 78.900 37.000 78.800 37.000 78.900 V 81.800 C 37.000 81.855 37.045 81.900 37.100 81.900 H 43.100 C 43.155 81.900 43.200 81.855 43.200 81.800 V 78.900 C 43.200 78.800 43.100 78.900 43.200 78.900 H 49.000 C 49.100 78.900 49.000 78.800 49.000 78.900 V 81.800 C 49.000 81.855 49.045 81.900 49.100 81.900 H 55.100 C 55.155 81.900 55.200 81.855 55.200 81.800 V 78.900 C 55.200 78.800 55.100 78.900 55.200 78.900 H 61.000 C 61.100 78.900 61.000 78.800 61.000 78.900 V 81.800 C 61.000 81.855 61.045 81.900 61.100 81.900 H 67.100 C 67.155 81.900 67.200 81.855 67.200 81.800 V 78.900 C 67.200 78.800 67.100 78.900 67.200 78.900 H 73.000 C 73.100 78.900 73.000 78.800 73.000 78.900 V 81.800 C 73.000 81.855 73.045 81.900 73.100 81.900 H 79.100 C 79.155 81.900 79.200 81.855 79.200 81.800 V 78.900 C 79.200 78.800 79.100 78.900 79.200 78.900 H 85.000 C 85.100 78.900 85.000 78.800 85.000 78.900 V 81.800 C 85.000 81.855 85.045 81.900 85.100 81.900 H 91.100 C 91.155 81.900 91.200 81.855 91.200 81.800 V 78.900 C 91.200 78.800 91.100 78.900 91.200 78.900 H 97.000 C 97.100 78.900 97.000 78.800 97.000 78.900 V 81.800 C 97.000 81.855 97.045 81.900 97.100 81.900 H 103.100 C 103.155 81.900 103.200 81.855 103.200 81.800 V 78.900 C 103.200 78.800 103.100 78.900 103.200 78.900 H 109.000 C 109.100 78.900 109.000 78.800 109.000 78.900 V 81.800 C 109.000 81.855 109.045 81.900 109.100 81.900 H 115.100 C 115.155 81.900 115.200 81.855 115.200 81.800 V 78.900 C 115.200 78.800 115.100 78.900 115.200 78.900 H 121.000 C 121.100 78.900 121.000 78.800 121.000 78.900 V 81.800 C 121.000 81.855 121.045 81.900 121.100 81.900 H 127.100 C 127.155 81.900 127.200 81.855 127.200 81.800 V 78.900 C 127.200 78.800 127.100 78.900 127.200 78.900 H 133.000 C 133.100 78.900 133.000 78.800 133.000 78.900 V 81.800 C 133.000 81.855 133.045 81.900 133.100 81.900 H 139.100 H 142.100 C 142.155 81.900 142.200 81.855 142.200 81.800 V 78.800 V 74.300 V 69.800 V 66.800 C 142.200 66.745 142.155 66.700 142.100 66.700 H 139.100 H 133.100 C 133.045 66.700 133.000 66.745 133.000 66.800 V 69.700 C 133.000 69.800 133.100 69.700 133.000 69.700 H 127.200 C 127.100 69.700 127.200 69.800 127.200 69.700 V 66.800 C 127.200 66.745 127.155 66.700 127.100 66.700 H 121.100 C 121.045 66.700 121.000 66.745 121.000 66.800 V 69.700 C 121.000 69.800 121.100 69.700 121.000 69.700 H 115.200 C 115.100 69.700 115.200 69.800 115.200 69.700 V 66.800 C 115.200 66.745 115.155 66.700 115.100 66.700 H 109.100 C 109.045 66.700 109.000 66.745 109.000 66.800 V 69.700 C 109.000 69.800 109.100 69.700 109.000 69.700 H 103.200 C 103.100 69.700 103.200 69.800 103.200 69.700 V 66.800 C 103.200 66.745 103.155 66.700 103.100 66.700 H 97.100 C 97.045 66.700 97.000 66.745 97.000 66.800 V 69.700 C 97.000 69.800 97.100 69.700 97.000 69.700 H 91.200 C 91.100 69.700 91.200 69.800 91.200 69.700 V 66.800 C 91.200 66.745 91.155 66.700 91.100 66.700 H 85.100 C 85.045 66.700 85.000 66.745 85.000 66.800 V 69.700 C 85.000 69.800 85.100 69.700 85.000 69.700 H 79.200 C 79.100 69.700 79.200 69.800 79.200 69.700 V 66.800 C 79.200 66.745 79.155 66.700 79.100 66.700 H 73.100 C 73.045 66.700 73.000 66.745 73.000 66.800 V 69.700 C 73.000 69.800 73.100 69.700 73.000 69.700 H 67.200 C 67.100 69.700 67.200 69.800 67.200 69.700 V 66.800 C 67.200 66.745 67.155 66.700 67.100 66.700 H 61.100 C 61.045 66.700 61.000 66.745 61.000 66.800 V 69.700 C 61.000 69.800 61.100 69.700 61.000 69.700 H 55.200 C 55.100 69.700 55.200 69.800 55.200 69.700 V 66.800 C 55.200 66.745 55.155 66.700 55.100 66.700 H 49.100 C 49.045 66.700 49.000 66.745 49.000 66.800 V 69.700 C 49.000 69.800 49.100 69.700 49.000 69.700 H 43.200 C 43.100 69.700 43.200 69.800 43.200 69.700 V 66.800 C 43.200 66.745 43.155 66.700 43.100 66.700 H 37.100 C 37.045 66.700 37.000 66.745 37.000 66.800 V 69.700 C 37.000 69.800 37.100 69.700 37.000 69.700 H 31.200 C 31.100 69.700 31.200 69.800 31.200 69.700 V 66.800 C 31.200 66.745 31.155 66.700 31.100 66.700 H 25.100 C 25.045 66.700 25.000 66.745 25.000 66.800 V 69.700 C 25.000 69.800 25.100 69.700 25.000 69.700 H 19.200 C 19.100 69.700 19.200 69.800 19.200 69.700 V 66.800 C 19.200 66.745 19.155 66.700 19.100 66.700 H 13.100 H 10.100 C 10.045 66.700 10.000 66.745 10.000 66.800 V 69.800 V 74.300 V 78.800 V 81.800 C 10.000 81.855 10.045 81.900 10.100 81.900 H 13.100"
       stroke="rgb(0,0,0)"
       stroke-width="0.20"
       id="path80" />
  </g>
  <g
     id="p-5"
     style="fill:none;stroke-linecap:round;stroke-linejoin:round;">
    <text
       alignment-baseline="hanging"
       font-size="4px"
       style="font-family: sans-serif ; font-weight: normal; font-style: normal; fill: rgb(255,0,0)"
       text-anchor="middle"
       transform="matrix( 1.000 0.000 0.000 1.000 76.100 35.700 )"
       id="text83">Top</text>
    <path
       d="M 13.100 62.200 H 19.000 C 19.100 62.200 19.000 62.100 19.000 62.200 V 65.100 C 19.000 65.155 19.045 65.200 19.100 65.200 H 25.100 C 25.155 65.200 25.200 65.155 25.200 65.100 V 62.200 C 25.200 62.100 25.100 62.200 25.200 62.200 H 31.000 C 31.100 62.200 31.000 62.100 31.000 62.200 V 65.100 C 31.000 65.155 31.045 65.200 31.100 65.200 H 37.100 C 37.155 65.200 37.200 65.155 37.200 65.100 V 62.200 C 37.200 62.100 37.100 62.200 37.200 62.200 H 43.000 C 43.100 62.200 43.000 62.100 43.000 62.200 V 65.100 C 43.000 65.155 43.045 65.200 43.100 65.200 H 49.100 C 49.155 65.200 49.200 65.155 49.200 65.100 V 62.200 C 49.200 62.100 49.100 62.200 49.200 62.200 H 55.000 C 55.100 62.200 55.000 62.100 55.000 62.200 V 65.100 C 55.000 65.155 55.045 65.200 55.100 65.200 H 61.100 C 61.155 65.200 61.200 65.155 61.200 65.100 V 62.200 C 61.200 62.100 61.100 62.200 61.200 62.200 H 67.000 C 67.100 62.200 67.000 62.100 67.000 62.200 V 65.100 C 67.000 65.155 67.045 65.200 67.100 65.200 H 73.100 C 73.155 65.200 73.200 65.155 73.200 65.100 V 62.200 C 73.200 62.100 73.100 62.200 73.200 62.200 H 79.000 C 79.100 62.200 79.000 62.100 79.000 62.200 V 65.100 C 79.000 65.155 79.045 65.200 79.100 65.200 H 85.100 C 85.155 65.200 85.200 65.155 85.200 65.100 V 62.200 C 85.200 62.100 85.100 62.200 85.200 62.200 H 91.000 C 91.100 62.200 91.000 62.100 91.000 62.200 V 65.100 C 91.000 65.155 91.045 65.200 91.100 65.200 H 97.100 C 97.155 65.200 97.200 65.155 97.200 65.100 V 62.200 C 97.200 62.100 97.100 62.200 97.200 62.200 H 103.000 C 103.100 62.200 103.000 62.100 103.000 62.200 V 65.100 C 103.000 65.155 103.045 65.200 103.100 65.200 H 109.100 C 109.155 65.200 109.200 65.155 109.200 65.100 V 62.200 C 109.200 62.100 109.100 62.200 109.200 62.200 H 115.000 C 115.100 62.200 115.000 62.100 115.000 62.200 V 65.100 C 115.000 65.155 115.045 65.200 115.100 65.200 H 121.100 C 121.155 65.200 121.200 65.155 121.200 65.100 V 62.200 C 121.200 62.100 121.100 62.200 121.200 62.200 H 127.000 C 127.100 62.200 127.000 62.100 127.000 62.200 V 65.100 C 127.000 65.155 127.045 65.200 127.100 65.200 H 133.100 C 133.155 65.200 133.200 65.155 133.200 65.100 V 62.200 C 133.200 62.100 133.100 62.200 133.200 62.200 H 139.100 C 139.155 62.200 139.200 62.155 139.200 62.100 V 52.700 C 139.200 52.600 139.100 52.700 139.200 52.700 H 142.100 C 142.155 52.700 142.200 52.655 142.200 52.600 V 46.600 C 142.200 46.545 142.155 46.500 142.100 46.500 H 139.200 C 139.100 46.500 139.200 46.600 139.200 46.500 V 40.700 C 139.200 40.600 139.100 40.700 139.200 40.700 H 142.100 C 142.155 40.700 142.200 40.655 142.200 40.600 V 34.600 C 142.200 34.545 142.155 34.500 142.100 34.500 H 139.200 C 139.100 34.500 139.200 34.600 139.200 34.500 V 28.700 C 139.200 28.600 139.100 28.700 139.200 28.700 H 142.100 C 142.155 28.700 142.200 28.655 142.200 28.600 V 22.600 C 142.200 22.545 142.155 22.500 142.100 22.500 H 139.200 C 139.100 22.500 139.200 22.600 139.200 22.500 V 13.100 C 139.200 13.045 139.155 13.000 139.100 13.000 H 133.200 C 133.100 13.000 133.200 13.100 133.200 13.000 V 10.100 C 133.200 10.045 133.155 10.000 133.100 10.000 H 127.100 C 127.045 10.000 127.000 10.045 127.000 10.100 V 13.000 C 127.000 13.100 127.100 13.000 127.000 13.000 H 121.200 C 121.100 13.000 121.200 13.100 121.200 13.000 V 10.100 C 121.200 10.045 121.155 10.000 121.100 10.000 H 115.100 C 115.045 10.000 115.000 10.045 115.000 10.100 V 13.000 C 115.000 13.100 115.100 13.000 115.000 13.000 H 109.200 C 109.100 13.000 109.200 13.100 109.200 13.000 V 10.100 C 109.200 10.045 109.155 10.000 109.100 10.000 H 103.100 C 103.045 10.000 103.000 10.045 103.000 10.100 V 13.000 C 103.000 13.100 103.100 13.000 103.000 13.000 H 97.200 C 97.100 13.000 97.200 13.100 97.200 13.000 V 10.100 C 97.200 10.045 97.155 10.000 97.100 10.000 H 91.100 C 91.045 10.000 91.000 10.045 91.000 10.100 V 13.000 C 91.000 13.100 91.100 13.000 91.000 13.000 H 85.200 C 85.100 13.000 85.200 13.100 85.200 13.000 V 10.100 C 85.200 10.045 85.155 10.000 85.100 10.000 H 79.100 C 79.045 10.000 79.000 10.045 79.000 10.100 V 13.000 C 79.000 13.100 79.100 13.000 79.000 13.000 H 73.200 C 73.100 13.000 73.200 13.100 73.200 13.000 V 10.100 C 73.200 10.045 73.155 10.000 73.100 10.000 H 67.100 C 67.045 10.000 67.000 10.045 67.000 10.100 V 13.000 C 67.000 13.100 67.100 13.000 67.000 13.000 H 61.200 C 61.100 13.000 61.200 13.100 61.200 13.000 V 10.100 C 61.200 10.045 61.155 10.000 61.100 10.000 H 55.100 C 55.045 10.000 55.000 10.045 55.000 10.100 V 13.000 C 55.000 13.100 55.100 13.000 55.000 13.000 H 49.200 C 49.100 13.000 49.200 13.100 49.200 13.000 V 10.100 C 49.200 10.045 49.155 10.000 49.100 10.000 H 43.100 C 43.045 10.000 43.000 10.045 43.000 10.100 V 13.000 C 43.000 13.100 43.100 13.000 43.000 13.000 H 37.200 C 37.100 13.000 37.200 13.100 37.200 13.000 V 10.100 C 37.200 10.045 37.155 10.000 37.100 10.000 H 31.100 C 31.045 10.000 31.000 10.045 31.000 10.100 V 13.000 C 31.000 13.100 31.100 13.000 31.000 13.000 H 25.200 C 25.100 13.000 25.200 13.100 25.200 13.000 V 10.100 C 25.200 10.045 25.155 10.000 25.100 10.000 H 19.100 C 19.045 10.000 19.000 10.045 19.000 10.100 V 13.000 C 19.000 13.100 19.100 13.000 19.000 13.000 H 13.100 C 13.045 13.000 13.000 13.045 13.000 13.100 V 22.500 C 13.000 22.600 13.100 22.500 13.000 22.500 H 10.100 C 10.045 22.500 10.000 22.545 10.000 22.600 V 28.600 C 10.000 28.655 10.045 28.700 10.100 28.700 H 13.000 C 13.100 28.700 13.000 28.600 13.000 28.700 V 34.500 C 13.000 34.600 13.100 34.500 13.000 34.500 H 10.100 C 10.045 34.500 10.000 34.545 10.000 34.600 V 40.600 C 10.000 40.655 10.045 40.700 10.100 40.700 H 13.000 C 13.100 40.700 13.000 40.600 13.000 40.700 V 46.500 C 13.000 46.600 13.100 46.500 13.000 46.500 H 10.100 C 10.045 46.500 10.000 46.545 10.000 46.600 V 52.600 C 10.000 52.655 10.045 52.700 10.100 52.700 H 13.000 C 13.100 52.700 13.000 52.600 13.000 52.700 V 62.100 C 13.000 62.155 13.045 62.200 13.100 62.200"
       stroke="rgb(0,0,0)"
       stroke-width="0.20"
       id="path85" />
  </g>
  <g
     id="p-6"
     style="fill:none;stroke-linecap:round;stroke-linejoin:round;">
    <text
       alignment-baseline="hanging"
       font-size="4px"
       style="font-family: sans-serif ; font-weight: normal; font-style: normal; fill: rgb(255,0,0)"
       text-anchor="middle"
       transform="matrix( 1.000 0.000 0.000 1.000 209.800 35.700 )"
       id="text88">Bottom</text>
    <path
       d="M 146.800 62.200 H 152.700 C 152.800 62.200 152.700 62.100 152.700 62.200 V 65.100 C 152.700 65.155 152.745 65.200 152.800 65.200 H 158.800 C 158.855 65.200 158.900 65.155 158.900 65.100 V 62.200 C 158.900 62.100 158.800 62.200 158.900 62.200 H 164.700 C 164.800 62.200 164.700 62.100 164.700 62.200 V 65.100 C 164.700 65.155 164.745 65.200 164.800 65.200 H 170.800 C 170.855 65.200 170.900 65.155 170.900 65.100 V 62.200 C 170.900 62.100 170.800 62.200 170.900 62.200 H 176.700 C 176.800 62.200 176.700 62.100 176.700 62.200 V 65.100 C 176.700 65.155 176.745 65.200 176.800 65.200 H 182.800 C 182.855 65.200 182.900 65.155 182.900 65.100 V 62.200 C 182.900 62.100 182.800 62.200 182.900 62.200 H 188.700 C 188.800 62.200 188.700 62.100 188.700 62.200 V 65.100 C 188.700 65.155 188.745 65.200 188.800 65.200 H 194.800 C 194.855 65.200 194.900 65.155 194.900 65.100 V 62.200 C 194.900 62.100 194.800 62.200 194.900 62.200 H 200.700 C 200.800 62.200 200.700 62.100 200.700 62.200 V 65.100 C 200.700 65.155 200.745 65.200 200.800 65.200 H 206.800 C 206.855 65.200 206.900 65.155 206.900 65.100 V 62.200 C 206.900 62.100 206.800 62.200 206.900 62.200 H 212.700 C 212.800 62.200 212.700 62.100 212.700 62.200 V 65.100 C 212.700 65.155 212.745 65.200 212.800 65.200 H 218.800 C 218.855 65.200 218.900 65.155 218.900 65.100 V 62.200 C 218.900 62.100 218.800 62.200 218.900 62.200 H 224.700 C 224.800 62.200 224.700 62.100 224.700 62.200 V 65.100 C 224.700 65.155 224.745 65.200 224.800 65.200 H 230.800 C 230.855 65.200 230.900 65.155 230.900 65.100 V 62.200 C 230.900 62.100 230.800 62.200 230.900 62.200 H 236.700 C 236.800 62.200 236.700 62.100 236.700 62.200 V 65.100 C 236.700 65.155 236.745 65.200 236.800 65.200 H 242.800 C 242.855 65.200 242.900 65.155 242.900 65.100 V 62.200 C 242.900 62.100 242.800 62.200 242.900 62.200 H 248.700 C 248.800 62.200 248.700 62.100 248.700 62.200 V 65.100 C 248.700 65.155 248.745 65.200 248.800 65.200 H 254.800 C 254.855 65.200 254.900 65.155 254.900 65.100 V 62.200 C 254.900 62.100 254.800 62.200 254.900 62.200 H 260.700 C 260.800 62.200 260.700 62.100 260.700 62.200 V 65.100 C 260.700 65.155 260.745 65.200 260.800 65.200 H 266.800 C 266.855 65.200 266.900 65.155 266.900 65.100 V 62.200 C 266.900 62.100 266.800 62.200 266.900 62.200 H 272.800 C 272.855 62.200 272.900 62.155 272.900 62.100 V 52.700 C 272.900 52.600 272.800 52.700 272.900 52.700 H 275.800 C 275.855 52.700 275.900 52.655 275.900 52.600 V 46.600 C 275.900 46.545 275.855 46.500 275.800 46.500 H 272.900 C 272.800 46.500 272.900 46.600 272.900 46.500 V 40.700 C 272.900 40.600 272.800 40.700 272.900 40.700 H 275.800 C 275.855 40.700 275.900 40.655 275.900 40.600 V 34.600 C 275.900 34.545 275.855 34.500 275.800 34.500 H 272.900 C 272.800 34.500 272.900 34.600 272.900 34.500 V 28.700 C 272.900 28.600 272.800 28.700 272.900 28.700 H 275.800 C 275.855 28.700 275.900 28.655 275.900 28.600 V 22.600 C 275.900 22.545 275.855 22.500 275.800 22.500 H 272.900 C 272.800 22.500 272.900 22.600 272.900 22.500 V 13.100 C 272.900 13.045 272.855 13.000 272.800 13.000 H 266.900 C 266.800 13.000 266.900 13.100 266.900 13.000 V 10.100 C 266.900 10.045 266.855 10.000 266.800 10.000 H 260.800 C 260.745 10.000 260.700 10.045 260.700 10.100 V 13.000 C 260.700 13.100 260.800 13.000 260.700 13.000 H 254.900 C 254.800 13.000 254.900 13.100 254.900 13.000 V 10.100 C 254.900 10.045 254.855 10.000 254.800 10.000 H 248.800 C 248.745 10.000 248.700 10.045 248.700 10.100 V 13.000 C 248.700 13.100 248.800 13.000 248.700 13.000 H 242.900 C 242.800 13.000 242.900 13.100 242.900 13.000 V 10.100 C 242.900 10.045 242.855 10.000 242.800 10.000 H 236.800 C 236.745 10.000 236.700 10.045 236.700 10.100 V 13.000 C 236.700 13.100 236.800 13.000 236.700 13.000 H 230.900 C 230.800 13.000 230.900 13.100 230.900 13.000 V 10.100 C 230.900 10.045 230.855 10.000 230.800 10.000 H 224.800 C 224.745 10.000 224.700 10.045 224.700 10.100 V 13.000 C 224.700 13.100 224.800 13.000 224.700 13.000 H 218.900 C 218.800 13.000 218.900 13.100 218.900 13.000 V 10.100 C 218.900 10.045 218.855 10.000 218.800 10.000 H 212.800 C 212.745 10.000 212.700 10.045 212.700 10.100 V 13.000 C 212.700 13.100 212.800 13.000 212.700 13.000 H 206.900 C 206.800 13.000 206.900 13.100 206.900 13.000 V 10.100 C 206.900 10.045 206.855 10.000 206.800 10.000 H 200.800 C 200.745 10.000 200.700 10.045 200.700 10.100 V 13.000 C 200.700 13.100 200.800 13.000 200.700 13.000 H 194.900 C 194.800 13.000 194.900 13.100 194.900 13.000 V 10.100 C 194.900 10.045 194.855 10.000 194.800 10.000 H 188.800 C 188.745 10.000 188.700 10.045 188.700 10.100 V 13.000 C 188.700 13.100 188.800 13.000 188.700 13.000 H 182.900 C 182.800 13.000 182.900 13.100 182.900 13.000 V 10.100 C 182.900 10.045 182.855 10.000 182.800 10.000 H 176.800 C 176.745 10.000 176.700 10.045 176.700 10.100 V 13.000 C 176.700 13.100 176.800 13.000 176.700 13.000 H 170.900 C 170.800 13.000 170.900 13.100 170.900 13.000 V 10.100 C 170.900 10.045 170.855 10.000 170.800 10.000 H 164.800 C 164.745 10.000 164.700 10.045 164.700 10.100 V 13.000 C 164.700 13.100 164.800 13.000 164.700 13.000 H 158.900 C 158.800 13.000 158.900 13.100 158.900 13.000 V 10.100 C 158.900 10.045 158.855 10.000 158.800 10.000 H 152.800 C 152.745 10.000 152.700 10.045 152.700 10.100 V 13.000 C 152.700 13.100 152.800 13.000 152.700 13.000 H 146.800 C 146.745 13.000 146.700 13.045 146.700 13.100 V 22.500 C 146.700 22.600 146.800 22.500 146.700 22.500 H 143.800 C 143.745 22.500 143.700 22.545 143.700 22.600 V 28.600 C 143.700 28.655 143.745 28.700 143.800 28.700 H 146.700 C 146.800 28.700 146.700 28.600 146.700 28.700 V 34.500 C 146.700 34.600 146.800 34.500 146.700 34.500 H 143.800 C 143.745 34.500 143.700 34.545 143.700 34.600 V 40.600 C 143.700 40.655 143.745 40.700 143.800 40.700 H 146.700 C 146.800 40.700 146.700 40.600 146.700 40.700 V 46.500 C 146.700 46.600 146.800 46.500 146.700 46.500 H 143.800 C 143.745 46.500 143.700 46.545 143.700 46.600 V 52.600 C 143.700 52.655 143.745 52.700 143.800 52.700 H 146.700 C 146.800 52.700 146.700 52.600 146.700 52.700 V 62.100 C 146.700 62.155 146.745 62.200 146.800 62.200"
       stroke="rgb(0,0,0)"
       stroke-width="0.20"
       id="path90" />
  </g>
  <rect
     style="fill:none;fill-opacity:1;stroke:#000000;stroke-width:0.233737;stroke-miterlimit:4;stroke-dasharray:none;stroke-opacity:1"
     id="rect3756"
     width="16"
     height="8"
     x="163.35953"
     y="70.251556"
     rx="2.7755576e-17" />
</svg>
