<?xml version='1.0' encoding='us-ascii'?>
<svg height="570.80mm" viewBox="0.0 0.0 627.40 570.80" width="627.40mm" xmlns="http://www.w3.org/2000/svg" xmlns:cc="http://creativecommons.org/ns#" xmlns:dc="http://purl.org/dc/elements/1.1/" xmlns:inkscape="http://www.inkscape.org/namespaces/inkscape" xmlns:rdf="http://www.w3.org/1999/02/22-rdf-syntax-ns#" xmlns:svg="http://www.w3.org/2000/svg" xmlns:xlink="http://www.w3.org/1999/xlink">
<!--
TypeTray - Type tray - allows only continuous walls

Created with Boxes.py (https://festi.info/boxes.py)
Creation date: 2022-06-16 14:22:02
Command line (remove spaces between dashes): boxes TypeTray - -FingerJoint_angle=90.0 - -FingerJoint_style=rectangular - -FingerJoint_surroundingspaces=0.5 - -FingerJoint_edge_width=1.0 - -FingerJoint_extra_length=0.0 - -FingerJoint_finger=2.0 - -FingerJoint_play=0.0 - -FingerJoint_space=2.0 - -FingerJoint_width=1.0 - -Stackable_angle=60 - -Stackable_height=2.0 - -Stackable_holedistance=1.0 - -Stackable_width=4.0 - -Hinge_grip_percentage=0 - -Hinge_outset=0 - -Hinge_pinwidth=0.5 - -Hinge_style=outset - -Hinge_axle=2.0 - -Hinge_grip_length=0 - -Hinge_hingestrength=1 - -CabinetHinge_bore=3.2 - -CabinetHinge_eyes_per_hinge=5 - -CabinetHinge_hinges=2 - -CabinetHinge_style=inside - -CabinetHinge_eye=1.5 - -CabinetHinge_play=0.05 - -CabinetHinge_spacing=2.0 - -Lid_angle=90.0 - -Lid_hole_width=0 - -Lid_second_pin=0 - -Lid_second_pin=1 - -Lid_spring=both - -Lid_style=rectangular - -Lid_surroundingspaces=2.0 - -Lid_edge_width=1.0 - -Lid_extra_length=0.0 - -Lid_finger=3.0 - -Lid_play=0.05 - -Lid_space=2.0 - -Lid_width=1.0 - -Click_angle=5.0 - -Click_bottom_radius=0.1 - -Click_depth=3.0 - -RoundedTriangleEdge_height=150.0 - -RoundedTriangleEdge_r_hole=2.0 - -RoundedTriangleEdge_radius=30.0 - -RoundedTriangleEdge_outset=1 - -Mounting_d_head=6.5 - -Mounting_d_shaft=3.0 - -Mounting_margin=0.125 - -Mounting_num=2 - -Mounting_side=left '- -Mounting_style=straight edge, within' '- -sx=177*2' '- -sy=125.5*2' - -h=95 - -hi=0.0 - -outside=0 - -outside=1 - -bottom_edge=h - -top_edge=e - -back_height=0.0 - -radius=0.0 - -gripheight=30 - -gripwidth=70 - -thickness=4.0 - -format=svg - -tabs=0.0 - -debug=0 - -labels=0 - -labels=1 - -reference=0 - -inner_corners=loop - -burn=0.1
Url: http://www.festi.info/TypeTray?FingerJoint_angle=90.0&FingerJoint_style=rectangular&FingerJoint_surroundingspaces=0.5&FingerJoint_edge_width=1.0&FingerJoint_extra_length=0.0&FingerJoint_finger=2.0&FingerJoint_play=0.0&FingerJoint_space=2.0&FingerJoint_width=1.0&Stackable_angle=60&Stackable_height=2.0&Stackable_holedistance=1.0&Stackable_width=4.0&Hinge_grip_percentage=0&Hinge_outset=0&Hinge_pinwidth=0.5&Hinge_style=outset&Hinge_axle=2.0&Hinge_grip_length=0&Hinge_hingestrength=1&CabinetHinge_bore=3.2&CabinetHinge_eyes_per_hinge=5&CabinetHinge_hinges=2&CabinetHinge_style=inside&CabinetHinge_eye=1.5&CabinetHinge_play=0.05&CabinetHinge_spacing=2.0&Lid_angle=90.0&Lid_hole_width=0&Lid_second_pin=0&Lid_second_pin=1&Lid_spring=both&Lid_style=rectangular&Lid_surroundingspaces=2.0&Lid_edge_width=1.0&Lid_extra_length=0.0&Lid_finger=3.0&Lid_play=0.05&Lid_space=2.0&Lid_width=1.0&Click_angle=5.0&Click_bottom_radius=0.1&Click_depth=3.0&RoundedTriangleEdge_height=150.0&RoundedTriangleEdge_r_hole=2.0&RoundedTriangleEdge_radius=30.0&RoundedTriangleEdge_outset=1&Mounting_d_head=6.5&Mounting_d_shaft=3.0&Mounting_margin=0.125&Mounting_num=2&Mounting_side=left&Mounting_style=straight+edge%2C+within&sx=177*2&sy=125.5*2&h=95&hi=0.0&outside=0&outside=1&bottom_edge=h&top_edge=e&back_height=0.0&radius=0.0&gripheight=30&gripwidth=70&thickness=4.0&format=svg&tabs=0.0&debug=0&labels=0&labels=1&reference=0&inner_corners=loop&burn=0.1&render=1
SettingsUrl: http://www.festi.info/TypeTray?FingerJoint_angle=90.0&FingerJoint_style=rectangular&FingerJoint_surroundingspaces=0.5&FingerJoint_edge_width=1.0&FingerJoint_extra_length=0.0&FingerJoint_finger=2.0&FingerJoint_play=0.0&FingerJoint_space=2.0&FingerJoint_width=1.0&Stackable_angle=60&Stackable_height=2.0&Stackable_holedistance=1.0&Stackable_width=4.0&Hinge_grip_percentage=0&Hinge_outset=0&Hinge_pinwidth=0.5&Hinge_style=outset&Hinge_axle=2.0&Hinge_grip_length=0&Hinge_hingestrength=1&CabinetHinge_bore=3.2&CabinetHinge_eyes_per_hinge=5&CabinetHinge_hinges=2&CabinetHinge_style=inside&CabinetHinge_eye=1.5&CabinetHinge_play=0.05&CabinetHinge_spacing=2.0&Lid_angle=90.0&Lid_hole_width=0&Lid_second_pin=0&Lid_second_pin=1&Lid_spring=both&Lid_style=rectangular&Lid_surroundingspaces=2.0&Lid_edge_width=1.0&Lid_extra_length=0.0&Lid_finger=3.0&Lid_play=0.05&Lid_space=2.0&Lid_width=1.0&Click_angle=5.0&Click_bottom_radius=0.1&Click_depth=3.0&RoundedTriangleEdge_height=150.0&RoundedTriangleEdge_r_hole=2.0&RoundedTriangleEdge_radius=30.0&RoundedTriangleEdge_outset=1&Mounting_d_head=6.5&Mounting_d_shaft=3.0&Mounting_margin=0.125&Mounting_num=2&Mounting_side=left&Mounting_style=straight+edge%2C+within&sx=177*2&sy=125.5*2&h=95&hi=0.0&outside=0&outside=1&bottom_edge=h&top_edge=e&back_height=0.0&radius=0.0&gripheight=30&gripwidth=70&thickness=4.0&format=svg&tabs=0.0&debug=0&labels=0&labels=1&reference=0&inner_corners=loop&burn=0.1
-->
<title>TypeTray</title>
<metadata>
<rdf:RDF><cc:Work>
<dc:title>Tray - TypeTray</dc:title>
<dc:date>2022-06-16 14:22:02</dc:date>
<dc:source>http://www.festi.info/TypeTray?FingerJoint_angle=90.0&amp;FingerJoint_style=rectangular&amp;FingerJoint_surroundingspaces=0.5&amp;FingerJoint_edge_width=1.0&amp;FingerJoint_extra_length=0.0&amp;FingerJoint_finger=2.0&amp;FingerJoint_play=0.0&amp;FingerJoint_space=2.0&amp;FingerJoint_width=1.0&amp;Stackable_angle=60&amp;Stackable_height=2.0&amp;Stackable_holedistance=1.0&amp;Stackable_width=4.0&amp;Hinge_grip_percentage=0&amp;Hinge_outset=0&amp;Hinge_pinwidth=0.5&amp;Hinge_style=outset&amp;Hinge_axle=2.0&amp;Hinge_grip_length=0&amp;Hinge_hingestrength=1&amp;CabinetHinge_bore=3.2&amp;CabinetHinge_eyes_per_hinge=5&amp;CabinetHinge_hinges=2&amp;CabinetHinge_style=inside&amp;CabinetHinge_eye=1.5&amp;CabinetHinge_play=0.05&amp;CabinetHinge_spacing=2.0&amp;Lid_angle=90.0&amp;Lid_hole_width=0&amp;Lid_second_pin=0&amp;Lid_second_pin=1&amp;Lid_spring=both&amp;Lid_style=rectangular&amp;Lid_surroundingspaces=2.0&amp;Lid_edge_width=1.0&amp;Lid_extra_length=0.0&amp;Lid_finger=3.0&amp;Lid_play=0.05&amp;Lid_space=2.0&amp;Lid_width=1.0&amp;Click_angle=5.0&amp;Click_bottom_radius=0.1&amp;Click_depth=3.0&amp;RoundedTriangleEdge_height=150.0&amp;RoundedTriangleEdge_r_hole=2.0&amp;RoundedTriangleEdge_radius=30.0&amp;RoundedTriangleEdge_outset=1&amp;Mounting_d_head=6.5&amp;Mounting_d_shaft=3.0&amp;Mounting_margin=0.125&amp;Mounting_num=2&amp;Mounting_side=left&amp;Mounting_style=straight+edge%2C+within&amp;sx=177*2&amp;sy=125.5*2&amp;h=95&amp;hi=0.0&amp;outside=0&amp;outside=1&amp;bottom_edge=h&amp;top_edge=e&amp;back_height=0.0&amp;radius=0.0&amp;gripheight=30&amp;gripwidth=70&amp;thickness=4.0&amp;format=svg&amp;tabs=0.0&amp;debug=0&amp;labels=0&amp;labels=1&amp;reference=0&amp;inner_corners=loop&amp;burn=0.1&amp;render=1</dc:source>
<dc:description>Type tray - allows only continuous walls

Created with Boxes.py (https://festi.info/boxes.py)
Command line: boxes TypeTray --FingerJoint_angle=90.0 --FingerJoint_style=rectangular --FingerJoint_surroundingspaces=0.5 --FingerJoint_edge_width=1.0 --FingerJoint_extra_length=0.0 --FingerJoint_finger=2.0 --FingerJoint_play=0.0 --FingerJoint_space=2.0 --FingerJoint_width=1.0 --Stackable_angle=60 --Stackable_height=2.0 --Stackable_holedistance=1.0 --Stackable_width=4.0 --Hinge_grip_percentage=0 --Hinge_outset=0 --Hinge_pinwidth=0.5 --Hinge_style=outset --Hinge_axle=2.0 --Hinge_grip_length=0 --Hinge_hingestrength=1 --CabinetHinge_bore=3.2 --CabinetHinge_eyes_per_hinge=5 --CabinetHinge_hinges=2 --CabinetHinge_style=inside --CabinetHinge_eye=1.5 --CabinetHinge_play=0.05 --CabinetHinge_spacing=2.0 --Lid_angle=90.0 --Lid_hole_width=0 --Lid_second_pin=0 --Lid_second_pin=1 --Lid_spring=both --Lid_style=rectangular --Lid_surroundingspaces=2.0 --Lid_edge_width=1.0 --Lid_extra_length=0.0 --Lid_finger=3.0 --Lid_play=0.05 --Lid_space=2.0 --Lid_width=1.0 --Click_angle=5.0 --Click_bottom_radius=0.1 --Click_depth=3.0 --RoundedTriangleEdge_height=150.0 --RoundedTriangleEdge_r_hole=2.0 --RoundedTriangleEdge_radius=30.0 --RoundedTriangleEdge_outset=1 --Mounting_d_head=6.5 --Mounting_d_shaft=3.0 --Mounting_margin=0.125 --Mounting_num=2 --Mounting_side=left '--Mounting_style=straight edge, within' '--sx=177*2' '--sy=125.5*2' --h=95 --hi=0.0 --outside=0 --outside=1 --bottom_edge=h --top_edge=e --back_height=0.0 --radius=0.0 --gripheight=30 --gripwidth=70 --thickness=4.0 --format=svg --tabs=0.0 --debug=0 --labels=0 --labels=1 --reference=0 --inner_corners=loop --burn=0.1
Url: http://www.festi.info/TypeTray?FingerJoint_angle=90.0&amp;FingerJoint_style=rectangular&amp;FingerJoint_surroundingspaces=0.5&amp;FingerJoint_edge_width=1.0&amp;FingerJoint_extra_length=0.0&amp;FingerJoint_finger=2.0&amp;FingerJoint_play=0.0&amp;FingerJoint_space=2.0&amp;FingerJoint_width=1.0&amp;Stackable_angle=60&amp;Stackable_height=2.0&amp;Stackable_holedistance=1.0&amp;Stackable_width=4.0&amp;Hinge_grip_percentage=0&amp;Hinge_outset=0&amp;Hinge_pinwidth=0.5&amp;Hinge_style=outset&amp;Hinge_axle=2.0&amp;Hinge_grip_length=0&amp;Hinge_hingestrength=1&amp;CabinetHinge_bore=3.2&amp;CabinetHinge_eyes_per_hinge=5&amp;CabinetHinge_hinges=2&amp;CabinetHinge_style=inside&amp;CabinetHinge_eye=1.5&amp;CabinetHinge_play=0.05&amp;CabinetHinge_spacing=2.0&amp;Lid_angle=90.0&amp;Lid_hole_width=0&amp;Lid_second_pin=0&amp;Lid_second_pin=1&amp;Lid_spring=both&amp;Lid_style=rectangular&amp;Lid_surroundingspaces=2.0&amp;Lid_edge_width=1.0&amp;Lid_extra_length=0.0&amp;Lid_finger=3.0&amp;Lid_play=0.05&amp;Lid_space=2.0&amp;Lid_width=1.0&amp;Click_angle=5.0&amp;Click_bottom_radius=0.1&amp;Click_depth=3.0&amp;RoundedTriangleEdge_height=150.0&amp;RoundedTriangleEdge_r_hole=2.0&amp;RoundedTriangleEdge_radius=30.0&amp;RoundedTriangleEdge_outset=1&amp;Mounting_d_head=6.5&amp;Mounting_d_shaft=3.0&amp;Mounting_margin=0.125&amp;Mounting_num=2&amp;Mounting_side=left&amp;Mounting_style=straight+edge%2C+within&amp;sx=177*2&amp;sy=125.5*2&amp;h=95&amp;hi=0.0&amp;outside=0&amp;outside=1&amp;bottom_edge=h&amp;top_edge=e&amp;back_height=0.0&amp;radius=0.0&amp;gripheight=30&amp;gripwidth=70&amp;thickness=4.0&amp;format=svg&amp;tabs=0.0&amp;debug=0&amp;labels=0&amp;labels=1&amp;reference=0&amp;inner_corners=loop&amp;burn=0.1&amp;render=1
SettingsUrl: http://www.festi.info/TypeTray?FingerJoint_angle=90.0&amp;FingerJoint_style=rectangular&amp;FingerJoint_surroundingspaces=0.5&amp;FingerJoint_edge_width=1.0&amp;FingerJoint_extra_length=0.0&amp;FingerJoint_finger=2.0&amp;FingerJoint_play=0.0&amp;FingerJoint_space=2.0&amp;FingerJoint_width=1.0&amp;Stackable_angle=60&amp;Stackable_height=2.0&amp;Stackable_holedistance=1.0&amp;Stackable_width=4.0&amp;Hinge_grip_percentage=0&amp;Hinge_outset=0&amp;Hinge_pinwidth=0.5&amp;Hinge_style=outset&amp;Hinge_axle=2.0&amp;Hinge_grip_length=0&amp;Hinge_hingestrength=1&amp;CabinetHinge_bore=3.2&amp;CabinetHinge_eyes_per_hinge=5&amp;CabinetHinge_hinges=2&amp;CabinetHinge_style=inside&amp;CabinetHinge_eye=1.5&amp;CabinetHinge_play=0.05&amp;CabinetHinge_spacing=2.0&amp;Lid_angle=90.0&amp;Lid_hole_width=0&amp;Lid_second_pin=0&amp;Lid_second_pin=1&amp;Lid_spring=both&amp;Lid_style=rectangular&amp;Lid_surroundingspaces=2.0&amp;Lid_edge_width=1.0&amp;Lid_extra_length=0.0&amp;Lid_finger=3.0&amp;Lid_play=0.05&amp;Lid_space=2.0&amp;Lid_width=1.0&amp;Click_angle=5.0&amp;Click_bottom_radius=0.1&amp;Click_depth=3.0&amp;RoundedTriangleEdge_height=150.0&amp;RoundedTriangleEdge_r_hole=2.0&amp;RoundedTriangleEdge_radius=30.0&amp;RoundedTriangleEdge_outset=1&amp;Mounting_d_head=6.5&amp;Mounting_d_shaft=3.0&amp;Mounting_margin=0.125&amp;Mounting_num=2&amp;Mounting_side=left&amp;Mounting_style=straight+edge%2C+within&amp;sx=177*2&amp;sy=125.5*2&amp;h=95&amp;hi=0.0&amp;outside=0&amp;outside=1&amp;bottom_edge=h&amp;top_edge=e&amp;back_height=0.0&amp;radius=0.0&amp;gripheight=30&amp;gripwidth=70&amp;thickness=4.0&amp;format=svg&amp;tabs=0.0&amp;debug=0&amp;labels=0&amp;labels=1&amp;reference=0&amp;inner_corners=loop&amp;burn=0.1
</dc:description>
</cc:Work></rdf:RDF></metadata>
<g id="p-0" style="fill:none;stroke-linecap:round;stroke-linejoin:round;">
  <path d="M 189.000 539.200 V 543.100 C 189.000 543.200 189.100 543.100 189.000 543.100 H 185.200 C 185.100 543.100 185.200 543.200 185.200 543.100 V 535.300 C 185.200 535.200 185.100 535.300 185.200 535.300 H 189.000 C 189.100 535.300 189.000 535.200 189.000 535.300 V 539.200 Z" stroke="rgb(0,0,255)" stroke-width="0.20" />
  <path d="M 189.000 523.200 V 527.100 C 189.000 527.200 189.100 527.100 189.000 527.100 H 185.200 C 185.100 527.100 185.200 527.200 185.200 527.100 V 519.300 C 185.200 519.200 185.100 519.300 185.200 519.300 H 189.000 C 189.100 519.300 189.000 519.200 189.000 519.300 V 523.200 Z" stroke="rgb(0,0,255)" stroke-width="0.20" />
  <path d="M 189.000 507.200 V 511.100 C 189.000 511.200 189.100 511.100 189.000 511.100 H 185.200 C 185.100 511.100 185.200 511.200 185.200 511.100 V 503.300 C 185.200 503.200 185.100 503.300 185.200 503.300 H 189.000 C 189.100 503.300 189.000 503.200 189.000 503.300 V 507.200 Z" stroke="rgb(0,0,255)" stroke-width="0.20" />
  <path d="M 189.000 491.200 V 495.100 C 189.000 495.200 189.100 495.100 189.000 495.100 H 185.200 C 185.100 495.100 185.200 495.200 185.200 495.100 V 487.300 C 185.200 487.200 185.100 487.300 185.200 487.300 H 189.000 C 189.100 487.300 189.000 487.200 189.000 487.300 V 491.200 Z" stroke="rgb(0,0,255)" stroke-width="0.20" />
  <path d="M 189.000 475.200 V 479.100 C 189.000 479.200 189.100 479.100 189.000 479.100 H 185.200 C 185.100 479.100 185.200 479.200 185.200 479.100 V 471.300 C 185.200 471.200 185.100 471.300 185.200 471.300 H 189.000 C 189.100 471.300 189.000 471.200 189.000 471.300 V 475.200 Z" stroke="rgb(0,0,255)" stroke-width="0.20" />
  <path d="M 27.100 556.600 H 23.200 C 23.100 556.600 23.200 556.700 23.200 556.600 V 552.800 C 23.200 552.700 23.100 552.800 23.200 552.800 H 31.000 C 31.100 552.800 31.000 552.700 31.000 552.800 V 556.600 C 31.000 556.700 31.100 556.600 31.000 556.600 H 27.100 Z" stroke="rgb(0,0,255)" stroke-width="0.20" />
  <path d="M 43.100 556.600 H 39.200 C 39.100 556.600 39.200 556.700 39.200 556.600 V 552.800 C 39.200 552.700 39.100 552.800 39.200 552.800 H 47.000 C 47.100 552.800 47.000 552.700 47.000 552.800 V 556.600 C 47.000 556.700 47.100 556.600 47.000 556.600 H 43.100 Z" stroke="rgb(0,0,255)" stroke-width="0.20" />
  <path d="M 59.100 556.600 H 55.200 C 55.100 556.600 55.200 556.700 55.200 556.600 V 552.800 C 55.200 552.700 55.100 552.800 55.200 552.800 H 63.000 C 63.100 552.800 63.000 552.700 63.000 552.800 V 556.600 C 63.000 556.700 63.100 556.600 63.000 556.600 H 59.100 Z" stroke="rgb(0,0,255)" stroke-width="0.20" />
  <path d="M 75.100 556.600 H 71.200 C 71.100 556.600 71.200 556.700 71.200 556.600 V 552.800 C 71.200 552.700 71.100 552.800 71.200 552.800 H 79.000 C 79.100 552.800 79.000 552.700 79.000 552.800 V 556.600 C 79.000 556.700 79.100 556.600 79.000 556.600 H 75.100 Z" stroke="rgb(0,0,255)" stroke-width="0.20" />
  <path d="M 91.100 556.600 H 87.200 C 87.100 556.600 87.200 556.700 87.200 556.600 V 552.800 C 87.200 552.700 87.100 552.800 87.200 552.800 H 95.000 C 95.100 552.800 95.000 552.700 95.000 552.800 V 556.600 C 95.000 556.700 95.100 556.600 95.000 556.600 H 91.100 Z" stroke="rgb(0,0,255)" stroke-width="0.20" />
  <path d="M 107.100 556.600 H 103.200 C 103.100 556.600 103.200 556.700 103.200 556.600 V 552.800 C 103.200 552.700 103.100 552.800 103.200 552.800 H 111.000 C 111.100 552.800 111.000 552.700 111.000 552.800 V 556.600 C 111.000 556.700 111.100 556.600 111.000 556.600 H 107.100 Z" stroke="rgb(0,0,255)" stroke-width="0.20" />
  <path d="M 123.100 556.600 H 119.200 C 119.100 556.600 119.200 556.700 119.200 556.600 V 552.800 C 119.200 552.700 119.100 552.800 119.200 552.800 H 127.000 C 127.100 552.800 127.000 552.700 127.000 552.800 V 556.600 C 127.000 556.700 127.100 556.600 127.000 556.600 H 123.100 Z" stroke="rgb(0,0,255)" stroke-width="0.20" />
  <path d="M 139.100 556.600 H 135.200 C 135.100 556.600 135.200 556.700 135.200 556.600 V 552.800 C 135.200 552.700 135.100 552.800 135.200 552.800 H 143.000 C 143.100 552.800 143.000 552.700 143.000 552.800 V 556.600 C 143.000 556.700 143.100 556.600 143.000 556.600 H 139.100 Z" stroke="rgb(0,0,255)" stroke-width="0.20" />
  <path d="M 155.100 556.600 H 151.200 C 151.100 556.600 151.200 556.700 151.200 556.600 V 552.800 C 151.200 552.700 151.100 552.800 151.200 552.800 H 159.000 C 159.100 552.800 159.000 552.700 159.000 552.800 V 556.600 C 159.000 556.700 159.100 556.600 159.000 556.600 H 155.100 Z" stroke="rgb(0,0,255)" stroke-width="0.20" />
  <path d="M 171.100 556.600 H 167.200 C 167.100 556.600 167.200 556.700 167.200 556.600 V 552.800 C 167.200 552.700 167.100 552.800 167.200 552.800 H 175.000 C 175.100 552.800 175.000 552.700 175.000 552.800 V 556.600 C 175.000 556.700 175.100 556.600 175.000 556.600 H 171.100 Z" stroke="rgb(0,0,255)" stroke-width="0.20" />
  <path d="M 187.100 556.600 H 183.200 C 183.100 556.600 183.200 556.700 183.200 556.600 V 552.800 C 183.200 552.700 183.100 552.800 183.200 552.800 H 191.000 C 191.100 552.800 191.000 552.700 191.000 552.800 V 556.600 C 191.000 556.700 191.100 556.600 191.000 556.600 H 187.100 Z" stroke="rgb(0,0,255)" stroke-width="0.20" />
  <path d="M 203.100 556.600 H 199.200 C 199.100 556.600 199.200 556.700 199.200 556.600 V 552.800 C 199.200 552.700 199.100 552.800 199.200 552.800 H 207.000 C 207.100 552.800 207.000 552.700 207.000 552.800 V 556.600 C 207.000 556.700 207.100 556.600 207.000 556.600 H 203.100 Z" stroke="rgb(0,0,255)" stroke-width="0.20" />
  <path d="M 219.100 556.600 H 215.200 C 215.100 556.600 215.200 556.700 215.200 556.600 V 552.800 C 215.200 552.700 215.100 552.800 215.200 552.800 H 223.000 C 223.100 552.800 223.000 552.700 223.000 552.800 V 556.600 C 223.000 556.700 223.100 556.600 223.000 556.600 H 219.100 Z" stroke="rgb(0,0,255)" stroke-width="0.20" />
  <path d="M 235.100 556.600 H 231.200 C 231.100 556.600 231.200 556.700 231.200 556.600 V 552.800 C 231.200 552.700 231.100 552.800 231.200 552.800 H 239.000 C 239.100 552.800 239.000 552.700 239.000 552.800 V 556.600 C 239.000 556.700 239.100 556.600 239.000 556.600 H 235.100 Z" stroke="rgb(0,0,255)" stroke-width="0.20" />
  <path d="M 251.100 556.600 H 247.200 C 247.100 556.600 247.200 556.700 247.200 556.600 V 552.800 C 247.200 552.700 247.100 552.800 247.200 552.800 H 255.000 C 255.100 552.800 255.000 552.700 255.000 552.800 V 556.600 C 255.000 556.700 255.100 556.600 255.000 556.600 H 251.100 Z" stroke="rgb(0,0,255)" stroke-width="0.20" />
  <path d="M 267.100 556.600 H 263.200 C 263.100 556.600 263.200 556.700 263.200 556.600 V 552.800 C 263.200 552.700 263.100 552.800 263.200 552.800 H 271.000 C 271.100 552.800 271.000 552.700 271.000 552.800 V 556.600 C 271.000 556.700 271.100 556.600 271.000 556.600 H 267.100 Z" stroke="rgb(0,0,255)" stroke-width="0.20" />
  <path d="M 283.100 556.600 H 279.200 C 279.100 556.600 279.200 556.700 279.200 556.600 V 552.800 C 279.200 552.700 279.100 552.800 279.200 552.800 H 287.000 C 287.100 552.800 287.000 552.700 287.000 552.800 V 556.600 C 287.000 556.700 287.100 556.600 287.000 556.600 H 283.100 Z" stroke="rgb(0,0,255)" stroke-width="0.20" />
  <path d="M 299.100 556.600 H 295.200 C 295.100 556.600 295.200 556.700 295.200 556.600 V 552.800 C 295.200 552.700 295.100 552.800 295.200 552.800 H 303.000 C 303.100 552.800 303.000 552.700 303.000 552.800 V 556.600 C 303.000 556.700 303.100 556.600 303.000 556.600 H 299.100 Z" stroke="rgb(0,0,255)" stroke-width="0.20" />
  <path d="M 315.100 556.600 H 311.200 C 311.100 556.600 311.200 556.700 311.200 556.600 V 552.800 C 311.200 552.700 311.100 552.800 311.200 552.800 H 319.000 C 319.100 552.800 319.000 552.700 319.000 552.800 V 556.600 C 319.000 556.700 319.100 556.600 319.000 556.600 H 315.100 Z" stroke="rgb(0,0,255)" stroke-width="0.20" />
  <path d="M 331.100 556.600 H 327.200 C 327.100 556.600 327.200 556.700 327.200 556.600 V 552.800 C 327.200 552.700 327.100 552.800 327.200 552.800 H 335.000 C 335.100 552.800 335.000 552.700 335.000 552.800 V 556.600 C 335.000 556.700 335.100 556.600 335.000 556.600 H 331.100 Z" stroke="rgb(0,0,255)" stroke-width="0.20" />
  <path d="M 347.100 556.600 H 343.200 C 343.100 556.600 343.200 556.700 343.200 556.600 V 552.800 C 343.200 552.700 343.100 552.800 343.200 552.800 H 351.000 C 351.100 552.800 351.000 552.700 351.000 552.800 V 556.600 C 351.000 556.700 351.100 556.600 351.000 556.600 H 347.100 Z" stroke="rgb(0,0,255)" stroke-width="0.20" />
  <path d="M 14.100 560.800 H 360.100 H 364.100 C 364.155 560.800 364.200 560.755 364.200 560.700 V 555.200 C 364.200 555.145 364.155 555.100 364.100 555.100 H 360.200 C 360.100 555.100 360.200 555.200 360.200 555.100 V 547.300 C 360.200 547.200 360.100 547.300 360.200 547.300 H 364.100 C 364.155 547.300 364.200 547.255 364.200 547.200 V 539.200 C 364.200 539.145 364.155 539.100 364.100 539.100 H 360.200 C 360.100 539.100 360.200 539.200 360.200 539.100 V 531.300 C 360.200 531.200 360.100 531.300 360.200 531.300 H 364.100 C 364.155 531.300 364.200 531.255 364.200 531.200 V 523.200 C 364.200 523.145 364.155 523.100 364.100 523.100 H 360.200 C 360.100 523.100 360.200 523.200 360.200 523.100 V 515.300 C 360.200 515.200 360.100 515.300 360.200 515.300 H 364.100 C 364.155 515.300 364.200 515.255 364.200 515.200 V 507.200 C 364.200 507.145 364.155 507.100 364.100 507.100 H 360.200 C 360.100 507.100 360.200 507.200 360.200 507.100 V 499.300 C 360.200 499.200 360.100 499.300 360.200 499.300 H 364.100 C 364.155 499.300 364.200 499.255 364.200 499.200 V 491.200 C 364.200 491.145 364.155 491.100 364.100 491.100 H 360.200 C 360.100 491.100 360.200 491.200 360.200 491.100 V 483.300 C 360.200 483.200 360.100 483.300 360.200 483.300 H 364.100 C 364.155 483.300 364.200 483.255 364.200 483.200 V 475.200 C 364.200 475.145 364.155 475.100 364.100 475.100 H 360.200 C 360.100 475.100 360.200 475.200 360.200 475.100 V 467.300 C 360.200 467.200 360.100 467.300 360.200 467.300 H 364.100 C 364.155 467.300 364.200 467.255 364.200 467.200 V 461.700 C 364.200 461.645 364.155 461.600 364.100 461.600 H 360.100 H 14.100 H 10.100 C 10.045 461.600 10.000 461.645 10.000 461.700 V 467.200 C 10.000 467.255 10.045 467.300 10.100 467.300 H 14.000 C 14.100 467.300 14.000 467.200 14.000 467.300 V 475.100 C 14.000 475.200 14.100 475.100 14.000 475.100 H 10.100 C 10.045 475.100 10.000 475.145 10.000 475.200 V 483.200 C 10.000 483.255 10.045 483.300 10.100 483.300 H 14.000 C 14.100 483.300 14.000 483.200 14.000 483.300 V 491.100 C 14.000 491.200 14.100 491.100 14.000 491.100 H 10.100 C 10.045 491.100 10.000 491.145 10.000 491.200 V 499.200 C 10.000 499.255 10.045 499.300 10.100 499.300 H 14.000 C 14.100 499.300 14.000 499.200 14.000 499.300 V 507.100 C 14.000 507.200 14.100 507.100 14.000 507.100 H 10.100 C 10.045 507.100 10.000 507.145 10.000 507.200 V 515.200 C 10.000 515.255 10.045 515.300 10.100 515.300 H 14.000 C 14.100 515.300 14.000 515.200 14.000 515.300 V 523.100 C 14.000 523.200 14.100 523.100 14.000 523.100 H 10.100 C 10.045 523.100 10.000 523.145 10.000 523.200 V 531.200 C 10.000 531.255 10.045 531.300 10.100 531.300 H 14.000 C 14.100 531.300 14.000 531.200 14.000 531.300 V 539.100 C 14.000 539.200 14.100 539.100 14.000 539.100 H 10.100 C 10.045 539.100 10.000 539.145 10.000 539.200 V 547.200 C 10.000 547.255 10.045 547.300 10.100 547.300 H 14.000 C 14.100 547.300 14.000 547.200 14.000 547.300 V 555.100 C 14.000 555.200 14.100 555.100 14.000 555.100 H 10.100 C 10.045 555.100 10.000 555.145 10.000 555.200 V 560.700 C 10.000 560.755 10.045 560.800 10.100 560.800 H 14.100 Z" stroke="rgb(0,0,0)" stroke-width="0.20" />
  <path d="M 187.100 491.800 H 207.100 C 209.715 491.800 212.285 492.488 214.550 493.796 C 216.815 495.104 218.696 496.985 220.004 499.250 C 221.312 501.515 222.000 504.085 222.000 506.700 C 222.000 509.315 221.312 511.885 220.004 514.150 C 218.696 516.415 216.815 518.296 214.550 519.604 C 212.285 520.912 209.715 521.600 207.100 521.600 H 167.100 C 164.485 521.600 161.915 520.912 159.650 519.604 C 157.385 518.296 155.504 516.415 154.196 514.150 C 152.888 511.885 152.200 509.315 152.200 506.700 C 152.200 504.085 152.888 501.515 154.196 499.250 C 155.504 496.985 157.385 495.104 159.650 493.796 C 161.915 492.488 164.485 491.800 167.100 491.800 H 187.100 Z" stroke="rgb(0,0,255)" stroke-width="0.20" />
</g>
<g id="p-1" style="fill:none;stroke-linecap:round;stroke-linejoin:round;">
  <path d="M 185.200 438.000 V 441.900 C 185.200 442.000 185.100 441.900 185.200 441.900 H 189.000 C 189.100 441.900 189.000 442.000 189.000 441.900 V 434.100 C 189.000 434.000 189.100 434.100 189.000 434.100 H 185.200 C 185.100 434.100 185.200 434.000 185.200 434.100 V 438.000 Z" stroke="rgb(0,0,255)" stroke-width="0.20" />
  <path d="M 185.200 422.000 V 425.900 C 185.200 426.000 185.100 425.900 185.200 425.900 H 189.000 C 189.100 425.900 189.000 426.000 189.000 425.900 V 418.100 C 189.000 418.000 189.100 418.100 189.000 418.100 H 185.200 C 185.100 418.100 185.200 418.000 185.200 418.100 V 422.000 Z" stroke="rgb(0,0,255)" stroke-width="0.20" />
  <path d="M 185.200 406.000 V 409.900 C 185.200 410.000 185.100 409.900 185.200 409.900 H 189.000 C 189.100 409.900 189.000 410.000 189.000 409.900 V 402.100 C 189.000 402.000 189.100 402.100 189.000 402.100 H 185.200 C 185.100 402.100 185.200 402.000 185.200 402.100 V 406.000 Z" stroke="rgb(0,0,255)" stroke-width="0.20" />
  <path d="M 185.200 390.000 V 393.900 C 185.200 394.000 185.100 393.900 185.200 393.900 H 189.000 C 189.100 393.900 189.000 394.000 189.000 393.900 V 386.100 C 189.000 386.000 189.100 386.100 189.000 386.100 H 185.200 C 185.100 386.100 185.200 386.000 185.200 386.100 V 390.000 Z" stroke="rgb(0,0,255)" stroke-width="0.20" />
  <path d="M 185.200 374.000 V 377.900 C 185.200 378.000 185.100 377.900 185.200 377.900 H 189.000 C 189.100 377.900 189.000 378.000 189.000 377.900 V 370.100 C 189.000 370.000 189.100 370.100 189.000 370.100 H 185.200 C 185.100 370.100 185.200 370.000 185.200 370.100 V 374.000 Z" stroke="rgb(0,0,255)" stroke-width="0.20" />
  <path d="M 27.100 455.400 H 23.200 C 23.100 455.400 23.200 455.500 23.200 455.400 V 451.600 C 23.200 451.500 23.100 451.600 23.200 451.600 H 31.000 C 31.100 451.600 31.000 451.500 31.000 451.600 V 455.400 C 31.000 455.500 31.100 455.400 31.000 455.400 H 27.100 Z" stroke="rgb(0,0,255)" stroke-width="0.20" />
  <path d="M 43.100 455.400 H 39.200 C 39.100 455.400 39.200 455.500 39.200 455.400 V 451.600 C 39.200 451.500 39.100 451.600 39.200 451.600 H 47.000 C 47.100 451.600 47.000 451.500 47.000 451.600 V 455.400 C 47.000 455.500 47.100 455.400 47.000 455.400 H 43.100 Z" stroke="rgb(0,0,255)" stroke-width="0.20" />
  <path d="M 59.100 455.400 H 55.200 C 55.100 455.400 55.200 455.500 55.200 455.400 V 451.600 C 55.200 451.500 55.100 451.600 55.200 451.600 H 63.000 C 63.100 451.600 63.000 451.500 63.000 451.600 V 455.400 C 63.000 455.500 63.100 455.400 63.000 455.400 H 59.100 Z" stroke="rgb(0,0,255)" stroke-width="0.20" />
  <path d="M 75.100 455.400 H 71.200 C 71.100 455.400 71.200 455.500 71.200 455.400 V 451.600 C 71.200 451.500 71.100 451.600 71.200 451.600 H 79.000 C 79.100 451.600 79.000 451.500 79.000 451.600 V 455.400 C 79.000 455.500 79.100 455.400 79.000 455.400 H 75.100 Z" stroke="rgb(0,0,255)" stroke-width="0.20" />
  <path d="M 91.100 455.400 H 87.200 C 87.100 455.400 87.200 455.500 87.200 455.400 V 451.600 C 87.200 451.500 87.100 451.600 87.200 451.600 H 95.000 C 95.100 451.600 95.000 451.500 95.000 451.600 V 455.400 C 95.000 455.500 95.100 455.400 95.000 455.400 H 91.100 Z" stroke="rgb(0,0,255)" stroke-width="0.20" />
  <path d="M 107.100 455.400 H 103.200 C 103.100 455.400 103.200 455.500 103.200 455.400 V 451.600 C 103.200 451.500 103.100 451.600 103.200 451.600 H 111.000 C 111.100 451.600 111.000 451.500 111.000 451.600 V 455.400 C 111.000 455.500 111.100 455.400 111.000 455.400 H 107.100 Z" stroke="rgb(0,0,255)" stroke-width="0.20" />
  <path d="M 123.100 455.400 H 119.200 C 119.100 455.400 119.200 455.500 119.200 455.400 V 451.600 C 119.200 451.500 119.100 451.600 119.200 451.600 H 127.000 C 127.100 451.600 127.000 451.500 127.000 451.600 V 455.400 C 127.000 455.500 127.100 455.400 127.000 455.400 H 123.100 Z" stroke="rgb(0,0,255)" stroke-width="0.20" />
  <path d="M 139.100 455.400 H 135.200 C 135.100 455.400 135.200 455.500 135.200 455.400 V 451.600 C 135.200 451.500 135.100 451.600 135.200 451.600 H 143.000 C 143.100 451.600 143.000 451.500 143.000 451.600 V 455.400 C 143.000 455.500 143.100 455.400 143.000 455.400 H 139.100 Z" stroke="rgb(0,0,255)" stroke-width="0.20" />
  <path d="M 155.100 455.400 H 151.200 C 151.100 455.400 151.200 455.500 151.200 455.400 V 451.600 C 151.200 451.500 151.100 451.600 151.200 451.600 H 159.000 C 159.100 451.600 159.000 451.500 159.000 451.600 V 455.400 C 159.000 455.500 159.100 455.400 159.000 455.400 H 155.100 Z" stroke="rgb(0,0,255)" stroke-width="0.20" />
  <path d="M 171.100 455.400 H 167.200 C 167.100 455.400 167.200 455.500 167.200 455.400 V 451.600 C 167.200 451.500 167.100 451.600 167.200 451.600 H 175.000 C 175.100 451.600 175.000 451.500 175.000 451.600 V 455.400 C 175.000 455.500 175.100 455.400 175.000 455.400 H 171.100 Z" stroke="rgb(0,0,255)" stroke-width="0.20" />
  <path d="M 187.100 455.400 H 183.200 C 183.100 455.400 183.200 455.500 183.200 455.400 V 451.600 C 183.200 451.500 183.100 451.600 183.200 451.600 H 191.000 C 191.100 451.600 191.000 451.500 191.000 451.600 V 455.400 C 191.000 455.500 191.100 455.400 191.000 455.400 H 187.100 Z" stroke="rgb(0,0,255)" stroke-width="0.20" />
  <path d="M 203.100 455.400 H 199.200 C 199.100 455.400 199.200 455.500 199.200 455.400 V 451.600 C 199.200 451.500 199.100 451.600 199.200 451.600 H 207.000 C 207.100 451.600 207.000 451.500 207.000 451.600 V 455.400 C 207.000 455.500 207.100 455.400 207.000 455.400 H 203.100 Z" stroke="rgb(0,0,255)" stroke-width="0.20" />
  <path d="M 219.100 455.400 H 215.200 C 215.100 455.400 215.200 455.500 215.200 455.400 V 451.600 C 215.200 451.500 215.100 451.600 215.200 451.600 H 223.000 C 223.100 451.600 223.000 451.500 223.000 451.600 V 455.400 C 223.000 455.500 223.100 455.400 223.000 455.400 H 219.100 Z" stroke="rgb(0,0,255)" stroke-width="0.20" />
  <path d="M 235.100 455.400 H 231.200 C 231.100 455.400 231.200 455.500 231.200 455.400 V 451.600 C 231.200 451.500 231.100 451.600 231.200 451.600 H 239.000 C 239.100 451.600 239.000 451.500 239.000 451.600 V 455.400 C 239.000 455.500 239.100 455.400 239.000 455.400 H 235.100 Z" stroke="rgb(0,0,255)" stroke-width="0.20" />
  <path d="M 251.100 455.400 H 247.200 C 247.100 455.400 247.200 455.500 247.200 455.400 V 451.600 C 247.200 451.500 247.100 451.600 247.200 451.600 H 255.000 C 255.100 451.600 255.000 451.500 255.000 451.600 V 455.400 C 255.000 455.500 255.100 455.400 255.000 455.400 H 251.100 Z" stroke="rgb(0,0,255)" stroke-width="0.20" />
  <path d="M 267.100 455.400 H 263.200 C 263.100 455.400 263.200 455.500 263.200 455.400 V 451.600 C 263.200 451.500 263.100 451.600 263.200 451.600 H 271.000 C 271.100 451.600 271.000 451.500 271.000 451.600 V 455.400 C 271.000 455.500 271.100 455.400 271.000 455.400 H 267.100 Z" stroke="rgb(0,0,255)" stroke-width="0.20" />
  <path d="M 283.100 455.400 H 279.200 C 279.100 455.400 279.200 455.500 279.200 455.400 V 451.600 C 279.200 451.500 279.100 451.600 279.200 451.600 H 287.000 C 287.100 451.600 287.000 451.500 287.000 451.600 V 455.400 C 287.000 455.500 287.100 455.400 287.000 455.400 H 283.100 Z" stroke="rgb(0,0,255)" stroke-width="0.20" />
  <path d="M 299.100 455.400 H 295.200 C 295.100 455.400 295.200 455.500 295.200 455.400 V 451.600 C 295.200 451.500 295.100 451.600 295.200 451.600 H 303.000 C 303.100 451.600 303.000 451.500 303.000 451.600 V 455.400 C 303.000 455.500 303.100 455.400 303.000 455.400 H 299.100 Z" stroke="rgb(0,0,255)" stroke-width="0.20" />
  <path d="M 315.100 455.400 H 311.200 C 311.100 455.400 311.200 455.500 311.200 455.400 V 451.600 C 311.200 451.500 311.100 451.600 311.200 451.600 H 319.000 C 319.100 451.600 319.000 451.500 319.000 451.600 V 455.400 C 319.000 455.500 319.100 455.400 319.000 455.400 H 315.100 Z" stroke="rgb(0,0,255)" stroke-width="0.20" />
  <path d="M 331.100 455.400 H 327.200 C 327.100 455.400 327.200 455.500 327.200 455.400 V 451.600 C 327.200 451.500 327.100 451.600 327.200 451.600 H 335.000 C 335.100 451.600 335.000 451.500 335.000 451.600 V 455.400 C 335.000 455.500 335.100 455.400 335.000 455.400 H 331.100 Z" stroke="rgb(0,0,255)" stroke-width="0.20" />
  <path d="M 347.100 455.400 H 343.200 C 343.100 455.400 343.200 455.500 343.200 455.400 V 451.600 C 343.200 451.500 343.100 451.600 343.200 451.600 H 351.000 C 351.100 451.600 351.000 451.500 351.000 451.600 V 455.400 C 351.000 455.500 351.100 455.400 351.000 455.400 H 347.100 Z" stroke="rgb(0,0,255)" stroke-width="0.20" />
  <path d="M 14.100 459.600 H 360.100 H 364.100 C 364.155 459.600 364.200 459.555 364.200 459.500 V 454.000 C 364.200 453.945 364.155 453.900 364.100 453.900 H 360.200 C 360.100 453.900 360.200 454.000 360.200 453.900 V 446.100 C 360.200 446.000 360.100 446.100 360.200 446.100 H 364.100 C 364.155 446.100 364.200 446.055 364.200 446.000 V 438.000 C 364.200 437.945 364.155 437.900 364.100 437.900 H 360.200 C 360.100 437.900 360.200 438.000 360.200 437.900 V 430.100 C 360.200 430.000 360.100 430.100 360.200 430.100 H 364.100 C 364.155 430.100 364.200 430.055 364.200 430.000 V 422.000 C 364.200 421.945 364.155 421.900 364.100 421.900 H 360.200 C 360.100 421.900 360.200 422.000 360.200 421.900 V 414.100 C 360.200 414.000 360.100 414.100 360.200 414.100 H 364.100 C 364.155 414.100 364.200 414.055 364.200 414.000 V 406.000 C 364.200 405.945 364.155 405.900 364.100 405.900 H 360.200 C 360.100 405.900 360.200 406.000 360.200 405.900 V 398.100 C 360.200 398.000 360.100 398.100 360.200 398.100 H 364.100 C 364.155 398.100 364.200 398.055 364.200 398.000 V 390.000 C 364.200 389.945 364.155 389.900 364.100 389.900 H 360.200 C 360.100 389.900 360.200 390.000 360.200 389.900 V 382.100 C 360.200 382.000 360.100 382.100 360.200 382.100 H 364.100 C 364.155 382.100 364.200 382.055 364.200 382.000 V 374.000 C 364.200 373.945 364.155 373.900 364.100 373.900 H 360.200 C 360.100 373.900 360.200 374.000 360.200 373.900 V 366.100 C 360.200 366.000 360.100 366.100 360.200 366.100 H 364.100 C 364.155 366.100 364.200 366.055 364.200 366.000 V 360.500 C 364.200 360.445 364.155 360.400 364.100 360.400 H 360.100 H 14.100 H 10.100 C 10.045 360.400 10.000 360.445 10.000 360.500 V 366.000 C 10.000 366.055 10.045 366.100 10.100 366.100 H 14.000 C 14.100 366.100 14.000 366.000 14.000 366.100 V 373.900 C 14.000 374.000 14.100 373.900 14.000 373.900 H 10.100 C 10.045 373.900 10.000 373.945 10.000 374.000 V 382.000 C 10.000 382.055 10.045 382.100 10.100 382.100 H 14.000 C 14.100 382.100 14.000 382.000 14.000 382.100 V 389.900 C 14.000 390.000 14.100 389.900 14.000 389.900 H 10.100 C 10.045 389.900 10.000 389.945 10.000 390.000 V 398.000 C 10.000 398.055 10.045 398.100 10.100 398.100 H 14.000 C 14.100 398.100 14.000 398.000 14.000 398.100 V 405.900 C 14.000 406.000 14.100 405.900 14.000 405.900 H 10.100 C 10.045 405.900 10.000 405.945 10.000 406.000 V 414.000 C 10.000 414.055 10.045 414.100 10.100 414.100 H 14.000 C 14.100 414.100 14.000 414.000 14.000 414.100 V 421.900 C 14.000 422.000 14.100 421.900 14.000 421.900 H 10.100 C 10.045 421.900 10.000 421.945 10.000 422.000 V 430.000 C 10.000 430.055 10.045 430.100 10.100 430.100 H 14.000 C 14.100 430.100 14.000 430.000 14.000 430.100 V 437.900 C 14.000 438.000 14.100 437.900 14.000 437.900 H 10.100 C 10.045 437.900 10.000 437.945 10.000 438.000 V 446.000 C 10.000 446.055 10.045 446.100 10.100 446.100 H 14.000 C 14.100 446.100 14.000 446.000 14.000 446.100 V 453.900 C 14.000 454.000 14.100 453.900 14.000 453.900 H 10.100 C 10.045 453.900 10.000 453.945 10.000 454.000 V 459.500 C 10.000 459.555 10.045 459.600 10.100 459.600 H 14.100 Z" stroke="rgb(0,0,0)" stroke-width="0.20" />
</g>
<g id="p-2" style="fill:none;stroke-linecap:round;stroke-linejoin:round;">
  <path d="M 189.000 342.550 V 346.450 C 189.000 346.550 189.100 346.450 189.000 346.450 H 185.200 C 185.100 346.450 185.200 346.550 185.200 346.450 V 338.650 C 185.200 338.550 185.100 338.650 185.200 338.650 H 189.000 C 189.100 338.650 189.000 338.550 189.000 338.650 V 342.550 Z" stroke="rgb(0,0,255)" stroke-width="0.20" />
  <path d="M 189.000 326.550 V 330.450 C 189.000 330.550 189.100 330.450 189.000 330.450 H 185.200 C 185.100 330.450 185.200 330.550 185.200 330.450 V 322.650 C 185.200 322.550 185.100 322.650 185.200 322.650 H 189.000 C 189.100 322.650 189.000 322.550 189.000 322.650 V 326.550 Z" stroke="rgb(0,0,255)" stroke-width="0.20" />
  <path d="M 189.000 310.550 V 314.450 C 189.000 314.550 189.100 314.450 189.000 314.450 H 185.200 C 185.100 314.450 185.200 314.550 185.200 314.450 V 306.650 C 185.200 306.550 185.100 306.650 185.200 306.650 H 189.000 C 189.100 306.650 189.000 306.550 189.000 306.650 V 310.550 Z" stroke="rgb(0,0,255)" stroke-width="0.20" />
  <path d="M 189.000 294.550 V 298.450 C 189.000 298.550 189.100 298.450 189.000 298.450 H 185.200 C 185.100 298.450 185.200 298.550 185.200 298.450 V 290.650 C 185.200 290.550 185.100 290.650 185.200 290.650 H 189.000 C 189.100 290.650 189.000 290.550 189.000 290.650 V 294.550 Z" stroke="rgb(0,0,255)" stroke-width="0.20" />
  <path d="M 189.000 278.550 V 282.450 C 189.000 282.550 189.100 282.450 189.000 282.450 H 185.200 C 185.100 282.450 185.200 282.550 185.200 282.450 V 274.650 C 185.200 274.550 185.100 274.650 185.200 274.650 H 189.000 C 189.100 274.650 189.000 274.550 189.000 274.650 V 278.550 Z" stroke="rgb(0,0,255)" stroke-width="0.20" />
  <path d="M 189.000 262.550 V 266.450 C 189.000 266.550 189.100 266.450 189.000 266.450 H 185.200 C 185.100 266.450 185.200 266.550 185.200 266.450 V 258.650 C 185.200 258.550 185.100 258.650 185.200 258.650 H 189.000 C 189.100 258.650 189.000 258.550 189.000 258.650 V 262.550 Z" stroke="rgb(0,0,255)" stroke-width="0.20" />
  <path d="M 189.000 246.550 V 250.450 C 189.000 250.550 189.100 250.450 189.000 250.450 H 185.200 C 185.100 250.450 185.200 250.550 185.200 250.450 V 242.650 C 185.200 242.550 185.100 242.650 185.200 242.650 H 189.000 C 189.100 242.650 189.000 242.550 189.000 242.650 V 246.550 Z" stroke="rgb(0,0,255)" stroke-width="0.20" />
  <path d="M 189.000 219.050 V 222.950 C 189.000 223.050 189.100 222.950 189.000 222.950 H 185.200 C 185.100 222.950 185.200 223.050 185.200 222.950 V 215.150 C 185.200 215.050 185.100 215.150 185.200 215.150 H 189.000 C 189.100 215.150 189.000 215.050 189.000 215.150 V 219.050 Z" stroke="rgb(0,0,255)" stroke-width="0.20" />
  <path d="M 189.000 203.050 V 206.950 C 189.000 207.050 189.100 206.950 189.000 206.950 H 185.200 C 185.100 206.950 185.200 207.050 185.200 206.950 V 199.150 C 185.200 199.050 185.100 199.150 185.200 199.150 H 189.000 C 189.100 199.150 189.000 199.050 189.000 199.150 V 203.050 Z" stroke="rgb(0,0,255)" stroke-width="0.20" />
  <path d="M 189.000 187.050 V 190.950 C 189.000 191.050 189.100 190.950 189.000 190.950 H 185.200 C 185.100 190.950 185.200 191.050 185.200 190.950 V 183.150 C 185.200 183.050 185.100 183.150 185.200 183.150 H 189.000 C 189.100 183.150 189.000 183.050 189.000 183.150 V 187.050 Z" stroke="rgb(0,0,255)" stroke-width="0.20" />
  <path d="M 189.000 171.050 V 174.950 C 189.000 175.050 189.100 174.950 189.000 174.950 H 185.200 C 185.100 174.950 185.200 175.050 185.200 174.950 V 167.150 C 185.200 167.050 185.100 167.150 185.200 167.150 H 189.000 C 189.100 167.150 189.000 167.050 189.000 167.150 V 171.050 Z" stroke="rgb(0,0,255)" stroke-width="0.20" />
  <path d="M 189.000 155.050 V 158.950 C 189.000 159.050 189.100 158.950 189.000 158.950 H 185.200 C 185.100 158.950 185.200 159.050 185.200 158.950 V 151.150 C 185.200 151.050 185.100 151.150 185.200 151.150 H 189.000 C 189.100 151.150 189.000 151.050 189.000 151.150 V 155.050 Z" stroke="rgb(0,0,255)" stroke-width="0.20" />
  <path d="M 189.000 139.050 V 142.950 C 189.000 143.050 189.100 142.950 189.000 142.950 H 185.200 C 185.100 142.950 185.200 143.050 185.200 142.950 V 135.150 C 185.200 135.050 185.100 135.150 185.200 135.150 H 189.000 C 189.100 135.150 189.000 135.050 189.000 135.150 V 139.050 Z" stroke="rgb(0,0,255)" stroke-width="0.20" />
  <path d="M 189.000 123.050 V 126.950 C 189.000 127.050 189.100 126.950 189.000 126.950 H 185.200 C 185.100 126.950 185.200 127.050 185.200 126.950 V 119.150 C 185.200 119.050 185.100 119.150 185.200 119.150 H 189.000 C 189.100 119.150 189.000 119.050 189.000 119.150 V 123.050 Z" stroke="rgb(0,0,255)" stroke-width="0.20" />
  <path d="M 14.100 354.400 H 23.000 C 23.100 354.400 23.000 354.300 23.000 354.400 V 358.300 C 23.000 358.355 23.045 358.400 23.100 358.400 H 31.100 C 31.155 358.400 31.200 358.355 31.200 358.300 V 354.400 C 31.200 354.300 31.100 354.400 31.200 354.400 H 39.000 C 39.100 354.400 39.000 354.300 39.000 354.400 V 358.300 C 39.000 358.355 39.045 358.400 39.100 358.400 H 47.100 C 47.155 358.400 47.200 358.355 47.200 358.300 V 354.400 C 47.200 354.300 47.100 354.400 47.200 354.400 H 55.000 C 55.100 354.400 55.000 354.300 55.000 354.400 V 358.300 C 55.000 358.355 55.045 358.400 55.100 358.400 H 63.100 C 63.155 358.400 63.200 358.355 63.200 358.300 V 354.400 C 63.200 354.300 63.100 354.400 63.200 354.400 H 71.000 C 71.100 354.400 71.000 354.300 71.000 354.400 V 358.300 C 71.000 358.355 71.045 358.400 71.100 358.400 H 79.100 C 79.155 358.400 79.200 358.355 79.200 358.300 V 354.400 C 79.200 354.300 79.100 354.400 79.200 354.400 H 87.000 C 87.100 354.400 87.000 354.300 87.000 354.400 V 358.300 C 87.000 358.355 87.045 358.400 87.100 358.400 H 95.100 C 95.155 358.400 95.200 358.355 95.200 358.300 V 354.400 C 95.200 354.300 95.100 354.400 95.200 354.400 H 103.000 C 103.100 354.400 103.000 354.300 103.000 354.400 V 358.300 C 103.000 358.355 103.045 358.400 103.100 358.400 H 111.100 C 111.155 358.400 111.200 358.355 111.200 358.300 V 354.400 C 111.200 354.300 111.100 354.400 111.200 354.400 H 119.000 C 119.100 354.400 119.000 354.300 119.000 354.400 V 358.300 C 119.000 358.355 119.045 358.400 119.100 358.400 H 127.100 C 127.155 358.400 127.200 358.355 127.200 358.300 V 354.400 C 127.200 354.300 127.100 354.400 127.200 354.400 H 135.000 C 135.100 354.400 135.000 354.300 135.000 354.400 V 358.300 C 135.000 358.355 135.045 358.400 135.100 358.400 H 143.100 C 143.155 358.400 143.200 358.355 143.200 358.300 V 354.400 C 143.200 354.300 143.100 354.400 143.200 354.400 H 151.000 C 151.100 354.400 151.000 354.300 151.000 354.400 V 358.300 C 151.000 358.355 151.045 358.400 151.100 358.400 H 159.100 C 159.155 358.400 159.200 358.355 159.200 358.300 V 354.400 C 159.200 354.300 159.100 354.400 159.200 354.400 H 167.000 C 167.100 354.400 167.000 354.300 167.000 354.400 V 358.300 C 167.000 358.355 167.045 358.400 167.100 358.400 H 175.100 C 175.155 358.400 175.200 358.355 175.200 358.300 V 354.400 C 175.200 354.300 175.100 354.400 175.200 354.400 H 183.000 C 183.100 354.400 183.000 354.300 183.000 354.400 V 358.300 C 183.000 358.355 183.045 358.400 183.100 358.400 H 191.100 C 191.155 358.400 191.200 358.355 191.200 358.300 V 354.400 C 191.200 354.300 191.100 354.400 191.200 354.400 H 199.000 C 199.100 354.400 199.000 354.300 199.000 354.400 V 358.300 C 199.000 358.355 199.045 358.400 199.100 358.400 H 207.100 C 207.155 358.400 207.200 358.355 207.200 358.300 V 354.400 C 207.200 354.300 207.100 354.400 207.200 354.400 H 215.000 C 215.100 354.400 215.000 354.300 215.000 354.400 V 358.300 C 215.000 358.355 215.045 358.400 215.100 358.400 H 223.100 C 223.155 358.400 223.200 358.355 223.200 358.300 V 354.400 C 223.200 354.300 223.100 354.400 223.200 354.400 H 231.000 C 231.100 354.400 231.000 354.300 231.000 354.400 V 358.300 C 231.000 358.355 231.045 358.400 231.100 358.400 H 239.100 C 239.155 358.400 239.200 358.355 239.200 358.300 V 354.400 C 239.200 354.300 239.100 354.400 239.200 354.400 H 247.000 C 247.100 354.400 247.000 354.300 247.000 354.400 V 358.300 C 247.000 358.355 247.045 358.400 247.100 358.400 H 255.100 C 255.155 358.400 255.200 358.355 255.200 358.300 V 354.400 C 255.200 354.300 255.100 354.400 255.200 354.400 H 263.000 C 263.100 354.400 263.000 354.300 263.000 354.400 V 358.300 C 263.000 358.355 263.045 358.400 263.100 358.400 H 271.100 C 271.155 358.400 271.200 358.355 271.200 358.300 V 354.400 C 271.200 354.300 271.100 354.400 271.200 354.400 H 279.000 C 279.100 354.400 279.000 354.300 279.000 354.400 V 358.300 C 279.000 358.355 279.045 358.400 279.100 358.400 H 287.100 C 287.155 358.400 287.200 358.355 287.200 358.300 V 354.400 C 287.200 354.300 287.100 354.400 287.200 354.400 H 295.000 C 295.100 354.400 295.000 354.300 295.000 354.400 V 358.300 C 295.000 358.355 295.045 358.400 295.100 358.400 H 303.100 C 303.155 358.400 303.200 358.355 303.200 358.300 V 354.400 C 303.200 354.300 303.100 354.400 303.200 354.400 H 311.000 C 311.100 354.400 311.000 354.300 311.000 354.400 V 358.300 C 311.000 358.355 311.045 358.400 311.100 358.400 H 319.100 C 319.155 358.400 319.200 358.355 319.200 358.300 V 354.400 C 319.200 354.300 319.100 354.400 319.200 354.400 H 327.000 C 327.100 354.400 327.000 354.300 327.000 354.400 V 358.300 C 327.000 358.355 327.045 358.400 327.100 358.400 H 335.100 C 335.155 358.400 335.200 358.355 335.200 358.300 V 354.400 C 335.200 354.300 335.100 354.400 335.200 354.400 H 343.000 C 343.100 354.400 343.000 354.300 343.000 354.400 V 358.300 C 343.000 358.355 343.045 358.400 343.100 358.400 H 351.100 C 351.155 358.400 351.200 358.355 351.200 358.300 V 354.400 C 351.200 354.300 351.100 354.400 351.200 354.400 H 360.100 C 360.155 354.400 360.200 354.355 360.200 354.300 V 348.900 C 360.200 348.800 360.100 348.900 360.200 348.900 H 364.100 C 364.155 348.900 364.200 348.855 364.200 348.800 V 340.800 C 364.200 340.745 364.155 340.700 364.100 340.700 H 360.200 C 360.100 340.700 360.200 340.800 360.200 340.700 V 332.900 C 360.200 332.800 360.100 332.900 360.200 332.900 H 364.100 C 364.155 332.900 364.200 332.855 364.200 332.800 V 324.800 C 364.200 324.745 364.155 324.700 364.100 324.700 H 360.200 C 360.100 324.700 360.200 324.800 360.200 324.700 V 316.900 C 360.200 316.800 360.100 316.900 360.200 316.900 H 364.100 C 364.155 316.900 364.200 316.855 364.200 316.800 V 308.800 C 364.200 308.745 364.155 308.700 364.100 308.700 H 360.200 C 360.100 308.700 360.200 308.800 360.200 308.700 V 300.900 C 360.200 300.800 360.100 300.900 360.200 300.900 H 364.100 C 364.155 300.900 364.200 300.855 364.200 300.800 V 292.800 C 364.200 292.745 364.155 292.700 364.100 292.700 H 360.200 C 360.100 292.700 360.200 292.800 360.200 292.700 V 284.900 C 360.200 284.800 360.100 284.900 360.200 284.900 H 364.100 C 364.155 284.900 364.200 284.855 364.200 284.800 V 276.800 C 364.200 276.745 364.155 276.700 364.100 276.700 H 360.200 C 360.100 276.700 360.200 276.800 360.200 276.700 V 268.900 C 360.200 268.800 360.100 268.900 360.200 268.900 H 364.100 C 364.155 268.900 364.200 268.855 364.200 268.800 V 260.800 C 364.200 260.745 364.155 260.700 364.100 260.700 H 360.200 C 360.100 260.700 360.200 260.800 360.200 260.700 V 252.900 C 360.200 252.800 360.100 252.900 360.200 252.900 H 364.100 C 364.155 252.900 364.200 252.855 364.200 252.800 V 244.800 C 364.200 244.745 364.155 244.700 364.100 244.700 H 360.200 C 360.100 244.700 360.200 244.800 360.200 244.700 V 236.900 C 360.200 236.800 360.100 236.900 360.200 236.900 H 364.100 C 364.155 236.900 364.200 236.855 364.200 236.800 V 228.800 C 364.200 228.745 364.155 228.700 364.100 228.700 H 360.200 C 360.100 228.700 360.200 228.800 360.200 228.700 V 220.900 C 360.200 220.800 360.100 220.900 360.200 220.900 H 364.100 C 364.155 220.900 364.200 220.855 364.200 220.800 V 212.800 C 364.200 212.745 364.155 212.700 364.100 212.700 H 360.200 C 360.100 212.700 360.200 212.800 360.200 212.700 V 204.900 C 360.200 204.800 360.100 204.900 360.200 204.900 H 364.100 C 364.155 204.900 364.200 204.855 364.200 204.800 V 196.800 C 364.200 196.745 364.155 196.700 364.100 196.700 H 360.200 C 360.100 196.700 360.200 196.800 360.200 196.700 V 188.900 C 360.200 188.800 360.100 188.900 360.200 188.900 H 364.100 C 364.155 188.900 364.200 188.855 364.200 188.800 V 180.800 C 364.200 180.745 364.155 180.700 364.100 180.700 H 360.200 C 360.100 180.700 360.200 180.800 360.200 180.700 V 172.900 C 360.200 172.800 360.100 172.900 360.200 172.900 H 364.100 C 364.155 172.900 364.200 172.855 364.200 172.800 V 164.800 C 364.200 164.745 364.155 164.700 364.100 164.700 H 360.200 C 360.100 164.700 360.200 164.800 360.200 164.700 V 156.900 C 360.200 156.800 360.100 156.900 360.200 156.900 H 364.100 C 364.155 156.900 364.200 156.855 364.200 156.800 V 148.800 C 364.200 148.745 364.155 148.700 364.100 148.700 H 360.200 C 360.100 148.700 360.200 148.800 360.200 148.700 V 140.900 C 360.200 140.800 360.100 140.900 360.200 140.900 H 364.100 C 364.155 140.900 364.200 140.855 364.200 140.800 V 132.800 C 364.200 132.745 364.155 132.700 364.100 132.700 H 360.200 C 360.100 132.700 360.200 132.800 360.200 132.700 V 124.900 C 360.200 124.800 360.100 124.900 360.200 124.900 H 364.100 C 364.155 124.900 364.200 124.855 364.200 124.800 V 116.800 C 364.200 116.745 364.155 116.700 364.100 116.700 H 360.200 C 360.100 116.700 360.200 116.800 360.200 116.700 V 111.300 C 360.200 111.245 360.155 111.200 360.100 111.200 H 351.200 C 351.100 111.200 351.200 111.300 351.200 111.200 V 107.300 C 351.200 107.245 351.155 107.200 351.100 107.200 H 343.100 C 343.045 107.200 343.000 107.245 343.000 107.300 V 111.200 C 343.000 111.300 343.100 111.200 343.000 111.200 H 335.200 C 335.100 111.200 335.200 111.300 335.200 111.200 V 107.300 C 335.200 107.245 335.155 107.200 335.100 107.200 H 327.100 C 327.045 107.200 327.000 107.245 327.000 107.300 V 111.200 C 327.000 111.300 327.100 111.200 327.000 111.200 H 319.200 C 319.100 111.200 319.200 111.300 319.200 111.200 V 107.300 C 319.200 107.245 319.155 107.200 319.100 107.200 H 311.100 C 311.045 107.200 311.000 107.245 311.000 107.300 V 111.200 C 311.000 111.300 311.100 111.200 311.000 111.200 H 303.200 C 303.100 111.200 303.200 111.300 303.200 111.200 V 107.300 C 303.200 107.245 303.155 107.200 303.100 107.200 H 295.100 C 295.045 107.200 295.000 107.245 295.000 107.300 V 111.200 C 295.000 111.300 295.100 111.200 295.000 111.200 H 287.200 C 287.100 111.200 287.200 111.300 287.200 111.200 V 107.300 C 287.200 107.245 287.155 107.200 287.100 107.200 H 279.100 C 279.045 107.200 279.000 107.245 279.000 107.300 V 111.200 C 279.000 111.300 279.100 111.200 279.000 111.200 H 271.200 C 271.100 111.200 271.200 111.300 271.200 111.200 V 107.300 C 271.200 107.245 271.155 107.200 271.100 107.200 H 263.100 C 263.045 107.200 263.000 107.245 263.000 107.300 V 111.200 C 263.000 111.300 263.100 111.200 263.000 111.200 H 255.200 C 255.100 111.200 255.200 111.300 255.200 111.200 V 107.300 C 255.200 107.245 255.155 107.200 255.100 107.200 H 247.100 C 247.045 107.200 247.000 107.245 247.000 107.300 V 111.200 C 247.000 111.300 247.100 111.200 247.000 111.200 H 239.200 C 239.100 111.200 239.200 111.300 239.200 111.200 V 107.300 C 239.200 107.245 239.155 107.200 239.100 107.200 H 231.100 C 231.045 107.200 231.000 107.245 231.000 107.300 V 111.200 C 231.000 111.300 231.100 111.200 231.000 111.200 H 223.200 C 223.100 111.200 223.200 111.300 223.200 111.200 V 107.300 C 223.200 107.245 223.155 107.200 223.100 107.200 H 215.100 C 215.045 107.200 215.000 107.245 215.000 107.300 V 111.200 C 215.000 111.300 215.100 111.200 215.000 111.200 H 207.200 C 207.100 111.200 207.200 111.300 207.200 111.200 V 107.300 C 207.200 107.245 207.155 107.200 207.100 107.200 H 199.100 C 199.045 107.200 199.000 107.245 199.000 107.300 V 111.200 C 199.000 111.300 199.100 111.200 199.000 111.200 H 191.200 C 191.100 111.200 191.200 111.300 191.200 111.200 V 107.300 C 191.200 107.245 191.155 107.200 191.100 107.200 H 183.100 C 183.045 107.200 183.000 107.245 183.000 107.300 V 111.200 C 183.000 111.300 183.100 111.200 183.000 111.200 H 175.200 C 175.100 111.200 175.200 111.300 175.200 111.200 V 107.300 C 175.200 107.245 175.155 107.200 175.100 107.200 H 167.100 C 167.045 107.200 167.000 107.245 167.000 107.300 V 111.200 C 167.000 111.300 167.100 111.200 167.000 111.200 H 159.200 C 159.100 111.200 159.200 111.300 159.200 111.200 V 107.300 C 159.200 107.245 159.155 107.200 159.100 107.200 H 151.100 C 151.045 107.200 151.000 107.245 151.000 107.300 V 111.200 C 151.000 111.300 151.100 111.200 151.000 111.200 H 143.200 C 143.100 111.200 143.200 111.300 143.200 111.200 V 107.300 C 143.200 107.245 143.155 107.200 143.100 107.200 H 135.100 C 135.045 107.200 135.000 107.245 135.000 107.300 V 111.200 C 135.000 111.300 135.100 111.200 135.000 111.200 H 127.200 C 127.100 111.200 127.200 111.300 127.200 111.200 V 107.300 C 127.200 107.245 127.155 107.200 127.100 107.200 H 119.100 C 119.045 107.200 119.000 107.245 119.000 107.300 V 111.200 C 119.000 111.300 119.100 111.200 119.000 111.200 H 111.200 C 111.100 111.200 111.200 111.300 111.200 111.200 V 107.300 C 111.200 107.245 111.155 107.200 111.100 107.200 H 103.100 C 103.045 107.200 103.000 107.245 103.000 107.300 V 111.200 C 103.000 111.300 103.100 111.200 103.000 111.200 H 95.200 C 95.100 111.200 95.200 111.300 95.200 111.200 V 107.300 C 95.200 107.245 95.155 107.200 95.100 107.200 H 87.100 C 87.045 107.200 87.000 107.245 87.000 107.300 V 111.200 C 87.000 111.300 87.100 111.200 87.000 111.200 H 79.200 C 79.100 111.200 79.200 111.300 79.200 111.200 V 107.300 C 79.200 107.245 79.155 107.200 79.100 107.200 H 71.100 C 71.045 107.200 71.000 107.245 71.000 107.300 V 111.200 C 71.000 111.300 71.100 111.200 71.000 111.200 H 63.200 C 63.100 111.200 63.200 111.300 63.200 111.200 V 107.300 C 63.200 107.245 63.155 107.200 63.100 107.200 H 55.100 C 55.045 107.200 55.000 107.245 55.000 107.300 V 111.200 C 55.000 111.300 55.100 111.200 55.000 111.200 H 47.200 C 47.100 111.200 47.200 111.300 47.200 111.200 V 107.300 C 47.200 107.245 47.155 107.200 47.100 107.200 H 39.100 C 39.045 107.200 39.000 107.245 39.000 107.300 V 111.200 C 39.000 111.300 39.100 111.200 39.000 111.200 H 31.200 C 31.100 111.200 31.200 111.300 31.200 111.200 V 107.300 C 31.200 107.245 31.155 107.200 31.100 107.200 H 23.100 C 23.045 107.200 23.000 107.245 23.000 107.300 V 111.200 C 23.000 111.300 23.100 111.200 23.000 111.200 H 14.100 C 14.045 111.200 14.000 111.245 14.000 111.300 V 116.700 C 14.000 116.800 14.100 116.700 14.000 116.700 H 10.100 C 10.045 116.700 10.000 116.745 10.000 116.800 V 124.800 C 10.000 124.855 10.045 124.900 10.100 124.900 H 14.000 C 14.100 124.900 14.000 124.800 14.000 124.900 V 132.700 C 14.000 132.800 14.100 132.700 14.000 132.700 H 10.100 C 10.045 132.700 10.000 132.745 10.000 132.800 V 140.800 C 10.000 140.855 10.045 140.900 10.100 140.900 H 14.000 C 14.100 140.900 14.000 140.800 14.000 140.900 V 148.700 C 14.000 148.800 14.100 148.700 14.000 148.700 H 10.100 C 10.045 148.700 10.000 148.745 10.000 148.800 V 156.800 C 10.000 156.855 10.045 156.900 10.100 156.900 H 14.000 C 14.100 156.900 14.000 156.800 14.000 156.900 V 164.700 C 14.000 164.800 14.100 164.700 14.000 164.700 H 10.100 C 10.045 164.700 10.000 164.745 10.000 164.800 V 172.800 C 10.000 172.855 10.045 172.900 10.100 172.900 H 14.000 C 14.100 172.900 14.000 172.800 14.000 172.900 V 180.700 C 14.000 180.800 14.100 180.700 14.000 180.700 H 10.100 C 10.045 180.700 10.000 180.745 10.000 180.800 V 188.800 C 10.000 188.855 10.045 188.900 10.100 188.900 H 14.000 C 14.100 188.900 14.000 188.800 14.000 188.900 V 196.700 C 14.000 196.800 14.100 196.700 14.000 196.700 H 10.100 C 10.045 196.700 10.000 196.745 10.000 196.800 V 204.800 C 10.000 204.855 10.045 204.900 10.100 204.900 H 14.000 C 14.100 204.900 14.000 204.800 14.000 204.900 V 212.700 C 14.000 212.800 14.100 212.700 14.000 212.700 H 10.100 C 10.045 212.700 10.000 212.745 10.000 212.800 V 220.800 C 10.000 220.855 10.045 220.900 10.100 220.900 H 14.000 C 14.100 220.900 14.000 220.800 14.000 220.900 V 228.700 C 14.000 228.800 14.100 228.700 14.000 228.700 H 10.100 C 10.045 228.700 10.000 228.745 10.000 228.800 V 236.800 C 10.000 236.855 10.045 236.900 10.100 236.900 H 14.000 C 14.100 236.900 14.000 236.800 14.000 236.900 V 244.700 C 14.000 244.800 14.100 244.700 14.000 244.700 H 10.100 C 10.045 244.700 10.000 244.745 10.000 244.800 V 252.800 C 10.000 252.855 10.045 252.900 10.100 252.900 H 14.000 C 14.100 252.900 14.000 252.800 14.000 252.900 V 260.700 C 14.000 260.800 14.100 260.700 14.000 260.700 H 10.100 C 10.045 260.700 10.000 260.745 10.000 260.800 V 268.800 C 10.000 268.855 10.045 268.900 10.100 268.900 H 14.000 C 14.100 268.900 14.000 268.800 14.000 268.900 V 276.700 C 14.000 276.800 14.100 276.700 14.000 276.700 H 10.100 C 10.045 276.700 10.000 276.745 10.000 276.800 V 284.800 C 10.000 284.855 10.045 284.900 10.100 284.900 H 14.000 C 14.100 284.900 14.000 284.800 14.000 284.900 V 292.700 C 14.000 292.800 14.100 292.700 14.000 292.700 H 10.100 C 10.045 292.700 10.000 292.745 10.000 292.800 V 300.800 C 10.000 300.855 10.045 300.900 10.100 300.900 H 14.000 C 14.100 300.900 14.000 300.800 14.000 300.900 V 308.700 C 14.000 308.800 14.100 308.700 14.000 308.700 H 10.100 C 10.045 308.700 10.000 308.745 10.000 308.800 V 316.800 C 10.000 316.855 10.045 316.900 10.100 316.900 H 14.000 C 14.100 316.900 14.000 316.800 14.000 316.900 V 324.700 C 14.000 324.800 14.100 324.700 14.000 324.700 H 10.100 C 10.045 324.700 10.000 324.745 10.000 324.800 V 332.800 C 10.000 332.855 10.045 332.900 10.100 332.900 H 14.000 C 14.100 332.900 14.000 332.800 14.000 332.900 V 340.700 C 14.000 340.800 14.100 340.700 14.000 340.700 H 10.100 C 10.045 340.700 10.000 340.745 10.000 340.800 V 348.800 C 10.000 348.855 10.045 348.900 10.100 348.900 H 14.000 C 14.100 348.900 14.000 348.800 14.000 348.900 V 354.300 C 14.000 354.355 14.045 354.400 14.100 354.400 Z" stroke="rgb(0,0,0)" stroke-width="0.20" />
  <path d="M 346.600 230.900 H 350.500 C 350.600 230.900 350.500 230.800 350.500 230.900 V 234.700 C 350.500 234.800 350.600 234.700 350.500 234.700 H 342.700 C 342.600 234.700 342.700 234.800 342.700 234.700 V 230.900 C 342.700 230.800 342.600 230.900 342.700 230.900 H 346.600 Z" stroke="rgb(0,0,255)" stroke-width="0.20" />
  <path d="M 330.600 230.900 H 334.500 C 334.600 230.900 334.500 230.800 334.500 230.900 V 234.700 C 334.500 234.800 334.600 234.700 334.500 234.700 H 326.700 C 326.600 234.700 326.700 234.800 326.700 234.700 V 230.900 C 326.700 230.800 326.600 230.900 326.700 230.900 H 330.600 Z" stroke="rgb(0,0,255)" stroke-width="0.20" />
  <path d="M 314.600 230.900 H 318.500 C 318.600 230.900 318.500 230.800 318.500 230.900 V 234.700 C 318.500 234.800 318.600 234.700 318.500 234.700 H 310.700 C 310.600 234.700 310.700 234.800 310.700 234.700 V 230.900 C 310.700 230.800 310.600 230.900 310.700 230.900 H 314.600 Z" stroke="rgb(0,0,255)" stroke-width="0.20" />
  <path d="M 298.600 230.900 H 302.500 C 302.600 230.900 302.500 230.800 302.500 230.900 V 234.700 C 302.500 234.800 302.600 234.700 302.500 234.700 H 294.700 C 294.600 234.700 294.700 234.800 294.700 234.700 V 230.900 C 294.700 230.800 294.600 230.900 294.700 230.900 H 298.600 Z" stroke="rgb(0,0,255)" stroke-width="0.20" />
  <path d="M 282.600 230.900 H 286.500 C 286.600 230.900 286.500 230.800 286.500 230.900 V 234.700 C 286.500 234.800 286.600 234.700 286.500 234.700 H 278.700 C 278.600 234.700 278.700 234.800 278.700 234.700 V 230.900 C 278.700 230.800 278.600 230.900 278.700 230.900 H 282.600 Z" stroke="rgb(0,0,255)" stroke-width="0.20" />
  <path d="M 266.600 230.900 H 270.500 C 270.600 230.900 270.500 230.800 270.500 230.900 V 234.700 C 270.500 234.800 270.600 234.700 270.500 234.700 H 262.700 C 262.600 234.700 262.700 234.800 262.700 234.700 V 230.900 C 262.700 230.800 262.600 230.900 262.700 230.900 H 266.600 Z" stroke="rgb(0,0,255)" stroke-width="0.20" />
  <path d="M 250.600 230.900 H 254.500 C 254.600 230.900 254.500 230.800 254.500 230.900 V 234.700 C 254.500 234.800 254.600 234.700 254.500 234.700 H 246.700 C 246.600 234.700 246.700 234.800 246.700 234.700 V 230.900 C 246.700 230.800 246.600 230.900 246.700 230.900 H 250.600 Z" stroke="rgb(0,0,255)" stroke-width="0.20" />
  <path d="M 234.600 230.900 H 238.500 C 238.600 230.900 238.500 230.800 238.500 230.900 V 234.700 C 238.500 234.800 238.600 234.700 238.500 234.700 H 230.700 C 230.600 234.700 230.700 234.800 230.700 234.700 V 230.900 C 230.700 230.800 230.600 230.900 230.700 230.900 H 234.600 Z" stroke="rgb(0,0,255)" stroke-width="0.20" />
  <path d="M 218.600 230.900 H 222.500 C 222.600 230.900 222.500 230.800 222.500 230.900 V 234.700 C 222.500 234.800 222.600 234.700 222.500 234.700 H 214.700 C 214.600 234.700 214.700 234.800 214.700 234.700 V 230.900 C 214.700 230.800 214.600 230.900 214.700 230.900 H 218.600 Z" stroke="rgb(0,0,255)" stroke-width="0.20" />
  <path d="M 202.600 230.900 H 206.500 C 206.600 230.900 206.500 230.800 206.500 230.900 V 234.700 C 206.500 234.800 206.600 234.700 206.500 234.700 H 198.700 C 198.600 234.700 198.700 234.800 198.700 234.700 V 230.900 C 198.700 230.800 198.600 230.900 198.700 230.900 H 202.600 Z" stroke="rgb(0,0,255)" stroke-width="0.20" />
  <path d="M 171.600 230.900 H 175.500 C 175.600 230.900 175.500 230.800 175.500 230.900 V 234.700 C 175.500 234.800 175.600 234.700 175.500 234.700 H 167.700 C 167.600 234.700 167.700 234.800 167.700 234.700 V 230.900 C 167.700 230.800 167.600 230.900 167.700 230.900 H 171.600 Z" stroke="rgb(0,0,255)" stroke-width="0.20" />
  <path d="M 155.600 230.900 H 159.500 C 159.600 230.900 159.500 230.800 159.500 230.900 V 234.700 C 159.500 234.800 159.600 234.700 159.500 234.700 H 151.700 C 151.600 234.700 151.700 234.800 151.700 234.700 V 230.900 C 151.700 230.800 151.600 230.900 151.700 230.900 H 155.600 Z" stroke="rgb(0,0,255)" stroke-width="0.20" />
  <path d="M 139.600 230.900 H 143.500 C 143.600 230.900 143.500 230.800 143.500 230.900 V 234.700 C 143.500 234.800 143.600 234.700 143.500 234.700 H 135.700 C 135.600 234.700 135.700 234.800 135.700 234.700 V 230.900 C 135.700 230.800 135.600 230.900 135.700 230.900 H 139.600 Z" stroke="rgb(0,0,255)" stroke-width="0.20" />
  <path d="M 123.600 230.900 H 127.500 C 127.600 230.900 127.500 230.800 127.500 230.900 V 234.700 C 127.500 234.800 127.600 234.700 127.500 234.700 H 119.700 C 119.600 234.700 119.700 234.800 119.700 234.700 V 230.900 C 119.700 230.800 119.600 230.900 119.700 230.900 H 123.600 Z" stroke="rgb(0,0,255)" stroke-width="0.20" />
  <path d="M 107.600 230.900 H 111.500 C 111.600 230.900 111.500 230.800 111.500 230.900 V 234.700 C 111.500 234.800 111.600 234.700 111.500 234.700 H 103.700 C 103.600 234.700 103.700 234.800 103.700 234.700 V 230.900 C 103.700 230.800 103.600 230.900 103.700 230.900 H 107.600 Z" stroke="rgb(0,0,255)" stroke-width="0.20" />
  <path d="M 91.600 230.900 H 95.500 C 95.600 230.900 95.500 230.800 95.500 230.900 V 234.700 C 95.500 234.800 95.600 234.700 95.500 234.700 H 87.700 C 87.600 234.700 87.700 234.800 87.700 234.700 V 230.900 C 87.700 230.800 87.600 230.900 87.700 230.900 H 91.600 Z" stroke="rgb(0,0,255)" stroke-width="0.20" />
  <path d="M 75.600 230.900 H 79.500 C 79.600 230.900 79.500 230.800 79.500 230.900 V 234.700 C 79.500 234.800 79.600 234.700 79.500 234.700 H 71.700 C 71.600 234.700 71.700 234.800 71.700 234.700 V 230.900 C 71.700 230.800 71.600 230.900 71.700 230.900 H 75.600 Z" stroke="rgb(0,0,255)" stroke-width="0.20" />
  <path d="M 59.600 230.900 H 63.500 C 63.600 230.900 63.500 230.800 63.500 230.900 V 234.700 C 63.500 234.800 63.600 234.700 63.500 234.700 H 55.700 C 55.600 234.700 55.700 234.800 55.700 234.700 V 230.900 C 55.700 230.800 55.600 230.900 55.700 230.900 H 59.600 Z" stroke="rgb(0,0,255)" stroke-width="0.20" />
  <path d="M 43.600 230.900 H 47.500 C 47.600 230.900 47.500 230.800 47.500 230.900 V 234.700 C 47.500 234.800 47.600 234.700 47.500 234.700 H 39.700 C 39.600 234.700 39.700 234.800 39.700 234.700 V 230.900 C 39.700 230.800 39.600 230.900 39.700 230.900 H 43.600 Z" stroke="rgb(0,0,255)" stroke-width="0.20" />
  <path d="M 27.600 230.900 H 31.500 C 31.600 230.900 31.500 230.800 31.500 230.900 V 234.700 C 31.500 234.800 31.600 234.700 31.500 234.700 H 23.700 C 23.600 234.700 23.700 234.800 23.700 234.700 V 230.900 C 23.700 230.800 23.600 230.900 23.700 230.900 H 27.600 Z" stroke="rgb(0,0,255)" stroke-width="0.20" />
</g>
<g id="p-3" style="fill:none;stroke-linecap:round;stroke-linejoin:round;">
  <path d="M 14.100 101.200 H 23.500 C 23.600 101.200 23.500 101.100 23.500 101.200 V 105.100 C 23.500 105.155 23.545 105.200 23.600 105.200 H 31.600 C 31.655 105.200 31.700 105.155 31.700 105.100 V 101.200 C 31.700 101.100 31.600 101.200 31.700 101.200 H 39.500 C 39.600 101.200 39.500 101.100 39.500 101.200 V 105.100 C 39.500 105.155 39.545 105.200 39.600 105.200 H 47.600 C 47.655 105.200 47.700 105.155 47.700 105.100 V 101.200 C 47.700 101.100 47.600 101.200 47.700 101.200 H 55.500 C 55.600 101.200 55.500 101.100 55.500 101.200 V 105.100 C 55.500 105.155 55.545 105.200 55.600 105.200 H 63.600 C 63.655 105.200 63.700 105.155 63.700 105.100 V 101.200 C 63.700 101.100 63.600 101.200 63.700 101.200 H 71.500 C 71.600 101.200 71.500 101.100 71.500 101.200 V 105.100 C 71.500 105.155 71.545 105.200 71.600 105.200 H 79.600 C 79.655 105.200 79.700 105.155 79.700 105.100 V 101.200 C 79.700 101.100 79.600 101.200 79.700 101.200 H 87.500 C 87.600 101.200 87.500 101.100 87.500 101.200 V 105.100 C 87.500 105.155 87.545 105.200 87.600 105.200 H 95.600 C 95.655 105.200 95.700 105.155 95.700 105.100 V 101.200 C 95.700 101.100 95.600 101.200 95.700 101.200 H 103.500 C 103.600 101.200 103.500 101.100 103.500 101.200 V 105.100 C 103.500 105.155 103.545 105.200 103.600 105.200 H 111.600 C 111.655 105.200 111.700 105.155 111.700 105.100 V 101.200 C 111.700 101.100 111.600 101.200 111.700 101.200 H 119.500 C 119.600 101.200 119.500 101.100 119.500 101.200 V 105.100 C 119.500 105.155 119.545 105.200 119.600 105.200 H 127.600 C 127.655 105.200 127.700 105.155 127.700 105.100 V 101.200 C 127.700 101.100 127.600 101.200 127.700 101.200 H 135.500 C 135.600 101.200 135.500 101.100 135.500 101.200 V 105.100 C 135.500 105.155 135.545 105.200 135.600 105.200 H 143.600 C 143.655 105.200 143.700 105.155 143.700 105.100 V 101.200 C 143.700 101.100 143.600 101.200 143.700 101.200 H 151.500 C 151.600 101.200 151.500 101.100 151.500 101.200 V 105.100 C 151.500 105.155 151.545 105.200 151.600 105.200 H 159.600 C 159.655 105.200 159.700 105.155 159.700 105.100 V 101.200 C 159.700 101.100 159.600 101.200 159.700 101.200 H 167.500 C 167.600 101.200 167.500 101.100 167.500 101.200 V 105.100 C 167.500 105.155 167.545 105.200 167.600 105.200 H 175.600 C 175.655 105.200 175.700 105.155 175.700 105.100 V 101.200 C 175.700 101.100 175.600 101.200 175.700 101.200 H 185.100 H 187.100 H 189.100 H 198.500 C 198.600 101.200 198.500 101.100 198.500 101.200 V 105.100 C 198.500 105.155 198.545 105.200 198.600 105.200 H 206.600 C 206.655 105.200 206.700 105.155 206.700 105.100 V 101.200 C 206.700 101.100 206.600 101.200 206.700 101.200 H 214.500 C 214.600 101.200 214.500 101.100 214.500 101.200 V 105.100 C 214.500 105.155 214.545 105.200 214.600 105.200 H 222.600 C 222.655 105.200 222.700 105.155 222.700 105.100 V 101.200 C 222.700 101.100 222.600 101.200 222.700 101.200 H 230.500 C 230.600 101.200 230.500 101.100 230.500 101.200 V 105.100 C 230.500 105.155 230.545 105.200 230.600 105.200 H 238.600 C 238.655 105.200 238.700 105.155 238.700 105.100 V 101.200 C 238.700 101.100 238.600 101.200 238.700 101.200 H 246.500 C 246.600 101.200 246.500 101.100 246.500 101.200 V 105.100 C 246.500 105.155 246.545 105.200 246.600 105.200 H 254.600 C 254.655 105.200 254.700 105.155 254.700 105.100 V 101.200 C 254.700 101.100 254.600 101.200 254.700 101.200 H 262.500 C 262.600 101.200 262.500 101.100 262.500 101.200 V 105.100 C 262.500 105.155 262.545 105.200 262.600 105.200 H 270.600 C 270.655 105.200 270.700 105.155 270.700 105.100 V 101.200 C 270.700 101.100 270.600 101.200 270.700 101.200 H 278.500 C 278.600 101.200 278.500 101.100 278.500 101.200 V 105.100 C 278.500 105.155 278.545 105.200 278.600 105.200 H 286.600 C 286.655 105.200 286.700 105.155 286.700 105.100 V 101.200 C 286.700 101.100 286.600 101.200 286.700 101.200 H 294.500 C 294.600 101.200 294.500 101.100 294.500 101.200 V 105.100 C 294.500 105.155 294.545 105.200 294.600 105.200 H 302.600 C 302.655 105.200 302.700 105.155 302.700 105.100 V 101.200 C 302.700 101.100 302.600 101.200 302.700 101.200 H 310.500 C 310.600 101.200 310.500 101.100 310.500 101.200 V 105.100 C 310.500 105.155 310.545 105.200 310.600 105.200 H 318.600 C 318.655 105.200 318.700 105.155 318.700 105.100 V 101.200 C 318.700 101.100 318.600 101.200 318.700 101.200 H 326.500 C 326.600 101.200 326.500 101.100 326.500 101.200 V 105.100 C 326.500 105.155 326.545 105.200 326.600 105.200 H 334.600 C 334.655 105.200 334.700 105.155 334.700 105.100 V 101.200 C 334.700 101.100 334.600 101.200 334.700 101.200 H 342.500 C 342.600 101.200 342.500 101.100 342.500 101.200 V 105.100 C 342.500 105.155 342.545 105.200 342.600 105.200 H 350.600 C 350.655 105.200 350.700 105.155 350.700 105.100 V 101.200 C 350.700 101.100 350.600 101.200 350.700 101.200 H 360.100 C 360.155 101.200 360.200 101.155 360.200 101.100 V 91.700 C 360.200 91.600 360.100 91.700 360.200 91.700 H 364.100 C 364.155 91.700 364.200 91.655 364.200 91.600 V 83.600 C 364.200 83.545 364.155 83.500 364.100 83.500 H 360.200 C 360.100 83.500 360.200 83.600 360.200 83.500 V 75.700 C 360.200 75.600 360.100 75.700 360.200 75.700 H 364.100 C 364.155 75.700 364.200 75.655 364.200 75.600 V 67.600 C 364.200 67.545 364.155 67.500 364.100 67.500 H 360.200 C 360.100 67.500 360.200 67.600 360.200 67.500 V 59.700 C 360.200 59.600 360.100 59.700 360.200 59.700 H 364.100 C 364.155 59.700 364.200 59.655 364.200 59.600 V 51.600 C 364.200 51.545 364.155 51.500 364.100 51.500 H 360.200 C 360.100 51.500 360.200 51.600 360.200 51.500 V 43.700 C 360.200 43.600 360.100 43.700 360.200 43.700 H 364.100 C 364.155 43.700 364.200 43.655 364.200 43.600 V 35.600 C 364.200 35.545 364.155 35.500 364.100 35.500 H 360.200 C 360.100 35.500 360.200 35.600 360.200 35.500 V 27.700 C 360.200 27.600 360.100 27.700 360.200 27.700 H 364.100 C 364.155 27.700 364.200 27.655 364.200 27.600 V 19.600 C 364.200 19.545 364.155 19.500 364.100 19.500 H 360.200 C 360.100 19.500 360.200 19.600 360.200 19.500 V 10.100 C 360.200 10.045 360.155 10.000 360.100 10.000 H 189.100 C 189.045 10.000 189.000 10.045 189.000 10.100 V 55.500 C 189.000 55.600 189.100 55.500 189.000 55.500 H 185.200 C 185.100 55.500 185.200 55.600 185.200 55.500 V 10.100 C 185.200 10.045 185.155 10.000 185.100 10.000 H 14.100 C 14.045 10.000 14.000 10.045 14.000 10.100 V 19.500 C 14.000 19.600 14.100 19.500 14.000 19.500 H 10.100 C 10.045 19.500 10.000 19.545 10.000 19.600 V 27.600 C 10.000 27.655 10.045 27.700 10.100 27.700 H 14.000 C 14.100 27.700 14.000 27.600 14.000 27.700 V 35.500 C 14.000 35.600 14.100 35.500 14.000 35.500 H 10.100 C 10.045 35.500 10.000 35.545 10.000 35.600 V 43.600 C 10.000 43.655 10.045 43.700 10.100 43.700 H 14.000 C 14.100 43.700 14.000 43.600 14.000 43.700 V 51.500 C 14.000 51.600 14.100 51.500 14.000 51.500 H 10.100 C 10.045 51.500 10.000 51.545 10.000 51.600 V 59.600 C 10.000 59.655 10.045 59.700 10.100 59.700 H 14.000 C 14.100 59.700 14.000 59.600 14.000 59.700 V 67.500 C 14.000 67.600 14.100 67.500 14.000 67.500 H 10.100 C 10.045 67.500 10.000 67.545 10.000 67.600 V 75.600 C 10.000 75.655 10.045 75.700 10.100 75.700 H 14.000 C 14.100 75.700 14.000 75.600 14.000 75.700 V 83.500 C 14.000 83.600 14.100 83.500 14.000 83.500 H 10.100 C 10.045 83.500 10.000 83.545 10.000 83.600 V 91.600 C 10.000 91.655 10.045 91.700 10.100 91.700 H 14.000 C 14.100 91.700 14.000 91.600 14.000 91.700 V 101.100 C 14.000 101.155 14.045 101.200 14.100 101.200 Z" stroke="rgb(0,0,0)" stroke-width="0.20" />
</g>
<g id="p-4" style="fill:none;stroke-linecap:round;stroke-linejoin:round;">
  <path d="M 493.700 539.200 V 543.100 C 493.700 543.200 493.800 543.100 493.700 543.100 H 489.900 C 489.800 543.100 489.900 543.200 489.900 543.100 V 535.300 C 489.900 535.200 489.800 535.300 489.900 535.300 H 493.700 C 493.800 535.300 493.700 535.200 493.700 535.300 V 539.200 Z" stroke="rgb(0,0,255)" stroke-width="0.20" />
  <path d="M 493.700 523.200 V 527.100 C 493.700 527.200 493.800 527.100 493.700 527.100 H 489.900 C 489.800 527.100 489.900 527.200 489.900 527.100 V 519.300 C 489.900 519.200 489.800 519.300 489.900 519.300 H 493.700 C 493.800 519.300 493.700 519.200 493.700 519.300 V 523.200 Z" stroke="rgb(0,0,255)" stroke-width="0.20" />
  <path d="M 493.700 507.200 V 511.100 C 493.700 511.200 493.800 511.100 493.700 511.100 H 489.900 C 489.800 511.100 489.900 511.200 489.900 511.100 V 503.300 C 489.900 503.200 489.800 503.300 489.900 503.300 H 493.700 C 493.800 503.300 493.700 503.200 493.700 503.300 V 507.200 Z" stroke="rgb(0,0,255)" stroke-width="0.20" />
  <path d="M 493.700 491.200 V 495.100 C 493.700 495.200 493.800 495.100 493.700 495.100 H 489.900 C 489.800 495.100 489.900 495.200 489.900 495.100 V 487.300 C 489.900 487.200 489.800 487.300 489.900 487.300 H 493.700 C 493.800 487.300 493.700 487.200 493.700 487.300 V 491.200 Z" stroke="rgb(0,0,255)" stroke-width="0.20" />
  <path d="M 493.700 475.200 V 479.100 C 493.700 479.200 493.800 479.100 493.700 479.100 H 489.900 C 489.800 479.100 489.900 479.200 489.900 479.100 V 471.300 C 489.900 471.200 489.800 471.300 489.900 471.300 H 493.700 C 493.800 471.300 493.700 471.200 493.700 471.300 V 475.200 Z" stroke="rgb(0,0,255)" stroke-width="0.20" />
  <path d="M 379.800 556.600 H 375.900 C 375.800 556.600 375.900 556.700 375.900 556.600 V 552.800 C 375.900 552.700 375.800 552.800 375.900 552.800 H 383.700 C 383.800 552.800 383.700 552.700 383.700 552.800 V 556.600 C 383.700 556.700 383.800 556.600 383.700 556.600 H 379.800 Z" stroke="rgb(0,0,255)" stroke-width="0.20" />
  <path d="M 395.800 556.600 H 391.900 C 391.800 556.600 391.900 556.700 391.900 556.600 V 552.800 C 391.900 552.700 391.800 552.800 391.900 552.800 H 399.700 C 399.800 552.800 399.700 552.700 399.700 552.800 V 556.600 C 399.700 556.700 399.800 556.600 399.700 556.600 H 395.800 Z" stroke="rgb(0,0,255)" stroke-width="0.20" />
  <path d="M 411.800 556.600 H 407.900 C 407.800 556.600 407.900 556.700 407.900 556.600 V 552.800 C 407.900 552.700 407.800 552.800 407.900 552.800 H 415.700 C 415.800 552.800 415.700 552.700 415.700 552.800 V 556.600 C 415.700 556.700 415.800 556.600 415.700 556.600 H 411.800 Z" stroke="rgb(0,0,255)" stroke-width="0.20" />
  <path d="M 427.800 556.600 H 423.900 C 423.800 556.600 423.900 556.700 423.900 556.600 V 552.800 C 423.900 552.700 423.800 552.800 423.900 552.800 H 431.700 C 431.800 552.800 431.700 552.700 431.700 552.800 V 556.600 C 431.700 556.700 431.800 556.600 431.700 556.600 H 427.800 Z" stroke="rgb(0,0,255)" stroke-width="0.20" />
  <path d="M 443.800 556.600 H 439.900 C 439.800 556.600 439.900 556.700 439.900 556.600 V 552.800 C 439.900 552.700 439.800 552.800 439.900 552.800 H 447.700 C 447.800 552.800 447.700 552.700 447.700 552.800 V 556.600 C 447.700 556.700 447.800 556.600 447.700 556.600 H 443.800 Z" stroke="rgb(0,0,255)" stroke-width="0.20" />
  <path d="M 459.800 556.600 H 455.900 C 455.800 556.600 455.900 556.700 455.900 556.600 V 552.800 C 455.900 552.700 455.800 552.800 455.900 552.800 H 463.700 C 463.800 552.800 463.700 552.700 463.700 552.800 V 556.600 C 463.700 556.700 463.800 556.600 463.700 556.600 H 459.800 Z" stroke="rgb(0,0,255)" stroke-width="0.20" />
  <path d="M 475.800 556.600 H 471.900 C 471.800 556.600 471.900 556.700 471.900 556.600 V 552.800 C 471.900 552.700 471.800 552.800 471.900 552.800 H 479.700 C 479.800 552.800 479.700 552.700 479.700 552.800 V 556.600 C 479.700 556.700 479.800 556.600 479.700 556.600 H 475.800 Z" stroke="rgb(0,0,255)" stroke-width="0.20" />
  <path d="M 491.800 556.600 H 487.900 C 487.800 556.600 487.900 556.700 487.900 556.600 V 552.800 C 487.900 552.700 487.800 552.800 487.900 552.800 H 495.700 C 495.800 552.800 495.700 552.700 495.700 552.800 V 556.600 C 495.700 556.700 495.800 556.600 495.700 556.600 H 491.800 Z" stroke="rgb(0,0,255)" stroke-width="0.20" />
  <path d="M 507.800 556.600 H 503.900 C 503.800 556.600 503.900 556.700 503.900 556.600 V 552.800 C 503.900 552.700 503.800 552.800 503.900 552.800 H 511.700 C 511.800 552.800 511.700 552.700 511.700 552.800 V 556.600 C 511.700 556.700 511.800 556.600 511.700 556.600 H 507.800 Z" stroke="rgb(0,0,255)" stroke-width="0.20" />
  <path d="M 523.800 556.600 H 519.900 C 519.800 556.600 519.900 556.700 519.900 556.600 V 552.800 C 519.900 552.700 519.800 552.800 519.900 552.800 H 527.700 C 527.800 552.800 527.700 552.700 527.700 552.800 V 556.600 C 527.700 556.700 527.800 556.600 527.700 556.600 H 523.800 Z" stroke="rgb(0,0,255)" stroke-width="0.20" />
  <path d="M 539.800 556.600 H 535.900 C 535.800 556.600 535.900 556.700 535.900 556.600 V 552.800 C 535.900 552.700 535.800 552.800 535.900 552.800 H 543.700 C 543.800 552.800 543.700 552.700 543.700 552.800 V 556.600 C 543.700 556.700 543.800 556.600 543.700 556.600 H 539.800 Z" stroke="rgb(0,0,255)" stroke-width="0.20" />
  <path d="M 555.800 556.600 H 551.900 C 551.800 556.600 551.900 556.700 551.900 556.600 V 552.800 C 551.900 552.700 551.800 552.800 551.900 552.800 H 559.700 C 559.800 552.800 559.700 552.700 559.700 552.800 V 556.600 C 559.700 556.700 559.800 556.600 559.700 556.600 H 555.800 Z" stroke="rgb(0,0,255)" stroke-width="0.20" />
  <path d="M 571.800 556.600 H 567.900 C 567.800 556.600 567.900 556.700 567.900 556.600 V 552.800 C 567.900 552.700 567.800 552.800 567.900 552.800 H 575.700 C 575.800 552.800 575.700 552.700 575.700 552.800 V 556.600 C 575.700 556.700 575.800 556.600 575.700 556.600 H 571.800 Z" stroke="rgb(0,0,255)" stroke-width="0.20" />
  <path d="M 587.800 556.600 H 583.900 C 583.800 556.600 583.900 556.700 583.900 556.600 V 552.800 C 583.900 552.700 583.800 552.800 583.900 552.800 H 591.700 C 591.800 552.800 591.700 552.700 591.700 552.800 V 556.600 C 591.700 556.700 591.800 556.600 591.700 556.600 H 587.800 Z" stroke="rgb(0,0,255)" stroke-width="0.20" />
  <path d="M 603.800 556.600 H 599.900 C 599.800 556.600 599.900 556.700 599.900 556.600 V 552.800 C 599.900 552.700 599.800 552.800 599.900 552.800 H 607.700 C 607.800 552.800 607.700 552.700 607.700 552.800 V 556.600 C 607.700 556.700 607.800 556.600 607.700 556.600 H 603.800 Z" stroke="rgb(0,0,255)" stroke-width="0.20" />
  <path d="M 370.300 560.800 H 613.300 C 613.355 560.800 613.400 560.755 613.400 560.700 V 555.300 C 613.400 555.200 613.300 555.300 613.400 555.300 H 617.300 C 617.355 555.300 617.400 555.255 617.400 555.200 V 547.200 C 617.400 547.145 617.355 547.100 617.300 547.100 H 613.400 C 613.300 547.100 613.400 547.200 613.400 547.100 V 539.300 C 613.400 539.200 613.300 539.300 613.400 539.300 H 617.300 C 617.355 539.300 617.400 539.255 617.400 539.200 V 531.200 C 617.400 531.145 617.355 531.100 617.300 531.100 H 613.400 C 613.300 531.100 613.400 531.200 613.400 531.100 V 523.300 C 613.400 523.200 613.300 523.300 613.400 523.300 H 617.300 C 617.355 523.300 617.400 523.255 617.400 523.200 V 515.200 C 617.400 515.145 617.355 515.100 617.300 515.100 H 613.400 C 613.300 515.100 613.400 515.200 613.400 515.100 V 507.300 C 613.400 507.200 613.300 507.300 613.400 507.300 H 617.300 C 617.355 507.300 617.400 507.255 617.400 507.200 V 499.200 C 617.400 499.145 617.355 499.100 617.300 499.100 H 613.400 C 613.300 499.100 613.400 499.200 613.400 499.100 V 491.300 C 613.400 491.200 613.300 491.300 613.400 491.300 H 617.300 C 617.355 491.300 617.400 491.255 617.400 491.200 V 483.200 C 617.400 483.145 617.355 483.100 617.300 483.100 H 613.400 C 613.300 483.100 613.400 483.200 613.400 483.100 V 475.300 C 613.400 475.200 613.300 475.300 613.400 475.300 H 617.300 C 617.355 475.300 617.400 475.255 617.400 475.200 V 467.200 C 617.400 467.145 617.355 467.100 617.300 467.100 H 613.400 C 613.300 467.100 613.400 467.200 613.400 467.100 V 461.700 C 613.400 461.645 613.355 461.600 613.300 461.600 H 370.300 C 370.245 461.600 370.200 461.645 370.200 461.700 V 467.100 C 370.200 467.200 370.300 467.100 370.200 467.100 H 366.300 C 366.245 467.100 366.200 467.145 366.200 467.200 V 475.200 C 366.200 475.255 366.245 475.300 366.300 475.300 H 370.200 C 370.300 475.300 370.200 475.200 370.200 475.300 V 483.100 C 370.200 483.200 370.300 483.100 370.200 483.100 H 366.300 C 366.245 483.100 366.200 483.145 366.200 483.200 V 491.200 C 366.200 491.255 366.245 491.300 366.300 491.300 H 370.200 C 370.300 491.300 370.200 491.200 370.200 491.300 V 499.100 C 370.200 499.200 370.300 499.100 370.200 499.100 H 366.300 C 366.245 499.100 366.200 499.145 366.200 499.200 V 507.200 C 366.200 507.255 366.245 507.300 366.300 507.300 H 370.200 C 370.300 507.300 370.200 507.200 370.200 507.300 V 515.100 C 370.200 515.200 370.300 515.100 370.200 515.100 H 366.300 C 366.245 515.100 366.200 515.145 366.200 515.200 V 523.200 C 366.200 523.255 366.245 523.300 366.300 523.300 H 370.200 C 370.300 523.300 370.200 523.200 370.200 523.300 V 531.100 C 370.200 531.200 370.300 531.100 370.200 531.100 H 366.300 C 366.245 531.100 366.200 531.145 366.200 531.200 V 539.200 C 366.200 539.255 366.245 539.300 366.300 539.300 H 370.200 C 370.300 539.300 370.200 539.200 370.200 539.300 V 547.100 C 370.200 547.200 370.300 547.100 370.200 547.100 H 366.300 C 366.245 547.100 366.200 547.145 366.200 547.200 V 555.200 C 366.200 555.255 366.245 555.300 366.300 555.300 H 370.200 C 370.300 555.300 370.200 555.200 370.200 555.300 V 560.700 C 370.200 560.755 370.245 560.800 370.300 560.800 Z" stroke="rgb(0,0,0)" stroke-width="0.20" />
</g>
<g id="p-5" style="fill:none;stroke-linecap:round;stroke-linejoin:round;">
  <path d="M 489.900 438.000 V 441.900 C 489.900 442.000 489.800 441.900 489.900 441.900 H 493.700 C 493.800 441.900 493.700 442.000 493.700 441.900 V 434.100 C 493.700 434.000 493.800 434.100 493.700 434.100 H 489.900 C 489.800 434.100 489.900 434.000 489.900 434.100 V 438.000 Z" stroke="rgb(0,0,255)" stroke-width="0.20" />
  <path d="M 489.900 422.000 V 425.900 C 489.900 426.000 489.800 425.900 489.900 425.900 H 493.700 C 493.800 425.900 493.700 426.000 493.700 425.900 V 418.100 C 493.700 418.000 493.800 418.100 493.700 418.100 H 489.900 C 489.800 418.100 489.900 418.000 489.900 418.100 V 422.000 Z" stroke="rgb(0,0,255)" stroke-width="0.20" />
  <path d="M 489.900 406.000 V 409.900 C 489.900 410.000 489.800 409.900 489.900 409.900 H 493.700 C 493.800 409.900 493.700 410.000 493.700 409.900 V 402.100 C 493.700 402.000 493.800 402.100 493.700 402.100 H 489.900 C 489.800 402.100 489.900 402.000 489.900 402.100 V 406.000 Z" stroke="rgb(0,0,255)" stroke-width="0.20" />
  <path d="M 489.900 390.000 V 393.900 C 489.900 394.000 489.800 393.900 489.900 393.900 H 493.700 C 493.800 393.900 493.700 394.000 493.700 393.900 V 386.100 C 493.700 386.000 493.800 386.100 493.700 386.100 H 489.900 C 489.800 386.100 489.900 386.000 489.900 386.100 V 390.000 Z" stroke="rgb(0,0,255)" stroke-width="0.20" />
  <path d="M 489.900 374.000 V 377.900 C 489.900 378.000 489.800 377.900 489.900 377.900 H 493.700 C 493.800 377.900 493.700 378.000 493.700 377.900 V 370.100 C 493.700 370.000 493.800 370.100 493.700 370.100 H 489.900 C 489.800 370.100 489.900 370.000 489.900 370.100 V 374.000 Z" stroke="rgb(0,0,255)" stroke-width="0.20" />
  <path d="M 379.800 455.400 H 375.900 C 375.800 455.400 375.900 455.500 375.900 455.400 V 451.600 C 375.900 451.500 375.800 451.600 375.900 451.600 H 383.700 C 383.800 451.600 383.700 451.500 383.700 451.600 V 455.400 C 383.700 455.500 383.800 455.400 383.700 455.400 H 379.800 Z" stroke="rgb(0,0,255)" stroke-width="0.20" />
  <path d="M 395.800 455.400 H 391.900 C 391.800 455.400 391.900 455.500 391.900 455.400 V 451.600 C 391.900 451.500 391.800 451.600 391.900 451.600 H 399.700 C 399.800 451.600 399.700 451.500 399.700 451.600 V 455.400 C 399.700 455.500 399.800 455.400 399.700 455.400 H 395.800 Z" stroke="rgb(0,0,255)" stroke-width="0.20" />
  <path d="M 411.800 455.400 H 407.900 C 407.800 455.400 407.900 455.500 407.900 455.400 V 451.600 C 407.900 451.500 407.800 451.600 407.900 451.600 H 415.700 C 415.800 451.600 415.700 451.500 415.700 451.600 V 455.400 C 415.700 455.500 415.800 455.400 415.700 455.400 H 411.800 Z" stroke="rgb(0,0,255)" stroke-width="0.20" />
  <path d="M 427.800 455.400 H 423.900 C 423.800 455.400 423.900 455.500 423.900 455.400 V 451.600 C 423.900 451.500 423.800 451.600 423.900 451.600 H 431.700 C 431.800 451.600 431.700 451.500 431.700 451.600 V 455.400 C 431.700 455.500 431.800 455.400 431.700 455.400 H 427.800 Z" stroke="rgb(0,0,255)" stroke-width="0.20" />
  <path d="M 443.800 455.400 H 439.900 C 439.800 455.400 439.900 455.500 439.900 455.400 V 451.600 C 439.900 451.500 439.800 451.600 439.900 451.600 H 447.700 C 447.800 451.600 447.700 451.500 447.700 451.600 V 455.400 C 447.700 455.500 447.800 455.400 447.700 455.400 H 443.800 Z" stroke="rgb(0,0,255)" stroke-width="0.20" />
  <path d="M 459.800 455.400 H 455.900 C 455.800 455.400 455.900 455.500 455.900 455.400 V 451.600 C 455.900 451.500 455.800 451.600 455.900 451.600 H 463.700 C 463.800 451.600 463.700 451.500 463.700 451.600 V 455.400 C 463.700 455.500 463.800 455.400 463.700 455.400 H 459.800 Z" stroke="rgb(0,0,255)" stroke-width="0.20" />
  <path d="M 475.800 455.400 H 471.900 C 471.800 455.400 471.900 455.500 471.900 455.400 V 451.600 C 471.900 451.500 471.800 451.600 471.900 451.600 H 479.700 C 479.800 451.600 479.700 451.500 479.700 451.600 V 455.400 C 479.700 455.500 479.800 455.400 479.700 455.400 H 475.800 Z" stroke="rgb(0,0,255)" stroke-width="0.20" />
  <path d="M 491.800 455.400 H 487.900 C 487.800 455.400 487.900 455.500 487.900 455.400 V 451.600 C 487.900 451.500 487.800 451.600 487.900 451.600 H 495.700 C 495.800 451.600 495.700 451.500 495.700 451.600 V 455.400 C 495.700 455.500 495.800 455.400 495.700 455.400 H 491.800 Z" stroke="rgb(0,0,255)" stroke-width="0.20" />
  <path d="M 507.800 455.400 H 503.900 C 503.800 455.400 503.900 455.500 503.900 455.400 V 451.600 C 503.900 451.500 503.800 451.600 503.900 451.600 H 511.700 C 511.800 451.600 511.700 451.500 511.700 451.600 V 455.400 C 511.700 455.500 511.800 455.400 511.700 455.400 H 507.800 Z" stroke="rgb(0,0,255)" stroke-width="0.20" />
  <path d="M 523.800 455.400 H 519.900 C 519.800 455.400 519.900 455.500 519.900 455.400 V 451.600 C 519.900 451.500 519.800 451.600 519.900 451.600 H 527.700 C 527.800 451.600 527.700 451.500 527.700 451.600 V 455.400 C 527.700 455.500 527.800 455.400 527.700 455.400 H 523.800 Z" stroke="rgb(0,0,255)" stroke-width="0.20" />
  <path d="M 539.800 455.400 H 535.900 C 535.800 455.400 535.900 455.500 535.900 455.400 V 451.600 C 535.900 451.500 535.800 451.600 535.900 451.600 H 543.700 C 543.800 451.600 543.700 451.500 543.700 451.600 V 455.400 C 543.700 455.500 543.800 455.400 543.700 455.400 H 539.800 Z" stroke="rgb(0,0,255)" stroke-width="0.20" />
  <path d="M 555.800 455.400 H 551.900 C 551.800 455.400 551.900 455.500 551.900 455.400 V 451.600 C 551.900 451.500 551.800 451.600 551.900 451.600 H 559.700 C 559.800 451.600 559.700 451.500 559.700 451.600 V 455.400 C 559.700 455.500 559.800 455.400 559.700 455.400 H 555.800 Z" stroke="rgb(0,0,255)" stroke-width="0.20" />
  <path d="M 571.800 455.400 H 567.900 C 567.800 455.400 567.900 455.500 567.900 455.400 V 451.600 C 567.900 451.500 567.800 451.600 567.900 451.600 H 575.700 C 575.800 451.600 575.700 451.500 575.700 451.600 V 455.400 C 575.700 455.500 575.800 455.400 575.700 455.400 H 571.800 Z" stroke="rgb(0,0,255)" stroke-width="0.20" />
  <path d="M 587.800 455.400 H 583.900 C 583.800 455.400 583.900 455.500 583.900 455.400 V 451.600 C 583.900 451.500 583.800 451.600 583.900 451.600 H 591.700 C 591.800 451.600 591.700 451.500 591.700 451.600 V 455.400 C 591.700 455.500 591.800 455.400 591.700 455.400 H 587.800 Z" stroke="rgb(0,0,255)" stroke-width="0.20" />
  <path d="M 603.800 455.400 H 599.900 C 599.800 455.400 599.900 455.500 599.900 455.400 V 451.600 C 599.900 451.500 599.800 451.600 599.900 451.600 H 607.700 C 607.800 451.600 607.700 451.500 607.700 451.600 V 455.400 C 607.700 455.500 607.800 455.400 607.700 455.400 H 603.800 Z" stroke="rgb(0,0,255)" stroke-width="0.20" />
  <path d="M 370.300 459.600 H 613.300 C 613.355 459.600 613.400 459.555 613.400 459.500 V 454.100 C 613.400 454.000 613.300 454.100 613.400 454.100 H 617.300 C 617.355 454.100 617.400 454.055 617.400 454.000 V 446.000 C 617.400 445.945 617.355 445.900 617.300 445.900 H 613.400 C 613.300 445.900 613.400 446.000 613.400 445.900 V 438.100 C 613.400 438.000 613.300 438.100 613.400 438.100 H 617.300 C 617.355 438.100 617.400 438.055 617.400 438.000 V 430.000 C 617.400 429.945 617.355 429.900 617.300 429.900 H 613.400 C 613.300 429.900 613.400 430.000 613.400 429.900 V 422.100 C 613.400 422.000 613.300 422.100 613.400 422.100 H 617.300 C 617.355 422.100 617.400 422.055 617.400 422.000 V 414.000 C 617.400 413.945 617.355 413.900 617.300 413.900 H 613.400 C 613.300 413.900 613.400 414.000 613.400 413.900 V 406.100 C 613.400 406.000 613.300 406.100 613.400 406.100 H 617.300 C 617.355 406.100 617.400 406.055 617.400 406.000 V 398.000 C 617.400 397.945 617.355 397.900 617.300 397.900 H 613.400 C 613.300 397.900 613.400 398.000 613.400 397.900 V 390.100 C 613.400 390.000 613.300 390.100 613.400 390.100 H 617.300 C 617.355 390.100 617.400 390.055 617.400 390.000 V 382.000 C 617.400 381.945 617.355 381.900 617.300 381.900 H 613.400 C 613.300 381.900 613.400 382.000 613.400 381.900 V 374.100 C 613.400 374.000 613.300 374.100 613.400 374.100 H 617.300 C 617.355 374.100 617.400 374.055 617.400 374.000 V 366.000 C 617.400 365.945 617.355 365.900 617.300 365.900 H 613.400 C 613.300 365.900 613.400 366.000 613.400 365.900 V 360.500 C 613.400 360.445 613.355 360.400 613.300 360.400 H 370.300 C 370.245 360.400 370.200 360.445 370.200 360.500 V 365.900 C 370.200 366.000 370.300 365.900 370.200 365.900 H 366.300 C 366.245 365.900 366.200 365.945 366.200 366.000 V 374.000 C 366.200 374.055 366.245 374.100 366.300 374.100 H 370.200 C 370.300 374.100 370.200 374.000 370.200 374.100 V 381.900 C 370.200 382.000 370.300 381.900 370.200 381.900 H 366.300 C 366.245 381.900 366.200 381.945 366.200 382.000 V 390.000 C 366.200 390.055 366.245 390.100 366.300 390.100 H 370.200 C 370.300 390.100 370.200 390.000 370.200 390.100 V 397.900 C 370.200 398.000 370.300 397.900 370.200 397.900 H 366.300 C 366.245 397.900 366.200 397.945 366.200 398.000 V 406.000 C 366.200 406.055 366.245 406.100 366.300 406.100 H 370.200 C 370.300 406.100 370.200 406.000 370.200 406.100 V 413.900 C 370.200 414.000 370.300 413.900 370.200 413.900 H 366.300 C 366.245 413.900 366.200 413.945 366.200 414.000 V 422.000 C 366.200 422.055 366.245 422.100 366.300 422.100 H 370.200 C 370.300 422.100 370.200 422.000 370.200 422.100 V 429.900 C 370.200 430.000 370.300 429.900 370.200 429.900 H 366.300 C 366.245 429.900 366.200 429.945 366.200 430.000 V 438.000 C 366.200 438.055 366.245 438.100 366.300 438.100 H 370.200 C 370.300 438.100 370.200 438.000 370.200 438.100 V 445.900 C 370.200 446.000 370.300 445.900 370.200 445.900 H 366.300 C 366.245 445.900 366.200 445.945 366.200 446.000 V 454.000 C 366.200 454.055 366.245 454.100 366.300 454.100 H 370.200 C 370.300 454.100 370.200 454.000 370.200 454.100 V 459.500 C 370.200 459.555 370.245 459.600 370.300 459.600 Z" stroke="rgb(0,0,0)" stroke-width="0.20" />
</g>
<g id="p-6" style="fill:none;stroke-linecap:round;stroke-linejoin:round;">
  <path d="M 370.300 354.400 H 377.950 C 378.050 354.400 377.950 354.300 377.950 354.400 V 358.300 C 377.950 358.355 377.995 358.400 378.050 358.400 H 386.050 C 386.105 358.400 386.150 358.355 386.150 358.300 V 354.400 C 386.150 354.300 386.050 354.400 386.150 354.400 H 393.950 C 394.050 354.400 393.950 354.300 393.950 354.400 V 358.300 C 393.950 358.355 393.995 358.400 394.050 358.400 H 402.050 C 402.105 358.400 402.150 358.355 402.150 358.300 V 354.400 C 402.150 354.300 402.050 354.400 402.150 354.400 H 409.950 C 410.050 354.400 409.950 354.300 409.950 354.400 V 358.300 C 409.950 358.355 409.995 358.400 410.050 358.400 H 418.050 C 418.105 358.400 418.150 358.355 418.150 358.300 V 354.400 C 418.150 354.300 418.050 354.400 418.150 354.400 H 425.950 C 426.050 354.400 425.950 354.300 425.950 354.400 V 358.300 C 425.950 358.355 425.995 358.400 426.050 358.400 H 434.050 C 434.105 358.400 434.150 358.355 434.150 358.300 V 354.400 C 434.150 354.300 434.050 354.400 434.150 354.400 H 441.950 C 442.050 354.400 441.950 354.300 441.950 354.400 V 358.300 C 441.950 358.355 441.995 358.400 442.050 358.400 H 450.050 C 450.105 358.400 450.150 358.355 450.150 358.300 V 354.400 C 450.150 354.300 450.050 354.400 450.150 354.400 H 457.950 C 458.050 354.400 457.950 354.300 457.950 354.400 V 358.300 C 457.950 358.355 457.995 358.400 458.050 358.400 H 466.050 C 466.105 358.400 466.150 358.355 466.150 358.300 V 354.400 C 466.150 354.300 466.050 354.400 466.150 354.400 H 473.950 C 474.050 354.400 473.950 354.300 473.950 354.400 V 358.300 C 473.950 358.355 473.995 358.400 474.050 358.400 H 482.050 C 482.105 358.400 482.150 358.355 482.150 358.300 V 354.400 C 482.150 354.300 482.050 354.400 482.150 354.400 H 489.800 C 489.855 354.400 489.900 354.355 489.900 354.300 V 308.900 C 489.900 308.800 489.800 308.900 489.900 308.900 H 493.700 C 493.800 308.900 493.700 308.800 493.700 308.900 V 354.300 C 493.700 354.355 493.745 354.400 493.800 354.400 H 501.450 C 501.550 354.400 501.450 354.300 501.450 354.400 V 358.300 C 501.450 358.355 501.495 358.400 501.550 358.400 H 509.550 C 509.605 358.400 509.650 358.355 509.650 358.300 V 354.400 C 509.650 354.300 509.550 354.400 509.650 354.400 H 517.450 C 517.550 354.400 517.450 354.300 517.450 354.400 V 358.300 C 517.450 358.355 517.495 358.400 517.550 358.400 H 525.550 C 525.605 358.400 525.650 358.355 525.650 358.300 V 354.400 C 525.650 354.300 525.550 354.400 525.650 354.400 H 533.450 C 533.550 354.400 533.450 354.300 533.450 354.400 V 358.300 C 533.450 358.355 533.495 358.400 533.550 358.400 H 541.550 C 541.605 358.400 541.650 358.355 541.650 358.300 V 354.400 C 541.650 354.300 541.550 354.400 541.650 354.400 H 549.450 C 549.550 354.400 549.450 354.300 549.450 354.400 V 358.300 C 549.450 358.355 549.495 358.400 549.550 358.400 H 557.550 C 557.605 358.400 557.650 358.355 557.650 358.300 V 354.400 C 557.650 354.300 557.550 354.400 557.650 354.400 H 565.450 C 565.550 354.400 565.450 354.300 565.450 354.400 V 358.300 C 565.450 358.355 565.495 358.400 565.550 358.400 H 573.550 C 573.605 358.400 573.650 358.355 573.650 358.300 V 354.400 C 573.650 354.300 573.550 354.400 573.650 354.400 H 581.450 C 581.550 354.400 581.450 354.300 581.450 354.400 V 358.300 C 581.450 358.355 581.495 358.400 581.550 358.400 H 589.550 C 589.605 358.400 589.650 358.355 589.650 358.300 V 354.400 C 589.650 354.300 589.550 354.400 589.650 354.400 H 597.450 C 597.550 354.400 597.450 354.300 597.450 354.400 V 358.300 C 597.450 358.355 597.495 358.400 597.550 358.400 H 605.550 C 605.605 358.400 605.650 358.355 605.650 358.300 V 354.400 C 605.650 354.300 605.550 354.400 605.650 354.400 H 613.300 C 613.355 354.400 613.400 354.355 613.400 354.300 V 344.900 C 613.400 344.800 613.300 344.900 613.400 344.900 H 617.300 C 617.355 344.900 617.400 344.855 617.400 344.800 V 336.800 C 617.400 336.745 617.355 336.700 617.300 336.700 H 613.400 C 613.300 336.700 613.400 336.800 613.400 336.700 V 328.900 C 613.400 328.800 613.300 328.900 613.400 328.900 H 617.300 C 617.355 328.900 617.400 328.855 617.400 328.800 V 320.800 C 617.400 320.745 617.355 320.700 617.300 320.700 H 613.400 C 613.300 320.700 613.400 320.800 613.400 320.700 V 312.900 C 613.400 312.800 613.300 312.900 613.400 312.900 H 617.300 C 617.355 312.900 617.400 312.855 617.400 312.800 V 304.800 C 617.400 304.745 617.355 304.700 617.300 304.700 H 613.400 C 613.300 304.700 613.400 304.800 613.400 304.700 V 296.900 C 613.400 296.800 613.300 296.900 613.400 296.900 H 617.300 C 617.355 296.900 617.400 296.855 617.400 296.800 V 288.800 C 617.400 288.745 617.355 288.700 617.300 288.700 H 613.400 C 613.300 288.700 613.400 288.800 613.400 288.700 V 280.900 C 613.400 280.800 613.300 280.900 613.400 280.900 H 617.300 C 617.355 280.900 617.400 280.855 617.400 280.800 V 272.800 C 617.400 272.745 617.355 272.700 617.300 272.700 H 613.400 C 613.300 272.700 613.400 272.800 613.400 272.700 V 263.300 C 613.400 263.245 613.355 263.200 613.300 263.200 H 370.300 C 370.245 263.200 370.200 263.245 370.200 263.300 V 272.700 C 370.200 272.800 370.300 272.700 370.200 272.700 H 366.300 C 366.245 272.700 366.200 272.745 366.200 272.800 V 280.800 C 366.200 280.855 366.245 280.900 366.300 280.900 H 370.200 C 370.300 280.900 370.200 280.800 370.200 280.900 V 288.700 C 370.200 288.800 370.300 288.700 370.200 288.700 H 366.300 C 366.245 288.700 366.200 288.745 366.200 288.800 V 296.800 C 366.200 296.855 366.245 296.900 366.300 296.900 H 370.200 C 370.300 296.900 370.200 296.800 370.200 296.900 V 304.700 C 370.200 304.800 370.300 304.700 370.200 304.700 H 366.300 C 366.245 304.700 366.200 304.745 366.200 304.800 V 312.800 C 366.200 312.855 366.245 312.900 366.300 312.900 H 370.200 C 370.300 312.900 370.200 312.800 370.200 312.900 V 320.700 C 370.200 320.800 370.300 320.700 370.200 320.700 H 366.300 C 366.245 320.700 366.200 320.745 366.200 320.800 V 328.800 C 366.200 328.855 366.245 328.900 366.300 328.900 H 370.200 C 370.300 328.900 370.200 328.800 370.200 328.900 V 336.700 C 370.200 336.800 370.300 336.700 370.200 336.700 H 366.300 C 366.245 336.700 366.200 336.745 366.200 336.800 V 344.800 C 366.200 344.855 366.245 344.900 366.300 344.900 H 370.200 C 370.300 344.900 370.200 344.800 370.200 344.900 V 354.300 C 370.200 354.355 370.245 354.400 370.300 354.400 Z" stroke="rgb(0,0,0)" stroke-width="0.20" />
</g>
</svg>