<?xml version='1.0' encoding='us-ascii'?>
<svg height="436.60mm" viewBox="0.0 0.0 627.40 436.60" width="627.40mm" xmlns="http://www.w3.org/2000/svg" xmlns:cc="http://creativecommons.org/ns#" xmlns:dc="http://purl.org/dc/elements/1.1/" xmlns:inkscape="http://www.inkscape.org/namespaces/inkscape" xmlns:rdf="http://www.w3.org/1999/02/22-rdf-syntax-ns#" xmlns:svg="http://www.w3.org/2000/svg" xmlns:xlink="http://www.w3.org/1999/xlink">
<!--
TypeTray - Type tray - allows only continuous walls

Created with Boxes.py (https://festi.info/boxes.py)
Creation date: 2022-06-16 14:21:00
Command line (remove spaces between dashes): boxes TypeTray - -FingerJoint_angle=90.0 - -FingerJoint_style=rectangular - -FingerJoint_surroundingspaces=0.5 - -FingerJoint_edge_width=1.0 - -FingerJoint_extra_length=0.0 - -FingerJoint_finger=2.0 - -FingerJoint_play=0.0 - -FingerJoint_space=2.0 - -FingerJoint_width=1.0 - -Stackable_angle=60 - -Stackable_height=2.0 - -Stackable_holedistance=1.0 - -Stackable_width=4.0 - -Hinge_grip_percentage=0 - -Hinge_outset=0 - -Hinge_pinwidth=0.5 - -Hinge_style=outset - -Hinge_axle=2.0 - -Hinge_grip_length=0 - -Hinge_hingestrength=1 - -CabinetHinge_bore=3.2 - -CabinetHinge_eyes_per_hinge=5 - -CabinetHinge_hinges=2 - -CabinetHinge_style=inside - -CabinetHinge_eye=1.5 - -CabinetHinge_play=0.05 - -CabinetHinge_spacing=2.0 - -Lid_angle=90.0 - -Lid_hole_width=0 - -Lid_second_pin=0 - -Lid_second_pin=1 - -Lid_spring=both - -Lid_style=rectangular - -Lid_surroundingspaces=2.0 - -Lid_edge_width=1.0 - -Lid_extra_length=0.0 - -Lid_finger=3.0 - -Lid_play=0.05 - -Lid_space=2.0 - -Lid_width=1.0 - -Click_angle=5.0 - -Click_bottom_radius=0.1 - -Click_depth=3.0 - -RoundedTriangleEdge_height=150.0 - -RoundedTriangleEdge_r_hole=2.0 - -RoundedTriangleEdge_radius=30.0 - -RoundedTriangleEdge_outset=1 - -Mounting_d_head=6.5 - -Mounting_d_shaft=3.0 - -Mounting_margin=0.125 - -Mounting_num=2 - -Mounting_side=left '- -Mounting_style=straight edge, within' '- -sx=118*3' '- -sy=125.5*2' - -h=47.5 - -hi=0.0 - -outside=0 - -outside=1 - -bottom_edge=h - -top_edge=e - -back_height=0.0 - -radius=0.0 - -gripheight=30 - -gripwidth=70 - -thickness=4.0 - -format=svg - -tabs=0.0 - -debug=0 - -labels=0 - -labels=1 - -reference=0 - -inner_corners=loop - -burn=0.1
Url: http://www.festi.info/TypeTray?FingerJoint_angle=90.0&FingerJoint_style=rectangular&FingerJoint_surroundingspaces=0.5&FingerJoint_edge_width=1.0&FingerJoint_extra_length=0.0&FingerJoint_finger=2.0&FingerJoint_play=0.0&FingerJoint_space=2.0&FingerJoint_width=1.0&Stackable_angle=60&Stackable_height=2.0&Stackable_holedistance=1.0&Stackable_width=4.0&Hinge_grip_percentage=0&Hinge_outset=0&Hinge_pinwidth=0.5&Hinge_style=outset&Hinge_axle=2.0&Hinge_grip_length=0&Hinge_hingestrength=1&CabinetHinge_bore=3.2&CabinetHinge_eyes_per_hinge=5&CabinetHinge_hinges=2&CabinetHinge_style=inside&CabinetHinge_eye=1.5&CabinetHinge_play=0.05&CabinetHinge_spacing=2.0&Lid_angle=90.0&Lid_hole_width=0&Lid_second_pin=0&Lid_second_pin=1&Lid_spring=both&Lid_style=rectangular&Lid_surroundingspaces=2.0&Lid_edge_width=1.0&Lid_extra_length=0.0&Lid_finger=3.0&Lid_play=0.05&Lid_space=2.0&Lid_width=1.0&Click_angle=5.0&Click_bottom_radius=0.1&Click_depth=3.0&RoundedTriangleEdge_height=150.0&RoundedTriangleEdge_r_hole=2.0&RoundedTriangleEdge_radius=30.0&RoundedTriangleEdge_outset=1&Mounting_d_head=6.5&Mounting_d_shaft=3.0&Mounting_margin=0.125&Mounting_num=2&Mounting_side=left&Mounting_style=straight+edge%2C+within&sx=118*3&sy=125.5*2&h=47.5&hi=0.0&outside=0&outside=1&bottom_edge=h&top_edge=e&back_height=0.0&radius=0.0&gripheight=30&gripwidth=70&thickness=4.0&format=svg&tabs=0.0&debug=0&labels=0&labels=1&reference=0&inner_corners=loop&burn=0.1&render=1
SettingsUrl: http://www.festi.info/TypeTray?FingerJoint_angle=90.0&FingerJoint_style=rectangular&FingerJoint_surroundingspaces=0.5&FingerJoint_edge_width=1.0&FingerJoint_extra_length=0.0&FingerJoint_finger=2.0&FingerJoint_play=0.0&FingerJoint_space=2.0&FingerJoint_width=1.0&Stackable_angle=60&Stackable_height=2.0&Stackable_holedistance=1.0&Stackable_width=4.0&Hinge_grip_percentage=0&Hinge_outset=0&Hinge_pinwidth=0.5&Hinge_style=outset&Hinge_axle=2.0&Hinge_grip_length=0&Hinge_hingestrength=1&CabinetHinge_bore=3.2&CabinetHinge_eyes_per_hinge=5&CabinetHinge_hinges=2&CabinetHinge_style=inside&CabinetHinge_eye=1.5&CabinetHinge_play=0.05&CabinetHinge_spacing=2.0&Lid_angle=90.0&Lid_hole_width=0&Lid_second_pin=0&Lid_second_pin=1&Lid_spring=both&Lid_style=rectangular&Lid_surroundingspaces=2.0&Lid_edge_width=1.0&Lid_extra_length=0.0&Lid_finger=3.0&Lid_play=0.05&Lid_space=2.0&Lid_width=1.0&Click_angle=5.0&Click_bottom_radius=0.1&Click_depth=3.0&RoundedTriangleEdge_height=150.0&RoundedTriangleEdge_r_hole=2.0&RoundedTriangleEdge_radius=30.0&RoundedTriangleEdge_outset=1&Mounting_d_head=6.5&Mounting_d_shaft=3.0&Mounting_margin=0.125&Mounting_num=2&Mounting_side=left&Mounting_style=straight+edge%2C+within&sx=118*3&sy=125.5*2&h=47.5&hi=0.0&outside=0&outside=1&bottom_edge=h&top_edge=e&back_height=0.0&radius=0.0&gripheight=30&gripwidth=70&thickness=4.0&format=svg&tabs=0.0&debug=0&labels=0&labels=1&reference=0&inner_corners=loop&burn=0.1
-->
<title>TypeTray</title>
<metadata>
<rdf:RDF><cc:Work>
<dc:title>Tray - TypeTray</dc:title>
<dc:date>2022-06-16 14:21:00</dc:date>
<dc:source>http://www.festi.info/TypeTray?FingerJoint_angle=90.0&amp;FingerJoint_style=rectangular&amp;FingerJoint_surroundingspaces=0.5&amp;FingerJoint_edge_width=1.0&amp;FingerJoint_extra_length=0.0&amp;FingerJoint_finger=2.0&amp;FingerJoint_play=0.0&amp;FingerJoint_space=2.0&amp;FingerJoint_width=1.0&amp;Stackable_angle=60&amp;Stackable_height=2.0&amp;Stackable_holedistance=1.0&amp;Stackable_width=4.0&amp;Hinge_grip_percentage=0&amp;Hinge_outset=0&amp;Hinge_pinwidth=0.5&amp;Hinge_style=outset&amp;Hinge_axle=2.0&amp;Hinge_grip_length=0&amp;Hinge_hingestrength=1&amp;CabinetHinge_bore=3.2&amp;CabinetHinge_eyes_per_hinge=5&amp;CabinetHinge_hinges=2&amp;CabinetHinge_style=inside&amp;CabinetHinge_eye=1.5&amp;CabinetHinge_play=0.05&amp;CabinetHinge_spacing=2.0&amp;Lid_angle=90.0&amp;Lid_hole_width=0&amp;Lid_second_pin=0&amp;Lid_second_pin=1&amp;Lid_spring=both&amp;Lid_style=rectangular&amp;Lid_surroundingspaces=2.0&amp;Lid_edge_width=1.0&amp;Lid_extra_length=0.0&amp;Lid_finger=3.0&amp;Lid_play=0.05&amp;Lid_space=2.0&amp;Lid_width=1.0&amp;Click_angle=5.0&amp;Click_bottom_radius=0.1&amp;Click_depth=3.0&amp;RoundedTriangleEdge_height=150.0&amp;RoundedTriangleEdge_r_hole=2.0&amp;RoundedTriangleEdge_radius=30.0&amp;RoundedTriangleEdge_outset=1&amp;Mounting_d_head=6.5&amp;Mounting_d_shaft=3.0&amp;Mounting_margin=0.125&amp;Mounting_num=2&amp;Mounting_side=left&amp;Mounting_style=straight+edge%2C+within&amp;sx=118*3&amp;sy=125.5*2&amp;h=47.5&amp;hi=0.0&amp;outside=0&amp;outside=1&amp;bottom_edge=h&amp;top_edge=e&amp;back_height=0.0&amp;radius=0.0&amp;gripheight=30&amp;gripwidth=70&amp;thickness=4.0&amp;format=svg&amp;tabs=0.0&amp;debug=0&amp;labels=0&amp;labels=1&amp;reference=0&amp;inner_corners=loop&amp;burn=0.1&amp;render=1</dc:source>
<dc:description>Type tray - allows only continuous walls

Created with Boxes.py (https://festi.info/boxes.py)
Command line: boxes TypeTray --FingerJoint_angle=90.0 --FingerJoint_style=rectangular --FingerJoint_surroundingspaces=0.5 --FingerJoint_edge_width=1.0 --FingerJoint_extra_length=0.0 --FingerJoint_finger=2.0 --FingerJoint_play=0.0 --FingerJoint_space=2.0 --FingerJoint_width=1.0 --Stackable_angle=60 --Stackable_height=2.0 --Stackable_holedistance=1.0 --Stackable_width=4.0 --Hinge_grip_percentage=0 --Hinge_outset=0 --Hinge_pinwidth=0.5 --Hinge_style=outset --Hinge_axle=2.0 --Hinge_grip_length=0 --Hinge_hingestrength=1 --CabinetHinge_bore=3.2 --CabinetHinge_eyes_per_hinge=5 --CabinetHinge_hinges=2 --CabinetHinge_style=inside --CabinetHinge_eye=1.5 --CabinetHinge_play=0.05 --CabinetHinge_spacing=2.0 --Lid_angle=90.0 --Lid_hole_width=0 --Lid_second_pin=0 --Lid_second_pin=1 --Lid_spring=both --Lid_style=rectangular --Lid_surroundingspaces=2.0 --Lid_edge_width=1.0 --Lid_extra_length=0.0 --Lid_finger=3.0 --Lid_play=0.05 --Lid_space=2.0 --Lid_width=1.0 --Click_angle=5.0 --Click_bottom_radius=0.1 --Click_depth=3.0 --RoundedTriangleEdge_height=150.0 --RoundedTriangleEdge_r_hole=2.0 --RoundedTriangleEdge_radius=30.0 --RoundedTriangleEdge_outset=1 --Mounting_d_head=6.5 --Mounting_d_shaft=3.0 --Mounting_margin=0.125 --Mounting_num=2 --Mounting_side=left '--Mounting_style=straight edge, within' '--sx=118*3' '--sy=125.5*2' --h=47.5 --hi=0.0 --outside=0 --outside=1 --bottom_edge=h --top_edge=e --back_height=0.0 --radius=0.0 --gripheight=30 --gripwidth=70 --thickness=4.0 --format=svg --tabs=0.0 --debug=0 --labels=0 --labels=1 --reference=0 --inner_corners=loop --burn=0.1
Url: http://www.festi.info/TypeTray?FingerJoint_angle=90.0&amp;FingerJoint_style=rectangular&amp;FingerJoint_surroundingspaces=0.5&amp;FingerJoint_edge_width=1.0&amp;FingerJoint_extra_length=0.0&amp;FingerJoint_finger=2.0&amp;FingerJoint_play=0.0&amp;FingerJoint_space=2.0&amp;FingerJoint_width=1.0&amp;Stackable_angle=60&amp;Stackable_height=2.0&amp;Stackable_holedistance=1.0&amp;Stackable_width=4.0&amp;Hinge_grip_percentage=0&amp;Hinge_outset=0&amp;Hinge_pinwidth=0.5&amp;Hinge_style=outset&amp;Hinge_axle=2.0&amp;Hinge_grip_length=0&amp;Hinge_hingestrength=1&amp;CabinetHinge_bore=3.2&amp;CabinetHinge_eyes_per_hinge=5&amp;CabinetHinge_hinges=2&amp;CabinetHinge_style=inside&amp;CabinetHinge_eye=1.5&amp;CabinetHinge_play=0.05&amp;CabinetHinge_spacing=2.0&amp;Lid_angle=90.0&amp;Lid_hole_width=0&amp;Lid_second_pin=0&amp;Lid_second_pin=1&amp;Lid_spring=both&amp;Lid_style=rectangular&amp;Lid_surroundingspaces=2.0&amp;Lid_edge_width=1.0&amp;Lid_extra_length=0.0&amp;Lid_finger=3.0&amp;Lid_play=0.05&amp;Lid_space=2.0&amp;Lid_width=1.0&amp;Click_angle=5.0&amp;Click_bottom_radius=0.1&amp;Click_depth=3.0&amp;RoundedTriangleEdge_height=150.0&amp;RoundedTriangleEdge_r_hole=2.0&amp;RoundedTriangleEdge_radius=30.0&amp;RoundedTriangleEdge_outset=1&amp;Mounting_d_head=6.5&amp;Mounting_d_shaft=3.0&amp;Mounting_margin=0.125&amp;Mounting_num=2&amp;Mounting_side=left&amp;Mounting_style=straight+edge%2C+within&amp;sx=118*3&amp;sy=125.5*2&amp;h=47.5&amp;hi=0.0&amp;outside=0&amp;outside=1&amp;bottom_edge=h&amp;top_edge=e&amp;back_height=0.0&amp;radius=0.0&amp;gripheight=30&amp;gripwidth=70&amp;thickness=4.0&amp;format=svg&amp;tabs=0.0&amp;debug=0&amp;labels=0&amp;labels=1&amp;reference=0&amp;inner_corners=loop&amp;burn=0.1&amp;render=1
SettingsUrl: http://www.festi.info/TypeTray?FingerJoint_angle=90.0&amp;FingerJoint_style=rectangular&amp;FingerJoint_surroundingspaces=0.5&amp;FingerJoint_edge_width=1.0&amp;FingerJoint_extra_length=0.0&amp;FingerJoint_finger=2.0&amp;FingerJoint_play=0.0&amp;FingerJoint_space=2.0&amp;FingerJoint_width=1.0&amp;Stackable_angle=60&amp;Stackable_height=2.0&amp;Stackable_holedistance=1.0&amp;Stackable_width=4.0&amp;Hinge_grip_percentage=0&amp;Hinge_outset=0&amp;Hinge_pinwidth=0.5&amp;Hinge_style=outset&amp;Hinge_axle=2.0&amp;Hinge_grip_length=0&amp;Hinge_hingestrength=1&amp;CabinetHinge_bore=3.2&amp;CabinetHinge_eyes_per_hinge=5&amp;CabinetHinge_hinges=2&amp;CabinetHinge_style=inside&amp;CabinetHinge_eye=1.5&amp;CabinetHinge_play=0.05&amp;CabinetHinge_spacing=2.0&amp;Lid_angle=90.0&amp;Lid_hole_width=0&amp;Lid_second_pin=0&amp;Lid_second_pin=1&amp;Lid_spring=both&amp;Lid_style=rectangular&amp;Lid_surroundingspaces=2.0&amp;Lid_edge_width=1.0&amp;Lid_extra_length=0.0&amp;Lid_finger=3.0&amp;Lid_play=0.05&amp;Lid_space=2.0&amp;Lid_width=1.0&amp;Click_angle=5.0&amp;Click_bottom_radius=0.1&amp;Click_depth=3.0&amp;RoundedTriangleEdge_height=150.0&amp;RoundedTriangleEdge_r_hole=2.0&amp;RoundedTriangleEdge_radius=30.0&amp;RoundedTriangleEdge_outset=1&amp;Mounting_d_head=6.5&amp;Mounting_d_shaft=3.0&amp;Mounting_margin=0.125&amp;Mounting_num=2&amp;Mounting_side=left&amp;Mounting_style=straight+edge%2C+within&amp;sx=118*3&amp;sy=125.5*2&amp;h=47.5&amp;hi=0.0&amp;outside=0&amp;outside=1&amp;bottom_edge=h&amp;top_edge=e&amp;back_height=0.0&amp;radius=0.0&amp;gripheight=30&amp;gripwidth=70&amp;thickness=4.0&amp;format=svg&amp;tabs=0.0&amp;debug=0&amp;labels=0&amp;labels=1&amp;reference=0&amp;inner_corners=loop&amp;burn=0.1
</dc:description>
</cc:Work></rdf:RDF></metadata>
<g id="p-0" style="fill:none;stroke-linecap:round;stroke-linejoin:round;">
  <path d="M 130.667 396.450 V 400.350 C 130.667 400.450 130.767 400.350 130.667 400.350 H 126.867 C 126.767 400.350 126.867 400.450 126.867 400.350 V 392.550 C 126.867 392.450 126.767 392.550 126.867 392.550 H 130.667 C 130.767 392.550 130.667 392.450 130.667 392.550 V 396.450 Z" stroke="rgb(0,0,255)" stroke-width="0.20" />
  <path d="M 130.667 380.450 V 384.350 C 130.667 384.450 130.767 384.350 130.667 384.350 H 126.867 C 126.767 384.350 126.867 384.450 126.867 384.350 V 376.550 C 126.867 376.450 126.767 376.550 126.867 376.550 H 130.667 C 130.767 376.550 130.667 376.450 130.667 376.550 V 380.450 Z" stroke="rgb(0,0,255)" stroke-width="0.20" />
  <path d="M 247.333 396.450 V 400.350 C 247.333 400.450 247.433 400.350 247.333 400.350 H 243.533 C 243.433 400.350 243.533 400.450 243.533 400.350 V 392.550 C 243.533 392.450 243.433 392.550 243.533 392.550 H 247.333 C 247.433 392.550 247.333 392.450 247.333 392.550 V 396.450 Z" stroke="rgb(0,0,255)" stroke-width="0.20" />
  <path d="M 247.333 380.450 V 384.350 C 247.333 384.450 247.433 384.350 247.333 384.350 H 243.533 C 243.433 384.350 243.533 384.450 243.533 384.350 V 376.550 C 243.533 376.450 243.433 376.550 243.533 376.550 H 247.333 C 247.433 376.550 247.333 376.450 247.333 376.550 V 380.450 Z" stroke="rgb(0,0,255)" stroke-width="0.20" />
  <path d="M 27.100 414.100 H 23.200 C 23.100 414.100 23.200 414.200 23.200 414.100 V 410.300 C 23.200 410.200 23.100 410.300 23.200 410.300 H 31.000 C 31.100 410.300 31.000 410.200 31.000 410.300 V 414.100 C 31.000 414.200 31.100 414.100 31.000 414.100 H 27.100 Z" stroke="rgb(0,0,255)" stroke-width="0.20" />
  <path d="M 43.100 414.100 H 39.200 C 39.100 414.100 39.200 414.200 39.200 414.100 V 410.300 C 39.200 410.200 39.100 410.300 39.200 410.300 H 47.000 C 47.100 410.300 47.000 410.200 47.000 410.300 V 414.100 C 47.000 414.200 47.100 414.100 47.000 414.100 H 43.100 Z" stroke="rgb(0,0,255)" stroke-width="0.20" />
  <path d="M 59.100 414.100 H 55.200 C 55.100 414.100 55.200 414.200 55.200 414.100 V 410.300 C 55.200 410.200 55.100 410.300 55.200 410.300 H 63.000 C 63.100 410.300 63.000 410.200 63.000 410.300 V 414.100 C 63.000 414.200 63.100 414.100 63.000 414.100 H 59.100 Z" stroke="rgb(0,0,255)" stroke-width="0.20" />
  <path d="M 75.100 414.100 H 71.200 C 71.100 414.100 71.200 414.200 71.200 414.100 V 410.300 C 71.200 410.200 71.100 410.300 71.200 410.300 H 79.000 C 79.100 410.300 79.000 410.200 79.000 410.300 V 414.100 C 79.000 414.200 79.100 414.100 79.000 414.100 H 75.100 Z" stroke="rgb(0,0,255)" stroke-width="0.20" />
  <path d="M 91.100 414.100 H 87.200 C 87.100 414.100 87.200 414.200 87.200 414.100 V 410.300 C 87.200 410.200 87.100 410.300 87.200 410.300 H 95.000 C 95.100 410.300 95.000 410.200 95.000 410.300 V 414.100 C 95.000 414.200 95.100 414.100 95.000 414.100 H 91.100 Z" stroke="rgb(0,0,255)" stroke-width="0.20" />
  <path d="M 107.100 414.100 H 103.200 C 103.100 414.100 103.200 414.200 103.200 414.100 V 410.300 C 103.200 410.200 103.100 410.300 103.200 410.300 H 111.000 C 111.100 410.300 111.000 410.200 111.000 410.300 V 414.100 C 111.000 414.200 111.100 414.100 111.000 414.100 H 107.100 Z" stroke="rgb(0,0,255)" stroke-width="0.20" />
  <path d="M 123.100 414.100 H 119.200 C 119.100 414.100 119.200 414.200 119.200 414.100 V 410.300 C 119.200 410.200 119.100 410.300 119.200 410.300 H 127.000 C 127.100 410.300 127.000 410.200 127.000 410.300 V 414.100 C 127.000 414.200 127.100 414.100 127.000 414.100 H 123.100 Z" stroke="rgb(0,0,255)" stroke-width="0.20" />
  <path d="M 139.100 414.100 H 135.200 C 135.100 414.100 135.200 414.200 135.200 414.100 V 410.300 C 135.200 410.200 135.100 410.300 135.200 410.300 H 143.000 C 143.100 410.300 143.000 410.200 143.000 410.300 V 414.100 C 143.000 414.200 143.100 414.100 143.000 414.100 H 139.100 Z" stroke="rgb(0,0,255)" stroke-width="0.20" />
  <path d="M 155.100 414.100 H 151.200 C 151.100 414.100 151.200 414.200 151.200 414.100 V 410.300 C 151.200 410.200 151.100 410.300 151.200 410.300 H 159.000 C 159.100 410.300 159.000 410.200 159.000 410.300 V 414.100 C 159.000 414.200 159.100 414.100 159.000 414.100 H 155.100 Z" stroke="rgb(0,0,255)" stroke-width="0.20" />
  <path d="M 171.100 414.100 H 167.200 C 167.100 414.100 167.200 414.200 167.200 414.100 V 410.300 C 167.200 410.200 167.100 410.300 167.200 410.300 H 175.000 C 175.100 410.300 175.000 410.200 175.000 410.300 V 414.100 C 175.000 414.200 175.100 414.100 175.000 414.100 H 171.100 Z" stroke="rgb(0,0,255)" stroke-width="0.20" />
  <path d="M 187.100 414.100 H 183.200 C 183.100 414.100 183.200 414.200 183.200 414.100 V 410.300 C 183.200 410.200 183.100 410.300 183.200 410.300 H 191.000 C 191.100 410.300 191.000 410.200 191.000 410.300 V 414.100 C 191.000 414.200 191.100 414.100 191.000 414.100 H 187.100 Z" stroke="rgb(0,0,255)" stroke-width="0.20" />
  <path d="M 203.100 414.100 H 199.200 C 199.100 414.100 199.200 414.200 199.200 414.100 V 410.300 C 199.200 410.200 199.100 410.300 199.200 410.300 H 207.000 C 207.100 410.300 207.000 410.200 207.000 410.300 V 414.100 C 207.000 414.200 207.100 414.100 207.000 414.100 H 203.100 Z" stroke="rgb(0,0,255)" stroke-width="0.20" />
  <path d="M 219.100 414.100 H 215.200 C 215.100 414.100 215.200 414.200 215.200 414.100 V 410.300 C 215.200 410.200 215.100 410.300 215.200 410.300 H 223.000 C 223.100 410.300 223.000 410.200 223.000 410.300 V 414.100 C 223.000 414.200 223.100 414.100 223.000 414.100 H 219.100 Z" stroke="rgb(0,0,255)" stroke-width="0.20" />
  <path d="M 235.100 414.100 H 231.200 C 231.100 414.100 231.200 414.200 231.200 414.100 V 410.300 C 231.200 410.200 231.100 410.300 231.200 410.300 H 239.000 C 239.100 410.300 239.000 410.200 239.000 410.300 V 414.100 C 239.000 414.200 239.100 414.100 239.000 414.100 H 235.100 Z" stroke="rgb(0,0,255)" stroke-width="0.20" />
  <path d="M 251.100 414.100 H 247.200 C 247.100 414.100 247.200 414.200 247.200 414.100 V 410.300 C 247.200 410.200 247.100 410.300 247.200 410.300 H 255.000 C 255.100 410.300 255.000 410.200 255.000 410.300 V 414.100 C 255.000 414.200 255.100 414.100 255.000 414.100 H 251.100 Z" stroke="rgb(0,0,255)" stroke-width="0.20" />
  <path d="M 267.100 414.100 H 263.200 C 263.100 414.100 263.200 414.200 263.200 414.100 V 410.300 C 263.200 410.200 263.100 410.300 263.200 410.300 H 271.000 C 271.100 410.300 271.000 410.200 271.000 410.300 V 414.100 C 271.000 414.200 271.100 414.100 271.000 414.100 H 267.100 Z" stroke="rgb(0,0,255)" stroke-width="0.20" />
  <path d="M 283.100 414.100 H 279.200 C 279.100 414.100 279.200 414.200 279.200 414.100 V 410.300 C 279.200 410.200 279.100 410.300 279.200 410.300 H 287.000 C 287.100 410.300 287.000 410.200 287.000 410.300 V 414.100 C 287.000 414.200 287.100 414.100 287.000 414.100 H 283.100 Z" stroke="rgb(0,0,255)" stroke-width="0.20" />
  <path d="M 299.100 414.100 H 295.200 C 295.100 414.100 295.200 414.200 295.200 414.100 V 410.300 C 295.200 410.200 295.100 410.300 295.200 410.300 H 303.000 C 303.100 410.300 303.000 410.200 303.000 410.300 V 414.100 C 303.000 414.200 303.100 414.100 303.000 414.100 H 299.100 Z" stroke="rgb(0,0,255)" stroke-width="0.20" />
  <path d="M 315.100 414.100 H 311.200 C 311.100 414.100 311.200 414.200 311.200 414.100 V 410.300 C 311.200 410.200 311.100 410.300 311.200 410.300 H 319.000 C 319.100 410.300 319.000 410.200 319.000 410.300 V 414.100 C 319.000 414.200 319.100 414.100 319.000 414.100 H 315.100 Z" stroke="rgb(0,0,255)" stroke-width="0.20" />
  <path d="M 331.100 414.100 H 327.200 C 327.100 414.100 327.200 414.200 327.200 414.100 V 410.300 C 327.200 410.200 327.100 410.300 327.200 410.300 H 335.000 C 335.100 410.300 335.000 410.200 335.000 410.300 V 414.100 C 335.000 414.200 335.100 414.100 335.000 414.100 H 331.100 Z" stroke="rgb(0,0,255)" stroke-width="0.20" />
  <path d="M 347.100 414.100 H 343.200 C 343.100 414.100 343.200 414.200 343.200 414.100 V 410.300 C 343.200 410.200 343.100 410.300 343.200 410.300 H 351.000 C 351.100 410.300 351.000 410.200 351.000 410.300 V 414.100 C 351.000 414.200 351.100 414.100 351.000 414.100 H 347.100 Z" stroke="rgb(0,0,255)" stroke-width="0.20" />
  <path d="M 14.100 418.300 H 360.100 H 364.100 C 364.155 418.300 364.200 418.255 364.200 418.200 V 412.450 C 364.200 412.395 364.155 412.350 364.100 412.350 H 360.200 C 360.100 412.350 360.200 412.450 360.200 412.350 V 404.550 C 360.200 404.450 360.100 404.550 360.200 404.550 H 364.100 C 364.155 404.550 364.200 404.505 364.200 404.450 V 396.450 C 364.200 396.395 364.155 396.350 364.100 396.350 H 360.200 C 360.100 396.350 360.200 396.450 360.200 396.350 V 388.550 C 360.200 388.450 360.100 388.550 360.200 388.550 H 364.100 C 364.155 388.550 364.200 388.505 364.200 388.450 V 380.450 C 364.200 380.395 364.155 380.350 364.100 380.350 H 360.200 C 360.100 380.350 360.200 380.450 360.200 380.350 V 372.550 C 360.200 372.450 360.100 372.550 360.200 372.550 H 364.100 C 364.155 372.550 364.200 372.505 364.200 372.450 V 366.700 C 364.200 366.645 364.155 366.600 364.100 366.600 H 360.100 H 14.100 H 10.100 C 10.045 366.600 10.000 366.645 10.000 366.700 V 372.450 C 10.000 372.505 10.045 372.550 10.100 372.550 H 14.000 C 14.100 372.550 14.000 372.450 14.000 372.550 V 380.350 C 14.000 380.450 14.100 380.350 14.000 380.350 H 10.100 C 10.045 380.350 10.000 380.395 10.000 380.450 V 388.450 C 10.000 388.505 10.045 388.550 10.100 388.550 H 14.000 C 14.100 388.550 14.000 388.450 14.000 388.550 V 396.350 C 14.000 396.450 14.100 396.350 14.000 396.350 H 10.100 C 10.045 396.350 10.000 396.395 10.000 396.450 V 404.450 C 10.000 404.505 10.045 404.550 10.100 404.550 H 14.000 C 14.100 404.550 14.000 404.450 14.000 404.550 V 412.350 C 14.000 412.450 14.100 412.350 14.000 412.350 H 10.100 C 10.045 412.350 10.000 412.395 10.000 412.450 V 418.200 C 10.000 418.255 10.045 418.300 10.100 418.300 H 14.100 Z" stroke="rgb(0,0,0)" stroke-width="0.20" />
  <path d="M 187.100 396.800 H 207.100 C 209.715 396.800 212.285 397.488 214.550 398.796 C 216.815 400.104 218.696 401.985 220.004 404.250 C 221.312 406.515 222.000 409.085 222.000 411.700 C 222.000 414.315 221.312 416.885 220.004 419.150 C 218.696 421.415 216.815 423.296 214.550 424.604 C 212.285 425.912 209.715 426.600 207.100 426.600 H 167.100 C 164.485 426.600 161.915 425.912 159.650 424.604 C 157.385 423.296 155.504 421.415 154.196 419.150 C 152.888 416.885 152.200 414.315 152.200 411.700 C 152.200 409.085 152.888 406.515 154.196 404.250 C 155.504 401.985 157.385 400.104 159.650 398.796 C 161.915 397.488 164.485 396.800 167.100 396.800 H 187.100 Z" stroke="rgb(0,0,255)" stroke-width="0.20" />
</g>
<g id="p-1" style="fill:none;stroke-linecap:round;stroke-linejoin:round;">
  <path d="M 243.533 342.750 V 346.650 C 243.533 346.750 243.433 346.650 243.533 346.650 H 247.333 C 247.433 346.650 247.333 346.750 247.333 346.650 V 338.850 C 247.333 338.750 247.433 338.850 247.333 338.850 H 243.533 C 243.433 338.850 243.533 338.750 243.533 338.850 V 342.750 Z" stroke="rgb(0,0,255)" stroke-width="0.20" />
  <path d="M 243.533 326.750 V 330.650 C 243.533 330.750 243.433 330.650 243.533 330.650 H 247.333 C 247.433 330.650 247.333 330.750 247.333 330.650 V 322.850 C 247.333 322.750 247.433 322.850 247.333 322.850 H 243.533 C 243.433 322.850 243.533 322.750 243.533 322.850 V 326.750 Z" stroke="rgb(0,0,255)" stroke-width="0.20" />
  <path d="M 126.867 342.750 V 346.650 C 126.867 346.750 126.767 346.650 126.867 346.650 H 130.667 C 130.767 346.650 130.667 346.750 130.667 346.650 V 338.850 C 130.667 338.750 130.767 338.850 130.667 338.850 H 126.867 C 126.767 338.850 126.867 338.750 126.867 338.850 V 342.750 Z" stroke="rgb(0,0,255)" stroke-width="0.20" />
  <path d="M 126.867 326.750 V 330.650 C 126.867 330.750 126.767 330.650 126.867 330.650 H 130.667 C 130.767 330.650 130.667 330.750 130.667 330.650 V 322.850 C 130.667 322.750 130.767 322.850 130.667 322.850 H 126.867 C 126.767 322.850 126.867 322.750 126.867 322.850 V 326.750 Z" stroke="rgb(0,0,255)" stroke-width="0.20" />
  <path d="M 27.100 360.400 H 23.200 C 23.100 360.400 23.200 360.500 23.200 360.400 V 356.600 C 23.200 356.500 23.100 356.600 23.200 356.600 H 31.000 C 31.100 356.600 31.000 356.500 31.000 356.600 V 360.400 C 31.000 360.500 31.100 360.400 31.000 360.400 H 27.100 Z" stroke="rgb(0,0,255)" stroke-width="0.20" />
  <path d="M 43.100 360.400 H 39.200 C 39.100 360.400 39.200 360.500 39.200 360.400 V 356.600 C 39.200 356.500 39.100 356.600 39.200 356.600 H 47.000 C 47.100 356.600 47.000 356.500 47.000 356.600 V 360.400 C 47.000 360.500 47.100 360.400 47.000 360.400 H 43.100 Z" stroke="rgb(0,0,255)" stroke-width="0.20" />
  <path d="M 59.100 360.400 H 55.200 C 55.100 360.400 55.200 360.500 55.200 360.400 V 356.600 C 55.200 356.500 55.100 356.600 55.200 356.600 H 63.000 C 63.100 356.600 63.000 356.500 63.000 356.600 V 360.400 C 63.000 360.500 63.100 360.400 63.000 360.400 H 59.100 Z" stroke="rgb(0,0,255)" stroke-width="0.20" />
  <path d="M 75.100 360.400 H 71.200 C 71.100 360.400 71.200 360.500 71.200 360.400 V 356.600 C 71.200 356.500 71.100 356.600 71.200 356.600 H 79.000 C 79.100 356.600 79.000 356.500 79.000 356.600 V 360.400 C 79.000 360.500 79.100 360.400 79.000 360.400 H 75.100 Z" stroke="rgb(0,0,255)" stroke-width="0.20" />
  <path d="M 91.100 360.400 H 87.200 C 87.100 360.400 87.200 360.500 87.200 360.400 V 356.600 C 87.200 356.500 87.100 356.600 87.200 356.600 H 95.000 C 95.100 356.600 95.000 356.500 95.000 356.600 V 360.400 C 95.000 360.500 95.100 360.400 95.000 360.400 H 91.100 Z" stroke="rgb(0,0,255)" stroke-width="0.20" />
  <path d="M 107.100 360.400 H 103.200 C 103.100 360.400 103.200 360.500 103.200 360.400 V 356.600 C 103.200 356.500 103.100 356.600 103.200 356.600 H 111.000 C 111.100 356.600 111.000 356.500 111.000 356.600 V 360.400 C 111.000 360.500 111.100 360.400 111.000 360.400 H 107.100 Z" stroke="rgb(0,0,255)" stroke-width="0.20" />
  <path d="M 123.100 360.400 H 119.200 C 119.100 360.400 119.200 360.500 119.200 360.400 V 356.600 C 119.200 356.500 119.100 356.600 119.200 356.600 H 127.000 C 127.100 356.600 127.000 356.500 127.000 356.600 V 360.400 C 127.000 360.500 127.100 360.400 127.000 360.400 H 123.100 Z" stroke="rgb(0,0,255)" stroke-width="0.20" />
  <path d="M 139.100 360.400 H 135.200 C 135.100 360.400 135.200 360.500 135.200 360.400 V 356.600 C 135.200 356.500 135.100 356.600 135.200 356.600 H 143.000 C 143.100 356.600 143.000 356.500 143.000 356.600 V 360.400 C 143.000 360.500 143.100 360.400 143.000 360.400 H 139.100 Z" stroke="rgb(0,0,255)" stroke-width="0.20" />
  <path d="M 155.100 360.400 H 151.200 C 151.100 360.400 151.200 360.500 151.200 360.400 V 356.600 C 151.200 356.500 151.100 356.600 151.200 356.600 H 159.000 C 159.100 356.600 159.000 356.500 159.000 356.600 V 360.400 C 159.000 360.500 159.100 360.400 159.000 360.400 H 155.100 Z" stroke="rgb(0,0,255)" stroke-width="0.20" />
  <path d="M 171.100 360.400 H 167.200 C 167.100 360.400 167.200 360.500 167.200 360.400 V 356.600 C 167.200 356.500 167.100 356.600 167.200 356.600 H 175.000 C 175.100 356.600 175.000 356.500 175.000 356.600 V 360.400 C 175.000 360.500 175.100 360.400 175.000 360.400 H 171.100 Z" stroke="rgb(0,0,255)" stroke-width="0.20" />
  <path d="M 187.100 360.400 H 183.200 C 183.100 360.400 183.200 360.500 183.200 360.400 V 356.600 C 183.200 356.500 183.100 356.600 183.200 356.600 H 191.000 C 191.100 356.600 191.000 356.500 191.000 356.600 V 360.400 C 191.000 360.500 191.100 360.400 191.000 360.400 H 187.100 Z" stroke="rgb(0,0,255)" stroke-width="0.20" />
  <path d="M 203.100 360.400 H 199.200 C 199.100 360.400 199.200 360.500 199.200 360.400 V 356.600 C 199.200 356.500 199.100 356.600 199.200 356.600 H 207.000 C 207.100 356.600 207.000 356.500 207.000 356.600 V 360.400 C 207.000 360.500 207.100 360.400 207.000 360.400 H 203.100 Z" stroke="rgb(0,0,255)" stroke-width="0.20" />
  <path d="M 219.100 360.400 H 215.200 C 215.100 360.400 215.200 360.500 215.200 360.400 V 356.600 C 215.200 356.500 215.100 356.600 215.200 356.600 H 223.000 C 223.100 356.600 223.000 356.500 223.000 356.600 V 360.400 C 223.000 360.500 223.100 360.400 223.000 360.400 H 219.100 Z" stroke="rgb(0,0,255)" stroke-width="0.20" />
  <path d="M 235.100 360.400 H 231.200 C 231.100 360.400 231.200 360.500 231.200 360.400 V 356.600 C 231.200 356.500 231.100 356.600 231.200 356.600 H 239.000 C 239.100 356.600 239.000 356.500 239.000 356.600 V 360.400 C 239.000 360.500 239.100 360.400 239.000 360.400 H 235.100 Z" stroke="rgb(0,0,255)" stroke-width="0.20" />
  <path d="M 251.100 360.400 H 247.200 C 247.100 360.400 247.200 360.500 247.200 360.400 V 356.600 C 247.200 356.500 247.100 356.600 247.200 356.600 H 255.000 C 255.100 356.600 255.000 356.500 255.000 356.600 V 360.400 C 255.000 360.500 255.100 360.400 255.000 360.400 H 251.100 Z" stroke="rgb(0,0,255)" stroke-width="0.20" />
  <path d="M 267.100 360.400 H 263.200 C 263.100 360.400 263.200 360.500 263.200 360.400 V 356.600 C 263.200 356.500 263.100 356.600 263.200 356.600 H 271.000 C 271.100 356.600 271.000 356.500 271.000 356.600 V 360.400 C 271.000 360.500 271.100 360.400 271.000 360.400 H 267.100 Z" stroke="rgb(0,0,255)" stroke-width="0.20" />
  <path d="M 283.100 360.400 H 279.200 C 279.100 360.400 279.200 360.500 279.200 360.400 V 356.600 C 279.200 356.500 279.100 356.600 279.200 356.600 H 287.000 C 287.100 356.600 287.000 356.500 287.000 356.600 V 360.400 C 287.000 360.500 287.100 360.400 287.000 360.400 H 283.100 Z" stroke="rgb(0,0,255)" stroke-width="0.20" />
  <path d="M 299.100 360.400 H 295.200 C 295.100 360.400 295.200 360.500 295.200 360.400 V 356.600 C 295.200 356.500 295.100 356.600 295.200 356.600 H 303.000 C 303.100 356.600 303.000 356.500 303.000 356.600 V 360.400 C 303.000 360.500 303.100 360.400 303.000 360.400 H 299.100 Z" stroke="rgb(0,0,255)" stroke-width="0.20" />
  <path d="M 315.100 360.400 H 311.200 C 311.100 360.400 311.200 360.500 311.200 360.400 V 356.600 C 311.200 356.500 311.100 356.600 311.200 356.600 H 319.000 C 319.100 356.600 319.000 356.500 319.000 356.600 V 360.400 C 319.000 360.500 319.100 360.400 319.000 360.400 H 315.100 Z" stroke="rgb(0,0,255)" stroke-width="0.20" />
  <path d="M 331.100 360.400 H 327.200 C 327.100 360.400 327.200 360.500 327.200 360.400 V 356.600 C 327.200 356.500 327.100 356.600 327.200 356.600 H 335.000 C 335.100 356.600 335.000 356.500 335.000 356.600 V 360.400 C 335.000 360.500 335.100 360.400 335.000 360.400 H 331.100 Z" stroke="rgb(0,0,255)" stroke-width="0.20" />
  <path d="M 347.100 360.400 H 343.200 C 343.100 360.400 343.200 360.500 343.200 360.400 V 356.600 C 343.200 356.500 343.100 356.600 343.200 356.600 H 351.000 C 351.100 356.600 351.000 356.500 351.000 356.600 V 360.400 C 351.000 360.500 351.100 360.400 351.000 360.400 H 347.100 Z" stroke="rgb(0,0,255)" stroke-width="0.20" />
  <path d="M 14.100 364.600 H 360.100 H 364.100 C 364.155 364.600 364.200 364.555 364.200 364.500 V 358.750 C 364.200 358.695 364.155 358.650 364.100 358.650 H 360.200 C 360.100 358.650 360.200 358.750 360.200 358.650 V 350.850 C 360.200 350.750 360.100 350.850 360.200 350.850 H 364.100 C 364.155 350.850 364.200 350.805 364.200 350.750 V 342.750 C 364.200 342.695 364.155 342.650 364.100 342.650 H 360.200 C 360.100 342.650 360.200 342.750 360.200 342.650 V 334.850 C 360.200 334.750 360.100 334.850 360.200 334.850 H 364.100 C 364.155 334.850 364.200 334.805 364.200 334.750 V 326.750 C 364.200 326.695 364.155 326.650 364.100 326.650 H 360.200 C 360.100 326.650 360.200 326.750 360.200 326.650 V 318.850 C 360.200 318.750 360.100 318.850 360.200 318.850 H 364.100 C 364.155 318.850 364.200 318.805 364.200 318.750 V 313.000 C 364.200 312.945 364.155 312.900 364.100 312.900 H 360.100 H 14.100 H 10.100 C 10.045 312.900 10.000 312.945 10.000 313.000 V 318.750 C 10.000 318.805 10.045 318.850 10.100 318.850 H 14.000 C 14.100 318.850 14.000 318.750 14.000 318.850 V 326.650 C 14.000 326.750 14.100 326.650 14.000 326.650 H 10.100 C 10.045 326.650 10.000 326.695 10.000 326.750 V 334.750 C 10.000 334.805 10.045 334.850 10.100 334.850 H 14.000 C 14.100 334.850 14.000 334.750 14.000 334.850 V 342.650 C 14.000 342.750 14.100 342.650 14.000 342.650 H 10.100 C 10.045 342.650 10.000 342.695 10.000 342.750 V 350.750 C 10.000 350.805 10.045 350.850 10.100 350.850 H 14.000 C 14.100 350.850 14.000 350.750 14.000 350.850 V 358.650 C 14.000 358.750 14.100 358.650 14.000 358.650 H 10.100 C 10.045 358.650 10.000 358.695 10.000 358.750 V 364.500 C 10.000 364.555 10.045 364.600 10.100 364.600 H 14.100 Z" stroke="rgb(0,0,0)" stroke-width="0.20" />
</g>
<g id="p-2" style="fill:none;stroke-linecap:round;stroke-linejoin:round;">
  <path d="M 130.667 295.050 V 298.950 C 130.667 299.050 130.767 298.950 130.667 298.950 H 126.867 C 126.767 298.950 126.867 299.050 126.867 298.950 V 291.150 C 126.867 291.050 126.767 291.150 126.867 291.150 H 130.667 C 130.767 291.150 130.667 291.050 130.667 291.150 V 295.050 Z" stroke="rgb(0,0,255)" stroke-width="0.20" />
  <path d="M 130.667 279.050 V 282.950 C 130.667 283.050 130.767 282.950 130.667 282.950 H 126.867 C 126.767 282.950 126.867 283.050 126.867 282.950 V 275.150 C 126.867 275.050 126.767 275.150 126.867 275.150 H 130.667 C 130.767 275.150 130.667 275.050 130.667 275.150 V 279.050 Z" stroke="rgb(0,0,255)" stroke-width="0.20" />
  <path d="M 130.667 263.050 V 266.950 C 130.667 267.050 130.767 266.950 130.667 266.950 H 126.867 C 126.767 266.950 126.867 267.050 126.867 266.950 V 259.150 C 126.867 259.050 126.767 259.150 126.867 259.150 H 130.667 C 130.767 259.150 130.667 259.050 130.667 259.150 V 263.050 Z" stroke="rgb(0,0,255)" stroke-width="0.20" />
  <path d="M 130.667 247.050 V 250.950 C 130.667 251.050 130.767 250.950 130.667 250.950 H 126.867 C 126.767 250.950 126.867 251.050 126.867 250.950 V 243.150 C 126.867 243.050 126.767 243.150 126.867 243.150 H 130.667 C 130.767 243.150 130.667 243.050 130.667 243.150 V 247.050 Z" stroke="rgb(0,0,255)" stroke-width="0.20" />
  <path d="M 130.667 231.050 V 234.950 C 130.667 235.050 130.767 234.950 130.667 234.950 H 126.867 C 126.767 234.950 126.867 235.050 126.867 234.950 V 227.150 C 126.867 227.050 126.767 227.150 126.867 227.150 H 130.667 C 130.767 227.150 130.667 227.050 130.667 227.150 V 231.050 Z" stroke="rgb(0,0,255)" stroke-width="0.20" />
  <path d="M 130.667 215.050 V 218.950 C 130.667 219.050 130.767 218.950 130.667 218.950 H 126.867 C 126.767 218.950 126.867 219.050 126.867 218.950 V 211.150 C 126.867 211.050 126.767 211.150 126.867 211.150 H 130.667 C 130.767 211.150 130.667 211.050 130.667 211.150 V 215.050 Z" stroke="rgb(0,0,255)" stroke-width="0.20" />
  <path d="M 130.667 199.050 V 202.950 C 130.667 203.050 130.767 202.950 130.667 202.950 H 126.867 C 126.767 202.950 126.867 203.050 126.867 202.950 V 195.150 C 126.867 195.050 126.767 195.150 126.867 195.150 H 130.667 C 130.767 195.150 130.667 195.050 130.667 195.150 V 199.050 Z" stroke="rgb(0,0,255)" stroke-width="0.20" />
  <path d="M 130.667 171.550 V 175.450 C 130.667 175.550 130.767 175.450 130.667 175.450 H 126.867 C 126.767 175.450 126.867 175.550 126.867 175.450 V 167.650 C 126.867 167.550 126.767 167.650 126.867 167.650 H 130.667 C 130.767 167.650 130.667 167.550 130.667 167.650 V 171.550 Z" stroke="rgb(0,0,255)" stroke-width="0.20" />
  <path d="M 130.667 155.550 V 159.450 C 130.667 159.550 130.767 159.450 130.667 159.450 H 126.867 C 126.767 159.450 126.867 159.550 126.867 159.450 V 151.650 C 126.867 151.550 126.767 151.650 126.867 151.650 H 130.667 C 130.767 151.650 130.667 151.550 130.667 151.650 V 155.550 Z" stroke="rgb(0,0,255)" stroke-width="0.20" />
  <path d="M 130.667 139.550 V 143.450 C 130.667 143.550 130.767 143.450 130.667 143.450 H 126.867 C 126.767 143.450 126.867 143.550 126.867 143.450 V 135.650 C 126.867 135.550 126.767 135.650 126.867 135.650 H 130.667 C 130.767 135.650 130.667 135.550 130.667 135.650 V 139.550 Z" stroke="rgb(0,0,255)" stroke-width="0.20" />
  <path d="M 130.667 123.550 V 127.450 C 130.667 127.550 130.767 127.450 130.667 127.450 H 126.867 C 126.767 127.450 126.867 127.550 126.867 127.450 V 119.650 C 126.867 119.550 126.767 119.650 126.867 119.650 H 130.667 C 130.767 119.650 130.667 119.550 130.667 119.650 V 123.550 Z" stroke="rgb(0,0,255)" stroke-width="0.20" />
  <path d="M 130.667 107.550 V 111.450 C 130.667 111.550 130.767 111.450 130.667 111.450 H 126.867 C 126.767 111.450 126.867 111.550 126.867 111.450 V 103.650 C 126.867 103.550 126.767 103.650 126.867 103.650 H 130.667 C 130.767 103.650 130.667 103.550 130.667 103.650 V 107.550 Z" stroke="rgb(0,0,255)" stroke-width="0.20" />
  <path d="M 130.667 91.550 V 95.450 C 130.667 95.550 130.767 95.450 130.667 95.450 H 126.867 C 126.767 95.450 126.867 95.550 126.867 95.450 V 87.650 C 126.867 87.550 126.767 87.650 126.867 87.650 H 130.667 C 130.767 87.650 130.667 87.550 130.667 87.650 V 91.550 Z" stroke="rgb(0,0,255)" stroke-width="0.20" />
  <path d="M 130.667 75.550 V 79.450 C 130.667 79.550 130.767 79.450 130.667 79.450 H 126.867 C 126.767 79.450 126.867 79.550 126.867 79.450 V 71.650 C 126.867 71.550 126.767 71.650 126.867 71.650 H 130.667 C 130.767 71.650 130.667 71.550 130.667 71.650 V 75.550 Z" stroke="rgb(0,0,255)" stroke-width="0.20" />
  <path d="M 247.333 295.050 V 298.950 C 247.333 299.050 247.433 298.950 247.333 298.950 H 243.533 C 243.433 298.950 243.533 299.050 243.533 298.950 V 291.150 C 243.533 291.050 243.433 291.150 243.533 291.150 H 247.333 C 247.433 291.150 247.333 291.050 247.333 291.150 V 295.050 Z" stroke="rgb(0,0,255)" stroke-width="0.20" />
  <path d="M 247.333 279.050 V 282.950 C 247.333 283.050 247.433 282.950 247.333 282.950 H 243.533 C 243.433 282.950 243.533 283.050 243.533 282.950 V 275.150 C 243.533 275.050 243.433 275.150 243.533 275.150 H 247.333 C 247.433 275.150 247.333 275.050 247.333 275.150 V 279.050 Z" stroke="rgb(0,0,255)" stroke-width="0.20" />
  <path d="M 247.333 263.050 V 266.950 C 247.333 267.050 247.433 266.950 247.333 266.950 H 243.533 C 243.433 266.950 243.533 267.050 243.533 266.950 V 259.150 C 243.533 259.050 243.433 259.150 243.533 259.150 H 247.333 C 247.433 259.150 247.333 259.050 247.333 259.150 V 263.050 Z" stroke="rgb(0,0,255)" stroke-width="0.20" />
  <path d="M 247.333 247.050 V 250.950 C 247.333 251.050 247.433 250.950 247.333 250.950 H 243.533 C 243.433 250.950 243.533 251.050 243.533 250.950 V 243.150 C 243.533 243.050 243.433 243.150 243.533 243.150 H 247.333 C 247.433 243.150 247.333 243.050 247.333 243.150 V 247.050 Z" stroke="rgb(0,0,255)" stroke-width="0.20" />
  <path d="M 247.333 231.050 V 234.950 C 247.333 235.050 247.433 234.950 247.333 234.950 H 243.533 C 243.433 234.950 243.533 235.050 243.533 234.950 V 227.150 C 243.533 227.050 243.433 227.150 243.533 227.150 H 247.333 C 247.433 227.150 247.333 227.050 247.333 227.150 V 231.050 Z" stroke="rgb(0,0,255)" stroke-width="0.20" />
  <path d="M 247.333 215.050 V 218.950 C 247.333 219.050 247.433 218.950 247.333 218.950 H 243.533 C 243.433 218.950 243.533 219.050 243.533 218.950 V 211.150 C 243.533 211.050 243.433 211.150 243.533 211.150 H 247.333 C 247.433 211.150 247.333 211.050 247.333 211.150 V 215.050 Z" stroke="rgb(0,0,255)" stroke-width="0.20" />
  <path d="M 247.333 199.050 V 202.950 C 247.333 203.050 247.433 202.950 247.333 202.950 H 243.533 C 243.433 202.950 243.533 203.050 243.533 202.950 V 195.150 C 243.533 195.050 243.433 195.150 243.533 195.150 H 247.333 C 247.433 195.150 247.333 195.050 247.333 195.150 V 199.050 Z" stroke="rgb(0,0,255)" stroke-width="0.20" />
  <path d="M 247.333 171.550 V 175.450 C 247.333 175.550 247.433 175.450 247.333 175.450 H 243.533 C 243.433 175.450 243.533 175.550 243.533 175.450 V 167.650 C 243.533 167.550 243.433 167.650 243.533 167.650 H 247.333 C 247.433 167.650 247.333 167.550 247.333 167.650 V 171.550 Z" stroke="rgb(0,0,255)" stroke-width="0.20" />
  <path d="M 247.333 155.550 V 159.450 C 247.333 159.550 247.433 159.450 247.333 159.450 H 243.533 C 243.433 159.450 243.533 159.550 243.533 159.450 V 151.650 C 243.533 151.550 243.433 151.650 243.533 151.650 H 247.333 C 247.433 151.650 247.333 151.550 247.333 151.650 V 155.550 Z" stroke="rgb(0,0,255)" stroke-width="0.20" />
  <path d="M 247.333 139.550 V 143.450 C 247.333 143.550 247.433 143.450 247.333 143.450 H 243.533 C 243.433 143.450 243.533 143.550 243.533 143.450 V 135.650 C 243.533 135.550 243.433 135.650 243.533 135.650 H 247.333 C 247.433 135.650 247.333 135.550 247.333 135.650 V 139.550 Z" stroke="rgb(0,0,255)" stroke-width="0.20" />
  <path d="M 247.333 123.550 V 127.450 C 247.333 127.550 247.433 127.450 247.333 127.450 H 243.533 C 243.433 127.450 243.533 127.550 243.533 127.450 V 119.650 C 243.533 119.550 243.433 119.650 243.533 119.650 H 247.333 C 247.433 119.650 247.333 119.550 247.333 119.650 V 123.550 Z" stroke="rgb(0,0,255)" stroke-width="0.20" />
  <path d="M 247.333 107.550 V 111.450 C 247.333 111.550 247.433 111.450 247.333 111.450 H 243.533 C 243.433 111.450 243.533 111.550 243.533 111.450 V 103.650 C 243.533 103.550 243.433 103.650 243.533 103.650 H 247.333 C 247.433 103.650 247.333 103.550 247.333 103.650 V 107.550 Z" stroke="rgb(0,0,255)" stroke-width="0.20" />
  <path d="M 247.333 91.550 V 95.450 C 247.333 95.550 247.433 95.450 247.333 95.450 H 243.533 C 243.433 95.450 243.533 95.550 243.533 95.450 V 87.650 C 243.533 87.550 243.433 87.650 243.533 87.650 H 247.333 C 247.433 87.650 247.333 87.550 247.333 87.650 V 91.550 Z" stroke="rgb(0,0,255)" stroke-width="0.20" />
  <path d="M 247.333 75.550 V 79.450 C 247.333 79.550 247.433 79.450 247.333 79.450 H 243.533 C 243.433 79.450 243.533 79.550 243.533 79.450 V 71.650 C 243.533 71.550 243.433 71.650 243.533 71.650 H 247.333 C 247.433 71.650 247.333 71.550 247.333 71.650 V 75.550 Z" stroke="rgb(0,0,255)" stroke-width="0.20" />
  <path d="M 14.100 306.900 H 23.000 C 23.100 306.900 23.000 306.800 23.000 306.900 V 310.800 C 23.000 310.855 23.045 310.900 23.100 310.900 H 31.100 C 31.155 310.900 31.200 310.855 31.200 310.800 V 306.900 C 31.200 306.800 31.100 306.900 31.200 306.900 H 39.000 C 39.100 306.900 39.000 306.800 39.000 306.900 V 310.800 C 39.000 310.855 39.045 310.900 39.100 310.900 H 47.100 C 47.155 310.900 47.200 310.855 47.200 310.800 V 306.900 C 47.200 306.800 47.100 306.900 47.200 306.900 H 55.000 C 55.100 306.900 55.000 306.800 55.000 306.900 V 310.800 C 55.000 310.855 55.045 310.900 55.100 310.900 H 63.100 C 63.155 310.900 63.200 310.855 63.200 310.800 V 306.900 C 63.200 306.800 63.100 306.900 63.200 306.900 H 71.000 C 71.100 306.900 71.000 306.800 71.000 306.900 V 310.800 C 71.000 310.855 71.045 310.900 71.100 310.900 H 79.100 C 79.155 310.900 79.200 310.855 79.200 310.800 V 306.900 C 79.200 306.800 79.100 306.900 79.200 306.900 H 87.000 C 87.100 306.900 87.000 306.800 87.000 306.900 V 310.800 C 87.000 310.855 87.045 310.900 87.100 310.900 H 95.100 C 95.155 310.900 95.200 310.855 95.200 310.800 V 306.900 C 95.200 306.800 95.100 306.900 95.200 306.900 H 103.000 C 103.100 306.900 103.000 306.800 103.000 306.900 V 310.800 C 103.000 310.855 103.045 310.900 103.100 310.900 H 111.100 C 111.155 310.900 111.200 310.855 111.200 310.800 V 306.900 C 111.200 306.800 111.100 306.900 111.200 306.900 H 119.000 C 119.100 306.900 119.000 306.800 119.000 306.900 V 310.800 C 119.000 310.855 119.045 310.900 119.100 310.900 H 127.100 C 127.155 310.900 127.200 310.855 127.200 310.800 V 306.900 C 127.200 306.800 127.100 306.900 127.200 306.900 H 135.000 C 135.100 306.900 135.000 306.800 135.000 306.900 V 310.800 C 135.000 310.855 135.045 310.900 135.100 310.900 H 143.100 C 143.155 310.900 143.200 310.855 143.200 310.800 V 306.900 C 143.200 306.800 143.100 306.900 143.200 306.900 H 151.000 C 151.100 306.900 151.000 306.800 151.000 306.900 V 310.800 C 151.000 310.855 151.045 310.900 151.100 310.900 H 159.100 C 159.155 310.900 159.200 310.855 159.200 310.800 V 306.900 C 159.200 306.800 159.100 306.900 159.200 306.900 H 167.000 C 167.100 306.900 167.000 306.800 167.000 306.900 V 310.800 C 167.000 310.855 167.045 310.900 167.100 310.900 H 175.100 C 175.155 310.900 175.200 310.855 175.200 310.800 V 306.900 C 175.200 306.800 175.100 306.900 175.200 306.900 H 183.000 C 183.100 306.900 183.000 306.800 183.000 306.900 V 310.800 C 183.000 310.855 183.045 310.900 183.100 310.900 H 191.100 C 191.155 310.900 191.200 310.855 191.200 310.800 V 306.900 C 191.200 306.800 191.100 306.900 191.200 306.900 H 199.000 C 199.100 306.900 199.000 306.800 199.000 306.900 V 310.800 C 199.000 310.855 199.045 310.900 199.100 310.900 H 207.100 C 207.155 310.900 207.200 310.855 207.200 310.800 V 306.900 C 207.200 306.800 207.100 306.900 207.200 306.900 H 215.000 C 215.100 306.900 215.000 306.800 215.000 306.900 V 310.800 C 215.000 310.855 215.045 310.900 215.100 310.900 H 223.100 C 223.155 310.900 223.200 310.855 223.200 310.800 V 306.900 C 223.200 306.800 223.100 306.900 223.200 306.900 H 231.000 C 231.100 306.900 231.000 306.800 231.000 306.900 V 310.800 C 231.000 310.855 231.045 310.900 231.100 310.900 H 239.100 C 239.155 310.900 239.200 310.855 239.200 310.800 V 306.900 C 239.200 306.800 239.100 306.900 239.200 306.900 H 247.000 C 247.100 306.900 247.000 306.800 247.000 306.900 V 310.800 C 247.000 310.855 247.045 310.900 247.100 310.900 H 255.100 C 255.155 310.900 255.200 310.855 255.200 310.800 V 306.900 C 255.200 306.800 255.100 306.900 255.200 306.900 H 263.000 C 263.100 306.900 263.000 306.800 263.000 306.900 V 310.800 C 263.000 310.855 263.045 310.900 263.100 310.900 H 271.100 C 271.155 310.900 271.200 310.855 271.200 310.800 V 306.900 C 271.200 306.800 271.100 306.900 271.200 306.900 H 279.000 C 279.100 306.900 279.000 306.800 279.000 306.900 V 310.800 C 279.000 310.855 279.045 310.900 279.100 310.900 H 287.100 C 287.155 310.900 287.200 310.855 287.200 310.800 V 306.900 C 287.200 306.800 287.100 306.900 287.200 306.900 H 295.000 C 295.100 306.900 295.000 306.800 295.000 306.900 V 310.800 C 295.000 310.855 295.045 310.900 295.100 310.900 H 303.100 C 303.155 310.900 303.200 310.855 303.200 310.800 V 306.900 C 303.200 306.800 303.100 306.900 303.200 306.900 H 311.000 C 311.100 306.900 311.000 306.800 311.000 306.900 V 310.800 C 311.000 310.855 311.045 310.900 311.100 310.900 H 319.100 C 319.155 310.900 319.200 310.855 319.200 310.800 V 306.900 C 319.200 306.800 319.100 306.900 319.200 306.900 H 327.000 C 327.100 306.900 327.000 306.800 327.000 306.900 V 310.800 C 327.000 310.855 327.045 310.900 327.100 310.900 H 335.100 C 335.155 310.900 335.200 310.855 335.200 310.800 V 306.900 C 335.200 306.800 335.100 306.900 335.200 306.900 H 343.000 C 343.100 306.900 343.000 306.800 343.000 306.900 V 310.800 C 343.000 310.855 343.045 310.900 343.100 310.900 H 351.100 C 351.155 310.900 351.200 310.855 351.200 310.800 V 306.900 C 351.200 306.800 351.100 306.900 351.200 306.900 H 360.100 C 360.155 306.900 360.200 306.855 360.200 306.800 V 301.400 C 360.200 301.300 360.100 301.400 360.200 301.400 H 364.100 C 364.155 301.400 364.200 301.355 364.200 301.300 V 293.300 C 364.200 293.245 364.155 293.200 364.100 293.200 H 360.200 C 360.100 293.200 360.200 293.300 360.200 293.200 V 285.400 C 360.200 285.300 360.100 285.400 360.200 285.400 H 364.100 C 364.155 285.400 364.200 285.355 364.200 285.300 V 277.300 C 364.200 277.245 364.155 277.200 364.100 277.200 H 360.200 C 360.100 277.200 360.200 277.300 360.200 277.200 V 269.400 C 360.200 269.300 360.100 269.400 360.200 269.400 H 364.100 C 364.155 269.400 364.200 269.355 364.200 269.300 V 261.300 C 364.200 261.245 364.155 261.200 364.100 261.200 H 360.200 C 360.100 261.200 360.200 261.300 360.200 261.200 V 253.400 C 360.200 253.300 360.100 253.400 360.200 253.400 H 364.100 C 364.155 253.400 364.200 253.355 364.200 253.300 V 245.300 C 364.200 245.245 364.155 245.200 364.100 245.200 H 360.200 C 360.100 245.200 360.200 245.300 360.200 245.200 V 237.400 C 360.200 237.300 360.100 237.400 360.200 237.400 H 364.100 C 364.155 237.400 364.200 237.355 364.200 237.300 V 229.300 C 364.200 229.245 364.155 229.200 364.100 229.200 H 360.200 C 360.100 229.200 360.200 229.300 360.200 229.200 V 221.400 C 360.200 221.300 360.100 221.400 360.200 221.400 H 364.100 C 364.155 221.400 364.200 221.355 364.200 221.300 V 213.300 C 364.200 213.245 364.155 213.200 364.100 213.200 H 360.200 C 360.100 213.200 360.200 213.300 360.200 213.200 V 205.400 C 360.200 205.300 360.100 205.400 360.200 205.400 H 364.100 C 364.155 205.400 364.200 205.355 364.200 205.300 V 197.300 C 364.200 197.245 364.155 197.200 364.100 197.200 H 360.200 C 360.100 197.200 360.200 197.300 360.200 197.200 V 189.400 C 360.200 189.300 360.100 189.400 360.200 189.400 H 364.100 C 364.155 189.400 364.200 189.355 364.200 189.300 V 181.300 C 364.200 181.245 364.155 181.200 364.100 181.200 H 360.200 C 360.100 181.200 360.200 181.300 360.200 181.200 V 173.400 C 360.200 173.300 360.100 173.400 360.200 173.400 H 364.100 C 364.155 173.400 364.200 173.355 364.200 173.300 V 165.300 C 364.200 165.245 364.155 165.200 364.100 165.200 H 360.200 C 360.100 165.200 360.200 165.300 360.200 165.200 V 157.400 C 360.200 157.300 360.100 157.400 360.200 157.400 H 364.100 C 364.155 157.400 364.200 157.355 364.200 157.300 V 149.300 C 364.200 149.245 364.155 149.200 364.100 149.200 H 360.200 C 360.100 149.200 360.200 149.300 360.200 149.200 V 141.400 C 360.200 141.300 360.100 141.400 360.200 141.400 H 364.100 C 364.155 141.400 364.200 141.355 364.200 141.300 V 133.300 C 364.200 133.245 364.155 133.200 364.100 133.200 H 360.200 C 360.100 133.200 360.200 133.300 360.200 133.200 V 125.400 C 360.200 125.300 360.100 125.400 360.200 125.400 H 364.100 C 364.155 125.400 364.200 125.355 364.200 125.300 V 117.300 C 364.200 117.245 364.155 117.200 364.100 117.200 H 360.200 C 360.100 117.200 360.200 117.300 360.200 117.200 V 109.400 C 360.200 109.300 360.100 109.400 360.200 109.400 H 364.100 C 364.155 109.400 364.200 109.355 364.200 109.300 V 101.300 C 364.200 101.245 364.155 101.200 364.100 101.200 H 360.200 C 360.100 101.200 360.200 101.300 360.200 101.200 V 93.400 C 360.200 93.300 360.100 93.400 360.200 93.400 H 364.100 C 364.155 93.400 364.200 93.355 364.200 93.300 V 85.300 C 364.200 85.245 364.155 85.200 364.100 85.200 H 360.200 C 360.100 85.200 360.200 85.300 360.200 85.200 V 77.400 C 360.200 77.300 360.100 77.400 360.200 77.400 H 364.100 C 364.155 77.400 364.200 77.355 364.200 77.300 V 69.300 C 364.200 69.245 364.155 69.200 364.100 69.200 H 360.200 C 360.100 69.200 360.200 69.300 360.200 69.200 V 63.800 C 360.200 63.745 360.155 63.700 360.100 63.700 H 351.200 C 351.100 63.700 351.200 63.800 351.200 63.700 V 59.800 C 351.200 59.745 351.155 59.700 351.100 59.700 H 343.100 C 343.045 59.700 343.000 59.745 343.000 59.800 V 63.700 C 343.000 63.800 343.100 63.700 343.000 63.700 H 335.200 C 335.100 63.700 335.200 63.800 335.200 63.700 V 59.800 C 335.200 59.745 335.155 59.700 335.100 59.700 H 327.100 C 327.045 59.700 327.000 59.745 327.000 59.800 V 63.700 C 327.000 63.800 327.100 63.700 327.000 63.700 H 319.200 C 319.100 63.700 319.200 63.800 319.200 63.700 V 59.800 C 319.200 59.745 319.155 59.700 319.100 59.700 H 311.100 C 311.045 59.700 311.000 59.745 311.000 59.800 V 63.700 C 311.000 63.800 311.100 63.700 311.000 63.700 H 303.200 C 303.100 63.700 303.200 63.800 303.200 63.700 V 59.800 C 303.200 59.745 303.155 59.700 303.100 59.700 H 295.100 C 295.045 59.700 295.000 59.745 295.000 59.800 V 63.700 C 295.000 63.800 295.100 63.700 295.000 63.700 H 287.200 C 287.100 63.700 287.200 63.800 287.200 63.700 V 59.800 C 287.200 59.745 287.155 59.700 287.100 59.700 H 279.100 C 279.045 59.700 279.000 59.745 279.000 59.800 V 63.700 C 279.000 63.800 279.100 63.700 279.000 63.700 H 271.200 C 271.100 63.700 271.200 63.800 271.200 63.700 V 59.800 C 271.200 59.745 271.155 59.700 271.100 59.700 H 263.100 C 263.045 59.700 263.000 59.745 263.000 59.800 V 63.700 C 263.000 63.800 263.100 63.700 263.000 63.700 H 255.200 C 255.100 63.700 255.200 63.800 255.200 63.700 V 59.800 C 255.200 59.745 255.155 59.700 255.100 59.700 H 247.100 C 247.045 59.700 247.000 59.745 247.000 59.800 V 63.700 C 247.000 63.800 247.100 63.700 247.000 63.700 H 239.200 C 239.100 63.700 239.200 63.800 239.200 63.700 V 59.800 C 239.200 59.745 239.155 59.700 239.100 59.700 H 231.100 C 231.045 59.700 231.000 59.745 231.000 59.800 V 63.700 C 231.000 63.800 231.100 63.700 231.000 63.700 H 223.200 C 223.100 63.700 223.200 63.800 223.200 63.700 V 59.800 C 223.200 59.745 223.155 59.700 223.100 59.700 H 215.100 C 215.045 59.700 215.000 59.745 215.000 59.800 V 63.700 C 215.000 63.800 215.100 63.700 215.000 63.700 H 207.200 C 207.100 63.700 207.200 63.800 207.200 63.700 V 59.800 C 207.200 59.745 207.155 59.700 207.100 59.700 H 199.100 C 199.045 59.700 199.000 59.745 199.000 59.800 V 63.700 C 199.000 63.800 199.100 63.700 199.000 63.700 H 191.200 C 191.100 63.700 191.200 63.800 191.200 63.700 V 59.800 C 191.200 59.745 191.155 59.700 191.100 59.700 H 183.100 C 183.045 59.700 183.000 59.745 183.000 59.800 V 63.700 C 183.000 63.800 183.100 63.700 183.000 63.700 H 175.200 C 175.100 63.700 175.200 63.800 175.200 63.700 V 59.800 C 175.200 59.745 175.155 59.700 175.100 59.700 H 167.100 C 167.045 59.700 167.000 59.745 167.000 59.800 V 63.700 C 167.000 63.800 167.100 63.700 167.000 63.700 H 159.200 C 159.100 63.700 159.200 63.800 159.200 63.700 V 59.800 C 159.200 59.745 159.155 59.700 159.100 59.700 H 151.100 C 151.045 59.700 151.000 59.745 151.000 59.800 V 63.700 C 151.000 63.800 151.100 63.700 151.000 63.700 H 143.200 C 143.100 63.700 143.200 63.800 143.200 63.700 V 59.800 C 143.200 59.745 143.155 59.700 143.100 59.700 H 135.100 C 135.045 59.700 135.000 59.745 135.000 59.800 V 63.700 C 135.000 63.800 135.100 63.700 135.000 63.700 H 127.200 C 127.100 63.700 127.200 63.800 127.200 63.700 V 59.800 C 127.200 59.745 127.155 59.700 127.100 59.700 H 119.100 C 119.045 59.700 119.000 59.745 119.000 59.800 V 63.700 C 119.000 63.800 119.100 63.700 119.000 63.700 H 111.200 C 111.100 63.700 111.200 63.800 111.200 63.700 V 59.800 C 111.200 59.745 111.155 59.700 111.100 59.700 H 103.100 C 103.045 59.700 103.000 59.745 103.000 59.800 V 63.700 C 103.000 63.800 103.100 63.700 103.000 63.700 H 95.200 C 95.100 63.700 95.200 63.800 95.200 63.700 V 59.800 C 95.200 59.745 95.155 59.700 95.100 59.700 H 87.100 C 87.045 59.700 87.000 59.745 87.000 59.800 V 63.700 C 87.000 63.800 87.100 63.700 87.000 63.700 H 79.200 C 79.100 63.700 79.200 63.800 79.200 63.700 V 59.800 C 79.200 59.745 79.155 59.700 79.100 59.700 H 71.100 C 71.045 59.700 71.000 59.745 71.000 59.800 V 63.700 C 71.000 63.800 71.100 63.700 71.000 63.700 H 63.200 C 63.100 63.700 63.200 63.800 63.200 63.700 V 59.800 C 63.200 59.745 63.155 59.700 63.100 59.700 H 55.100 C 55.045 59.700 55.000 59.745 55.000 59.800 V 63.700 C 55.000 63.800 55.100 63.700 55.000 63.700 H 47.200 C 47.100 63.700 47.200 63.800 47.200 63.700 V 59.800 C 47.200 59.745 47.155 59.700 47.100 59.700 H 39.100 C 39.045 59.700 39.000 59.745 39.000 59.800 V 63.700 C 39.000 63.800 39.100 63.700 39.000 63.700 H 31.200 C 31.100 63.700 31.200 63.800 31.200 63.700 V 59.800 C 31.200 59.745 31.155 59.700 31.100 59.700 H 23.100 C 23.045 59.700 23.000 59.745 23.000 59.800 V 63.700 C 23.000 63.800 23.100 63.700 23.000 63.700 H 14.100 C 14.045 63.700 14.000 63.745 14.000 63.800 V 69.200 C 14.000 69.300 14.100 69.200 14.000 69.200 H 10.100 C 10.045 69.200 10.000 69.245 10.000 69.300 V 77.300 C 10.000 77.355 10.045 77.400 10.100 77.400 H 14.000 C 14.100 77.400 14.000 77.300 14.000 77.400 V 85.200 C 14.000 85.300 14.100 85.200 14.000 85.200 H 10.100 C 10.045 85.200 10.000 85.245 10.000 85.300 V 93.300 C 10.000 93.355 10.045 93.400 10.100 93.400 H 14.000 C 14.100 93.400 14.000 93.300 14.000 93.400 V 101.200 C 14.000 101.300 14.100 101.200 14.000 101.200 H 10.100 C 10.045 101.200 10.000 101.245 10.000 101.300 V 109.300 C 10.000 109.355 10.045 109.400 10.100 109.400 H 14.000 C 14.100 109.400 14.000 109.300 14.000 109.400 V 117.200 C 14.000 117.300 14.100 117.200 14.000 117.200 H 10.100 C 10.045 117.200 10.000 117.245 10.000 117.300 V 125.300 C 10.000 125.355 10.045 125.400 10.100 125.400 H 14.000 C 14.100 125.400 14.000 125.300 14.000 125.400 V 133.200 C 14.000 133.300 14.100 133.200 14.000 133.200 H 10.100 C 10.045 133.200 10.000 133.245 10.000 133.300 V 141.300 C 10.000 141.355 10.045 141.400 10.100 141.400 H 14.000 C 14.100 141.400 14.000 141.300 14.000 141.400 V 149.200 C 14.000 149.300 14.100 149.200 14.000 149.200 H 10.100 C 10.045 149.200 10.000 149.245 10.000 149.300 V 157.300 C 10.000 157.355 10.045 157.400 10.100 157.400 H 14.000 C 14.100 157.400 14.000 157.300 14.000 157.400 V 165.200 C 14.000 165.300 14.100 165.200 14.000 165.200 H 10.100 C 10.045 165.200 10.000 165.245 10.000 165.300 V 173.300 C 10.000 173.355 10.045 173.400 10.100 173.400 H 14.000 C 14.100 173.400 14.000 173.300 14.000 173.400 V 181.200 C 14.000 181.300 14.100 181.200 14.000 181.200 H 10.100 C 10.045 181.200 10.000 181.245 10.000 181.300 V 189.300 C 10.000 189.355 10.045 189.400 10.100 189.400 H 14.000 C 14.100 189.400 14.000 189.300 14.000 189.400 V 197.200 C 14.000 197.300 14.100 197.200 14.000 197.200 H 10.100 C 10.045 197.200 10.000 197.245 10.000 197.300 V 205.300 C 10.000 205.355 10.045 205.400 10.100 205.400 H 14.000 C 14.100 205.400 14.000 205.300 14.000 205.400 V 213.200 C 14.000 213.300 14.100 213.200 14.000 213.200 H 10.100 C 10.045 213.200 10.000 213.245 10.000 213.300 V 221.300 C 10.000 221.355 10.045 221.400 10.100 221.400 H 14.000 C 14.100 221.400 14.000 221.300 14.000 221.400 V 229.200 C 14.000 229.300 14.100 229.200 14.000 229.200 H 10.100 C 10.045 229.200 10.000 229.245 10.000 229.300 V 237.300 C 10.000 237.355 10.045 237.400 10.100 237.400 H 14.000 C 14.100 237.400 14.000 237.300 14.000 237.400 V 245.200 C 14.000 245.300 14.100 245.200 14.000 245.200 H 10.100 C 10.045 245.200 10.000 245.245 10.000 245.300 V 253.300 C 10.000 253.355 10.045 253.400 10.100 253.400 H 14.000 C 14.100 253.400 14.000 253.300 14.000 253.400 V 261.200 C 14.000 261.300 14.100 261.200 14.000 261.200 H 10.100 C 10.045 261.200 10.000 261.245 10.000 261.300 V 269.300 C 10.000 269.355 10.045 269.400 10.100 269.400 H 14.000 C 14.100 269.400 14.000 269.300 14.000 269.400 V 277.200 C 14.000 277.300 14.100 277.200 14.000 277.200 H 10.100 C 10.045 277.200 10.000 277.245 10.000 277.300 V 285.300 C 10.000 285.355 10.045 285.400 10.100 285.400 H 14.000 C 14.100 285.400 14.000 285.300 14.000 285.400 V 293.200 C 14.000 293.300 14.100 293.200 14.000 293.200 H 10.100 C 10.045 293.200 10.000 293.245 10.000 293.300 V 301.300 C 10.000 301.355 10.045 301.400 10.100 301.400 H 14.000 C 14.100 301.400 14.000 301.300 14.000 301.400 V 306.800 C 14.000 306.855 14.045 306.900 14.100 306.900 Z" stroke="rgb(0,0,0)" stroke-width="0.20" />
  <path d="M 351.767 183.400 H 355.667 C 355.767 183.400 355.667 183.300 355.667 183.400 V 187.200 C 355.667 187.300 355.767 187.200 355.667 187.200 H 347.867 C 347.767 187.200 347.867 187.300 347.867 187.200 V 183.400 C 347.867 183.300 347.767 183.400 347.867 183.400 H 351.767 Z" stroke="rgb(0,0,255)" stroke-width="0.20" />
  <path d="M 335.767 183.400 H 339.667 C 339.767 183.400 339.667 183.300 339.667 183.400 V 187.200 C 339.667 187.300 339.767 187.200 339.667 187.200 H 331.867 C 331.767 187.200 331.867 187.300 331.867 187.200 V 183.400 C 331.867 183.300 331.767 183.400 331.867 183.400 H 335.767 Z" stroke="rgb(0,0,255)" stroke-width="0.20" />
  <path d="M 319.767 183.400 H 323.667 C 323.767 183.400 323.667 183.300 323.667 183.400 V 187.200 C 323.667 187.300 323.767 187.200 323.667 187.200 H 315.867 C 315.767 187.200 315.867 187.300 315.867 187.200 V 183.400 C 315.867 183.300 315.767 183.400 315.867 183.400 H 319.767 Z" stroke="rgb(0,0,255)" stroke-width="0.20" />
  <path d="M 303.767 183.400 H 307.667 C 307.767 183.400 307.667 183.300 307.667 183.400 V 187.200 C 307.667 187.300 307.767 187.200 307.667 187.200 H 299.867 C 299.767 187.200 299.867 187.300 299.867 187.200 V 183.400 C 299.867 183.300 299.767 183.400 299.867 183.400 H 303.767 Z" stroke="rgb(0,0,255)" stroke-width="0.20" />
  <path d="M 287.767 183.400 H 291.667 C 291.767 183.400 291.667 183.300 291.667 183.400 V 187.200 C 291.667 187.300 291.767 187.200 291.667 187.200 H 283.867 C 283.767 187.200 283.867 187.300 283.867 187.200 V 183.400 C 283.867 183.300 283.767 183.400 283.867 183.400 H 287.767 Z" stroke="rgb(0,0,255)" stroke-width="0.20" />
  <path d="M 271.767 183.400 H 275.667 C 275.767 183.400 275.667 183.300 275.667 183.400 V 187.200 C 275.667 187.300 275.767 187.200 275.667 187.200 H 267.867 C 267.767 187.200 267.867 187.300 267.867 187.200 V 183.400 C 267.867 183.300 267.767 183.400 267.867 183.400 H 271.767 Z" stroke="rgb(0,0,255)" stroke-width="0.20" />
  <path d="M 255.767 183.400 H 259.667 C 259.767 183.400 259.667 183.300 259.667 183.400 V 187.200 C 259.667 187.300 259.767 187.200 259.667 187.200 H 251.867 C 251.767 187.200 251.867 187.300 251.867 187.200 V 183.400 C 251.867 183.300 251.767 183.400 251.867 183.400 H 255.767 Z" stroke="rgb(0,0,255)" stroke-width="0.20" />
  <path d="M 235.100 183.400 H 239.000 C 239.100 183.400 239.000 183.300 239.000 183.400 V 187.200 C 239.000 187.300 239.100 187.200 239.000 187.200 H 231.200 C 231.100 187.200 231.200 187.300 231.200 187.200 V 183.400 C 231.200 183.300 231.100 183.400 231.200 183.400 H 235.100 Z" stroke="rgb(0,0,255)" stroke-width="0.20" />
  <path d="M 219.100 183.400 H 223.000 C 223.100 183.400 223.000 183.300 223.000 183.400 V 187.200 C 223.000 187.300 223.100 187.200 223.000 187.200 H 215.200 C 215.100 187.200 215.200 187.300 215.200 187.200 V 183.400 C 215.200 183.300 215.100 183.400 215.200 183.400 H 219.100 Z" stroke="rgb(0,0,255)" stroke-width="0.20" />
  <path d="M 203.100 183.400 H 207.000 C 207.100 183.400 207.000 183.300 207.000 183.400 V 187.200 C 207.000 187.300 207.100 187.200 207.000 187.200 H 199.200 C 199.100 187.200 199.200 187.300 199.200 187.200 V 183.400 C 199.200 183.300 199.100 183.400 199.200 183.400 H 203.100 Z" stroke="rgb(0,0,255)" stroke-width="0.20" />
  <path d="M 187.100 183.400 H 191.000 C 191.100 183.400 191.000 183.300 191.000 183.400 V 187.200 C 191.000 187.300 191.100 187.200 191.000 187.200 H 183.200 C 183.100 187.200 183.200 187.300 183.200 187.200 V 183.400 C 183.200 183.300 183.100 183.400 183.200 183.400 H 187.100 Z" stroke="rgb(0,0,255)" stroke-width="0.20" />
  <path d="M 171.100 183.400 H 175.000 C 175.100 183.400 175.000 183.300 175.000 183.400 V 187.200 C 175.000 187.300 175.100 187.200 175.000 187.200 H 167.200 C 167.100 187.200 167.200 187.300 167.200 187.200 V 183.400 C 167.200 183.300 167.100 183.400 167.200 183.400 H 171.100 Z" stroke="rgb(0,0,255)" stroke-width="0.20" />
  <path d="M 155.100 183.400 H 159.000 C 159.100 183.400 159.000 183.300 159.000 183.400 V 187.200 C 159.000 187.300 159.100 187.200 159.000 187.200 H 151.200 C 151.100 187.200 151.200 187.300 151.200 187.200 V 183.400 C 151.200 183.300 151.100 183.400 151.200 183.400 H 155.100 Z" stroke="rgb(0,0,255)" stroke-width="0.20" />
  <path d="M 139.100 183.400 H 143.000 C 143.100 183.400 143.000 183.300 143.000 183.400 V 187.200 C 143.000 187.300 143.100 187.200 143.000 187.200 H 135.200 C 135.100 187.200 135.200 187.300 135.200 187.200 V 183.400 C 135.200 183.300 135.100 183.400 135.200 183.400 H 139.100 Z" stroke="rgb(0,0,255)" stroke-width="0.20" />
  <path d="M 118.433 183.400 H 122.333 C 122.433 183.400 122.333 183.300 122.333 183.400 V 187.200 C 122.333 187.300 122.433 187.200 122.333 187.200 H 114.533 C 114.433 187.200 114.533 187.300 114.533 187.200 V 183.400 C 114.533 183.300 114.433 183.400 114.533 183.400 H 118.433 Z" stroke="rgb(0,0,255)" stroke-width="0.20" />
  <path d="M 102.433 183.400 H 106.333 C 106.433 183.400 106.333 183.300 106.333 183.400 V 187.200 C 106.333 187.300 106.433 187.200 106.333 187.200 H 98.533 C 98.433 187.200 98.533 187.300 98.533 187.200 V 183.400 C 98.533 183.300 98.433 183.400 98.533 183.400 H 102.433 Z" stroke="rgb(0,0,255)" stroke-width="0.20" />
  <path d="M 86.433 183.400 H 90.333 C 90.433 183.400 90.333 183.300 90.333 183.400 V 187.200 C 90.333 187.300 90.433 187.200 90.333 187.200 H 82.533 C 82.433 187.200 82.533 187.300 82.533 187.200 V 183.400 C 82.533 183.300 82.433 183.400 82.533 183.400 H 86.433 Z" stroke="rgb(0,0,255)" stroke-width="0.20" />
  <path d="M 70.433 183.400 H 74.333 C 74.433 183.400 74.333 183.300 74.333 183.400 V 187.200 C 74.333 187.300 74.433 187.200 74.333 187.200 H 66.533 C 66.433 187.200 66.533 187.300 66.533 187.200 V 183.400 C 66.533 183.300 66.433 183.400 66.533 183.400 H 70.433 Z" stroke="rgb(0,0,255)" stroke-width="0.20" />
  <path d="M 54.433 183.400 H 58.333 C 58.433 183.400 58.333 183.300 58.333 183.400 V 187.200 C 58.333 187.300 58.433 187.200 58.333 187.200 H 50.533 C 50.433 187.200 50.533 187.300 50.533 187.200 V 183.400 C 50.533 183.300 50.433 183.400 50.533 183.400 H 54.433 Z" stroke="rgb(0,0,255)" stroke-width="0.20" />
  <path d="M 38.433 183.400 H 42.333 C 42.433 183.400 42.333 183.300 42.333 183.400 V 187.200 C 42.333 187.300 42.433 187.200 42.333 187.200 H 34.533 C 34.433 187.200 34.533 187.300 34.533 187.200 V 183.400 C 34.533 183.300 34.433 183.400 34.533 183.400 H 38.433 Z" stroke="rgb(0,0,255)" stroke-width="0.20" />
  <path d="M 22.433 183.400 H 26.333 C 26.433 183.400 26.333 183.300 26.333 183.400 V 187.200 C 26.333 187.300 26.433 187.200 26.333 187.200 H 18.533 C 18.433 187.200 18.533 187.300 18.533 187.200 V 183.400 C 18.533 183.300 18.433 183.400 18.533 183.400 H 22.433 Z" stroke="rgb(0,0,255)" stroke-width="0.20" />
</g>
<g id="p-3" style="fill:none;stroke-linecap:round;stroke-linejoin:round;">
  <path d="M 14.100 53.700 H 18.333 C 18.433 53.700 18.333 53.600 18.333 53.700 V 57.600 C 18.333 57.655 18.378 57.700 18.433 57.700 H 26.433 C 26.489 57.700 26.533 57.655 26.533 57.600 V 53.700 C 26.533 53.600 26.433 53.700 26.533 53.700 H 34.333 C 34.433 53.700 34.333 53.600 34.333 53.700 V 57.600 C 34.333 57.655 34.378 57.700 34.433 57.700 H 42.433 C 42.489 57.700 42.533 57.655 42.533 57.600 V 53.700 C 42.533 53.600 42.433 53.700 42.533 53.700 H 50.333 C 50.433 53.700 50.333 53.600 50.333 53.700 V 57.600 C 50.333 57.655 50.378 57.700 50.433 57.700 H 58.433 C 58.489 57.700 58.533 57.655 58.533 57.600 V 53.700 C 58.533 53.600 58.433 53.700 58.533 53.700 H 66.333 C 66.433 53.700 66.333 53.600 66.333 53.700 V 57.600 C 66.333 57.655 66.378 57.700 66.433 57.700 H 74.433 C 74.489 57.700 74.533 57.655 74.533 57.600 V 53.700 C 74.533 53.600 74.433 53.700 74.533 53.700 H 82.333 C 82.433 53.700 82.333 53.600 82.333 53.700 V 57.600 C 82.333 57.655 82.378 57.700 82.433 57.700 H 90.433 C 90.489 57.700 90.533 57.655 90.533 57.600 V 53.700 C 90.533 53.600 90.433 53.700 90.533 53.700 H 98.333 C 98.433 53.700 98.333 53.600 98.333 53.700 V 57.600 C 98.333 57.655 98.378 57.700 98.433 57.700 H 106.433 C 106.489 57.700 106.533 57.655 106.533 57.600 V 53.700 C 106.533 53.600 106.433 53.700 106.533 53.700 H 114.333 C 114.433 53.700 114.333 53.600 114.333 53.700 V 57.600 C 114.333 57.655 114.378 57.700 114.433 57.700 H 122.433 C 122.489 57.700 122.533 57.655 122.533 57.600 V 53.700 C 122.533 53.600 122.433 53.700 122.533 53.700 H 126.767 H 128.767 H 130.767 H 135.000 C 135.100 53.700 135.000 53.600 135.000 53.700 V 57.600 C 135.000 57.655 135.045 57.700 135.100 57.700 H 143.100 C 143.155 57.700 143.200 57.655 143.200 57.600 V 53.700 C 143.200 53.600 143.100 53.700 143.200 53.700 H 151.000 C 151.100 53.700 151.000 53.600 151.000 53.700 V 57.600 C 151.000 57.655 151.045 57.700 151.100 57.700 H 159.100 C 159.155 57.700 159.200 57.655 159.200 57.600 V 53.700 C 159.200 53.600 159.100 53.700 159.200 53.700 H 167.000 C 167.100 53.700 167.000 53.600 167.000 53.700 V 57.600 C 167.000 57.655 167.045 57.700 167.100 57.700 H 175.100 C 175.155 57.700 175.200 57.655 175.200 57.600 V 53.700 C 175.200 53.600 175.100 53.700 175.200 53.700 H 183.000 C 183.100 53.700 183.000 53.600 183.000 53.700 V 57.600 C 183.000 57.655 183.045 57.700 183.100 57.700 H 191.100 C 191.155 57.700 191.200 57.655 191.200 57.600 V 53.700 C 191.200 53.600 191.100 53.700 191.200 53.700 H 199.000 C 199.100 53.700 199.000 53.600 199.000 53.700 V 57.600 C 199.000 57.655 199.045 57.700 199.100 57.700 H 207.100 C 207.155 57.700 207.200 57.655 207.200 57.600 V 53.700 C 207.200 53.600 207.100 53.700 207.200 53.700 H 215.000 C 215.100 53.700 215.000 53.600 215.000 53.700 V 57.600 C 215.000 57.655 215.045 57.700 215.100 57.700 H 223.100 C 223.155 57.700 223.200 57.655 223.200 57.600 V 53.700 C 223.200 53.600 223.100 53.700 223.200 53.700 H 231.000 C 231.100 53.700 231.000 53.600 231.000 53.700 V 57.600 C 231.000 57.655 231.045 57.700 231.100 57.700 H 239.100 C 239.155 57.700 239.200 57.655 239.200 57.600 V 53.700 C 239.200 53.600 239.100 53.700 239.200 53.700 H 243.433 H 245.433 H 247.433 H 251.667 C 251.767 53.700 251.667 53.600 251.667 53.700 V 57.600 C 251.667 57.655 251.711 57.700 251.767 57.700 H 259.767 C 259.822 57.700 259.867 57.655 259.867 57.600 V 53.700 C 259.867 53.600 259.767 53.700 259.867 53.700 H 267.667 C 267.767 53.700 267.667 53.600 267.667 53.700 V 57.600 C 267.667 57.655 267.711 57.700 267.767 57.700 H 275.767 C 275.822 57.700 275.867 57.655 275.867 57.600 V 53.700 C 275.867 53.600 275.767 53.700 275.867 53.700 H 283.667 C 283.767 53.700 283.667 53.600 283.667 53.700 V 57.600 C 283.667 57.655 283.711 57.700 283.767 57.700 H 291.767 C 291.822 57.700 291.867 57.655 291.867 57.600 V 53.700 C 291.867 53.600 291.767 53.700 291.867 53.700 H 299.667 C 299.767 53.700 299.667 53.600 299.667 53.700 V 57.600 C 299.667 57.655 299.711 57.700 299.767 57.700 H 307.767 C 307.822 57.700 307.867 57.655 307.867 57.600 V 53.700 C 307.867 53.600 307.767 53.700 307.867 53.700 H 315.667 C 315.767 53.700 315.667 53.600 315.667 53.700 V 57.600 C 315.667 57.655 315.711 57.700 315.767 57.700 H 323.767 C 323.822 57.700 323.867 57.655 323.867 57.600 V 53.700 C 323.867 53.600 323.767 53.700 323.867 53.700 H 331.667 C 331.767 53.700 331.667 53.600 331.667 53.700 V 57.600 C 331.667 57.655 331.711 57.700 331.767 57.700 H 339.767 C 339.822 57.700 339.867 57.655 339.867 57.600 V 53.700 C 339.867 53.600 339.767 53.700 339.867 53.700 H 347.667 C 347.767 53.700 347.667 53.600 347.667 53.700 V 57.600 C 347.667 57.655 347.711 57.700 347.767 57.700 H 355.767 C 355.822 57.700 355.867 57.655 355.867 57.600 V 53.700 C 355.867 53.600 355.767 53.700 355.867 53.700 H 360.100 C 360.155 53.700 360.200 53.655 360.200 53.600 V 43.950 C 360.200 43.850 360.100 43.950 360.200 43.950 H 364.100 C 364.155 43.950 364.200 43.905 364.200 43.850 V 35.850 C 364.200 35.795 364.155 35.750 364.100 35.750 H 360.200 C 360.100 35.750 360.200 35.850 360.200 35.750 V 27.950 C 360.200 27.850 360.100 27.950 360.200 27.950 H 364.100 C 364.155 27.950 364.200 27.905 364.200 27.850 V 19.850 C 364.200 19.795 364.155 19.750 364.100 19.750 H 360.200 C 360.100 19.750 360.200 19.850 360.200 19.750 V 10.100 C 360.200 10.045 360.155 10.000 360.100 10.000 H 247.433 C 247.378 10.000 247.333 10.045 247.333 10.100 V 31.750 C 247.333 31.850 247.433 31.750 247.333 31.750 H 243.533 C 243.433 31.750 243.533 31.850 243.533 31.750 V 10.100 C 243.533 10.045 243.489 10.000 243.433 10.000 H 130.767 C 130.711 10.000 130.667 10.045 130.667 10.100 V 31.750 C 130.667 31.850 130.767 31.750 130.667 31.750 H 126.867 C 126.767 31.750 126.867 31.850 126.867 31.750 V 10.100 C 126.867 10.045 126.822 10.000 126.767 10.000 H 14.100 C 14.045 10.000 14.000 10.045 14.000 10.100 V 19.750 C 14.000 19.850 14.100 19.750 14.000 19.750 H 10.100 C 10.045 19.750 10.000 19.795 10.000 19.850 V 27.850 C 10.000 27.905 10.045 27.950 10.100 27.950 H 14.000 C 14.100 27.950 14.000 27.850 14.000 27.950 V 35.750 C 14.000 35.850 14.100 35.750 14.000 35.750 H 10.100 C 10.045 35.750 10.000 35.795 10.000 35.850 V 43.850 C 10.000 43.905 10.045 43.950 10.100 43.950 H 14.000 C 14.100 43.950 14.000 43.850 14.000 43.950 V 53.600 C 14.000 53.655 14.045 53.700 14.100 53.700 Z" stroke="rgb(0,0,0)" stroke-width="0.20" />
</g>
<g id="p-4" style="fill:none;stroke-linecap:round;stroke-linejoin:round;">
  <path d="M 493.700 396.450 V 400.350 C 493.700 400.450 493.800 400.350 493.700 400.350 H 489.900 C 489.800 400.350 489.900 400.450 489.900 400.350 V 392.550 C 489.900 392.450 489.800 392.550 489.900 392.550 H 493.700 C 493.800 392.550 493.700 392.450 493.700 392.550 V 396.450 Z" stroke="rgb(0,0,255)" stroke-width="0.20" />
  <path d="M 493.700 380.450 V 384.350 C 493.700 384.450 493.800 384.350 493.700 384.350 H 489.900 C 489.800 384.350 489.900 384.450 489.900 384.350 V 376.550 C 489.900 376.450 489.800 376.550 489.900 376.550 H 493.700 C 493.800 376.550 493.700 376.450 493.700 376.550 V 380.450 Z" stroke="rgb(0,0,255)" stroke-width="0.20" />
  <path d="M 379.800 414.100 H 375.900 C 375.800 414.100 375.900 414.200 375.900 414.100 V 410.300 C 375.900 410.200 375.800 410.300 375.900 410.300 H 383.700 C 383.800 410.300 383.700 410.200 383.700 410.300 V 414.100 C 383.700 414.200 383.800 414.100 383.700 414.100 H 379.800 Z" stroke="rgb(0,0,255)" stroke-width="0.20" />
  <path d="M 395.800 414.100 H 391.900 C 391.800 414.100 391.900 414.200 391.900 414.100 V 410.300 C 391.900 410.200 391.800 410.300 391.900 410.300 H 399.700 C 399.800 410.300 399.700 410.200 399.700 410.300 V 414.100 C 399.700 414.200 399.800 414.100 399.700 414.100 H 395.800 Z" stroke="rgb(0,0,255)" stroke-width="0.20" />
  <path d="M 411.800 414.100 H 407.900 C 407.800 414.100 407.900 414.200 407.900 414.100 V 410.300 C 407.900 410.200 407.800 410.300 407.900 410.300 H 415.700 C 415.800 410.300 415.700 410.200 415.700 410.300 V 414.100 C 415.700 414.200 415.800 414.100 415.700 414.100 H 411.800 Z" stroke="rgb(0,0,255)" stroke-width="0.20" />
  <path d="M 427.800 414.100 H 423.900 C 423.800 414.100 423.900 414.200 423.900 414.100 V 410.300 C 423.900 410.200 423.800 410.300 423.900 410.300 H 431.700 C 431.800 410.300 431.700 410.200 431.700 410.300 V 414.100 C 431.700 414.200 431.800 414.100 431.700 414.100 H 427.800 Z" stroke="rgb(0,0,255)" stroke-width="0.20" />
  <path d="M 443.800 414.100 H 439.900 C 439.800 414.100 439.900 414.200 439.900 414.100 V 410.300 C 439.900 410.200 439.800 410.300 439.900 410.300 H 447.700 C 447.800 410.300 447.700 410.200 447.700 410.300 V 414.100 C 447.700 414.200 447.800 414.100 447.700 414.100 H 443.800 Z" stroke="rgb(0,0,255)" stroke-width="0.20" />
  <path d="M 459.800 414.100 H 455.900 C 455.800 414.100 455.900 414.200 455.900 414.100 V 410.300 C 455.900 410.200 455.800 410.300 455.900 410.300 H 463.700 C 463.800 410.300 463.700 410.200 463.700 410.300 V 414.100 C 463.700 414.200 463.800 414.100 463.700 414.100 H 459.800 Z" stroke="rgb(0,0,255)" stroke-width="0.20" />
  <path d="M 475.800 414.100 H 471.900 C 471.800 414.100 471.900 414.200 471.900 414.100 V 410.300 C 471.900 410.200 471.800 410.300 471.900 410.300 H 479.700 C 479.800 410.300 479.700 410.200 479.700 410.300 V 414.100 C 479.700 414.200 479.800 414.100 479.700 414.100 H 475.800 Z" stroke="rgb(0,0,255)" stroke-width="0.20" />
  <path d="M 491.800 414.100 H 487.900 C 487.800 414.100 487.900 414.200 487.900 414.100 V 410.300 C 487.900 410.200 487.800 410.300 487.900 410.300 H 495.700 C 495.800 410.300 495.700 410.200 495.700 410.300 V 414.100 C 495.700 414.200 495.800 414.100 495.700 414.100 H 491.800 Z" stroke="rgb(0,0,255)" stroke-width="0.20" />
  <path d="M 507.800 414.100 H 503.900 C 503.800 414.100 503.900 414.200 503.900 414.100 V 410.300 C 503.900 410.200 503.800 410.300 503.900 410.300 H 511.700 C 511.800 410.300 511.700 410.200 511.700 410.300 V 414.100 C 511.700 414.200 511.800 414.100 511.700 414.100 H 507.800 Z" stroke="rgb(0,0,255)" stroke-width="0.20" />
  <path d="M 523.800 414.100 H 519.900 C 519.800 414.100 519.900 414.200 519.900 414.100 V 410.300 C 519.900 410.200 519.800 410.300 519.900 410.300 H 527.700 C 527.800 410.300 527.700 410.200 527.700 410.300 V 414.100 C 527.700 414.200 527.800 414.100 527.700 414.100 H 523.800 Z" stroke="rgb(0,0,255)" stroke-width="0.20" />
  <path d="M 539.800 414.100 H 535.900 C 535.800 414.100 535.900 414.200 535.900 414.100 V 410.300 C 535.900 410.200 535.800 410.300 535.900 410.300 H 543.700 C 543.800 410.300 543.700 410.200 543.700 410.300 V 414.100 C 543.700 414.200 543.800 414.100 543.700 414.100 H 539.800 Z" stroke="rgb(0,0,255)" stroke-width="0.20" />
  <path d="M 555.800 414.100 H 551.900 C 551.800 414.100 551.900 414.200 551.900 414.100 V 410.300 C 551.900 410.200 551.800 410.300 551.900 410.300 H 559.700 C 559.800 410.300 559.700 410.200 559.700 410.300 V 414.100 C 559.700 414.200 559.800 414.100 559.700 414.100 H 555.800 Z" stroke="rgb(0,0,255)" stroke-width="0.20" />
  <path d="M 571.800 414.100 H 567.900 C 567.800 414.100 567.900 414.200 567.900 414.100 V 410.300 C 567.900 410.200 567.800 410.300 567.900 410.300 H 575.700 C 575.800 410.300 575.700 410.200 575.700 410.300 V 414.100 C 575.700 414.200 575.800 414.100 575.700 414.100 H 571.800 Z" stroke="rgb(0,0,255)" stroke-width="0.20" />
  <path d="M 587.800 414.100 H 583.900 C 583.800 414.100 583.900 414.200 583.900 414.100 V 410.300 C 583.900 410.200 583.800 410.300 583.900 410.300 H 591.700 C 591.800 410.300 591.700 410.200 591.700 410.300 V 414.100 C 591.700 414.200 591.800 414.100 591.700 414.100 H 587.800 Z" stroke="rgb(0,0,255)" stroke-width="0.20" />
  <path d="M 603.800 414.100 H 599.900 C 599.800 414.100 599.900 414.200 599.900 414.100 V 410.300 C 599.900 410.200 599.800 410.300 599.900 410.300 H 607.700 C 607.800 410.300 607.700 410.200 607.700 410.300 V 414.100 C 607.700 414.200 607.800 414.100 607.700 414.100 H 603.800 Z" stroke="rgb(0,0,255)" stroke-width="0.20" />
  <path d="M 370.300 418.300 H 613.300 C 613.355 418.300 613.400 418.255 613.400 418.200 V 412.550 C 613.400 412.450 613.300 412.550 613.400 412.550 H 617.300 C 617.355 412.550 617.400 412.505 617.400 412.450 V 404.450 C 617.400 404.395 617.355 404.350 617.300 404.350 H 613.400 C 613.300 404.350 613.400 404.450 613.400 404.350 V 396.550 C 613.400 396.450 613.300 396.550 613.400 396.550 H 617.300 C 617.355 396.550 617.400 396.505 617.400 396.450 V 388.450 C 617.400 388.395 617.355 388.350 617.300 388.350 H 613.400 C 613.300 388.350 613.400 388.450 613.400 388.350 V 380.550 C 613.400 380.450 613.300 380.550 613.400 380.550 H 617.300 C 617.355 380.550 617.400 380.505 617.400 380.450 V 372.450 C 617.400 372.395 617.355 372.350 617.300 372.350 H 613.400 C 613.300 372.350 613.400 372.450 613.400 372.350 V 366.700 C 613.400 366.645 613.355 366.600 613.300 366.600 H 370.300 C 370.245 366.600 370.200 366.645 370.200 366.700 V 372.350 C 370.200 372.450 370.300 372.350 370.200 372.350 H 366.300 C 366.245 372.350 366.200 372.395 366.200 372.450 V 380.450 C 366.200 380.505 366.245 380.550 366.300 380.550 H 370.200 C 370.300 380.550 370.200 380.450 370.200 380.550 V 388.350 C 370.200 388.450 370.300 388.350 370.200 388.350 H 366.300 C 366.245 388.350 366.200 388.395 366.200 388.450 V 396.450 C 366.200 396.505 366.245 396.550 366.300 396.550 H 370.200 C 370.300 396.550 370.200 396.450 370.200 396.550 V 404.350 C 370.200 404.450 370.300 404.350 370.200 404.350 H 366.300 C 366.245 404.350 366.200 404.395 366.200 404.450 V 412.450 C 366.200 412.505 366.245 412.550 366.300 412.550 H 370.200 C 370.300 412.550 370.200 412.450 370.200 412.550 V 418.200 C 370.200 418.255 370.245 418.300 370.300 418.300 Z" stroke="rgb(0,0,0)" stroke-width="0.20" />
</g>
<g id="p-5" style="fill:none;stroke-linecap:round;stroke-linejoin:round;">
  <path d="M 489.900 342.750 V 346.650 C 489.900 346.750 489.800 346.650 489.900 346.650 H 493.700 C 493.800 346.650 493.700 346.750 493.700 346.650 V 338.850 C 493.700 338.750 493.800 338.850 493.700 338.850 H 489.900 C 489.800 338.850 489.900 338.750 489.900 338.850 V 342.750 Z" stroke="rgb(0,0,255)" stroke-width="0.20" />
  <path d="M 489.900 326.750 V 330.650 C 489.900 330.750 489.800 330.650 489.900 330.650 H 493.700 C 493.800 330.650 493.700 330.750 493.700 330.650 V 322.850 C 493.700 322.750 493.800 322.850 493.700 322.850 H 489.900 C 489.800 322.850 489.900 322.750 489.900 322.850 V 326.750 Z" stroke="rgb(0,0,255)" stroke-width="0.20" />
  <path d="M 379.800 360.400 H 375.900 C 375.800 360.400 375.900 360.500 375.900 360.400 V 356.600 C 375.900 356.500 375.800 356.600 375.900 356.600 H 383.700 C 383.800 356.600 383.700 356.500 383.700 356.600 V 360.400 C 383.700 360.500 383.800 360.400 383.700 360.400 H 379.800 Z" stroke="rgb(0,0,255)" stroke-width="0.20" />
  <path d="M 395.800 360.400 H 391.900 C 391.800 360.400 391.900 360.500 391.900 360.400 V 356.600 C 391.900 356.500 391.800 356.600 391.900 356.600 H 399.700 C 399.800 356.600 399.700 356.500 399.700 356.600 V 360.400 C 399.700 360.500 399.800 360.400 399.700 360.400 H 395.800 Z" stroke="rgb(0,0,255)" stroke-width="0.20" />
  <path d="M 411.800 360.400 H 407.900 C 407.800 360.400 407.900 360.500 407.900 360.400 V 356.600 C 407.900 356.500 407.800 356.600 407.900 356.600 H 415.700 C 415.800 356.600 415.700 356.500 415.700 356.600 V 360.400 C 415.700 360.500 415.800 360.400 415.700 360.400 H 411.800 Z" stroke="rgb(0,0,255)" stroke-width="0.20" />
  <path d="M 427.800 360.400 H 423.900 C 423.800 360.400 423.900 360.500 423.900 360.400 V 356.600 C 423.900 356.500 423.800 356.600 423.900 356.600 H 431.700 C 431.800 356.600 431.700 356.500 431.700 356.600 V 360.400 C 431.700 360.500 431.800 360.400 431.700 360.400 H 427.800 Z" stroke="rgb(0,0,255)" stroke-width="0.20" />
  <path d="M 443.800 360.400 H 439.900 C 439.800 360.400 439.900 360.500 439.900 360.400 V 356.600 C 439.900 356.500 439.800 356.600 439.900 356.600 H 447.700 C 447.800 356.600 447.700 356.500 447.700 356.600 V 360.400 C 447.700 360.500 447.800 360.400 447.700 360.400 H 443.800 Z" stroke="rgb(0,0,255)" stroke-width="0.20" />
  <path d="M 459.800 360.400 H 455.900 C 455.800 360.400 455.900 360.500 455.900 360.400 V 356.600 C 455.900 356.500 455.800 356.600 455.900 356.600 H 463.700 C 463.800 356.600 463.700 356.500 463.700 356.600 V 360.400 C 463.700 360.500 463.800 360.400 463.700 360.400 H 459.800 Z" stroke="rgb(0,0,255)" stroke-width="0.20" />
  <path d="M 475.800 360.400 H 471.900 C 471.800 360.400 471.900 360.500 471.900 360.400 V 356.600 C 471.900 356.500 471.800 356.600 471.900 356.600 H 479.700 C 479.800 356.600 479.700 356.500 479.700 356.600 V 360.400 C 479.700 360.500 479.800 360.400 479.700 360.400 H 475.800 Z" stroke="rgb(0,0,255)" stroke-width="0.20" />
  <path d="M 491.800 360.400 H 487.900 C 487.800 360.400 487.900 360.500 487.900 360.400 V 356.600 C 487.900 356.500 487.800 356.600 487.900 356.600 H 495.700 C 495.800 356.600 495.700 356.500 495.700 356.600 V 360.400 C 495.700 360.500 495.800 360.400 495.700 360.400 H 491.800 Z" stroke="rgb(0,0,255)" stroke-width="0.20" />
  <path d="M 507.800 360.400 H 503.900 C 503.800 360.400 503.900 360.500 503.900 360.400 V 356.600 C 503.900 356.500 503.800 356.600 503.900 356.600 H 511.700 C 511.800 356.600 511.700 356.500 511.700 356.600 V 360.400 C 511.700 360.500 511.800 360.400 511.700 360.400 H 507.800 Z" stroke="rgb(0,0,255)" stroke-width="0.20" />
  <path d="M 523.800 360.400 H 519.900 C 519.800 360.400 519.900 360.500 519.900 360.400 V 356.600 C 519.900 356.500 519.800 356.600 519.900 356.600 H 527.700 C 527.800 356.600 527.700 356.500 527.700 356.600 V 360.400 C 527.700 360.500 527.800 360.400 527.700 360.400 H 523.800 Z" stroke="rgb(0,0,255)" stroke-width="0.20" />
  <path d="M 539.800 360.400 H 535.900 C 535.800 360.400 535.900 360.500 535.900 360.400 V 356.600 C 535.900 356.500 535.800 356.600 535.900 356.600 H 543.700 C 543.800 356.600 543.700 356.500 543.700 356.600 V 360.400 C 543.700 360.500 543.800 360.400 543.700 360.400 H 539.800 Z" stroke="rgb(0,0,255)" stroke-width="0.20" />
  <path d="M 555.800 360.400 H 551.900 C 551.800 360.400 551.900 360.500 551.900 360.400 V 356.600 C 551.900 356.500 551.800 356.600 551.900 356.600 H 559.700 C 559.800 356.600 559.700 356.500 559.700 356.600 V 360.400 C 559.700 360.500 559.800 360.400 559.700 360.400 H 555.800 Z" stroke="rgb(0,0,255)" stroke-width="0.20" />
  <path d="M 571.800 360.400 H 567.900 C 567.800 360.400 567.900 360.500 567.900 360.400 V 356.600 C 567.900 356.500 567.800 356.600 567.900 356.600 H 575.700 C 575.800 356.600 575.700 356.500 575.700 356.600 V 360.400 C 575.700 360.500 575.800 360.400 575.700 360.400 H 571.800 Z" stroke="rgb(0,0,255)" stroke-width="0.20" />
  <path d="M 587.800 360.400 H 583.900 C 583.800 360.400 583.900 360.500 583.900 360.400 V 356.600 C 583.900 356.500 583.800 356.600 583.900 356.600 H 591.700 C 591.800 356.600 591.700 356.500 591.700 356.600 V 360.400 C 591.700 360.500 591.800 360.400 591.700 360.400 H 587.800 Z" stroke="rgb(0,0,255)" stroke-width="0.20" />
  <path d="M 603.800 360.400 H 599.900 C 599.800 360.400 599.900 360.500 599.900 360.400 V 356.600 C 599.900 356.500 599.800 356.600 599.900 356.600 H 607.700 C 607.800 356.600 607.700 356.500 607.700 356.600 V 360.400 C 607.700 360.500 607.800 360.400 607.700 360.400 H 603.800 Z" stroke="rgb(0,0,255)" stroke-width="0.20" />
  <path d="M 370.300 364.600 H 613.300 C 613.355 364.600 613.400 364.555 613.400 364.500 V 358.850 C 613.400 358.750 613.300 358.850 613.400 358.850 H 617.300 C 617.355 358.850 617.400 358.805 617.400 358.750 V 350.750 C 617.400 350.695 617.355 350.650 617.300 350.650 H 613.400 C 613.300 350.650 613.400 350.750 613.400 350.650 V 342.850 C 613.400 342.750 613.300 342.850 613.400 342.850 H 617.300 C 617.355 342.850 617.400 342.805 617.400 342.750 V 334.750 C 617.400 334.695 617.355 334.650 617.300 334.650 H 613.400 C 613.300 334.650 613.400 334.750 613.400 334.650 V 326.850 C 613.400 326.750 613.300 326.850 613.400 326.850 H 617.300 C 617.355 326.850 617.400 326.805 617.400 326.750 V 318.750 C 617.400 318.695 617.355 318.650 617.300 318.650 H 613.400 C 613.300 318.650 613.400 318.750 613.400 318.650 V 313.000 C 613.400 312.945 613.355 312.900 613.300 312.900 H 370.300 C 370.245 312.900 370.200 312.945 370.200 313.000 V 318.650 C 370.200 318.750 370.300 318.650 370.200 318.650 H 366.300 C 366.245 318.650 366.200 318.695 366.200 318.750 V 326.750 C 366.200 326.805 366.245 326.850 366.300 326.850 H 370.200 C 370.300 326.850 370.200 326.750 370.200 326.850 V 334.650 C 370.200 334.750 370.300 334.650 370.200 334.650 H 366.300 C 366.245 334.650 366.200 334.695 366.200 334.750 V 342.750 C 366.200 342.805 366.245 342.850 366.300 342.850 H 370.200 C 370.300 342.850 370.200 342.750 370.200 342.850 V 350.650 C 370.200 350.750 370.300 350.650 370.200 350.650 H 366.300 C 366.245 350.650 366.200 350.695 366.200 350.750 V 358.750 C 366.200 358.805 366.245 358.850 366.300 358.850 H 370.200 C 370.300 358.850 370.200 358.750 370.200 358.850 V 364.500 C 370.200 364.555 370.245 364.600 370.300 364.600 Z" stroke="rgb(0,0,0)" stroke-width="0.20" />
</g>
<g id="p-6" style="fill:none;stroke-linecap:round;stroke-linejoin:round;">
  <path d="M 370.300 306.900 H 377.950 C 378.050 306.900 377.950 306.800 377.950 306.900 V 310.800 C 377.950 310.855 377.995 310.900 378.050 310.900 H 386.050 C 386.105 310.900 386.150 310.855 386.150 310.800 V 306.900 C 386.150 306.800 386.050 306.900 386.150 306.900 H 393.950 C 394.050 306.900 393.950 306.800 393.950 306.900 V 310.800 C 393.950 310.855 393.995 310.900 394.050 310.900 H 402.050 C 402.105 310.900 402.150 310.855 402.150 310.800 V 306.900 C 402.150 306.800 402.050 306.900 402.150 306.900 H 409.950 C 410.050 306.900 409.950 306.800 409.950 306.900 V 310.800 C 409.950 310.855 409.995 310.900 410.050 310.900 H 418.050 C 418.105 310.900 418.150 310.855 418.150 310.800 V 306.900 C 418.150 306.800 418.050 306.900 418.150 306.900 H 425.950 C 426.050 306.900 425.950 306.800 425.950 306.900 V 310.800 C 425.950 310.855 425.995 310.900 426.050 310.900 H 434.050 C 434.105 310.900 434.150 310.855 434.150 310.800 V 306.900 C 434.150 306.800 434.050 306.900 434.150 306.900 H 441.950 C 442.050 306.900 441.950 306.800 441.950 306.900 V 310.800 C 441.950 310.855 441.995 310.900 442.050 310.900 H 450.050 C 450.105 310.900 450.150 310.855 450.150 310.800 V 306.900 C 450.150 306.800 450.050 306.900 450.150 306.900 H 457.950 C 458.050 306.900 457.950 306.800 457.950 306.900 V 310.800 C 457.950 310.855 457.995 310.900 458.050 310.900 H 466.050 C 466.105 310.900 466.150 310.855 466.150 310.800 V 306.900 C 466.150 306.800 466.050 306.900 466.150 306.900 H 473.950 C 474.050 306.900 473.950 306.800 473.950 306.900 V 310.800 C 473.950 310.855 473.995 310.900 474.050 310.900 H 482.050 C 482.105 310.900 482.150 310.855 482.150 310.800 V 306.900 C 482.150 306.800 482.050 306.900 482.150 306.900 H 489.800 C 489.855 306.900 489.900 306.855 489.900 306.800 V 285.150 C 489.900 285.050 489.800 285.150 489.900 285.150 H 493.700 C 493.800 285.150 493.700 285.050 493.700 285.150 V 306.800 C 493.700 306.855 493.745 306.900 493.800 306.900 H 501.450 C 501.550 306.900 501.450 306.800 501.450 306.900 V 310.800 C 501.450 310.855 501.495 310.900 501.550 310.900 H 509.550 C 509.605 310.900 509.650 310.855 509.650 310.800 V 306.900 C 509.650 306.800 509.550 306.900 509.650 306.900 H 517.450 C 517.550 306.900 517.450 306.800 517.450 306.900 V 310.800 C 517.450 310.855 517.495 310.900 517.550 310.900 H 525.550 C 525.605 310.900 525.650 310.855 525.650 310.800 V 306.900 C 525.650 306.800 525.550 306.900 525.650 306.900 H 533.450 C 533.550 306.900 533.450 306.800 533.450 306.900 V 310.800 C 533.450 310.855 533.495 310.900 533.550 310.900 H 541.550 C 541.605 310.900 541.650 310.855 541.650 310.800 V 306.900 C 541.650 306.800 541.550 306.900 541.650 306.900 H 549.450 C 549.550 306.900 549.450 306.800 549.450 306.900 V 310.800 C 549.450 310.855 549.495 310.900 549.550 310.900 H 557.550 C 557.605 310.900 557.650 310.855 557.650 310.800 V 306.900 C 557.650 306.800 557.550 306.900 557.650 306.900 H 565.450 C 565.550 306.900 565.450 306.800 565.450 306.900 V 310.800 C 565.450 310.855 565.495 310.900 565.550 310.900 H 573.550 C 573.605 310.900 573.650 310.855 573.650 310.800 V 306.900 C 573.650 306.800 573.550 306.900 573.650 306.900 H 581.450 C 581.550 306.900 581.450 306.800 581.450 306.900 V 310.800 C 581.450 310.855 581.495 310.900 581.550 310.900 H 589.550 C 589.605 310.900 589.650 310.855 589.650 310.800 V 306.900 C 589.650 306.800 589.550 306.900 589.650 306.900 H 597.450 C 597.550 306.900 597.450 306.800 597.450 306.900 V 310.800 C 597.450 310.855 597.495 310.900 597.550 310.900 H 605.550 C 605.605 310.900 605.650 310.855 605.650 310.800 V 306.900 C 605.650 306.800 605.550 306.900 605.650 306.900 H 613.300 C 613.355 306.900 613.400 306.855 613.400 306.800 V 297.150 C 613.400 297.050 613.300 297.150 613.400 297.150 H 617.300 C 617.355 297.150 617.400 297.105 617.400 297.050 V 289.050 C 617.400 288.995 617.355 288.950 617.300 288.950 H 613.400 C 613.300 288.950 613.400 289.050 613.400 288.950 V 281.150 C 613.400 281.050 613.300 281.150 613.400 281.150 H 617.300 C 617.355 281.150 617.400 281.105 617.400 281.050 V 273.050 C 617.400 272.995 617.355 272.950 617.300 272.950 H 613.400 C 613.300 272.950 613.400 273.050 613.400 272.950 V 263.300 C 613.400 263.245 613.355 263.200 613.300 263.200 H 370.300 C 370.245 263.200 370.200 263.245 370.200 263.300 V 272.950 C 370.200 273.050 370.300 272.950 370.200 272.950 H 366.300 C 366.245 272.950 366.200 272.995 366.200 273.050 V 281.050 C 366.200 281.105 366.245 281.150 366.300 281.150 H 370.200 C 370.300 281.150 370.200 281.050 370.200 281.150 V 288.950 C 370.200 289.050 370.300 288.950 370.200 288.950 H 366.300 C 366.245 288.950 366.200 288.995 366.200 289.050 V 297.050 C 366.200 297.105 366.245 297.150 366.300 297.150 H 370.200 C 370.300 297.150 370.200 297.050 370.200 297.150 V 306.800 C 370.200 306.855 370.245 306.900 370.300 306.900 Z" stroke="rgb(0,0,0)" stroke-width="0.20" />
</g>
<g id="p-7" style="fill:none;stroke-linecap:round;stroke-linejoin:round;">
  <path d="M 370.300 257.200 H 377.950 C 378.050 257.200 377.950 257.100 377.950 257.200 V 261.100 C 377.950 261.155 377.995 261.200 378.050 261.200 H 386.050 C 386.105 261.200 386.150 261.155 386.150 261.100 V 257.200 C 386.150 257.100 386.050 257.200 386.150 257.200 H 393.950 C 394.050 257.200 393.950 257.100 393.950 257.200 V 261.100 C 393.950 261.155 393.995 261.200 394.050 261.200 H 402.050 C 402.105 261.200 402.150 261.155 402.150 261.100 V 257.200 C 402.150 257.100 402.050 257.200 402.150 257.200 H 409.950 C 410.050 257.200 409.950 257.100 409.950 257.200 V 261.100 C 409.950 261.155 409.995 261.200 410.050 261.200 H 418.050 C 418.105 261.200 418.150 261.155 418.150 261.100 V 257.200 C 418.150 257.100 418.050 257.200 418.150 257.200 H 425.950 C 426.050 257.200 425.950 257.100 425.950 257.200 V 261.100 C 425.950 261.155 425.995 261.200 426.050 261.200 H 434.050 C 434.105 261.200 434.150 261.155 434.150 261.100 V 257.200 C 434.150 257.100 434.050 257.200 434.150 257.200 H 441.950 C 442.050 257.200 441.950 257.100 441.950 257.200 V 261.100 C 441.950 261.155 441.995 261.200 442.050 261.200 H 450.050 C 450.105 261.200 450.150 261.155 450.150 261.100 V 257.200 C 450.150 257.100 450.050 257.200 450.150 257.200 H 457.950 C 458.050 257.200 457.950 257.100 457.950 257.200 V 261.100 C 457.950 261.155 457.995 261.200 458.050 261.200 H 466.050 C 466.105 261.200 466.150 261.155 466.150 261.100 V 257.200 C 466.150 257.100 466.050 257.200 466.150 257.200 H 473.950 C 474.050 257.200 473.950 257.100 473.950 257.200 V 261.100 C 473.950 261.155 473.995 261.200 474.050 261.200 H 482.050 C 482.105 261.200 482.150 261.155 482.150 261.100 V 257.200 C 482.150 257.100 482.050 257.200 482.150 257.200 H 489.800 C 489.855 257.200 489.900 257.155 489.900 257.100 V 235.450 C 489.900 235.350 489.800 235.450 489.900 235.450 H 493.700 C 493.800 235.450 493.700 235.350 493.700 235.450 V 257.100 C 493.700 257.155 493.745 257.200 493.800 257.200 H 501.450 C 501.550 257.200 501.450 257.100 501.450 257.200 V 261.100 C 501.450 261.155 501.495 261.200 501.550 261.200 H 509.550 C 509.605 261.200 509.650 261.155 509.650 261.100 V 257.200 C 509.650 257.100 509.550 257.200 509.650 257.200 H 517.450 C 517.550 257.200 517.450 257.100 517.450 257.200 V 261.100 C 517.450 261.155 517.495 261.200 517.550 261.200 H 525.550 C 525.605 261.200 525.650 261.155 525.650 261.100 V 257.200 C 525.650 257.100 525.550 257.200 525.650 257.200 H 533.450 C 533.550 257.200 533.450 257.100 533.450 257.200 V 261.100 C 533.450 261.155 533.495 261.200 533.550 261.200 H 541.550 C 541.605 261.200 541.650 261.155 541.650 261.100 V 257.200 C 541.650 257.100 541.550 257.200 541.650 257.200 H 549.450 C 549.550 257.200 549.450 257.100 549.450 257.200 V 261.100 C 549.450 261.155 549.495 261.200 549.550 261.200 H 557.550 C 557.605 261.200 557.650 261.155 557.650 261.100 V 257.200 C 557.650 257.100 557.550 257.200 557.650 257.200 H 565.450 C 565.550 257.200 565.450 257.100 565.450 257.200 V 261.100 C 565.450 261.155 565.495 261.200 565.550 261.200 H 573.550 C 573.605 261.200 573.650 261.155 573.650 261.100 V 257.200 C 573.650 257.100 573.550 257.200 573.650 257.200 H 581.450 C 581.550 257.200 581.450 257.100 581.450 257.200 V 261.100 C 581.450 261.155 581.495 261.200 581.550 261.200 H 589.550 C 589.605 261.200 589.650 261.155 589.650 261.100 V 257.200 C 589.650 257.100 589.550 257.200 589.650 257.200 H 597.450 C 597.550 257.200 597.450 257.100 597.450 257.200 V 261.100 C 597.450 261.155 597.495 261.200 597.550 261.200 H 605.550 C 605.605 261.200 605.650 261.155 605.650 261.100 V 257.200 C 605.650 257.100 605.550 257.200 605.650 257.200 H 613.300 C 613.355 257.200 613.400 257.155 613.400 257.100 V 247.450 C 613.400 247.350 613.300 247.450 613.400 247.450 H 617.300 C 617.355 247.450 617.400 247.405 617.400 247.350 V 239.350 C 617.400 239.295 617.355 239.250 617.300 239.250 H 613.400 C 613.300 239.250 613.400 239.350 613.400 239.250 V 231.450 C 613.400 231.350 613.300 231.450 613.400 231.450 H 617.300 C 617.355 231.450 617.400 231.405 617.400 231.350 V 223.350 C 617.400 223.295 617.355 223.250 617.300 223.250 H 613.400 C 613.300 223.250 613.400 223.350 613.400 223.250 V 213.600 C 613.400 213.545 613.355 213.500 613.300 213.500 H 370.300 C 370.245 213.500 370.200 213.545 370.200 213.600 V 223.250 C 370.200 223.350 370.300 223.250 370.200 223.250 H 366.300 C 366.245 223.250 366.200 223.295 366.200 223.350 V 231.350 C 366.200 231.405 366.245 231.450 366.300 231.450 H 370.200 C 370.300 231.450 370.200 231.350 370.200 231.450 V 239.250 C 370.200 239.350 370.300 239.250 370.200 239.250 H 366.300 C 366.245 239.250 366.200 239.295 366.200 239.350 V 247.350 C 366.200 247.405 366.245 247.450 366.300 247.450 H 370.200 C 370.300 247.450 370.200 247.350 370.200 247.450 V 257.100 C 370.200 257.155 370.245 257.200 370.300 257.200 Z" stroke="rgb(0,0,0)" stroke-width="0.20" />
</g>
</svg>