<?xml version="1.0" encoding="UTF-8" standalone="no"?>
<svg
   height="125.30mm"
   viewBox="0.0 0.0 223.90 125.30"
   width="223.90mm"
   version="1.1"
   id="svg6810"
   sodipodi:docname="ClosedBoxRight.svg"
   inkscape:version="1.1.2 (b8e25be833, 2022-02-05)"
   xmlns:inkscape="http://www.inkscape.org/namespaces/inkscape"
   xmlns:sodipodi="http://sodipodi.sourceforge.net/DTD/sodipodi-0.dtd"
   xmlns="http://www.w3.org/2000/svg"
   xmlns:svg="http://www.w3.org/2000/svg"
   xmlns:rdf="http://www.w3.org/1999/02/22-rdf-syntax-ns#"
   xmlns:cc="http://creativecommons.org/ns#"
   xmlns:dc="http://purl.org/dc/elements/1.1/">
  <defs
     id="defs6814" />
  <sodipodi:namedview
     id="namedview6812"
     pagecolor="#ffffff"
     bordercolor="#666666"
     borderopacity="1.0"
     inkscape:pageshadow="2"
     inkscape:pageopacity="0.0"
     inkscape:pagecheckerboard="0"
     inkscape:document-units="mm"
     showgrid="false"
     inkscape:zoom="2.9589847"
     inkscape:cx="492.22965"
     inkscape:cy="290.80921"
     inkscape:window-width="1920"
     inkscape:window-height="1001"
     inkscape:window-x="-9"
     inkscape:window-y="-9"
     inkscape:window-maximized="1"
     inkscape:current-layer="p-2" />
  <!--
ClosedBox - Fully closed box


This box is more of a building block than a finished item.
Use a vector graphics program (like Inkscape) to add holes or adjust the base
plate.

See BasedBox for variant with a base.


Created with Boxes.py (https://festi.info/boxes.py)
Creation date: 2022-04-25 14:57:51
Command line (remove spaces between dashes): boxes ClosedBox - -FingerJoint_angle=90.0 - -FingerJoint_style=rectangular - -FingerJoint_surroundingspaces=2.0 - -FingerJoint_edge_width=1.0 - -FingerJoint_extra_length=0.0 - -FingerJoint_finger=2.0 - -FingerJoint_play=0.0 - -FingerJoint_space=2.0 - -FingerJoint_width=1.0 - -x=95 - -y=50 - -h=11 - -outside=0 - -thickness=3.0 - -format=svg - -tabs=0.0 - -debug=0 - -labels=0 - -labels=1 - -reference=100 - -inner_corners=loop - -burn=0.1
Url: http://www.festi.info/ClosedBox?FingerJoint_angle=90.0&FingerJoint_style=rectangular&FingerJoint_surroundingspaces=2.0&FingerJoint_edge_width=1.0&FingerJoint_extra_length=0.0&FingerJoint_finger=2.0&FingerJoint_play=0.0&FingerJoint_space=2.0&FingerJoint_width=1.0&x=95&y=50&h=11&outside=0&thickness=3.0&format=svg&tabs=0.0&debug=0&labels=0&labels=1&reference=100&inner_corners=loop&burn=0.1&render=1
SettingsUrl: http://www.festi.info/ClosedBox?FingerJoint_angle=90.0&FingerJoint_style=rectangular&FingerJoint_surroundingspaces=2.0&FingerJoint_edge_width=1.0&FingerJoint_extra_length=0.0&FingerJoint_finger=2.0&FingerJoint_play=0.0&FingerJoint_space=2.0&FingerJoint_width=1.0&x=95&y=50&h=11&outside=0&thickness=3.0&format=svg&tabs=0.0&debug=0&labels=0&labels=1&reference=100&inner_corners=loop&burn=0.1
-->
  <title
     id="title6771">ClosedBox</title>
  <metadata
     id="metadata6773">
    <rdf:RDF>
      <cc:Work>
        <dc:title>ClosedBox</dc:title>
        <dc:date>2022-04-25 14:57:51</dc:date>
        <dc:source>http://www.festi.info/ClosedBox?FingerJoint_angle=90.0&amp;FingerJoint_style=rectangular&amp;FingerJoint_surroundingspaces=2.0&amp;FingerJoint_edge_width=1.0&amp;FingerJoint_extra_length=0.0&amp;FingerJoint_finger=2.0&amp;FingerJoint_play=0.0&amp;FingerJoint_space=2.0&amp;FingerJoint_width=1.0&amp;x=95&amp;y=50&amp;h=11&amp;outside=0&amp;thickness=3.0&amp;format=svg&amp;tabs=0.0&amp;debug=0&amp;labels=0&amp;labels=1&amp;reference=100&amp;inner_corners=loop&amp;burn=0.1&amp;render=1</dc:source>
        <dc:description>Fully closed box

This box is more of a building block than a finished item.
Use a vector graphics program (like Inkscape) to add holes or adjust the base
plate.

See BasedBox for variant with a base.

Created with Boxes.py (https://festi.info/boxes.py)
Command line: boxes ClosedBox --FingerJoint_angle=90.0 --FingerJoint_style=rectangular --FingerJoint_surroundingspaces=2.0 --FingerJoint_edge_width=1.0 --FingerJoint_extra_length=0.0 --FingerJoint_finger=2.0 --FingerJoint_play=0.0 --FingerJoint_space=2.0 --FingerJoint_width=1.0 --x=95 --y=50 --h=11 --outside=0 --thickness=3.0 --format=svg --tabs=0.0 --debug=0 --labels=0 --labels=1 --reference=100 --inner_corners=loop --burn=0.1
Url: http://www.festi.info/ClosedBox?FingerJoint_angle=90.0&amp;FingerJoint_style=rectangular&amp;FingerJoint_surroundingspaces=2.0&amp;FingerJoint_edge_width=1.0&amp;FingerJoint_extra_length=0.0&amp;FingerJoint_finger=2.0&amp;FingerJoint_play=0.0&amp;FingerJoint_space=2.0&amp;FingerJoint_width=1.0&amp;x=95&amp;y=50&amp;h=11&amp;outside=0&amp;thickness=3.0&amp;format=svg&amp;tabs=0.0&amp;debug=0&amp;labels=0&amp;labels=1&amp;reference=100&amp;inner_corners=loop&amp;burn=0.1&amp;render=1
SettingsUrl: http://www.festi.info/ClosedBox?FingerJoint_angle=90.0&amp;FingerJoint_style=rectangular&amp;FingerJoint_surroundingspaces=2.0&amp;FingerJoint_edge_width=1.0&amp;FingerJoint_extra_length=0.0&amp;FingerJoint_finger=2.0&amp;FingerJoint_play=0.0&amp;FingerJoint_space=2.0&amp;FingerJoint_width=1.0&amp;x=95&amp;y=50&amp;h=11&amp;outside=0&amp;thickness=3.0&amp;format=svg&amp;tabs=0.0&amp;debug=0&amp;labels=0&amp;labels=1&amp;reference=100&amp;inner_corners=loop&amp;burn=0.1
</dc:description>
      </cc:Work>
    </rdf:RDF>
  </metadata>
  <g
     id="p-0"
     style="fill:none;stroke-linecap:round;stroke-linejoin:round;">
    <path
       d="M 10.100 115.300 H 110.100 V 105.300 H 10.100 V 115.300 Z"
       stroke="rgb(0,0,0)"
       stroke-width="0.20"
       id="path6775" />
    <text
       alignment-baseline="hanging"
       font-size="10px"
       style="font-family: sans-serif ; font-weight: normal; font-style: normal; fill: rgb(0,0,0)"
       text-anchor="middle"
       transform="matrix( 1.000 0.000 0.000 1.000 60.100 105.300 )"
       id="text6777">100mm</text>
  </g>
  <g
     id="p-1"
     style="fill:none;stroke-linecap:round;stroke-linejoin:round;">
    <text
       alignment-baseline="hanging"
       font-size="4px"
       style="font-family: sans-serif ; font-weight: normal; font-style: normal; fill: rgb(255,0,0)"
       text-anchor="middle"
       transform="matrix( 1.000 0.000 0.000 1.000 60.600 93.100 )"
       id="text6780">Wall 1</text>
    <path
       d="M 13.100 103.600 H 21.600 C 21.655 103.600 21.700 103.555 21.700 103.500 V 100.600 C 21.700 100.500 21.600 100.600 21.700 100.600 H 27.500 C 27.600 100.600 27.500 100.500 27.500 100.600 V 103.500 C 27.500 103.555 27.545 103.600 27.600 103.600 H 33.600 C 33.655 103.600 33.700 103.555 33.700 103.500 V 100.600 C 33.700 100.500 33.600 100.600 33.700 100.600 H 39.500 C 39.600 100.600 39.500 100.500 39.500 100.600 V 103.500 C 39.500 103.555 39.545 103.600 39.600 103.600 H 45.600 C 45.655 103.600 45.700 103.555 45.700 103.500 V 100.600 C 45.700 100.500 45.600 100.600 45.700 100.600 H 51.500 C 51.600 100.600 51.500 100.500 51.500 100.600 V 103.500 C 51.500 103.555 51.545 103.600 51.600 103.600 H 57.600 C 57.655 103.600 57.700 103.555 57.700 103.500 V 100.600 C 57.700 100.500 57.600 100.600 57.700 100.600 H 63.500 C 63.600 100.600 63.500 100.500 63.500 100.600 V 103.500 C 63.500 103.555 63.545 103.600 63.600 103.600 H 69.600 C 69.655 103.600 69.700 103.555 69.700 103.500 V 100.600 C 69.700 100.500 69.600 100.600 69.700 100.600 H 75.500 C 75.600 100.600 75.500 100.500 75.500 100.600 V 103.500 C 75.500 103.555 75.545 103.600 75.600 103.600 H 81.600 C 81.655 103.600 81.700 103.555 81.700 103.500 V 100.600 C 81.700 100.500 81.600 100.600 81.700 100.600 H 87.500 C 87.600 100.600 87.500 100.500 87.500 100.600 V 103.500 C 87.500 103.555 87.545 103.600 87.600 103.600 H 93.600 C 93.655 103.600 93.700 103.555 93.700 103.500 V 100.600 C 93.700 100.500 93.600 100.600 93.700 100.600 H 99.500 C 99.600 100.600 99.500 100.500 99.500 100.600 V 103.500 C 99.500 103.555 99.545 103.600 99.600 103.600 H 108.100 H 111.100 C 111.155 103.600 111.200 103.555 111.200 103.500 V 100.500 V 95.000 V 89.500 V 86.500 C 111.200 86.445 111.155 86.400 111.100 86.400 H 108.100 H 99.600 C 99.545 86.400 99.500 86.445 99.500 86.500 V 89.400 C 99.500 89.500 99.600 89.400 99.500 89.400 H 93.700 C 93.600 89.400 93.700 89.500 93.700 89.400 V 86.500 C 93.700 86.445 93.655 86.400 93.600 86.400 H 87.600 C 87.545 86.400 87.500 86.445 87.500 86.500 V 89.400 C 87.500 89.500 87.600 89.400 87.500 89.400 H 81.700 C 81.600 89.400 81.700 89.500 81.700 89.400 V 86.500 C 81.700 86.445 81.655 86.400 81.600 86.400 H 75.600 C 75.545 86.400 75.500 86.445 75.500 86.500 V 89.400 C 75.500 89.500 75.600 89.400 75.500 89.400 H 69.700 C 69.600 89.400 69.700 89.500 69.700 89.400 V 86.500 C 69.700 86.445 69.655 86.400 69.600 86.400 H 63.600 C 63.545 86.400 63.500 86.445 63.500 86.500 V 89.400 C 63.500 89.500 63.600 89.400 63.500 89.400 H 57.700 C 57.600 89.400 57.700 89.500 57.700 89.400 V 86.500 C 57.700 86.445 57.655 86.400 57.600 86.400 H 51.600 C 51.545 86.400 51.500 86.445 51.500 86.500 V 89.400 C 51.500 89.500 51.600 89.400 51.500 89.400 H 45.700 C 45.600 89.400 45.700 89.500 45.700 89.400 V 86.500 C 45.700 86.445 45.655 86.400 45.600 86.400 H 39.600 C 39.545 86.400 39.500 86.445 39.500 86.500 V 89.400 C 39.500 89.500 39.600 89.400 39.500 89.400 H 33.700 C 33.600 89.400 33.700 89.500 33.700 89.400 V 86.500 C 33.700 86.445 33.655 86.400 33.600 86.400 H 27.600 C 27.545 86.400 27.500 86.445 27.500 86.500 V 89.400 C 27.500 89.500 27.600 89.400 27.500 89.400 H 21.700 C 21.600 89.400 21.700 89.500 21.700 89.400 V 86.500 C 21.700 86.445 21.655 86.400 21.600 86.400 H 13.100 H 10.100 C 10.045 86.400 10.000 86.445 10.000 86.500 V 89.500 V 95.000 V 100.500 V 103.500 C 10.000 103.555 10.045 103.600 10.100 103.600 H 13.100"
       stroke="rgb(0,0,0)"
       stroke-width="0.20"
       id="path6782" />
  </g>
  <g
     id="p-2"
     style="fill:none;stroke-linecap:round;stroke-linejoin:round;">
    <text
       alignment-baseline="hanging"
       font-size="4px"
       style="font-family: sans-serif ; font-weight: normal; font-style: normal; fill: rgb(255,0,0)"
       text-anchor="middle"
       transform="matrix( 1.000 0.000 0.000 1.000 140.800 93.100 )"
       id="text6785">Wall 2</text>
    <path
       d="m 115.8,103.6 h 10 c 0.055,0 0.1,-0.045 0.1,-0.1 v -2.9 c 0,-0.1 -0.1,0 0,0 h 5.8 c 0.1,0 0,-0.1 0,0 v 2.9 c 0,0.055 0.045,0.1 0.1,0.1 h 6 c 0.055,0 0.1,-0.045 0.1,-0.1 v -2.9 c 0,-0.1 -0.1,0 0,0 h 5.8 c 0.1,0 0,-0.1 0,0 v 2.9 c 0,0.055 0.045,0.1 0.1,0.1 h 6 c 0.055,0 0.1,-0.045 0.1,-0.1 v -2.9 c 0,-0.1 -0.1,0 0,0 h 5.8 c 0.1,0 0,-0.1 0,0 v 2.9 c 0,0.055 0.045,0.1 0.1,0.1 h 10 c 0.055,0 0.1,-0.045 0.1,-0.1 v -3 -5.5 -5.5 -3 c 0,-0.055 -0.045,-0.1 -0.1,-0.1 h -10 c -0.055,0 -0.1,0.045 -0.1,0.1 v 2.9 c 0,0.1 0.1,0 0,0 h -5.8 c -0.1,0 0,0.1 0,0 v -2.9 c 0,-0.055 -0.045,-0.1 -0.1,-0.1 h -6 c -0.055,0 -0.1,0.045 -0.1,0.1 v 2.9 c 0,0.1 0.0381,7.559427 -0.0619,7.559453 l -5.77449,0.0015 c -0.1,2.7e-5 0.0233,-7.458169 0.0233,-7.558168 L 137.9,86.5 c 2.4e-4,-0.055 -0.045,-0.1 -0.1,-0.1 h -6 c -0.055,0 -0.1,0.045 -0.1,0.1 v 2.9 c 0,0.1 0.1,0 0,0 h -5.8 c -0.1,0 0,0.1 0,0 v -2.9 c 0,-0.055 -0.045,-0.1 -0.1,-0.1 h -10 c -0.055,0 -0.1,0.045 -0.1,0.1 v 3 5.5 5.5 3 c 0,0.055 0.045,0.1 0.1,0.1"
       stroke="#000000"
       stroke-width="0.2"
       id="path6787"
       sodipodi:nodetypes="csssssssssssssssssssssssssscccsssssssssssssssssssssssssssscccsc" />
    <circle
       style="fill:none;fill-rule:evenodd;stroke:#000000;stroke-width:0.264583;stroke-opacity:1"
       id="path165"
       cx="121.91998"
       cy="94.871361"
       r="5" />
    <circle
       style="fill:none;fill-rule:evenodd;stroke:#000000;stroke-width:0.264583;stroke-linecap:round;stroke-linejoin:round;stroke-opacity:1"
       id="path165-5"
       cx="159.51981"
       cy="95.050201"
       r="5" />
  </g>
  <g
     id="p-3"
     style="fill:none;stroke-linecap:round;stroke-linejoin:round;">
    <text
       alignment-baseline="hanging"
       font-size="4px"
       style="font-family: sans-serif ; font-weight: normal; font-style: normal; fill: rgb(255,0,0)"
       text-anchor="middle"
       transform="matrix( 1.000 0.000 0.000 1.000 140.800 74.400 )"
       id="text6790">Wall 4</text>
    <path
       d="M 115.800 84.900 H 125.800 C 125.855 84.900 125.900 84.855 125.900 84.800 V 81.900 C 125.900 81.800 125.800 81.900 125.900 81.900 H 131.700 C 131.800 81.900 131.700 81.800 131.700 81.900 V 84.800 C 131.700 84.855 131.745 84.900 131.800 84.900 H 137.800 C 137.855 84.900 137.900 84.855 137.900 84.800 V 81.900 C 137.900 81.800 137.800 81.900 137.900 81.900 H 143.700 C 143.800 81.900 143.700 81.800 143.700 81.900 V 84.800 C 143.700 84.855 143.745 84.900 143.800 84.900 H 149.800 C 149.855 84.900 149.900 84.855 149.900 84.800 V 81.900 C 149.900 81.800 149.800 81.900 149.900 81.900 H 155.700 C 155.800 81.900 155.700 81.800 155.700 81.900 V 84.800 C 155.700 84.855 155.745 84.900 155.800 84.900 H 165.800 C 165.855 84.900 165.900 84.855 165.900 84.800 V 81.800 V 76.300 V 70.800 V 67.800 C 165.900 67.745 165.855 67.700 165.800 67.700 H 155.800 C 155.745 67.700 155.700 67.745 155.700 67.800 V 70.700 C 155.700 70.800 155.800 70.700 155.700 70.700 H 149.900 C 149.800 70.700 149.900 70.800 149.900 70.700 V 67.800 C 149.900 67.745 149.855 67.700 149.800 67.700 H 143.800 C 143.745 67.700 143.700 67.745 143.700 67.800 V 70.700 C 143.700 70.800 143.800 70.700 143.700 70.700 H 137.900 C 137.800 70.700 137.900 70.800 137.900 70.700 V 67.800 C 137.900 67.745 137.855 67.700 137.800 67.700 H 131.800 C 131.745 67.700 131.700 67.745 131.700 67.800 V 70.700 C 131.700 70.800 131.800 70.700 131.700 70.700 H 125.900 C 125.800 70.700 125.900 70.800 125.900 70.700 V 67.800 C 125.900 67.745 125.855 67.700 125.800 67.700 H 115.800 C 115.745 67.700 115.700 67.745 115.700 67.800 V 70.800 V 76.300 V 81.800 V 84.800 C 115.700 84.855 115.745 84.900 115.800 84.900"
       stroke="rgb(0,0,0)"
       stroke-width="0.20"
       id="path6792" />
  </g>
  <g
     id="p-4"
     style="fill:none;stroke-linecap:round;stroke-linejoin:round;">
    <text
       alignment-baseline="hanging"
       font-size="4px"
       style="font-family: sans-serif ; font-weight: normal; font-style: normal; fill: rgb(255,0,0)"
       text-anchor="middle"
       transform="matrix( 1.000 0.000 0.000 1.000 60.600 74.400 )"
       id="text6795">Wall 3</text>
    <path
       d="M 13.100 84.900 H 21.600 C 21.655 84.900 21.700 84.855 21.700 84.800 V 81.900 C 21.700 81.800 21.600 81.900 21.700 81.900 H 27.500 C 27.600 81.900 27.500 81.800 27.500 81.900 V 84.800 C 27.500 84.855 27.545 84.900 27.600 84.900 H 33.600 C 33.655 84.900 33.700 84.855 33.700 84.800 V 81.900 C 33.700 81.800 33.600 81.900 33.700 81.900 H 39.500 C 39.600 81.900 39.500 81.800 39.500 81.900 V 84.800 C 39.500 84.855 39.545 84.900 39.600 84.900 H 45.600 C 45.655 84.900 45.700 84.855 45.700 84.800 V 81.900 C 45.700 81.800 45.600 81.900 45.700 81.900 H 51.500 C 51.600 81.900 51.500 81.800 51.500 81.900 V 84.800 C 51.500 84.855 51.545 84.900 51.600 84.900 H 57.600 C 57.655 84.900 57.700 84.855 57.700 84.800 V 81.900 C 57.700 81.800 57.600 81.900 57.700 81.900 H 63.500 C 63.600 81.900 63.500 81.800 63.500 81.900 V 84.800 C 63.500 84.855 63.545 84.900 63.600 84.900 H 69.600 C 69.655 84.900 69.700 84.855 69.700 84.800 V 81.900 C 69.700 81.800 69.600 81.900 69.700 81.900 H 75.500 C 75.600 81.900 75.500 81.800 75.500 81.900 V 84.800 C 75.500 84.855 75.545 84.900 75.600 84.900 H 81.600 C 81.655 84.900 81.700 84.855 81.700 84.800 V 81.900 C 81.700 81.800 81.600 81.900 81.700 81.900 H 87.500 C 87.600 81.900 87.500 81.800 87.500 81.900 V 84.800 C 87.500 84.855 87.545 84.900 87.600 84.900 H 93.600 C 93.655 84.900 93.700 84.855 93.700 84.800 V 81.900 C 93.700 81.800 93.600 81.900 93.700 81.900 H 99.500 C 99.600 81.900 99.500 81.800 99.500 81.900 V 84.800 C 99.500 84.855 99.545 84.900 99.600 84.900 H 108.100 H 111.100 C 111.155 84.900 111.200 84.855 111.200 84.800 V 81.800 V 76.300 V 70.800 V 67.800 C 111.200 67.745 111.155 67.700 111.100 67.700 H 108.100 H 99.600 C 99.545 67.700 99.500 67.745 99.500 67.800 V 70.700 C 99.500 70.800 99.600 70.700 99.500 70.700 H 93.700 C 93.600 70.700 93.700 70.800 93.700 70.700 V 67.800 C 93.700 67.745 93.655 67.700 93.600 67.700 H 87.600 C 87.545 67.700 87.500 67.745 87.500 67.800 V 70.700 C 87.500 70.800 87.600 70.700 87.500 70.700 H 81.700 C 81.600 70.700 81.700 70.800 81.700 70.700 V 67.800 C 81.700 67.745 81.655 67.700 81.600 67.700 H 75.600 C 75.545 67.700 75.500 67.745 75.500 67.800 V 70.700 C 75.500 70.800 75.600 70.700 75.500 70.700 H 69.700 C 69.600 70.700 69.700 70.800 69.700 70.700 V 67.800 C 69.700 67.745 69.655 67.700 69.600 67.700 H 63.600 C 63.545 67.700 63.500 67.745 63.500 67.800 V 70.700 C 63.500 70.800 63.600 70.700 63.500 70.700 H 57.700 C 57.600 70.700 57.700 70.800 57.700 70.700 V 67.800 C 57.700 67.745 57.655 67.700 57.600 67.700 H 51.600 C 51.545 67.700 51.500 67.745 51.500 67.800 V 70.700 C 51.500 70.800 51.600 70.700 51.500 70.700 H 45.700 C 45.600 70.700 45.700 70.800 45.700 70.700 V 67.800 C 45.700 67.745 45.655 67.700 45.600 67.700 H 39.600 C 39.545 67.700 39.500 67.745 39.500 67.800 V 70.700 C 39.500 70.800 39.600 70.700 39.500 70.700 H 33.700 C 33.600 70.700 33.700 70.800 33.700 70.700 V 67.800 C 33.700 67.745 33.655 67.700 33.600 67.700 H 27.600 C 27.545 67.700 27.500 67.745 27.500 67.800 V 70.700 C 27.500 70.800 27.600 70.700 27.500 70.700 H 21.700 C 21.600 70.700 21.700 70.800 21.700 70.700 V 67.800 C 21.700 67.745 21.655 67.700 21.600 67.700 H 13.100 H 10.100 C 10.045 67.700 10.000 67.745 10.000 67.800 V 70.800 V 76.300 V 81.800 V 84.800 C 10.000 84.855 10.045 84.900 10.100 84.900 H 13.100"
       stroke="rgb(0,0,0)"
       stroke-width="0.20"
       id="path6797" />
  </g>
  <g
     id="p-5"
     style="fill:none;stroke-linecap:round;stroke-linejoin:round;">
    <text
       alignment-baseline="hanging"
       font-size="4px"
       style="font-family: sans-serif ; font-weight: normal; font-style: normal; fill: rgb(255,0,0)"
       text-anchor="middle"
       transform="matrix( 1.000 0.000 0.000 1.000 60.600 36.200 )"
       id="text6800">Top</text>
    <path
       d="M 13.100 63.200 H 21.500 C 21.600 63.200 21.500 63.100 21.500 63.200 V 66.100 C 21.500 66.155 21.545 66.200 21.600 66.200 H 27.600 C 27.655 66.200 27.700 66.155 27.700 66.100 V 63.200 C 27.700 63.100 27.600 63.200 27.700 63.200 H 33.500 C 33.600 63.200 33.500 63.100 33.500 63.200 V 66.100 C 33.500 66.155 33.545 66.200 33.600 66.200 H 39.600 C 39.655 66.200 39.700 66.155 39.700 66.100 V 63.200 C 39.700 63.100 39.600 63.200 39.700 63.200 H 45.500 C 45.600 63.200 45.500 63.100 45.500 63.200 V 66.100 C 45.500 66.155 45.545 66.200 45.600 66.200 H 51.600 C 51.655 66.200 51.700 66.155 51.700 66.100 V 63.200 C 51.700 63.100 51.600 63.200 51.700 63.200 H 57.500 C 57.600 63.200 57.500 63.100 57.500 63.200 V 66.100 C 57.500 66.155 57.545 66.200 57.600 66.200 H 63.600 C 63.655 66.200 63.700 66.155 63.700 66.100 V 63.200 C 63.700 63.100 63.600 63.200 63.700 63.200 H 69.500 C 69.600 63.200 69.500 63.100 69.500 63.200 V 66.100 C 69.500 66.155 69.545 66.200 69.600 66.200 H 75.600 C 75.655 66.200 75.700 66.155 75.700 66.100 V 63.200 C 75.700 63.100 75.600 63.200 75.700 63.200 H 81.500 C 81.600 63.200 81.500 63.100 81.500 63.200 V 66.100 C 81.500 66.155 81.545 66.200 81.600 66.200 H 87.600 C 87.655 66.200 87.700 66.155 87.700 66.100 V 63.200 C 87.700 63.100 87.600 63.200 87.700 63.200 H 93.500 C 93.600 63.200 93.500 63.100 93.500 63.200 V 66.100 C 93.500 66.155 93.545 66.200 93.600 66.200 H 99.600 C 99.655 66.200 99.700 66.155 99.700 66.100 V 63.200 C 99.700 63.100 99.600 63.200 99.700 63.200 H 108.100 C 108.155 63.200 108.200 63.155 108.200 63.100 V 53.200 C 108.200 53.100 108.100 53.200 108.200 53.200 H 111.100 C 111.155 53.200 111.200 53.155 111.200 53.100 V 47.100 C 111.200 47.045 111.155 47.000 111.100 47.000 H 108.200 C 108.100 47.000 108.200 47.100 108.200 47.000 V 41.200 C 108.200 41.100 108.100 41.200 108.200 41.200 H 111.100 C 111.155 41.200 111.200 41.155 111.200 41.100 V 35.100 C 111.200 35.045 111.155 35.000 111.100 35.000 H 108.200 C 108.100 35.000 108.200 35.100 108.200 35.000 V 29.200 C 108.200 29.100 108.100 29.200 108.200 29.200 H 111.100 C 111.155 29.200 111.200 29.155 111.200 29.100 V 23.100 C 111.200 23.045 111.155 23.000 111.100 23.000 H 108.200 C 108.100 23.000 108.200 23.100 108.200 23.000 V 13.100 C 108.200 13.045 108.155 13.000 108.100 13.000 H 99.700 C 99.600 13.000 99.700 13.100 99.700 13.000 V 10.100 C 99.700 10.045 99.655 10.000 99.600 10.000 H 93.600 C 93.545 10.000 93.500 10.045 93.500 10.100 V 13.000 C 93.500 13.100 93.600 13.000 93.500 13.000 H 87.700 C 87.600 13.000 87.700 13.100 87.700 13.000 V 10.100 C 87.700 10.045 87.655 10.000 87.600 10.000 H 81.600 C 81.545 10.000 81.500 10.045 81.500 10.100 V 13.000 C 81.500 13.100 81.600 13.000 81.500 13.000 H 75.700 C 75.600 13.000 75.700 13.100 75.700 13.000 V 10.100 C 75.700 10.045 75.655 10.000 75.600 10.000 H 69.600 C 69.545 10.000 69.500 10.045 69.500 10.100 V 13.000 C 69.500 13.100 69.600 13.000 69.500 13.000 H 63.700 C 63.600 13.000 63.700 13.100 63.700 13.000 V 10.100 C 63.700 10.045 63.655 10.000 63.600 10.000 H 57.600 C 57.545 10.000 57.500 10.045 57.500 10.100 V 13.000 C 57.500 13.100 57.600 13.000 57.500 13.000 H 51.700 C 51.600 13.000 51.700 13.100 51.700 13.000 V 10.100 C 51.700 10.045 51.655 10.000 51.600 10.000 H 45.600 C 45.545 10.000 45.500 10.045 45.500 10.100 V 13.000 C 45.500 13.100 45.600 13.000 45.500 13.000 H 39.700 C 39.600 13.000 39.700 13.100 39.700 13.000 V 10.100 C 39.700 10.045 39.655 10.000 39.600 10.000 H 33.600 C 33.545 10.000 33.500 10.045 33.500 10.100 V 13.000 C 33.500 13.100 33.600 13.000 33.500 13.000 H 27.700 C 27.600 13.000 27.700 13.100 27.700 13.000 V 10.100 C 27.700 10.045 27.655 10.000 27.600 10.000 H 21.600 C 21.545 10.000 21.500 10.045 21.500 10.100 V 13.000 C 21.500 13.100 21.600 13.000 21.500 13.000 H 13.100 C 13.045 13.000 13.000 13.045 13.000 13.100 V 23.000 C 13.000 23.100 13.100 23.000 13.000 23.000 H 10.100 C 10.045 23.000 10.000 23.045 10.000 23.100 V 29.100 C 10.000 29.155 10.045 29.200 10.100 29.200 H 13.000 C 13.100 29.200 13.000 29.100 13.000 29.200 V 35.000 C 13.000 35.100 13.100 35.000 13.000 35.000 H 10.100 C 10.045 35.000 10.000 35.045 10.000 35.100 V 41.100 C 10.000 41.155 10.045 41.200 10.100 41.200 H 13.000 C 13.100 41.200 13.000 41.100 13.000 41.200 V 47.000 C 13.000 47.100 13.100 47.000 13.000 47.000 H 10.100 C 10.045 47.000 10.000 47.045 10.000 47.100 V 53.100 C 10.000 53.155 10.045 53.200 10.100 53.200 H 13.000 C 13.100 53.200 13.000 53.100 13.000 53.200 V 63.100 C 13.000 63.155 13.045 63.200 13.100 63.200"
       stroke="rgb(0,0,0)"
       stroke-width="0.20"
       id="path6802" />
  </g>
  <g
     id="p-6"
     style="fill:none;stroke-linecap:round;stroke-linejoin:round;">
    <text
       alignment-baseline="hanging"
       font-size="4px"
       style="font-family: sans-serif ; font-weight: normal; font-style: normal; fill: rgb(255,0,0)"
       text-anchor="middle"
       transform="matrix( 1.000 0.000 0.000 1.000 163.300 36.200 )"
       id="text6805">Bottom</text>
    <path
       d="M 115.800 63.200 H 124.200 C 124.300 63.200 124.200 63.100 124.200 63.200 V 66.100 C 124.200 66.155 124.245 66.200 124.300 66.200 H 130.300 C 130.355 66.200 130.400 66.155 130.400 66.100 V 63.200 C 130.400 63.100 130.300 63.200 130.400 63.200 H 136.200 C 136.300 63.200 136.200 63.100 136.200 63.200 V 66.100 C 136.200 66.155 136.245 66.200 136.300 66.200 H 142.300 C 142.355 66.200 142.400 66.155 142.400 66.100 V 63.200 C 142.400 63.100 142.300 63.200 142.400 63.200 H 148.200 C 148.300 63.200 148.200 63.100 148.200 63.200 V 66.100 C 148.200 66.155 148.245 66.200 148.300 66.200 H 154.300 C 154.355 66.200 154.400 66.155 154.400 66.100 V 63.200 C 154.400 63.100 154.300 63.200 154.400 63.200 H 160.200 C 160.300 63.200 160.200 63.100 160.200 63.200 V 66.100 C 160.200 66.155 160.245 66.200 160.300 66.200 H 166.300 C 166.355 66.200 166.400 66.155 166.400 66.100 V 63.200 C 166.400 63.100 166.300 63.200 166.400 63.200 H 172.200 C 172.300 63.200 172.200 63.100 172.200 63.200 V 66.100 C 172.200 66.155 172.245 66.200 172.300 66.200 H 178.300 C 178.355 66.200 178.400 66.155 178.400 66.100 V 63.200 C 178.400 63.100 178.300 63.200 178.400 63.200 H 184.200 C 184.300 63.200 184.200 63.100 184.200 63.200 V 66.100 C 184.200 66.155 184.245 66.200 184.300 66.200 H 190.300 C 190.355 66.200 190.400 66.155 190.400 66.100 V 63.200 C 190.400 63.100 190.300 63.200 190.400 63.200 H 196.200 C 196.300 63.200 196.200 63.100 196.200 63.200 V 66.100 C 196.200 66.155 196.245 66.200 196.300 66.200 H 202.300 C 202.355 66.200 202.400 66.155 202.400 66.100 V 63.200 C 202.400 63.100 202.300 63.200 202.400 63.200 H 210.800 C 210.855 63.200 210.900 63.155 210.900 63.100 V 53.200 C 210.900 53.100 210.800 53.200 210.900 53.200 H 213.800 C 213.855 53.200 213.900 53.155 213.900 53.100 V 47.100 C 213.900 47.045 213.855 47.000 213.800 47.000 H 210.900 C 210.800 47.000 210.900 47.100 210.900 47.000 V 41.200 C 210.900 41.100 210.800 41.200 210.900 41.200 H 213.800 C 213.855 41.200 213.900 41.155 213.900 41.100 V 35.100 C 213.900 35.045 213.855 35.000 213.800 35.000 H 210.900 C 210.800 35.000 210.900 35.100 210.900 35.000 V 29.200 C 210.900 29.100 210.800 29.200 210.900 29.200 H 213.800 C 213.855 29.200 213.900 29.155 213.900 29.100 V 23.100 C 213.900 23.045 213.855 23.000 213.800 23.000 H 210.900 C 210.800 23.000 210.900 23.100 210.900 23.000 V 13.100 C 210.900 13.045 210.855 13.000 210.800 13.000 H 202.400 C 202.300 13.000 202.400 13.100 202.400 13.000 V 10.100 C 202.400 10.045 202.355 10.000 202.300 10.000 H 196.300 C 196.245 10.000 196.200 10.045 196.200 10.100 V 13.000 C 196.200 13.100 196.300 13.000 196.200 13.000 H 190.400 C 190.300 13.000 190.400 13.100 190.400 13.000 V 10.100 C 190.400 10.045 190.355 10.000 190.300 10.000 H 184.300 C 184.245 10.000 184.200 10.045 184.200 10.100 V 13.000 C 184.200 13.100 184.300 13.000 184.200 13.000 H 178.400 C 178.300 13.000 178.400 13.100 178.400 13.000 V 10.100 C 178.400 10.045 178.355 10.000 178.300 10.000 H 172.300 C 172.245 10.000 172.200 10.045 172.200 10.100 V 13.000 C 172.200 13.100 172.300 13.000 172.200 13.000 H 166.400 C 166.300 13.000 166.400 13.100 166.400 13.000 V 10.100 C 166.400 10.045 166.355 10.000 166.300 10.000 H 160.300 C 160.245 10.000 160.200 10.045 160.200 10.100 V 13.000 C 160.200 13.100 160.300 13.000 160.200 13.000 H 154.400 C 154.300 13.000 154.400 13.100 154.400 13.000 V 10.100 C 154.400 10.045 154.355 10.000 154.300 10.000 H 148.300 C 148.245 10.000 148.200 10.045 148.200 10.100 V 13.000 C 148.200 13.100 148.300 13.000 148.200 13.000 H 142.400 C 142.300 13.000 142.400 13.100 142.400 13.000 V 10.100 C 142.400 10.045 142.355 10.000 142.300 10.000 H 136.300 C 136.245 10.000 136.200 10.045 136.200 10.100 V 13.000 C 136.200 13.100 136.300 13.000 136.200 13.000 H 130.400 C 130.300 13.000 130.400 13.100 130.400 13.000 V 10.100 C 130.400 10.045 130.355 10.000 130.300 10.000 H 124.300 C 124.245 10.000 124.200 10.045 124.200 10.100 V 13.000 C 124.200 13.100 124.300 13.000 124.200 13.000 H 115.800 C 115.745 13.000 115.700 13.045 115.700 13.100 V 23.000 C 115.700 23.100 115.800 23.000 115.700 23.000 H 112.800 C 112.745 23.000 112.700 23.045 112.700 23.100 V 29.100 C 112.700 29.155 112.745 29.200 112.800 29.200 H 115.700 C 115.800 29.200 115.700 29.100 115.700 29.200 V 35.000 C 115.700 35.100 115.800 35.000 115.700 35.000 H 112.800 C 112.745 35.000 112.700 35.045 112.700 35.100 V 41.100 C 112.700 41.155 112.745 41.200 112.800 41.200 H 115.700 C 115.800 41.200 115.700 41.100 115.700 41.200 V 47.000 C 115.700 47.100 115.800 47.000 115.700 47.000 H 112.800 C 112.745 47.000 112.700 47.045 112.700 47.100 V 53.100 C 112.700 53.155 112.745 53.200 112.800 53.200 H 115.700 C 115.800 53.200 115.700 53.100 115.700 53.200 V 63.100 C 115.700 63.155 115.745 63.200 115.800 63.200"
       stroke="rgb(0,0,0)"
       stroke-width="0.20"
       id="path6807" />
  </g>
  <rect
     style="fill:none;stroke:#000000;stroke-width:0.2"
     id="rect6937"
     width="15"
     height="8"
     x="133.47287"
     y="72.332047"
     rx="2.7755586e-17" />
</svg>
